<svg version="1.0" xmlns="http://www.w3.org/2000/svg"
 width="20" height="20" viewBox="0 0 20 20">
<g transform="translate(0.000000,20.000000) scale(0.007905,-0.006231)"
fill="#000000" stroke="none">
<path d="M310 1650 l0 -1280 1020 0 1020 0 0 948 0 947 -333 333 -332 332
-688 0 -687 0 0 -1280z m1232 807 l3 -269 33 -29 32 -29 270 0 270 0 0 -780 0
-780 -820 0 -820 0 0 1080 0 1080 515 -2 515 -3 2 -268z m338 -2 l125 -125
-133 0 -132 0 0 125 c0 69 3 125 8 125 4 0 63 -56 132 -125z"/>
<path d="M760 2420 l0 -70 338 2 337 3 0 65 0 65 -337 3 -338 2 0 -70z"/>
<path d="M760 2130 l0 -70 338 2 337 3 0 65 0 65 -337 3 -338 2 0 -70z"/>
<path d="M1664 1897 c-3 -8 -4 -39 -2 -68 3 -53 3 -54 37 -57 l34 -4 -139
-139 -139 -139 -112 112 -113 113 -247 -248 -248 -247 48 -47 47 -48 200 200
200 200 113 -113 112 -112 185 185 185 185 5 -32 5 -33 65 0 65 0 0 150 0 150
-148 3 c-119 2 -148 0 -153 -11z"/>
<path d="M760 880 l0 -70 570 0 570 0 0 70 0 70 -570 0 -570 0 0 -70z"/>
</g>
</svg>
