<svg width="16" height="16" viewBox="0 0 16 16" fill="none" xmlns="http://www.w3.org/2000/svg">
<path fill-rule="evenodd" clip-rule="evenodd" d="M2.08403 1.08013C2.05742 1.10759 2 1.19227 2 1.42857V13.8803L2 13.8803C2.00011 13.8812 2.00101 13.8887 2.00713 13.9022C2.01485 13.9193 2.02808 13.9395 2.04653 13.9586C2.06505 13.9777 2.08336 13.9899 2.0966 13.9963C2.10078 13.9983 2.10376 13.9994 2.10553 14H5.5C5.77614 14 6 14.2239 6 14.5C6 14.7761 5.77614 15 5.5 15H2.1C1.78178 15 1.50948 14.8413 1.32847 14.6545C1.1465 14.4668 1 14.1929 1 13.881V1.42857C1 1.04582 1.09258 0.666217 1.36597 0.384156C1.64216 0.0991918 2.01889 0 2.4 0H13.5C13.8811 0 14.2578 0.0991918 14.534 0.384156C14.8074 0.666217 14.9 1.04582 14.9 1.42857V2.35714C14.9 2.63329 14.6761 2.85714 14.4 2.85714H13.1V3.5C13.1 3.77614 12.8761 4 12.6 4C12.3239 4 12.1 3.77614 12.1 3.5V1.42857C12.1 1.28355 12.1133 1.13898 12.1447 1H2.4C2.18111 1 2.10784 1.05557 2.08403 1.08013ZM13.5 1C13.2811 1 13.2078 1.05557 13.184 1.08013C13.1574 1.10759 13.1 1.19227 13.1 1.42857V1.85714H13.9V1.42857C13.9 1.19227 13.8426 1.10759 13.816 1.08013C13.7922 1.05557 13.7189 1 13.5 1ZM3 2.5C3 2.22386 3.22386 2 3.5 2H10.5C10.7761 2 11 2.22386 11 2.5C11 2.77614 10.7761 3 10.5 3H3.5C3.22386 3 3 2.77614 3 2.5ZM3.5 4C3.22386 4 3 4.22386 3 4.5C3 4.77614 3.22386 5 3.5 5H5.5C5.77614 5 6 4.77614 6 4.5C6 4.22386 5.77614 4 5.5 4H3.5ZM3 6.5C3 6.22386 3.22386 6 3.5 6H5.5C5.77614 6 6 6.22386 6 6.5C6 6.77614 5.77614 7 5.5 7H3.5C3.22386 7 3 6.77614 3 6.5ZM7.5 5C7.22386 5 7 5.22386 7 5.5V15.5C7 15.7761 7.22386 16 7.5 16H15.5C15.7761 16 16 15.7761 16 15.5V5.5C16 5.22386 15.7761 5 15.5 5H7.5ZM8 15V6H15V15H8ZM9 7.5C9 7.22386 9.22386 7 9.5 7H13.5C13.7761 7 14 7.22386 14 7.5V9.5C14 9.77614 13.7761 10 13.5 10H9.5C9.22386 10 9 9.77614 9 9.5V7.5ZM10 8V9H13V8H10ZM9.5 12C9.77614 12 10 11.7761 10 11.5C10 11.2239 9.77614 11 9.5 11C9.22386 11 9 11.2239 9 11.5C9 11.7761 9.22386 12 9.5 12ZM12 11.5C12 11.7761 11.7761 12 11.5 12C11.2239 12 11 11.7761 11 11.5C11 11.2239 11.2239 11 11.5 11C11.7761 11 12 11.2239 12 11.5ZM13.5 12C13.7761 12 14 11.7761 14 11.5C14 11.2239 13.7761 11 13.5 11C13.2239 11 13 11.2239 13 11.5C13 11.7761 13.2239 12 13.5 12ZM10 13.5C10 13.7761 9.77614 14 9.5 14C9.22386 14 9 13.7761 9 13.5C9 13.2239 9.22386 13 9.5 13C9.77614 13 10 13.2239 10 13.5ZM11.5 14C11.7761 14 12 13.7761 12 13.5C12 13.2239 11.7761 13 11.5 13C11.2239 13 11 13.2239 11 13.5C11 13.7761 11.2239 14 11.5 14ZM14 13.5C14 13.7761 13.7761 14 13.5 14C13.2239 14 13 13.7761 13 13.5C13 13.2239 13.2239 13 13.5 13C13.7761 13 14 13.2239 14 13.5ZM4.5 11.7929L3.85355 11.1464C3.65829 10.9512 3.34171 10.9512 3.14645 11.1464C2.95118 11.3417 2.95118 11.6583 3.14645 11.8536L4.14645 12.8536C4.34171 13.0488 4.65829 13.0488 4.85355 12.8536L5.85355 11.8536C6.04882 11.6583 6.04882 11.3417 5.85355 11.1464C5.65829 10.9512 5.34171 10.9512 5.14645 11.1464L4.5 11.7929Z" fill="black"/>
</svg>
