<svg width="20" height="20" viewBox="0 0 20 20" fill="none" xmlns="http://www.w3.org/2000/svg">
<path d="M0 0H20V20H0V0Z" fill="none"/>
<path fill-rule="evenodd" clip-rule="evenodd" d="M2 2.5C2 2.4126 2.04871 2.28339 2.16602 2.16608C2.28333 2.04871 2.4126 2 2.5 2H10.5C10.5874 2 10.7167 2.04871 10.834 2.16608C10.9513 2.28339 11 2.4126 11 2.5V6H6.5C6.0874 6 5.71667 6.20129 5.45898 6.45892C5.39343 6.52454 5.33142 6.59747 5.27551 6.67657C5.26233 6.69531 5.24939 6.71442 5.23694 6.73383C5.22241 6.75635 5.20837 6.7793 5.19482 6.80267C5.17151 6.84314 5.1499 6.88483 5.13 6.92761C5.11902 6.95142 5.10852 6.97552 5.09875 7H4C3.88647 7 3.77637 7.03864 3.68762 7.10956L2 8.45972V7.99976V2.5ZM5 8H4.17542L1.81238 9.89044C1.66223 10.0105 1.45667 10.0339 1.28345 9.95062C1.11023 9.86737 1 9.6922 1 9.5V7.99994V2.5C1 2.0874 1.20129 1.71661 1.45898 1.45892C1.71667 1.20129 2.0874 1 2.5 1H10.5C10.9126 1 11.2833 1.20129 11.541 1.45892C11.7987 1.71661 12 2.0874 12 2.5V6H14.5C14.9126 6 15.2833 6.20129 15.541 6.45892C15.7987 6.71661 16 7.0874 16 7.5V11H18.5C18.9126 11 19.2833 11.2013 19.541 11.4589C19.7987 11.7166 20 12.0874 20 12.5V16.5C20 16.9126 19.7987 17.2834 19.541 17.5411C19.2833 17.7987 18.9126 18 18.5 18H12.1754L9.81238 19.8904C9.66223 20.0105 9.45667 20.0339 9.28345 19.9506C9.11023 19.8674 9 19.6922 9 19.5V17.9999V13H8.17542L5.81238 14.8904C5.66223 15.0105 5.45667 15.0339 5.28345 14.9507C5.11023 14.8674 5 14.6922 5 14.5V8ZM10 12.5V17.9998V18.4597L11.6876 17.1096C11.7764 17.0386 11.8865 17 12 17H18.5C18.5874 17 18.7167 16.9513 18.834 16.8339C18.8473 16.8206 18.8597 16.8071 18.8713 16.7936L18.884 16.7782L18.8982 16.76C18.9065 16.749 18.9142 16.7379 18.9214 16.7269C18.9365 16.7038 18.9492 16.6808 18.9598 16.6583C18.9714 16.6337 18.9803 16.6098 18.9868 16.587C18.9894 16.5781 18.9916 16.5693 18.9934 16.5607C18.9961 16.5477 18.9979 16.5351 18.9989 16.5232C18.9996 16.5152 19 16.5074 19 16.5V12.5C19 12.4126 18.9513 12.2834 18.834 12.1661C18.7167 12.0487 18.5874 12 18.5 12H15.5H10.5C10.4756 12 10.4479 12.0038 10.418 12.0119C10.3955 12.018 10.3718 12.0265 10.3475 12.0375L10.3265 12.0477L10.3051 12.0592C10.2943 12.0653 10.2834 12.072 10.2725 12.0791C10.2596 12.0875 10.2468 12.0966 10.234 12.1064C10.2111 12.1239 10.1884 12.1437 10.166 12.1661C10.0487 12.2834 10 12.4126 10 12.5ZM4 4.5C4 4.77612 3.77612 5 3.5 5C3.22388 5 3 4.77612 3 4.5C3 4.22388 3.22388 4 3.5 4C3.77612 4 4 4.22388 4 4.5ZM11.5 15C11.7761 15 12 14.7761 12 14.5C12 14.2239 11.7761 14 11.5 14C11.2239 14 11 14.2239 11 14.5C11 14.7761 11.2239 15 11.5 15ZM7 4.5C7 4.77612 6.77612 5 6.5 5C6.22388 5 6 4.77612 6 4.5C6 4.22388 6.22388 4 6.5 4C6.77612 4 7 4.22388 7 4.5ZM14.5 15C14.7761 15 15 14.7761 15 14.5C15 14.2239 14.7761 14 14.5 14C14.2239 14 14 14.2239 14 14.5C14 14.7761 14.2239 15 14.5 15ZM10 4.5C10 4.77612 9.77612 5 9.5 5C9.22388 5 9 4.77612 9 4.5C9 4.22388 9.22388 4 9.5 4C9.77612 4 10 4.22388 10 4.5ZM17.5 15C17.7761 15 18 14.7761 18 14.5C18 14.2239 17.7761 14 17.5 14C17.2239 14 17 14.2239 17 14.5C17 14.7761 17.2239 15 17.5 15Z" fill="black"/>
<path d="M8 9.5C8 9.77614 7.77614 10 7.5 10C7.22386 10 7 9.77614 7 9.5C7 9.22386 7.22386 9 7.5 9C7.77614 9 8 9.22386 8 9.5Z" fill="white"/>
<path d="M11 9.5C11 9.77614 10.7761 10 10.5 10C10.2239 10 10 9.77614 10 9.5C10 9.22386 10.2239 9 10.5 9C10.7761 9 11 9.22386 11 9.5Z" fill="white"/>
<path d="M14 9.5C14 9.77614 13.7761 10 13.5 10C13.2239 10 13 9.77614 13 9.5C13 9.22386 13.2239 9 13.5 9C13.7761 9 14 9.22386 14 9.5Z" fill="white"/>
</svg>
