<svg width="20" height="20" viewBox="0 0 20 20" fill="none" xmlns="http://www.w3.org/2000/svg">
<path d="M0 0H20V20H0V0Z" fill="none"/>
<path fill-rule="evenodd" clip-rule="evenodd" d="M2 5C2 4.57709 2.10535 4.35168 2.22852 4.22858C2.35168 4.10541 2.57703 4 3 4H17C17.423 4 17.6483 4.10541 17.7715 4.22858C17.8947 4.35168 18 4.57709 18 5V13C18 13.4229 17.8947 13.6483 17.7715 13.7714C17.6483 13.8946 17.423 14 17 14H6C5.90125 14 5.80481 14.0292 5.72266 14.084L2 16.5657V14.4996V5ZM1 5V14.4999V17.5C1 17.6844 1.10144 17.8538 1.26404 17.9409C1.42664 18.0278 1.6239 18.0183 1.77734 17.916L6.15137 15H17C17.577 15 18.1017 14.8554 18.4785 14.4786C18.8553 14.1017 19 13.5771 19 13V5C19 4.42291 18.8553 3.89832 18.4785 3.52142C18.1017 3.14459 17.577 3 17 3H3C2.42297 3 1.89832 3.14459 1.52148 3.52142C1.14465 3.89832 1 4.42291 1 5ZM5 10C5.55225 10 6 9.55231 6 9C6 8.44769 5.55225 8 5 8C4.44775 8 4 8.44769 4 9C4 9.55231 4.44775 10 5 10ZM11 9C11 9.55231 10.5522 10 10 10C9.44775 10 9 9.55231 9 9C9 8.44769 9.44775 8 10 8C10.5522 8 11 8.44769 11 9ZM15 10C15.5522 10 16 9.55231 16 9C16 8.44769 15.5522 8 15 8C14.4478 8 14 8.44769 14 9C14 9.55231 14.4478 10 15 10Z" fill="black"/>
</svg>
