 <svg width="20" height="20" viewBox="0 0 20 20" fill="none" xmlns="http://www.w3.org/2000/svg">
<path d="M0 0H20V20H0V0Z" fill="none"/>
<path fill-rule="evenodd" clip-rule="evenodd" d="M2 4C2 3.57709 2.10535 3.35168 2.22852 3.22858C2.35168 3.10541 2.57703 3 3 3H12C12.423 3 12.6483 3.10541 12.7715 3.22858C12.8275 3.28461 12.8799 3.36188 12.9203 3.46936C12.9353 3.50934 12.9487 3.55347 12.9601 3.60229C12.9675 3.63409 12.974 3.66791 12.9795 3.7038C12.9927 3.78986 13 3.888 13 4V7.99994L8 8C7.42297 8 6.89832 8.14459 6.52148 8.52142C6.14465 8.89832 6 9.42291 6 10H4.5C4.40125 10 4.30481 10.0292 4.22266 10.084L2 11.5657V10.499V4ZM17 8L13 7.99994L14 7.99945V4C14 3.42291 13.8553 2.89832 13.4785 2.52142C13.1017 2.14459 12.577 2 12 2H3C2.42297 2 1.89832 2.14459 1.52148 2.52142C1.14465 2.89832 1 3.42291 1 4V10.4999V12.5C1 12.6844 1.10144 12.8538 1.26404 12.9409C1.34448 12.9839 1.43347 13.0033 1.52148 12.9995C1.56445 12.9977 1.60706 12.9903 1.64844 12.9775C1.69348 12.9634 1.73694 12.9429 1.77734 12.916L4.65137 11H6V18.5C6 18.6844 6.10144 18.8538 6.26404 18.9409C6.42664 19.0278 6.6239 19.0183 6.77734 18.916L9.65137 17H17C17.577 17 18.1017 16.8554 18.4785 16.4786C18.8553 16.1017 19 15.5771 19 15V10C19 9.42291 18.8553 8.89832 18.4785 8.52142C18.1017 8.14459 17.577 8 17 8ZM4.5 7C4.77612 7 5 6.77612 5 6.5C5 6.22388 4.77612 6 4.5 6C4.22388 6 4 6.22388 4 6.5C4 6.77612 4.22388 7 4.5 7ZM8 6.5C8 6.77612 7.77612 7 7.5 7C7.22388 7 7 6.77612 7 6.5C7 6.22388 7.22388 6 7.5 6C7.77612 6 8 6.22388 8 6.5ZM10.5 7C10.7761 7 11 6.77612 11 6.5C11 6.22388 10.7761 6 10.5 6C10.2239 6 10 6.22388 10 6.5C10 6.77612 10.2239 7 10.5 7Z" fill="black"/>
<path d="M10 12.5C10 12.7761 9.77614 13 9.5 13C9.22386 13 9 12.7761 9 12.5C9 12.2239 9.22386 12 9.5 12C9.77614 12 10 12.2239 10 12.5Z" fill="none"/>
<path d="M13 12.5C13 12.7761 12.7761 13 12.5 13C12.2239 13 12 12.7761 12 12.5C12 12.2239 12.2239 12 12.5 12C12.7761 12 13 12.2239 13 12.5Z" fill="white"/>
<path d="M16 12.5C16 12.7761 15.7761 13 15.5 13C15.2239 13 15 12.7761 15 12.5C15 12.2239 15.2239 12 15.5 12C15.7761 12 16 12.2239 16 12.5Z" fill="white"/>
</svg>
