<svg width="24" height="24" viewBox="0 0 24 24" fill="none" xmlns="http://www.w3.org/2000/svg">
<path d="M0 0H24V24H0V0Z" fill="none"/>
<path fill-rule="evenodd" clip-rule="evenodd" d="M2 2C2 1.44772 2.44772 1 3 1H21C21.5523 1 22 1.44772 22 2V20C22 20.5523 21.5523 21 21 21H20V23C20 23.5523 19.5523 24 19 24H5C4.44772 24 4 23.5523 4 23V21H3C2.44772 21 2 20.5523 2 20V2ZM6 21V22H18V21H6ZM20 19V12H16.118L14.8944 14.4472C14.725 14.786 14.3788 15 14 15H10C9.62123 15 9.27496 14.786 9.10557 14.4472L7.88197 12H4V19H20ZM4 10H20V3H16.118L14.8944 5.44721C14.725 5.786 14.3788 6 14 6H10C9.62123 6 9.27496 5.786 9.10557 5.44721L7.88197 3H4V10ZM10.118 3L10.618 4H13.382L13.882 3H10.118ZM10.118 12L10.618 13H13.382L13.882 12H10.118Z" fill="black"/>
</svg>
