<svg width="24" height="25" viewBox="0 0 24 25" fill="none" xmlns="http://www.w3.org/2000/svg">
<path fill-rule="evenodd" clip-rule="evenodd" d="M12 8C12.5523 8 13 8.44772 13 9V14.8258L15.3492 12.8122C15.7686 12.4527 16.3999 12.5013 16.7593 12.9206C17.1187 13.34 17.0701 13.9713 16.6508 14.3307L12.6508 17.7593C12.2763 18.0802 11.7237 18.0802 11.3492 17.7593L7.34923 14.3307C6.9299 13.9713 6.88134 13.34 7.24076 12.9206C7.60018 12.5013 8.23148 12.4527 8.65081 12.8122L11 14.8258V9C11 8.44772 11.4477 8 12 8Z" fill="black"/>
<path fill-rule="evenodd" clip-rule="evenodd" d="M0.75 6C0.75 5.58579 1.08579 5.25 1.5 5.25H22.5C22.9142 5.25 23.25 5.58579 23.25 6V23.5C23.25 23.9142 22.9142 24.25 22.5 24.25H1.5C1.08579 24.25 0.75 23.9142 0.75 23.5V6ZM2.25 6.75V22.75H21.75V6.75H2.25Z" fill="black"/>
<path fill-rule="evenodd" clip-rule="evenodd" d="M4.40799 1.03954C4.55008 0.856855 4.76856 0.75 5 0.75H18.5C18.7142 0.75 18.9182 0.841611 19.0606 1.00173L23.0606 5.50173L21.9394 6.49827L18.1632 2.25H5.36681L2.09201 6.46046L0.907986 5.53954L4.40799 1.03954Z" fill="black"/>
<path fill-rule="evenodd" clip-rule="evenodd" d="M3.25 3.5C3.25 3.08579 3.58579 2.75 4 2.75H19.5C19.9142 2.75 20.25 3.08579 20.25 3.5C20.25 3.91421 19.9142 4.25 19.5 4.25H4C3.58579 4.25 3.25 3.91421 3.25 3.5Z" fill="black"/>
<path d="M7 20H17" stroke="black" stroke-width="1.5" stroke-linecap="round" stroke-linejoin="round"/>
</svg>
