<svg width="20" height="20" viewBox="0 0 20 20" fill="none" xmlns="http://www.w3.org/2000/svg">
<path d="M0 0H20V20H0V0Z" fill="none"/>
<path d="M13.7312 16.942C12.4031 17.5721 11.075 17.8421 9.46231 17.8421C5.47805 17.8421 2.15784 15.1417 2.15784 10.7312C2.15784 6.05054 5.57291 2 10.9801 2C15.1541 2 18 4.79037 18 8.57087C18 11.9913 16.0079 13.9716 13.7312 13.9716C12.7825 13.9716 11.8339 13.3415 11.9288 11.9913H11.8339C10.9801 13.3415 9.84176 13.9716 8.41881 13.9716C6.99586 13.9716 5.76264 12.8914 5.76264 11.0912C5.76264 8.30084 8.13422 5.69049 11.4544 5.69049C12.4979 5.69049 13.4466 5.87051 14.0157 6.14055L13.2568 10.3711C12.8774 12.0813 13.162 12.8914 14.0157 12.8914C15.249 12.8914 16.5771 11.3612 16.5771 8.7509C16.5771 5.42045 14.4901 3.08014 10.7904 3.08014C6.901 3.08014 3.58079 6.05054 3.58079 10.6411C3.58079 14.4217 6.23696 16.762 9.7469 16.762C11.075 16.762 12.4031 16.4919 13.3517 15.9519L13.7312 16.942ZM12.4031 7.13068C12.1185 7.04067 11.739 6.95066 11.1698 6.95066C9.08285 6.95066 7.37532 8.84091 7.37532 11.0912C7.37532 12.0813 7.9445 12.8014 8.98799 12.8014C10.4109 12.8014 11.6442 11.0912 11.9288 9.65102L12.4031 7.13068Z" fill="#030303"/>
</svg>
