<svg width="24" height="24" viewBox="0 0 24 24" fill="none" xmlns="http://www.w3.org/2000/svg">
<path d="M17.2523 16H6.67234C4.58234 16 2.72234 14.47 2.52234 12.39C2.29234 10.01 4.16234 8 6.50234 8H18.8623C20.1723 8 21.3623 8.94 21.4923 10.24C21.6423 11.74 20.4723 13 19.0023 13H8.50234C7.95234 13 7.50234 12.55 7.50234 12C7.50234 11.45 7.95234 11 8.50234 11H17.2523C17.6623 11 18.0023 10.66 18.0023 10.25C18.0023 9.84 17.6623 9.5 17.2523 9.5H8.64234C7.33234 9.5 6.14234 10.44 6.01234 11.74C5.86234 13.24 7.03234 14.5 8.50234 14.5H18.8323C20.9223 14.5 22.7823 12.97 22.9823 10.89C23.2123 8.5 21.3423 6.5 19.0023 6.5H6.73234C3.86234 6.5 1.29234 8.6 1.02234 11.46C0.722344 14.75 3.28234 17.5 6.50234 17.5H17.2523C17.6623 17.5 18.0023 17.16 18.0023 16.75C18.0023 16.34 17.6623 16 17.2523 16Z" fill="black"/>
</svg>
