<svg width="21" height="21" viewBox="0 0 21 21" fill="none" xmlns="http://www.w3.org/2000/svg">
<path fill-rule="evenodd" clip-rule="evenodd" d="M10.5 20C15.7467 20 20 15.7467 20 10.5C20 5.25329 15.7467 1 10.5 1C5.25329 1 1 5.25329 1 10.5C1 15.7467 5.25329 20 10.5 20ZM10.5 21C16.299 21 21 16.299 21 10.5C21 4.70101 16.299 0 10.5 0C4.70101 0 0 4.70101 0 10.5C0 16.299 4.70101 21 10.5 21ZM10.5 4C10.7761 4 11 4.22386 11 4.5V13.5C11 13.7761 10.7761 14 10.5 14C10.2239 14 10 13.7761 10 13.5V4.5C10 4.22386 10.2239 4 10.5 4ZM10.5 17C10.7761 17 11 16.7761 11 16.5C11 16.2239 10.7761 16 10.5 16C10.2239 16 10 16.2239 10 16.5C10 16.7761 10.2239 17 10.5 17Z" fill="#F18716"/>
</svg>
