<svg width="24" height="24" viewBox="0 0 24 24" fill="none" xmlns="http://www.w3.org/2000/svg">
<path d="M12 8.5C12.5523 8.5 13 8.94771 13 9.5V14C13 14.5523 12.5523 15 12 15C11.4477 15 11 14.5523 11 14V9.5C11 8.94771 11.4477 8.5 12 8.5Z" fill="#EE4035"/>
<path d="M12 18.5C12.5523 18.5 13 18.0523 13 17.5C13 16.9477 12.5523 16.5 12 16.5C11.4477 16.5 11 16.9477 11 17.5C11 18.0523 11.4477 18.5 12 18.5Z" fill="#EE4035"/>
<path fill-rule="evenodd" clip-rule="evenodd" d="M10.2691 2.99402C11.0395 1.66344 12.9605 1.66346 13.7308 2.99402L22.9964 18.9982C23.7683 20.3315 22.8062 22.0002 21.2655 22.0002H2.73444C1.19377 22.0002 0.231655 20.3315 1.00358 18.9982L10.2691 2.99402ZM12 3.99609L2.73444 20.0002L21.2655 20.0002L12 3.99609Z" fill="#EE4035"/>
</svg>
