<svg width="27" height="23" viewBox="0 0 27 23" fill="none" xmlns="http://www.w3.org/2000/svg">
<path d="M14.0001 19.5001C14.0001 19.7762 13.7762 20.0001 13.5001 20.0001C13.2239 20.0001 13.0001 19.7762 13.0001 19.5001C13.0001 19.2239 13.2239 19.0001 13.5001 19.0001C13.7762 19.0001 14.0001 19.2239 14.0001 19.5001Z" fill="#9A2D2A"/>
<path fill-rule="evenodd" clip-rule="evenodd" d="M13.5001 7.00009C13.7762 7.00009 14.0001 7.22395 14.0001 7.50009V16.5001C14.0001 16.7762 13.7762 17.0001 13.5001 17.0001C13.2239 17.0001 13.0001 16.7762 13.0001 16.5001V7.50009C13.0001 7.22395 13.2239 7.00009 13.5001 7.00009Z" fill="#9A2D2A"/>
<path fill-rule="evenodd" clip-rule="evenodd" d="M25.1624 21.5001L13.5001 1.9519L1.83772 21.5001H25.1624ZM14.3589 1.43956C13.9709 0.789352 13.0292 0.789353 12.6413 1.43956L0.978938 20.9877C0.58127 21.6543 1.06154 22.5001 1.83772 22.5001H25.1624C25.9386 22.5001 26.4189 21.6543 26.0212 20.9877L14.3589 1.43956Z" fill="#9A2D2A"/>
</svg>
