<svg width="24" height="24" viewBox="0 0 24 24" fill="none" xmlns="http://www.w3.org/2000/svg">
<path d="M12 6C12.5523 6 13 6.44772 13 7V13.5C13 14.0523 12.5523 14.5 12 14.5C11.4477 14.5 11 14.0523 11 13.5V7C11 6.44772 11.4477 6 12 6Z" fill="black"/>
<path d="M12 18C12.5523 18 13 17.5523 13 17C13 16.4477 12.5523 16 12 16C11.4477 16 11 16.4477 11 17C11 17.5523 11.4477 18 12 18Z" fill="black"/>
<path fill-rule="evenodd" clip-rule="evenodd" d="M12 1C6.20156 1 1 6.20156 1 12C1 17.7984 6.20156 23 12 23C17.7984 23 23 17.7984 23 12C23 6.20156 17.7984 1 12 1ZM11.9996 21C7.18557 21 3 16.8141 3 12C3 7.18594 7.18557 3 11.9996 3C16.8137 3 21 7.18594 21 12C21 16.8141 16.8137 21 11.9996 21Z" fill="black"/>
</svg>
