<svg width="24" height="24" viewBox="0 0 24 24" fill="none" xmlns="http://www.w3.org/2000/svg">
<g clip-path="url(#clip0_321_54346)">
<path d="M24 8V2.66667H18.8571V4.44444H10.2857V1.77778C10.2851 1.30646 10.1044 0.854619 9.78299 0.521349C9.46162 0.188078 9.02591 0.000588042 8.57143 0H1.71429C1.2598 0.000588042 0.824097 0.188078 0.502729 0.521349C0.181361 0.854619 0.000567041 1.30646 0 1.77778V8.88889C0.000567041 9.3602 0.181361 9.81205 0.502729 10.1453C0.824097 10.4786 1.2598 10.6661 1.71429 10.6667H8.57143C9.02591 10.6661 9.46162 10.4786 9.78299 10.1453C10.1044 9.81205 10.2851 9.3602 10.2857 8.88889V6.22222C10.9675 6.223 11.6211 6.5042 12.1032 7.00413C12.5852 7.50406 12.8564 8.18188 12.8571 8.88889V16.8889H7.71429V15.1111H2.57143V20.4444H7.71429V18.6667H12.8571V20.4444C12.8577 20.9158 13.0385 21.3676 13.3599 21.7009C13.6812 22.0341 14.1169 22.2216 14.5714 22.2222H18.8571V24H24V18.6667H18.8571V20.4444H14.5714V14.2222H18.8571V16H24V10.6667H18.8571V12.4444H14.5714V8.88889C14.5682 7.92413 14.2594 6.98721 13.6925 6.22222H18.8571V8H24ZM1.71429 8.88889V1.77778H8.57143V8.88889H1.71429ZM6 18.6667H4.28571V16.8889H6V18.6667ZM20.5714 20.4444H22.2857V22.2222H20.5714V20.4444ZM20.5714 12.4444H22.2857V14.2222H20.5714V12.4444ZM20.5714 4.44444H22.2857V6.22222H20.5714V4.44444Z" fill="black"/>
</g>
<defs>
<clipPath id="clip0_321_54346">
<rect width="24" height="24" fill="white"/>
</clipPath>
</defs>
</svg>
