<svg width="24" height="24" viewBox="0 0 24 24" fill="none" xmlns="http://www.w3.org/2000/svg">
<path d="M5 6.82608V16.233" stroke="black" stroke-width="2" stroke-linecap="round"/>
<path d="M9 9V16" stroke="black" stroke-width="2" stroke-linecap="round"/>
<path d="M13 9V16" stroke="black" stroke-width="2" stroke-linecap="round"/>
<path d="M17 7V16" stroke="black" stroke-width="2" stroke-linecap="round"/>
<path d="M18.2291 6H22.9514" stroke="black" stroke-width="2" stroke-linecap="round"/>
<path d="M20 3L22.7263 5.72626" stroke="black" stroke-width="2" stroke-linecap="round"/>
<path d="M20 9L23 6" stroke="black" stroke-width="2" stroke-linecap="round"/>
<mask id="path-8-inside-1_530_181846" fill="white">
<path d="M10 16C10 16.7956 9.68393 17.5587 9.12132 18.1213C8.55871 18.6839 7.79565 19 7 19C6.20435 19 5.44129 18.6839 4.87868 18.1213C4.31607 17.5587 4 16.7956 4 16L5.96284 16C5.96284 16.2751 6.07211 16.5389 6.26661 16.7334C6.46112 16.9279 6.72493 17.0372 7 17.0372C7.27507 17.0372 7.53888 16.9279 7.73339 16.7334C7.92789 16.5389 8.03716 16.2751 8.03716 16H10Z"/>
</mask>
<path d="M10 16C10 16.7956 9.68393 17.5587 9.12132 18.1213C8.55871 18.6839 7.79565 19 7 19C6.20435 19 5.44129 18.6839 4.87868 18.1213C4.31607 17.5587 4 16.7956 4 16L5.96284 16C5.96284 16.2751 6.07211 16.5389 6.26661 16.7334C6.46112 16.9279 6.72493 17.0372 7 17.0372C7.27507 17.0372 7.53888 16.9279 7.73339 16.7334C7.92789 16.5389 8.03716 16.2751 8.03716 16H10Z" stroke="black" stroke-width="4" mask="url(#path-8-inside-1_530_181846)"/>
<mask id="path-9-inside-2_530_181846" fill="white">
<path d="M18 16C18 16.7956 17.6839 17.5587 17.1213 18.1213C16.5587 18.6839 15.7956 19 15 19C14.2044 19 13.4413 18.6839 12.8787 18.1213C12.3161 17.5587 12 16.7956 12 16L13.9628 16C13.9628 16.2751 14.0721 16.5389 14.2666 16.7334C14.4611 16.9279 14.7249 17.0372 15 17.0372C15.2751 17.0372 15.5389 16.9279 15.7334 16.7334C15.9279 16.5389 16.0372 16.2751 16.0372 16H18Z"/>
</mask>
<path d="M18 16C18 16.7956 17.6839 17.5587 17.1213 18.1213C16.5587 18.6839 15.7956 19 15 19C14.2044 19 13.4413 18.6839 12.8787 18.1213C12.3161 17.5587 12 16.7956 12 16L13.9628 16C13.9628 16.2751 14.0721 16.5389 14.2666 16.7334C14.4611 16.9279 14.7249 17.0372 15 17.0372C15.2751 17.0372 15.5389 16.9279 15.7334 16.7334C15.9279 16.5389 16.0372 16.2751 16.0372 16H18Z" stroke="black" stroke-width="4" mask="url(#path-9-inside-2_530_181846)"/>
<mask id="path-10-inside-3_530_181846" fill="white">
<path d="M8 9C8 8.20435 8.31607 7.44129 8.87868 6.87868C9.44129 6.31607 10.2044 6 11 6C11.7956 6 12.5587 6.31607 13.1213 6.87868C13.6839 7.44129 14 8.20435 14 9L12.0372 9C12.0372 8.72493 11.9279 8.46112 11.7334 8.26661C11.5389 8.07211 11.2751 7.96284 11 7.96284C10.7249 7.96284 10.4611 8.07211 10.2666 8.26661C10.0721 8.46112 9.96284 8.72493 9.96284 9H8Z"/>
</mask>
<path d="M8 9C8 8.20435 8.31607 7.44129 8.87868 6.87868C9.44129 6.31607 10.2044 6 11 6C11.7956 6 12.5587 6.31607 13.1213 6.87868C13.6839 7.44129 14 8.20435 14 9L12.0372 9C12.0372 8.72493 11.9279 8.46112 11.7334 8.26661C11.5389 8.07211 11.2751 7.96284 11 7.96284C10.7249 7.96284 10.4611 8.07211 10.2666 8.26661C10.0721 8.46112 9.96284 8.72493 9.96284 9H8Z" stroke="black" stroke-width="4" mask="url(#path-10-inside-3_530_181846)"/>
<mask id="path-11-inside-4_530_181846" fill="white">
<path d="M1 11H23V22C23 22.5523 22.5523 23 22 23H2C1.44772 23 1 22.5523 1 22V11Z"/>
</mask>
<path d="M1 11H23V22C23 22.5523 22.5523 23 22 23H2C1.44772 23 1 22.5523 1 22V11Z" stroke="black" stroke-width="4" mask="url(#path-11-inside-4_530_181846)"/>
<mask id="path-12-inside-5_530_181846" fill="white">
<path d="M20 7C20 6.60444 19.8827 6.21776 19.6629 5.88886C19.4432 5.55996 19.1308 5.30362 18.7654 5.15224C18.3999 5.00087 17.9978 4.96126 17.6098 5.03843C17.2219 5.1156 16.8655 5.30608 16.5858 5.58579C16.3061 5.86549 16.1156 6.22186 16.0384 6.60982C15.9613 6.99778 16.0009 7.39991 16.1522 7.76537C16.3036 8.13082 16.56 8.44318 16.8889 8.66294C17.2178 8.8827 17.6044 9 18 9L18 7H20Z"/>
</mask>
<path d="M20 7C20 6.60444 19.8827 6.21776 19.6629 5.88886C19.4432 5.55996 19.1308 5.30362 18.7654 5.15224C18.3999 5.00087 17.9978 4.96126 17.6098 5.03843C17.2219 5.1156 16.8655 5.30608 16.5858 5.58579C16.3061 5.86549 16.1156 6.22186 16.0384 6.60982C15.9613 6.99778 16.0009 7.39991 16.1522 7.76537C16.3036 8.13082 16.56 8.44318 16.8889 8.66294C17.2178 8.8827 17.6044 9 18 9L18 7H20Z" stroke="black" stroke-width="4" mask="url(#path-12-inside-5_530_181846)"/>
</svg>
