<svg width="24" height="24" viewBox="0 0 24 24" fill="none" xmlns="http://www.w3.org/2000/svg">
<path d="M0 13.9999H3V23.9999H0V13.9999ZM0 8.9999H3V12.9999H0V8.9999ZM10 19.9999H13V23.9999H10V19.9999ZM10 16.9999H13V18.9999H10V16.9999ZM5 16.9999H8V23.9999H5V16.9999ZM5 12.9999H8V15.9999H5V12.9999Z" fill="black"/>
<path d="M16.7688 15.3358L19.4354 13.4981L15.5194 7.81543L10.8614 11.0253L4.9169 2.38661L6.55883 1.25513L11.3737 8.24207L16.0316 5.03218L21.089 12.3586L23.7557 10.521L22.6696 16.4219L16.7688 15.3358Z" fill="black"/>
<path fill-rule="evenodd" clip-rule="evenodd" d="M18 20.9999H15V18.9999H18V20.9999Z" fill="black"/>
<path fill-rule="evenodd" clip-rule="evenodd" d="M18 23.9999H15V21.9999H18V23.9999Z" fill="black"/>
</svg>
