<svg width="24" height="24" viewBox="0 0 24 24" fill="none" xmlns="http://www.w3.org/2000/svg">
<mask id="path-1-inside-1_1120_50349" fill="white">
<rect width="24" height="24" rx="1"/>
</mask>
<rect width="24" height="24" rx="1" stroke="black" stroke-width="4" mask="url(#path-1-inside-1_1120_50349)"/>
<path d="M7 6C7 6.55228 6.55228 7 6 7C5.44772 7 5 6.55228 5 6C5 5.44772 5.44772 5 6 5C6.55228 5 7 5.44772 7 6Z" fill="#020202"/>
<path fill-rule="evenodd" clip-rule="evenodd" d="M9 6C9 5.44772 9.44772 5 10 5H19C19.5523 5 20 5.44772 20 6C20 6.55228 19.5523 7 19 7H10C9.44772 7 9 6.55228 9 6Z" fill="black"/>
<path d="M7 14C7 14.5523 6.55228 15 6 15C5.44772 15 5 14.5523 5 14C5 13.4477 5.44772 13 6 13C6.55228 13 7 13.4477 7 14Z" fill="#020202"/>
<path d="M7 18C7 18.5523 6.55228 19 6 19C5.44772 19 5 18.5523 5 18C5 17.4477 5.44772 17 6 17C6.55228 17 7 17.4477 7 18Z" fill="#020202"/>
<path d="M7 10C7 10.5523 6.55228 11 6 11C5.44772 11 5 10.5523 5 10C5 9.44772 5.44772 9 6 9C6.55228 9 7 9.44772 7 10Z" fill="#020202"/>
<path fill-rule="evenodd" clip-rule="evenodd" d="M9 10C9 9.44772 9.44772 9 10 9H19C19.5523 9 20 9.44772 20 10C20 10.5523 19.5523 11 19 11H10C9.44772 11 9 10.5523 9 10Z" fill="black"/>
<path fill-rule="evenodd" clip-rule="evenodd" d="M9 14C9 13.4477 9.44772 13 10 13H19C19.5523 13 20 13.4477 20 14C20 14.5523 19.5523 15 19 15H10C9.44772 15 9 14.5523 9 14Z" fill="black"/>
<path fill-rule="evenodd" clip-rule="evenodd" d="M9 18C9 17.4477 9.44772 17 10 17H19C19.5523 17 20 17.4477 20 18C20 18.5523 19.5523 19 19 19H10C9.44772 19 9 18.5523 9 18Z" fill="black"/>
</svg>
