<svg width="24" height="24" viewBox="0 0 24 24" fill="none" xmlns="http://www.w3.org/2000/svg">
<path fill-rule="evenodd" clip-rule="evenodd" d="M4.22192 4.22205C8.51699 -0.0740035 15.4821 -0.0740035 19.778 4.22197C24.074 8.51798 24.074 15.483 19.778 19.778C15.4821 24.074 8.51699 24.074 4.2221 19.7781C-0.0740037 15.483 -0.0740035 8.51798 4.22192 4.22205ZM6.19847 19.0979C9.79856 22.0483 15.1204 21.8429 18.4817 18.4816C21.8429 15.1212 22.0483 9.7994 19.0978 6.19854L6.19847 19.0979ZM4.90212 17.8015C1.95177 14.2013 2.15721 8.87954 5.51838 5.51838C8.87882 2.15712 14.2006 1.95172 17.8015 4.90217L4.90212 17.8015Z" fill="black"/>
</svg>
