<svg width="24" height="24" viewBox="0 0 24 24" fill="none" xmlns="http://www.w3.org/2000/svg">
<path d="M0 0H24V24H0V0Z" fill="none"/>
<path fill-rule="evenodd" clip-rule="evenodd" d="M4.00958 4C4.56186 4.00041 5.00925 4.44846 5.00884 5.00074L4.00884 5C5.00884 5.00074 5.00884 5.00065 5.00884 5.00074L5.00438 11.2507C5.00216 14.5009 4.99995 18.0004 5 19C5.00004 19.8436 5.21187 20.2943 5.46 20.5413C5.70891 20.7892 6.16296 21 7.00884 21H19.9994C19.9995 21 20 21 20 22C20 23 20 23 19.9999 23H7.00884C5.85467 23 4.80435 22.7108 4.04888 21.9587C3.29262 21.2057 3.00006 20.1564 3 19C2.99995 17.9996 3.00216 14.4991 3.00438 11.2493L3.00884 4.9998C3.00884 4.99971 3.00884 4.99926 4.00779 5L3.00884 4.9998C3.00925 4.44752 3.4573 3.99959 4.00958 4ZM21 22C21 22.5523 20.5521 23 19.9999 23L20 22L19.9994 21C20.5517 21 21 21.4477 21 22Z" fill="black"/>
<path fill-rule="evenodd" clip-rule="evenodd" d="M3.82667 2.34073C4.41857 1.54487 5.33351 1 6.50881 1H19.9995C19.9996 1 20 1 20 2C20 3 20 3 19.9999 3H6.50881C6.01491 3 5.67629 3.20513 5.4315 3.53427C5.16552 3.8919 5.00065 4.42109 5 5.00111C4.99936 5.58119 5.16305 6.10948 5.42802 6.46611C5.6715 6.79381 6.01031 7 6.50881 7H19.9995C19.9996 7 20 7 20 8C21 8 21 8.00005 21 8.00014V22C21 22.5523 20.5523 23 20 23C19.4477 23 19 22.5523 19 22V9H6.50881C5.33143 9 4.41501 8.45619 3.82263 7.65889C3.25175 6.89052 2.99898 5.91881 3 4.99889C3.00103 4.07891 3.25596 3.1081 3.82667 2.34073ZM20 8L21 8.00014C21 7.73492 20.8946 7.48043 20.7071 7.29289C20.5196 7.10536 20.2648 7 19.9995 7L20 8ZM21 2C21 2.55228 20.5522 3 19.9999 3L20 2L19.9995 1C20.5518 1 21 1.44772 21 2Z" fill="black"/>
<path fill-rule="evenodd" clip-rule="evenodd" d="M6 5C6 4.44772 6.44772 4 7 4H20C20.5523 4 21 4.44772 21 5C21 5.55228 20.5523 6 20 6H7C6.44772 6 6 5.55228 6 5Z" fill="black"/>
<path fill-rule="evenodd" clip-rule="evenodd" d="M6 12C6 11.4477 6.44772 11 7 11H17C17.5523 11 18 11.4477 18 12V16C18 16.5523 17.5523 17 17 17H7C6.44772 17 6 16.5523 6 16V12ZM8 13V15H16V13H8Z" fill="black"/>
</svg>
