<svg width="24" height="24" viewBox="0 0 24 24" fill="none" xmlns="http://www.w3.org/2000/svg">
<rect width="24" height="24" fill="none"/>
<path fill-rule="evenodd" clip-rule="evenodd" d="M9 3C9 3.55228 8.55228 4 8 4C7.44772 4 7 3.55228 7 3C7 2.44772 7.44772 2 8 2C8.55228 2 9 2.44772 9 3ZM9 5.82929C10.1652 5.41746 11 4.30622 11 3C11 1.34315 9.65685 0 8 0C6.34315 0 5 1.34315 5 3C5 4.30622 5.83481 5.41746 7 5.82929V17.5V18.1707C5.83481 18.5825 5 19.6938 5 21C5 22.6569 6.34315 24 8 24C9.65685 24 11 22.6569 11 21C11 19.6938 10.1652 18.5825 9 18.1707V17.5C9 16.0004 9.46011 15.3724 9.98174 15.0053C10.5989 14.571 11.4429 14.3838 12.5773 14.1322L12.5773 14.1322L12.5773 14.1322L12.5773 14.1322L12.5773 14.1322L12.7169 14.1012C13.8137 13.8575 15.1827 13.5388 16.2422 12.6362C17.221 11.8025 17.8237 10.5835 17.9669 8.84079C19.1493 8.43846 20 7.31857 20 6C20 4.34315 18.6569 3 17 3C15.3431 3 14 4.34315 14 6C14 7.29175 14.8164 8.39281 15.9614 8.81535C15.8345 10.0669 15.4115 10.7166 14.9453 11.1138C14.3173 11.6487 13.4363 11.8925 12.2831 12.1488C12.1988 12.1675 12.1125 12.1864 12.0245 12.2056C11.0787 12.4123 9.93305 12.6626 9 13.2564V5.82929ZM8 20C7.44772 20 7 20.4477 7 21C7 21.5523 7.44772 22 8 22C8.55228 22 9 21.5523 9 21C9 20.4477 8.55228 20 8 20ZM18 6C18 6.55228 17.5523 7 17 7C16.4477 7 16 6.55228 16 6C16 5.44772 16.4477 5 17 5C17.5523 5 18 5.44772 18 6Z" fill="black"/>
</svg>
