<svg width="24" height="24" viewBox="0 0 24 24" fill="none" xmlns="http://www.w3.org/2000/svg">
<path fill-rule="evenodd" clip-rule="evenodd" d="M2.5 1C2.22386 1 2 1.22386 2 1.5V22H1.5C1.22386 22 1 22.2239 1 22.5C1 22.7761 1.22386 23 1.5 23H2.5H9.5H21.5H22.5C22.7761 23 23 22.7761 23 22.5C23 22.2239 22.7761 22 22.5 22H22V9.5C22 9.22386 21.7761 9 21.5 9H15V1.5C15 1.22386 14.7761 1 14.5 1H2.5ZM21 22H10V10H14.5H21V22ZM9.5 9H14V2H3V22H4V20.5C4 19.0247 4.92561 18.125 6 18.125C7.07439 18.125 8 19.0247 8 20.5V22H9V9.5C9 9.36739 9.05268 9.24021 9.14645 9.14645C9.24021 9.05268 9.36739 9 9.5 9ZM7 22V20.5C7 19.4753 6.42561 19.125 6 19.125C5.57439 19.125 5 19.4753 5 20.5V22H7ZM4 4C4 3.44772 4.44772 3 5 3H7C7.55228 3 8 3.44772 8 4V6C8 6.55228 7.55228 7 7 7H5C4.44772 7 4 6.55228 4 6V4ZM5 4V6H7V4H5ZM5 8C4.44772 8 4 8.44772 4 9V11C4 11.5523 4.44772 12 5 12H7C7.55228 12 8 11.5523 8 11V9C8 8.44772 7.55228 8 7 8H5ZM5 11V9H7V11H5ZM4 14C4 13.4477 4.44772 13 5 13H7C7.55228 13 8 13.4477 8 14V16C8 16.5523 7.55228 17 7 17H5C4.44772 17 4 16.5523 4 16V14ZM5 14V16H7V14H5ZM12 11C11.4477 11 11 11.4477 11 12V14C11 14.5523 11.4477 15 12 15H14C14.5523 15 15 14.5523 15 14V12C15 11.4477 14.5523 11 14 11H12ZM11 17C11 16.4477 11.4477 16 12 16H14C14.5523 16 15 16.4477 15 17V19C15 19.5523 14.5523 20 14 20H12C11.4477 20 11 19.5523 11 19V17ZM12 17V19H14V17H12ZM14 14H12V12H14V14ZM17 11C16.4477 11 16 11.4477 16 12V14C16 14.5523 16.4477 15 17 15H19C19.5523 15 20 14.5523 20 14V12C20 11.4477 19.5523 11 19 11H17ZM19 14H17V12H19V14ZM16 17C16 16.4477 16.4477 16 17 16H19C19.5523 16 20 16.4477 20 17V19C20 19.5523 19.5523 20 19 20H17C16.4477 20 16 19.5523 16 19V17ZM17 17V19H19V17H17ZM10 3C9.44771 3 9 3.44772 9 4V6C9 6.55228 9.44771 7 10 7H12C12.5523 7 13 6.55228 13 6V4C13 3.44772 12.5523 3 12 3H10ZM10 6V4H12V6H10Z" fill="black"/>
</svg>
