<svg width="24" height="24" viewBox="0 0 24 24" fill="none" xmlns="http://www.w3.org/2000/svg">
<path d="M22.6558 18.9895L13.5758 9.90948C14.5058 7.56948 14.0258 4.80948 12.1358 2.90948C9.83583 0.609483 6.25583 0.399483 3.70583 2.25948L7.54583 6.10948L6.12583 7.51948L2.29583 3.68948C0.435829 6.22948 0.645829 9.81948 2.94583 12.1095C4.80583 13.9695 7.51583 14.4595 9.83583 13.5895L18.9458 22.6995C19.3358 23.0895 19.9658 23.0895 20.3558 22.6995L22.6558 20.3995C23.0558 20.0195 23.0558 19.3895 22.6558 18.9895ZM19.6558 20.5895L10.1958 11.1295C9.58583 11.5795 8.90583 11.8495 8.19583 11.9495C6.83583 12.1495 5.40583 11.7395 4.36583 10.6995C3.41583 9.75948 2.97583 8.49948 3.04583 7.25948L6.13583 10.3495L10.3758 6.10948L7.28583 3.01948C8.52583 2.94948 9.77583 3.38948 10.7258 4.32948C11.8058 5.40948 12.2158 6.89948 11.9658 8.28948C11.8458 8.99948 11.5458 9.65948 11.0858 10.2495L20.5358 19.6995L19.6558 20.5895Z" fill="black"/>
</svg>
