<svg width="24" height="24" viewBox="0 0 24 24" fill="none" xmlns="http://www.w3.org/2000/svg">
<path fill-rule="evenodd" clip-rule="evenodd" d="M3.26318 4C3.26318 3.44772 3.7109 3 4.26318 3H13.2632C13.8155 3 14.2632 3.44772 14.2632 4V7C14.2632 7.55228 13.8155 8 13.2632 8H4.26318C3.7109 8 3.26318 7.55228 3.26318 7V4ZM5.26318 5V6H12.2632V5H5.26318ZM3.26318 10C3.26318 9.44772 3.7109 9 4.26318 9H5.26318C5.81547 9 6.26318 9.44772 6.26318 10V11C6.26318 11.5523 5.81547 12 5.26318 12H4.26318C3.7109 12 3.26318 11.5523 3.26318 11V10ZM8.26318 9C7.7109 9 7.26318 9.44772 7.26318 10V11C7.26318 11.5523 7.7109 12 8.26318 12H9.26318C9.81547 12 10.2632 11.5523 10.2632 11V10C10.2632 9.44772 9.81547 9 9.26318 9H8.26318ZM3.26318 14C3.26318 13.4477 3.7109 13 4.26318 13H5.26318C5.81547 13 6.26318 13.4477 6.26318 14V15C6.26318 15.5523 5.81547 16 5.26318 16H4.26318C3.7109 16 3.26318 15.5523 3.26318 15V14ZM8.26318 13C7.7109 13 7.26318 13.4477 7.26318 14V15C7.26318 15.5523 7.7109 16 8.26318 16H9.26318C9.81547 16 10.2632 15.5523 10.2632 15V14C10.2632 13.4477 9.81547 13 9.26318 13H8.26318Z" fill="black"/>
<path fill-rule="evenodd" clip-rule="evenodd" d="M0.5 2C0.5 0.89543 1.39543 0 2.5 0H15C16.1046 0 17 0.895431 17 2V7C17 7.55228 16.5523 8 16 8C15.4477 8 15 7.55228 15 7V2H2.5V17H9.5C10.0523 17 10.5 17.4477 10.5 18C10.5 18.5523 10.0523 19 9.5 19H2.5C1.39543 19 0.5 18.1046 0.5 17V2Z" fill="black"/>
<path fill-rule="evenodd" clip-rule="evenodd" d="M11 11C11 9.89543 11.8954 9 13 9H21C22.1046 9 23 9.89543 23 11V22C23 23.1046 22.1046 24 21 24H13C11.8954 24 11 23.1046 11 22V11ZM21 11H13V22H21V11Z" fill="black"/>
<path fill-rule="evenodd" clip-rule="evenodd" d="M14 13C14 12.4477 14.4477 12 15 12H19C19.5523 12 20 12.4477 20 13C20 13.5523 19.5523 14 19 14H15C14.4477 14 14 13.5523 14 13Z" fill="black"/>
<path fill-rule="evenodd" clip-rule="evenodd" d="M14 16C14 15.4477 14.4477 15 15 15H19C19.5523 15 20 15.4477 20 16C20 16.5523 19.5523 17 19 17H15C14.4477 17 14 16.5523 14 16Z" fill="black"/>
<path fill-rule="evenodd" clip-rule="evenodd" d="M14 19C14 18.4477 14.4477 18 15 18H16C16.5523 18 17 18.4477 17 19C17 19.5523 16.5523 20 16 20H15C14.4477 20 14 19.5523 14 19Z" fill="black"/>
</svg>
