<svg width="19" height="19" viewBox="0 0 19 19" fill="none" xmlns="http://www.w3.org/2000/svg">
	<path d="M0 0H19V19H0V0Z" fill="none"/>
	<path fill-rule="evenodd" clip-rule="evenodd" d="M2 0C1.44772 0 1 0.447715 1 1V18C1 18.5523 1.44772 19 2 19H17C17.5523 19 18 18.5523 18 18V1C18 0.447715 17.5523 0 17 0H2ZM3 17V2H16V17H3ZM5 3C4.44772 3 4 3.44772 4 4V7C4 7.55228 4.44772 8 5 8H14C14.5523 8 15 7.55228 15 7V4C15 3.44772 14.5523 3 14 3H5ZM6 6V5H13V6H6ZM4 10C4 9.44771 4.44772 9 5 9H6C6.55228 9 7 9.44771 7 10V11C7 11.5523 6.55228 12 6 12H5C4.44772 12 4 11.5523 4 11V10ZM13 9C12.4477 9 12 9.44771 12 10V11C12 11.5523 12.4477 12 13 12H14C14.5523 12 15 11.5523 15 11V10C15 9.44771 14.5523 9 14 9H13ZM8 10C8 9.44771 8.44772 9 9 9H10C10.5523 9 11 9.44771 11 10V11C11 11.5523 10.5523 12 10 12H9C8.44772 12 8 11.5523 8 11V10ZM5 13C4.44772 13 4 13.4477 4 14V15C4 15.5523 4.44772 16 5 16H6C6.55228 16 7 15.5523 7 15V14C7 13.4477 6.55228 13 6 13H5ZM12 14C12 13.4477 12.4477 13 13 13H14C14.5523 13 15 13.4477 15 14V15C15 15.5523 14.5523 16 14 16H13C12.4477 16 12 15.5523 12 15V14ZM9 13C8.44772 13 8 13.4477 8 14V15C8 15.5523 8.44772 16 9 16H10C10.5523 16 11 15.5523 11 15V14C11 13.4477 10.5523 13 10 13H9Z" fill="black"/>
</svg>
