<svg width="24" height="24" viewBox="0 0 24 24" fill="none" xmlns="http://www.w3.org/2000/svg">
<path fill-rule="evenodd" clip-rule="evenodd" d="M4.26318 3C3.7109 3 3.26318 3.44772 3.26318 4V7C3.26318 7.55228 3.7109 8 4.26318 8H13.2632C13.8155 8 14.2632 7.55228 14.2632 7V4C14.2632 3.44772 13.8155 3 13.2632 3H4.26318ZM5.26318 6V5H12.2632V6H5.26318ZM4.26318 9C3.7109 9 3.26318 9.44772 3.26318 10V11C3.26318 11.5523 3.7109 12 4.26318 12H5.26318C5.81547 12 6.26318 11.5523 6.26318 11V10C6.26318 9.44772 5.81547 9 5.26318 9H4.26318ZM14 13C14 12.4477 14.4477 12 15 12H16C16.5523 12 17 12.4477 17 13V14C17 14.5523 16.5523 15 16 15H15C14.4477 15 14 14.5523 14 14V13ZM15 16C14.4477 16 14 16.4477 14 17V18C14 18.5523 14.4477 19 15 19H16C16.5523 19 17 18.5523 17 18V17C17 16.4477 16.5523 16 16 16H15ZM18 13C18 12.4477 18.4477 12 19 12H20C20.5523 12 21 12.4477 21 13V14C21 14.5523 20.5523 15 20 15H19C18.4477 15 18 14.5523 18 14V13ZM19 16C18.4477 16 18 16.4477 18 17V18C18 18.5523 18.4477 19 19 19H20C20.5523 19 21 18.5523 21 18V17C21 16.4477 20.5523 16 20 16H19ZM16 21C16 20.4477 16.4477 20 17 20H18C18.5523 20 19 20.4477 19 21V22C19 22.5523 18.5523 23 18 23H17C16.4477 23 16 22.5523 16 22V21ZM8.26318 9C7.7109 9 7.26318 9.44772 7.26318 10V11C7.26318 11.5523 7.7109 12 8.26318 12H9.26318C9.81547 12 10.2632 11.5523 10.2632 11V10C10.2632 9.44772 9.81547 9 9.26318 9H8.26318ZM3.26318 14C3.26318 13.4477 3.7109 13 4.26318 13H5.26318C5.81547 13 6.26318 13.4477 6.26318 14V15C6.26318 15.5523 5.81547 16 5.26318 16H4.26318C3.7109 16 3.26318 15.5523 3.26318 15V14ZM8.26318 13C7.7109 13 7.26318 13.4477 7.26318 14V15C7.26318 15.5523 7.7109 16 8.26318 16H9.26318C9.81547 16 10.2632 15.5523 10.2632 15V14C10.2632 13.4477 9.81547 13 9.26318 13H8.26318Z" fill="black"/>
<path fill-rule="evenodd" clip-rule="evenodd" d="M0.5 2C0.5 0.89543 1.39543 0 2.5 0H15C16.1046 0 17 0.895431 17 2V7C17 7.55228 16.5523 8 16 8C15.4477 8 15 7.55228 15 7V2H2.5V17H9.5C10.0523 17 10.5 17.4477 10.5 18C10.5 18.5523 10.0523 19 9.5 19H2.5C1.39543 19 0.5 18.1046 0.5 17V2Z" fill="black"/>
<path fill-rule="evenodd" clip-rule="evenodd" d="M11 11C11 9.89543 11.8954 9 13 9H22C23.1046 9 24 9.89543 24 11V22C24 23.1046 23.1046 24 22 24H13C11.8954 24 11 23.1046 11 22V11ZM22 11H13V22H22V11Z" fill="black"/>
</svg>
