<svg width="24" height="24" viewBox="0 0 24 24" fill="none" xmlns="http://www.w3.org/2000/svg">
<rect width="24" height="24" fill="none"/>
<path fill-rule="evenodd" clip-rule="evenodd" d="M6 1C6.55228 1 7 1.44772 7 2V4H17V2C17 1.44772 17.4477 1 18 1C18.5523 1 19 1.44772 19 2V4H22C22.5523 4 23 4.44772 23 5V21C23 21.5523 22.5523 22 22 22H2C1.44772 22 1 21.5523 1 21V5C1 4.44772 1.44772 4 2 4H5V2C5 1.44772 5.44772 1 6 1ZM18 6H6H3V8H21V6H18ZM3 10V20H21V10H3ZM5 11C4.44772 11 4 11.4477 4 12V13C4 13.5523 4.44772 14 5 14H7C7.55228 14 8 13.5523 8 13V12C8 11.4477 7.55228 11 7 11H5ZM11 11C10.4477 11 10 11.4477 10 12V13C10 13.5523 10.4477 14 11 14H13C13.5523 14 14 13.5523 14 13V12C14 11.4477 13.5523 11 13 11H11ZM17 11C16.4477 11 16 11.4477 16 12V13C16 13.5523 16.4477 14 17 14H19C19.5523 14 20 13.5523 20 13V12C20 11.4477 19.5523 11 19 11H17ZM5 16C4.44772 16 4 16.4477 4 17V18C4 18.5523 4.44772 19 5 19H7C7.55228 19 8 18.5523 8 18V17C8 16.4477 7.55228 16 7 16H5ZM11 16C10.4477 16 10 16.4477 10 17V18C10 18.5523 10.4477 19 11 19H13C13.5523 19 14 18.5523 14 18V17C14 16.4477 13.5523 16 13 16H11ZM17 16C16.4477 16 16 16.4477 16 17V18C16 18.5523 16.4477 19 17 19H19C19.5523 19 20 18.5523 20 18V17C20 16.4477 19.5523 16 19 16H17Z" fill="black"/>
</svg>
