<svg width="24" height="24" viewBox="0 0 24 24" fill="none" xmlns="http://www.w3.org/2000/svg">
<path fill-rule="evenodd" clip-rule="evenodd" d="M4.50003 2.24994C4.35879 2.24994 4.09813 2.31606 3.70711 2.70707C3.31611 3.09806 2.25 4.35869 2.25 6.49993C2.25 8.64117 3.3161 11.9018 7.70712 16.2928C12.0981 20.6839 15.3588 21.75 17.5 21.75C19.6413 21.75 20.9019 20.6839 21.2929 20.2928C21.6839 19.9018 21.75 19.6412 21.75 19.5C21.75 19.3587 21.6839 19.0981 21.2929 18.7071L18.2929 15.7071C17.9019 15.3161 17.6413 15.25 17.5 15.25C17.3588 15.25 17.0981 15.3161 16.7071 15.7071L15.7607 16.6535L15.7599 16.6543L15.759 16.6551L15.7464 16.6678L15.745 16.6691L15.7437 16.6705L15.7424 16.6717L15.7412 16.673L15.74 16.6742L15.7354 16.6788L15.7343 16.6798L15.7303 16.6839L15.7294 16.6848L15.7285 16.6857L15.7276 16.6866L15.7267 16.6875L15.7259 16.6883L15.725 16.6891L15.7243 16.6899L15.722 16.6922L15.721 16.6932L15.72 16.6942L15.7191 16.6951L15.7182 16.696L15.7173 16.6969L15.7165 16.6977L15.7157 16.6984L15.715 16.6992L15.7141 16.7L15.7133 16.7009L15.7126 16.7016L15.7117 16.7025L15.7109 16.7032L15.7101 16.704L15.7094 16.7048L15.7087 16.7055L15.7079 16.7063L15.7072 16.707C15.5196 16.8945 15.2652 16.9999 15 17C13.1145 17 11.1235 15.7877 9.6679 14.3321C8.21227 12.8765 7 10.8855 7.00001 8.99995C7.00001 8.72349 7.1122 8.47323 7.29353 8.29222C7.29422 8.29153 7.29492 8.29084 7.29561 8.29015C7.29566 8.2901 7.29556 8.2902 7.29561 8.29015L8.29289 7.29286C8.68388 6.90186 8.74999 6.64121 8.74999 6.49995C8.74999 6.3587 8.68388 6.09805 8.29289 5.70705L5.29289 2.70704C4.90189 2.31602 4.64126 2.24994 4.50003 2.24994ZM9.02882 9.38537L9.70713 8.70705C10.3161 8.09805 10.75 7.3587 10.75 6.49995C10.75 5.64121 10.3161 4.90186 9.70713 4.29286L6.70714 1.29286C6.09813 0.683825 5.35877 0.249923 4.5 0.249939C3.64124 0.249955 2.9019 0.683866 2.29292 1.29284C1.68391 1.90183 0.250004 3.64117 0.25 6.49993C0.249996 9.35869 1.68389 13.098 6.29291 17.7071C10.9019 22.3161 14.6413 23.75 17.5 23.75C20.3588 23.75 22.0981 22.3161 22.7071 21.7071C23.3161 21.0981 23.75 20.3587 23.75 19.5C23.75 18.6412 23.3161 17.9018 22.7071 17.2928L19.7071 14.2928C19.0981 13.6838 18.3588 13.25 17.5 13.25C16.6413 13.25 15.9019 13.6838 15.2929 14.2928L14.6151 14.9707C13.5532 14.8181 12.2326 14.0684 11.0821 12.9179C9.93161 11.7674 9.18138 10.4473 9.02882 9.38537Z" fill="black"/>
</svg>
