<?xml version="1.0" encoding="utf-8"?>
<!-- Generator: Adobe Illustrator 23.0.3, SVG Export Plug-In . SVG Version: 6.00 Build 0)  -->
<svg version="1.1" id="Capa_1" xmlns="http://www.w3.org/2000/svg" xmlns:xlink="http://www.w3.org/1999/xlink" x="0px" y="0px"
	 viewBox="0 0 23 23" style="enable-background:new 0 0 23 23;" xml:space="preserve">
<g>
	<path d="M1.1,12.6l0,1.7l0,0c0,0.4,0.3,0.7,0.7,0.7l0,0l4.8,0c0.4,0,0.7-0.3,0.7-0.7l0-1.7l-0.2,0c0.1-0.7,0.9-0.9,2.6-1.1l4.1,0
		c1,0.1,1.9,0.3,2,1l-0.1,0l0,1.7l0,0c0,0.4,0.3,0.7,0.7,0.7l0,0l4.8,0c0.4,0,0.7-0.3,0.7-0.7l0-1.7l-0.2,0c-0.2-1-1.9-4.4-9.9-4.4
		C3.4,8,1.4,11.5,1.3,12.6L1.1,12.6z"/>
</g>
</svg>
