<svg width="24" height="24" viewBox="0 0 24 24" fill="none" xmlns="http://www.w3.org/2000/svg">
<path d="M1.14783 13.1478V14.9217C1.14783 15.3391 1.46087 15.6521 1.87826 15.6521H6.88696C7.30435 15.6521 7.61739 15.3391 7.61739 14.9217V13.1478H7.4087C7.51304 12.4174 8.34783 12.2087 10.1217 12H14.4C15.4435 12.1043 16.3826 12.313 16.487 13.0434H16.3826V14.8174C16.3826 15.2348 16.6957 15.5478 17.113 15.5478H22.1217C22.5391 15.5478 22.8522 15.2348 22.8522 14.8174V13.0434H22.6435C22.4348 12 20.6609 8.45214 12.313 8.45214C3.54783 8.34779 1.46087 12 1.35652 13.1478H1.14783Z" fill="black"/>
</svg>
