<svg width="24" height="24" viewBox="0 0 24 24" fill="none" xmlns="http://www.w3.org/2000/svg">
<path fill-rule="evenodd" clip-rule="evenodd" d="M6.98149 5.00017C7.40504 4.99233 7.78758 5.25222 7.93633 5.64888L12.4363 17.6489C12.6302 18.166 12.3682 18.7424 11.8511 18.9363C11.334 19.1302 10.7576 18.8682 10.5637 18.3511L9.4945 15.5H4.88742L3.94868 18.3162C3.77403 18.8402 3.20771 19.1233 2.68377 18.9487C2.15983 18.774 1.87667 18.2077 2.05131 17.6838L6.05131 5.68377C6.18528 5.28189 6.55793 5.00801 6.98149 5.00017ZM5.55409 13.5H8.7445L7.05546 8.9959L5.55409 13.5Z" fill="black"/>
<path fill-rule="evenodd" clip-rule="evenodd" d="M20 14C20 15.8603 18.6877 17 17.5 17C16.3123 17 15 15.8603 15 14C15 12.1397 16.3123 11 17.5 11C18.6877 11 20 12.1397 20 14ZM20.0111 9.85028C19.2939 9.31338 18.4299 9 17.5 9C15.0147 9 13 11.2386 13 14C13 16.7614 15.0147 19 17.5 19C18.4299 19 19.2939 18.6866 20.0111 18.1497C20.0834 18.631 20.4986 19 21 19C21.5523 19 22 18.5523 22 18V14V10C22 9.44772 21.5523 9 21 9C20.4986 9 20.0834 9.36902 20.0111 9.85028Z" fill="black"/>
</svg>
