<svg width="24" height="24" viewBox="0 0 24 24" fill="none" xmlns="http://www.w3.org/2000/svg">
<path d="M19.2832 15.3443C17.896 15.3443 16.5087 16 15.6763 17.0492L8.73988 13.377C8.87861 12.9836 9.01734 12.459 9.01734 11.9344C9.01734 11.4098 8.87861 11.0164 8.73988 10.4918L15.6763 6.81967C16.5087 7.86885 17.896 8.52459 19.2832 8.52459C21.7803 8.52459 23.8613 6.55738 23.8613 4.19672C23.8613 1.83607 21.7803 0 19.2832 0C16.7861 0 14.7052 1.96721 14.7052 4.32787C14.7052 4.85246 14.8439 5.2459 14.9827 5.77049L8.18497 9.31147C7.3526 8.26229 5.96532 7.60656 4.57804 7.60656C2.08093 7.60656 0 9.57377 0 11.9344C0 14.2951 2.08093 16.2623 4.57804 16.2623C6.10405 16.2623 7.3526 15.6066 8.18497 14.5574L15.1214 18.2295C14.9827 18.6229 14.8439 19.1475 14.8439 19.6721C14.8439 22.0328 16.9249 24 19.422 24C21.9191 24 24 22.0328 24 19.6721C24 17.3115 21.7803 15.3443 19.2832 15.3443ZM19.2832 1.31148C20.948 1.31148 22.3353 2.62295 22.3353 4.19672C22.3353 5.77049 20.948 7.08197 19.2832 7.08197C17.6185 7.08197 16.2312 5.77049 16.2312 4.19672C16.2312 2.62295 17.6185 1.31148 19.2832 1.31148ZM4.57804 14.8197C2.9133 14.8197 1.52601 13.5082 1.52601 11.9344C1.52601 10.3607 2.9133 9.04918 4.57804 9.04918C6.24278 9.04918 7.63006 10.3607 7.63006 11.9344C7.63006 13.5082 6.24278 14.8197 4.57804 14.8197ZM19.2832 22.5574C17.6185 22.5574 16.2312 21.2459 16.2312 19.6721C16.2312 18.0984 17.6185 16.7869 19.2832 16.7869C20.948 16.7869 22.3353 18.0984 22.3353 19.6721C22.474 21.2459 21.0867 22.5574 19.2832 22.5574Z" fill="#3D6780"/>
</svg>
