<svg width="24" height="24" viewBox="0 0 24 24" fill="none" xmlns="http://www.w3.org/2000/svg">
<path d="M0 0H24V24H0V0Z" fill="none"/>
<path fill-rule="evenodd" clip-rule="evenodd" d="M0 4C0 3.44772 0.447715 3 1 3H19C19.5523 3 20 3.44772 20 4V8C20 8.55228 19.5523 9 19 9C18.4477 9 18 8.55228 18 8V5H2V13H3C3.55228 13 4 13.4477 4 14V16.5858L7.29289 13.2929C7.48043 13.1054 7.73478 13 8 13H9C9.55229 13 10 13.4477 10 14C10 14.5523 9.55229 15 9 15H8.41421L3.70711 19.7071C3.42111 19.9931 2.99099 20.0787 2.61732 19.9239C2.24364 19.7691 2 19.4045 2 19V15H1C0.447715 15 0 14.5523 0 14V4Z" fill="black"/>
<path fill-rule="evenodd" clip-rule="evenodd" d="M11 11C11 10.4477 11.4477 10 12 10H23C23.5523 10 24 10.4477 24 11V18C24 18.5523 23.5523 19 23 19H21V21C21 21.4045 20.7564 21.7691 20.3827 21.9239C20.009 22.0787 19.5789 21.9931 19.2929 21.7071L16.5858 19H12C11.4477 19 11 18.5523 11 18V11ZM13 12V17H17C17.2652 17 17.5196 17.1054 17.7071 17.2929L19 18.5858V18C19 17.4477 19.4477 17 20 17H22V12H13Z" fill="black"/>
</svg>
