<svg width="17" height="14" viewBox="0 0 17 14" fill="none" xmlns="http://www.w3.org/2000/svg">
<path fill-rule="evenodd" clip-rule="evenodd" d="M14.3938 11.136C14.3938 12.7176 13.0742 14 11.4492 14H2.94453C1.31852 14 0 12.7176 0 11.136V2.86298C0 1.28245 1.31852 0 2.94453 0H11.4492C11.8585 0 12.2668 0.0792247 12.6456 0.248568C12.7372 0.28818 12.8095 0.378298 12.8299 0.477329C12.8502 0.587253 12.8187 0.685294 12.7372 0.765509L12.2363 1.25274L12.0011 1.35177L11.9094 1.33296C11.7557 1.29334 11.602 1.27255 11.4492 1.27255H2.94453C2.04447 1.27255 1.30834 1.98854 1.30834 2.86298V11.136C1.30834 12.0115 2.04447 12.7265 2.94453 12.7265H11.4492C12.3483 12.7265 13.0854 12.0115 13.0854 11.136V8.61074L13.1771 8.39188L13.8307 7.75511L14.0659 7.65608L14.1891 7.68579C14.3113 7.7353 14.3938 7.84523 14.3938 7.97496V11.136ZM8.43344 11.2053C8.10661 11.5242 7.59549 11.5242 7.26866 11.2053L2.87224 6.93018C2.54541 6.61229 2.54541 6.11516 2.87224 5.79628L3.9973 4.70298C4.32413 4.38509 4.83525 4.38509 5.16208 4.70298L7.85105 7.31838L14.465 0.884346C14.7919 0.566457 15.303 0.566457 15.6308 0.884346L16.7549 1.97864C17.0817 2.29653 17.0817 2.79366 16.7549 3.11155L8.43344 11.2053Z" fill="#919191"/>
</svg>
