<svg width="24" height="24" viewBox="0 0 24 24" fill="none" xmlns="http://www.w3.org/2000/svg">
<path fill-rule="evenodd" clip-rule="evenodd" d="M9.50889 0.0450681C7.78592 0.304861 6.37422 1.46486 5.88629 3.02179L5.76947 3.39447L5.74267 8.83517L5.71593 14.2759L5.27889 14.9091C4.56274 15.9466 4.31994 16.4364 4.13985 17.2073C3.81521 18.5968 4.05967 20.0041 4.83259 21.1952C6.49712 23.76 10.054 24.7281 12.9952 23.4168C14.2775 22.8451 15.3798 21.8026 15.9458 20.6265C16.3422 19.8024 16.492 19.0507 16.4442 18.1249C16.3834 16.9492 16.0949 16.2212 15.1428 14.8422L14.6919 14.189L14.6915 8.83869C14.6912 3.65586 14.6879 3.47604 14.5874 3.09814C14.2486 1.82403 13.1633 0.71146 11.8121 0.253081C11.1349 0.0233053 10.2082 -0.0603689 9.50889 0.0450681ZM11.0993 1.89228C11.8784 2.14213 12.558 2.86119 12.7135 3.60042C12.7477 3.76299 12.7666 5.78683 12.7666 9.28684V14.7208L13.4003 15.6475C14.3251 16.9998 14.4977 17.424 14.5022 18.3564C14.5074 19.4274 14.1202 20.2962 13.2935 21.0681C12.4543 21.8517 11.438 22.2334 10.198 22.2306C9.48011 22.2291 8.96783 22.1201 8.31766 21.8307C7.46949 21.4532 6.77946 20.8228 6.36693 20.0485C6.04068 19.4362 5.97771 19.1619 5.97855 18.3564C5.97922 17.6841 5.98687 17.6331 6.14985 17.2073C6.3406 16.709 6.36407 16.6694 7.15458 15.5148L7.71926 14.6901V9.1762C7.71926 3.80848 7.72202 3.65431 7.82255 3.36084C8.18507 2.30296 9.3122 1.65284 10.5551 1.78478C10.7269 1.80298 10.9717 1.85138 11.0993 1.89228ZM10.0608 3.18402C9.96065 3.19992 9.82921 3.23716 9.76875 3.26676C9.61374 3.3426 9.3392 3.63429 9.30559 3.75881C9.29008 3.81641 9.28389 6.42954 9.29185 9.56582L9.30632 15.2681L9.4568 15.4459C9.86803 15.9319 10.6617 15.902 11.0542 15.3858L11.1796 15.2208L11.1932 9.5502C11.2064 4.07376 11.2034 3.87269 11.1083 3.67884C10.9357 3.32707 10.4889 3.11601 10.0608 3.18402ZM18.0348 15.3898L18.0481 19.4351H19.0108H19.9734L19.9867 15.3898L20 11.3445H19.0108H18.0215L18.0348 15.3898ZM8.15526 16.7236C7.56872 17.5403 7.39894 18.1717 7.56862 18.9052C7.75792 19.7235 8.5272 20.4756 9.43266 20.7278C9.92969 20.8662 10.6189 20.8591 11.0922 20.7108C12.5007 20.2692 13.2531 18.961 12.8405 17.6709C12.7961 17.532 12.6177 17.204 12.4441 16.9421L12.1285 16.4658L11.837 16.6798C10.8678 17.3914 9.46143 17.3736 8.57679 16.6386L8.35101 16.451L8.15526 16.7236ZM18.5293 20.9627C18.1558 21.1405 17.9425 21.6084 18.0728 21.9643C18.2595 22.4741 18.8765 22.7286 19.4032 22.5129C20.3526 22.1242 20.0476 20.8601 19.0062 20.8677C18.8297 20.8691 18.6517 20.9045 18.5293 20.9627Z" fill="black"/>
</svg>
