<svg width="24" height="24" viewBox="0 0 24 24" fill="none" xmlns="http://www.w3.org/2000/svg">
<path fill-rule="evenodd" clip-rule="evenodd" d="M3 8.82888C3 7.13766 3.5905 5.95188 4.40445 5.18511C5.23238 4.40516 6.35436 4 7.5 4C8.64564 4 9.76762 4.40516 10.5956 5.1851C11.4095 5.95188 12 7.13766 12 8.82888V19.3437C12 19.896 12.4477 20.3437 13 20.3437C13.5523 20.3437 14 19.8952 14 19.343V8.82888C14 6.63419 13.2155 4.90552 11.9669 3.72933C10.7324 2.56632 9.10436 2 7.5 2C5.89564 2 4.26762 2.56632 3.03305 3.72934C1.7845 4.90552 1 6.63419 1 8.82888V19.3437C1 20.8257 1.57292 22.0123 2.4816 22.8197C3.37191 23.6108 4.53117 23.9924 5.66004 23.9999C6.78905 24.0074 7.95393 23.6408 8.84987 22.8487C9.76462 22.0399 10.3333 20.8439 10.3334 19.3437V8.82892C10.3334 7.96179 9.97317 7.25082 9.39967 6.77411C8.84927 6.31661 8.15406 6.11454 7.50003 6.11454C6.846 6.11454 6.15079 6.31661 5.60039 6.77411C5.02688 7.25082 4.66669 7.96179 4.66669 8.82892V16.6007C4.66669 17.153 5.11441 17.6008 5.66669 17.6008C6.21898 17.6008 6.66669 17.153 6.66669 16.6008H5.66669L6.66669 16.5998V8.82892C6.66669 8.55313 6.76484 8.40691 6.87883 8.31216C7.01593 8.1982 7.23739 8.11454 7.50003 8.11454C7.76267 8.11454 7.98412 8.1982 8.12122 8.31216C8.23522 8.40691 8.33336 8.55313 8.33336 8.82892V19.3437C8.33335 20.3052 7.98539 20.9434 7.52513 21.3503C7.04605 21.7739 6.37759 22.0046 5.67327 21.9999C4.96882 21.9953 4.29475 21.7554 3.81005 21.3247C3.34374 20.9103 3 20.275 3 19.3437V8.82888ZM16 6C15.4477 6 15 6.44772 15 7C15 7.55228 15.4477 8 16 8H20C20.5523 8 21 8.44772 21 9V21C21 21.5523 20.5523 22 20 22H11.5C10.9477 22 10.5 22.4477 10.5 23C10.5 23.5523 10.9477 24 11.5 24H20C21.6569 24 23 22.6569 23 21V9C23 7.34315 21.6569 6 20 6H16Z" fill="black"/>
</svg>
