<svg width="24" height="24" viewBox="0 0 24 24" fill="none" xmlns="http://www.w3.org/2000/svg">
<rect width="24" height="24" fill="none"/>
<path fill-rule="evenodd" clip-rule="evenodd" d="M8.56165 3.44577C7.65363 4.30334 7.00003 5.62591 7.00003 7.5V19C7.00003 20.0452 7.38614 20.7661 7.9152 21.2374C8.46246 21.725 9.21955 21.9936 10.0067 21.9988C10.7936 22.004 11.5451 21.7458 12.0867 21.2656C12.6097 20.802 13 20.0777 13.0001 19V7.50004C13.0001 7.16975 12.8803 6.9832 12.7349 6.86201C12.5665 6.72171 12.3037 6.62504 12.0001 6.62504C11.6964 6.62504 11.4336 6.72171 11.2652 6.86201C11.1198 6.9832 11.0001 7.16975 11.0001 7.50004V15.9994L10.0001 16L9.00006 16V7.50004C9.00006 6.58033 9.3803 5.82938 9.98488 5.32557C10.5665 4.84088 11.3037 4.62504 12.0001 4.62504C12.6964 4.62504 13.4336 4.84088 14.0152 5.32557C14.6198 5.82938 15.0001 6.58033 15.0001 7.50004V19C15 20.6147 14.3903 21.8963 13.4133 22.7623C12.455 23.6118 11.2064 24.0068 9.99339 23.9987C8.7805 23.9907 7.53758 23.5795 6.58486 22.7308C5.61392 21.8659 5.00003 20.5941 5.00003 19V7.5C5.00003 5.1241 5.84643 3.25916 7.18841 1.99174C8.5166 0.737331 10.2699 0.125001 12 0.125C13.7301 0.124999 15.4835 0.737328 16.8117 1.99174C18.1536 3.25916 19 5.1241 19 7.5V18.9992L18 19L17 19V7.5C17 5.62591 16.3464 4.30334 15.4384 3.44576C14.5166 2.57517 13.2699 2.125 12 2.125C10.7301 2.125 9.48346 2.57517 8.56165 3.44577ZM10.0001 17C9.44778 17 9.00006 16.5523 9.00006 16L10.0001 16L11.0001 15.9994C11.0001 16.5517 10.5523 17 10.0001 17ZM18 20C17.4477 20 17 19.5523 17 19L18 19L19 18.9992C19 19.5514 18.5523 20 18 20Z" fill="black"/>
</svg>
