<svg width="24" height="24" viewBox="0 0 24 24" fill="none" xmlns="http://www.w3.org/2000/svg">
<path fill-rule="evenodd" clip-rule="evenodd" d="M2 1.5C2 1.22386 2.22386 1 2.5 1H21.5C21.7761 1 22 1.22386 22 1.5V7.5C22 7.77614 21.7761 8 21.5 8C21.2239 8 21 7.77614 21 7.5V2H3V22H8.5C8.77614 22 9 22.2239 9 22.5C9 22.7761 8.77614 23 8.5 23H2.5C2.22386 23 2 22.7761 2 22.5V1.5ZM21.227 21.2749C22.3433 20.1928 23 18.6316 23 16.7143C23 15.8104 22.6361 14.667 22.0321 13.4098C21.4338 12.1642 20.6253 10.8582 19.7919 9.64354C18.9596 8.43061 18.1091 7.31853 17.4312 6.46142C17.0973 6.03922 16.7965 5.66827 16.5622 5.37928L16.5 5.30262L16.4378 5.37929C16.2035 5.66828 15.9027 6.03922 15.5688 6.46142C14.8909 7.31853 14.0404 8.43061 13.2081 9.64354C12.3747 10.8582 11.5662 12.1642 10.9679 13.4098C10.3639 14.667 10 15.8104 10 16.7143C10 18.6316 10.6567 20.1928 11.773 21.2749C12.8907 22.3584 14.509 23 16.5 23C18.491 23 20.1093 22.3584 21.227 21.2749ZM21.923 21.9929C20.5907 23.2844 18.709 24 16.5 24C14.291 24 12.4092 23.2844 11.077 21.9929C9.74332 20.7001 9 18.8684 9 16.7143C9 15.5825 9.44303 14.2746 10.0665 12.9768C10.6956 11.6672 11.5351 10.3143 12.3836 9.07775C13.2333 7.83946 14.0988 6.70808 14.7844 5.8411C15.1564 5.37077 15.4659 4.98978 15.694 4.70897L15.6942 4.70872L15.6942 4.70869L15.6943 4.70866C15.8965 4.45964 16.0348 4.28945 16.0958 4.20564C16.1899 4.07643 16.3402 4 16.5 4C16.6599 4 16.8101 4.07643 16.9042 4.20564C16.9652 4.28945 17.1035 4.45965 17.3058 4.70867L17.3058 4.70876L17.306 4.70891L17.3061 4.70904C17.5342 4.98985 17.8436 5.37081 18.2156 5.8411C18.9013 6.70808 19.7667 7.83946 20.6164 9.07775C21.4649 10.3143 22.3044 11.6672 22.9335 12.9768C23.557 14.2746 24 15.5825 24 16.7143C24 18.8684 23.2567 20.7001 21.923 21.9929ZM14.5 11C13.6716 11 13 11.6716 13 12.5V16.4384C13 17.7476 13.8094 18.9041 15.0058 19.3669C15.002 19.4107 15 19.4551 15 19.5V21.5C15 21.7761 15.2239 22 15.5 22H17.5C17.7761 22 18 21.7761 18 21.5V19.5C18 19.4551 17.998 19.4107 17.9942 19.3669C19.1906 18.9041 20 17.7476 20 16.4384V12.5C20 11.6716 19.3284 11 18.5 11H14.5ZM15.4236 18.4553C14.5773 18.1551 14 17.3512 14 16.4384V12.5C14 12.2239 14.2239 12 14.5 12H18.5C18.7761 12 19 12.2239 19 12.5V16.4384C19 17.3512 18.4227 18.1551 17.5764 18.4553C17.3038 18.1745 16.9223 18 16.5 18C16.0777 18 15.6962 18.1745 15.4236 18.4553ZM16.5 19C16.2239 19 16 19.2239 16 19.5V21H17V19.5C17 19.2239 16.7761 19 16.5 19ZM15.5 17C15.7761 17 16 16.7761 16 16.5C16 16.2239 15.7761 16 15.5 16C15.2239 16 15 16.2239 15 16.5C15 16.7761 15.2239 17 15.5 17ZM18 16.5C18 16.7761 17.7761 17 17.5 17C17.2239 17 17 16.7761 17 16.5C17 16.2239 17.2239 16 17.5 16C17.7761 16 18 16.2239 18 16.5ZM15.5 13C15.2239 13 15 13.2239 15 13.5V14.5C15 14.7761 15.2239 15 15.5 15H17.5C17.7761 15 18 14.7761 18 14.5V13.5C18 13.2239 17.7761 13 17.5 13H15.5ZM8 10C9.65685 10 11 8.65685 11 7C11 5.34315 9.65685 4 8 4C6.34315 4 5 5.34315 5 7C5 8.65685 6.34315 10 8 10ZM8 11C10.2091 11 12 9.20914 12 7C12 4.79086 10.2091 3 8 3C5.79086 3 4 4.79086 4 7C4 9.20914 5.79086 11 8 11ZM8 5C7.65482 5 7.33007 5.08744 7.04668 5.24139L7 5.26756L7 5.26757C6.4022 5.61338 6 6.25972 6 7C6 8.10457 6.89543 9 8 9C8.69036 9 9.29902 8.65022 9.65843 8.11822C9.68442 8.07974 9.70911 8.04032 9.73244 8C9.90261 7.70583 10 7.36429 10 7H8V5ZM4.5 12C4.22386 12 4 12.2239 4 12.5V20.5C4 20.7761 4.22386 21 4.5 21H6.5C6.77614 21 7 20.7761 7 20.5C7 20.2239 6.77614 20 6.5 20H5V19H5.5C5.77614 19 6 18.7761 6 18.5C6 18.2239 5.77614 18 5.5 18H5V17H6.5C6.77614 17 7 16.7761 7 16.5C7 16.2239 6.77614 16 6.5 16H5V15H7.5C7.77614 15 8 14.7761 8 14.5C8 14.2239 7.77614 14 7.5 14H5V13H8.5C8.77614 13 9 12.7761 9 12.5C9 12.2239 8.77614 12 8.5 12H4.5Z" fill="black"/>
</svg>
