<svg width="16" height="16" viewBox="0 0 16 16" fill="none" xmlns="http://www.w3.org/2000/svg">
<path fill-rule="evenodd" clip-rule="evenodd" d="M13 2H3C2.44772 2 2 2.44772 2 3V5C2 5.55228 2.44772 6 3 6H13C13.5523 6 14 5.55228 14 5V3C14 2.44772 13.5523 2 13 2ZM3 1C1.89543 1 1 1.89543 1 3V5C1 6.10457 1.89543 7 3 7H13C14.1046 7 15 6.10457 15 5V3C15 1.89543 14.1046 1 13 1H3ZM3 4.5C3 4.22386 3.22386 4 3.5 4H10.5C10.7761 4 11 4.22386 11 4.5C11 4.77614 10.7761 5 10.5 5H3.5C3.22386 5 3 4.77614 3 4.5ZM3.83099 7.98744C3.63573 7.79218 3.31915 7.79218 3.12388 7.98744C2.92862 8.18271 2.92862 8.49929 3.12388 8.69455C3.54817 9.11884 3.74029 9.3597 3.79906 9.60492C3.85005 9.81767 3.82031 10.1461 3.435 10.7883C3.0007 11.5122 2.81382 12.1262 2.95603 12.7193C3.09045 13.2799 3.50132 13.7083 3.89661 14.1036C4.09187 14.2989 4.40846 14.2989 4.60372 14.1036C4.79898 13.9084 4.79898 13.5918 4.60372 13.3965C4.17941 12.9722 3.98727 12.7314 3.92847 12.4862C3.87747 12.2734 3.90719 11.945 4.29249 11.3028C4.72678 10.579 4.91368 9.96499 4.77152 9.37185C4.63714 8.81119 4.22631 8.38276 3.83099 7.98744ZM6.2147 7.98744C6.40997 7.79218 6.72655 7.79218 6.92181 7.98744C7.31713 8.38276 7.72796 8.81119 7.86234 9.37185C8.0045 9.96499 7.8176 10.579 7.38331 11.3028C6.99801 11.945 6.96829 12.2734 7.01929 12.4862C7.07809 12.7314 7.27023 12.9722 7.69454 13.3965C7.8898 13.5918 7.8898 13.9084 7.69454 14.1036C7.49928 14.2989 7.18269 14.2989 6.98743 14.1036C6.59214 13.7083 6.18127 13.2799 6.04685 12.7193C5.90464 12.1262 6.09152 11.5122 6.52582 10.7883C6.91113 10.1461 6.94087 9.81767 6.88988 9.60492C6.83111 9.3597 6.63899 9.11884 6.2147 8.69455C6.01944 8.49929 6.01944 8.18271 6.2147 7.98744ZM10.0126 7.98744C9.81737 7.79218 9.50079 7.79218 9.30552 7.98744C9.11026 8.18271 9.11026 8.49929 9.30552 8.69455C9.72981 9.11884 9.92193 9.3597 9.9807 9.60492C10.0317 9.81767 10.0019 10.1461 9.61664 10.7883C9.18234 11.5122 8.99547 12.1262 9.13767 12.7193C9.27209 13.2799 9.68296 13.7083 10.0783 14.1036C10.2735 14.2989 10.5901 14.2989 10.7854 14.1036C10.9806 13.9084 10.9806 13.5918 10.7854 13.3965C10.3611 12.9722 10.1689 12.7314 10.1101 12.4862C10.0591 12.2734 10.0888 11.945 10.4741 11.3028C10.9084 10.579 11.0953 9.96499 10.9532 9.37185C10.8188 8.81119 10.4079 8.38276 10.0126 7.98744ZM12.3966 7.98744C12.5919 7.79218 12.9084 7.79218 13.1037 7.98744C13.499 8.38276 13.9098 8.81119 14.0442 9.37185C14.1864 9.96499 13.9995 10.579 13.5652 11.3028C13.1799 11.945 13.1502 12.2734 13.2012 12.4862C13.26 12.7314 13.4521 12.9722 13.8764 13.3965C14.0717 13.5918 14.0717 13.9084 13.8764 14.1036C13.6812 14.2989 13.3646 14.2989 13.1693 14.1036C12.774 13.7083 12.3632 13.2799 12.2287 12.7193C12.0865 12.1262 12.2734 11.5122 12.7077 10.7883C13.093 10.1461 13.1228 9.81767 13.0718 9.60492C13.013 9.3597 12.8209 9.11884 12.3966 8.69455C12.2013 8.49929 12.2013 8.18271 12.3966 7.98744ZM12.5 5C12.7761 5 13 4.77614 13 4.5C13 4.22386 12.7761 4 12.5 4C12.2239 4 12 4.22386 12 4.5C12 4.77614 12.2239 5 12.5 5Z" fill="black"/>
</svg>
