<svg width="16" height="16" viewBox="0 0 16 16" fill="none" xmlns="http://www.w3.org/2000/svg">
<path fill-rule="evenodd" clip-rule="evenodd" d="M9 2H8.44999C8.21836 3.14112 7.20948 4 6 4H4C2.79052 4 1.78164 3.14112 1.55001 2H1V13H9V2ZM8.5 1H7.5H2.5H1.5H1C0.447715 1 0 1.44772 0 2V13C0 13.5523 0.447716 14 1 14L1 15.5C1 15.7761 1.22386 16 1.5 16H3.5C3.77614 16 4 15.7761 4 15.5V14H6V15.5C6 15.7761 6.22386 16 6.5 16H8.5C8.77614 16 9 15.7761 9 15.5V14C9.55229 14 10 13.5523 10 13V2C10 1.44772 9.55229 1 9 1H8.5ZM2 14V15H3V14H2ZM7 15V14H8V15H7ZM7.41465 2H2.58535C2.79127 2.5826 3.34689 3 4 3H6C6.65311 3 7.20873 2.5826 7.41465 2ZM2 6V7.5V9.5V11C2 11.5523 2.44772 12 3 12H7C7.55228 12 8 11.5523 8 11V9.5V7.5V6C8 5.44772 7.55228 5 7 5H3C2.44772 5 2 5.44772 2 6ZM3 8V9H7V8H3ZM3 11V10H7V11H3ZM3 7H7V6H3V7ZM11.1463 6.14669C10.951 6.34195 10.951 6.65853 11.1463 6.85379C11.3415 7.04906 11.6581 7.04906 11.8534 6.85379C11.8948 6.81238 11.9333 6.77343 11.9698 6.73656C12.0769 6.62837 12.1662 6.53815 12.2578 6.45659C12.3763 6.35107 12.4655 6.29153 12.542 6.25955C12.6448 6.2166 12.8229 6.17699 13.2427 6.42891C13.8273 6.77961 14.3479 6.87054 14.8434 6.66339C15.066 6.57033 15.2509 6.42949 15.4069 6.29059C15.5243 6.18602 15.6447 6.06434 15.7572 5.9505L15.7572 5.95047L15.7573 5.95045L15.7577 5.94998C15.7904 5.91698 15.8223 5.88464 15.8534 5.85358C16.0487 5.65832 16.0487 5.34173 15.8534 5.14647C15.6581 4.95121 15.3416 4.95121 15.1463 5.14647C15.1048 5.18799 15.0662 5.22703 15.0296 5.26397L15.0295 5.26407C14.9226 5.37212 14.8334 5.46223 14.7419 5.54373C14.6234 5.64926 14.5342 5.70879 14.4577 5.74076C14.3551 5.78368 14.1771 5.82335 13.7572 5.57141C13.1727 5.22069 12.652 5.12979 12.1565 5.33688C11.9338 5.42992 11.749 5.57074 11.5929 5.70964C11.4753 5.81432 11.3549 5.93612 11.2422 6.05005L11.2422 6.05006L11.2422 6.05007C11.2095 6.08315 11.1774 6.11555 11.1463 6.14669ZM11.1463 9.85355C10.951 9.65829 10.951 9.3417 11.1463 9.14644C11.1774 9.11531 11.2095 9.0829 11.2422 9.04983L11.2422 9.04981L11.2422 9.04981C11.3549 8.93588 11.4753 8.81407 11.5929 8.7094C11.749 8.57049 11.9338 8.42968 12.1565 8.33664C12.652 8.12955 13.1727 8.22045 13.7572 8.57117C14.1771 8.8231 14.3551 8.78343 14.4577 8.74052C14.5342 8.70855 14.6234 8.64902 14.7419 8.54348C14.8334 8.46198 14.9226 8.37187 15.0295 8.26382L15.0296 8.26373C15.0662 8.22678 15.1048 8.18774 15.1463 8.14623C15.3416 7.95097 15.6581 7.95097 15.8534 8.14623C16.0487 8.34149 16.0487 8.65807 15.8534 8.85333C15.8223 8.8844 15.7904 8.91673 15.7577 8.94973L15.7573 8.95021L15.7572 8.95024C15.6447 9.06408 15.5243 9.18577 15.4069 9.29035C15.2509 9.42924 15.066 9.57008 14.8434 9.66314C14.3479 9.8703 13.8273 9.77937 13.2427 9.42866C12.8229 9.17674 12.6448 9.21636 12.542 9.25931C12.4655 9.29129 12.3763 9.35082 12.2578 9.45634C12.1662 9.5379 12.0769 9.62811 11.9698 9.73629L11.9698 9.73631L11.9698 9.73632L11.9698 9.73636L11.9697 9.73641C11.9333 9.77325 11.8948 9.81217 11.8534 9.85355C11.6581 10.0488 11.3415 10.0488 11.1463 9.85355ZM11.1463 12.1464C10.951 12.3417 10.951 12.6583 11.1463 12.8535C11.3415 13.0488 11.6581 13.0488 11.8534 12.8535C11.8948 12.8121 11.9333 12.7732 11.9698 12.7363L11.9698 12.7363C12.0769 12.6281 12.1662 12.5379 12.2578 12.4563C12.3763 12.3508 12.4655 12.2913 12.542 12.2593C12.6448 12.2164 12.8229 12.1767 13.2427 12.4287C13.8273 12.7794 14.3479 12.8703 14.8434 12.6631C15.066 12.5701 15.2509 12.4292 15.4069 12.2903C15.5243 12.1858 15.6447 12.0641 15.7572 11.9502L15.7573 11.9502L15.7577 11.9497C15.7904 11.9167 15.8223 11.8844 15.8534 11.8533C16.0487 11.6581 16.0487 11.3415 15.8534 11.1462C15.6581 10.951 15.3416 10.951 15.1463 11.1462C15.1048 11.1878 15.0661 11.2268 15.0295 11.2638C14.9226 11.3719 14.8334 11.462 14.7419 11.5435C14.6234 11.649 14.5342 11.7085 14.4577 11.7405C14.3551 11.7834 14.1771 11.8231 13.7572 11.5712C13.1727 11.2204 12.652 11.1295 12.1565 11.3366C11.9338 11.4297 11.749 11.5705 11.5929 11.7094C11.4753 11.8141 11.3548 11.9359 11.2422 12.0498C11.2095 12.0829 11.1774 12.1153 11.1463 12.1464Z" fill="black"/>
</svg>
