<svg width="24" height="24" viewBox="0 0 24 24" fill="none" xmlns="http://www.w3.org/2000/svg">
<path d="M21.4286 17.258V12.8563C21.4286 12.4021 21.248 11.9665 20.9265 11.6453C20.605 11.3241 20.1689 11.1437 19.7143 11.1437H12.8571V6.74202C13.6651 6.53359 14.3693 6.0379 14.8377 5.34788C15.306 4.65785 15.5064 3.82085 15.4012 2.99378C15.2961 2.16671 14.8926 1.40634 14.2665 0.855202C13.6403 0.304066 12.8345 0 12 0C11.1655 0 10.3597 0.304066 9.73352 0.855202C9.10737 1.40634 8.70391 2.16671 8.59876 2.99378C8.49361 3.82085 8.69399 4.65785 9.16234 5.34788C9.6307 6.0379 10.3349 6.53359 11.1429 6.74202V11.1437H4.28572C3.83106 11.1437 3.39503 11.3241 3.07354 11.6453C2.75205 11.9665 2.57143 12.4021 2.57143 12.8563V17.258C1.76344 17.4664 1.05927 17.9621 0.590921 18.6521C0.122568 19.3422 -0.0778144 20.1791 0.0273351 21.0062C0.132485 21.8333 0.535946 22.5937 1.16209 23.1448C1.78824 23.6959 2.59409 24 3.42858 24C4.26307 24 5.06891 23.6959 5.69506 23.1448C6.32121 22.5937 6.72467 21.8333 6.82982 21.0062C6.93497 20.1791 6.73459 19.3422 6.26623 18.6521C5.79788 17.9621 5.09371 17.4664 4.28572 17.258V12.8563H19.7143V17.258C18.9063 17.4664 18.2021 17.9621 17.7338 18.6521C17.2654 19.3422 17.065 20.1791 17.1702 21.0062C17.2753 21.8333 17.6788 22.5937 18.3049 23.1448C18.9311 23.6959 19.7369 24 20.5714 24C21.4059 24 22.2118 23.6959 22.8379 23.1448C23.4641 22.5937 23.8675 21.8333 23.9727 21.0062C24.0778 20.1791 23.8774 19.3422 23.4091 18.6521C22.9407 17.9621 22.2366 17.4664 21.4286 17.258V17.258ZM5.14286 20.5635C5.14286 20.9022 5.04232 21.2334 4.85395 21.515C4.66558 21.7967 4.39785 22.0162 4.08461 22.1458C3.77136 22.2754 3.42668 22.3094 3.09414 22.2433C2.7616 22.1772 2.45614 22.0141 2.21639 21.7745C1.97665 21.535 1.81338 21.2298 1.74723 20.8976C1.68109 20.5654 1.71503 20.221 1.84478 19.9081C1.97453 19.5951 2.19426 19.3276 2.47617 19.1394C2.75808 18.9512 3.08952 18.8508 3.42858 18.8508C3.88323 18.8508 4.31927 19.0312 4.64076 19.3524C4.96225 19.6736 5.14286 20.1093 5.14286 20.5635ZM10.2857 3.43651C10.2857 3.09777 10.3863 2.76664 10.5746 2.48499C10.763 2.20334 11.0307 1.98382 11.344 1.85419C11.6572 1.72456 12.0019 1.69064 12.3344 1.75672C12.667 1.82281 12.9724 1.98593 13.2122 2.22545C13.4519 2.46498 13.6152 2.77015 13.6813 3.10238C13.7475 3.43461 13.7135 3.77898 13.5838 4.09193C13.454 4.40489 13.2343 4.67238 12.9524 4.86057C12.6705 5.04876 12.3391 5.14921 12 5.14921C11.5453 5.14921 11.1093 4.96877 10.7878 4.64757C10.4663 4.32638 10.2857 3.89075 10.2857 3.43651ZM20.5714 22.2762C20.2324 22.2762 19.9009 22.1757 19.619 21.9875C19.3371 21.7993 19.1174 21.5319 18.9876 21.2189C18.8579 20.906 18.8239 20.5616 18.8901 20.2294C18.9562 19.8971 19.1195 19.592 19.3592 19.3524C19.599 19.1129 19.9044 18.9498 20.237 18.8837C20.5695 18.8176 20.9142 18.8515 21.2275 18.9812C21.5407 19.1108 21.8084 19.3303 21.9968 19.612C22.1852 19.8936 22.2857 20.2247 22.2857 20.5635C22.2857 21.0177 22.1051 21.4534 21.7836 21.7745C21.4621 22.0957 21.0261 22.2762 20.5714 22.2762Z" fill="black"/>
</svg>
