<svg width="16" height="16" viewBox="0 0 16 16" fill="none" xmlns="http://www.w3.org/2000/svg">
<path fill-rule="evenodd" clip-rule="evenodd" d="M8.248 0.565878C8.09428 0.47804 7.90558 0.478041 7.75186 0.565879L4.25188 2.56588C4.0961 2.6549 3.99995 2.82057 3.99995 3V6.5C3.99995 6.67943 4.0961 6.8451 4.25188 6.93412L7.75186 8.93412C7.90558 9.02196 8.09428 9.02196 8.248 8.93412L11.748 6.93412C11.9038 6.8451 12 6.67943 12 6.5V3C12 2.82057 11.9038 2.6549 11.748 2.56588L8.248 0.565878ZM11 3.86159V6.20984L8.49993 7.63841V5.29016L11 3.86159ZM7.49993 5.29016V7.63841L4.99995 6.20984V3.86159L7.49993 5.29016ZM5.50773 3L7.99993 4.42412L10.4922 3L7.99993 1.57588L5.50773 3ZM0.427734 11.5264C0.0525009 12.2768 0.286806 13.2921 1.22259 13.916L4.2215 15.9153L4.22252 15.916C4.30466 15.9707 4.40123 16 4.49994 16H10.4999C10.5636 16 10.6266 15.9878 10.6856 15.9642L15.6737 13.969C15.7066 13.9568 15.7379 13.9412 15.7672 13.9227C15.8876 13.8464 15.9732 13.7201 15.9947 13.5729C15.9988 13.5453 16.0006 13.5171 16 13.4888V10.5C16 10.2239 15.7761 10 15.5 10H12C11.9462 10 11.8928 10.0087 11.8418 10.0257L8.91881 11H6.99995C6.53586 11 6.15404 11.1854 5.89509 11.4864C5.64509 11.7771 5.53221 12.1478 5.53221 12.5C5.53221 12.6543 5.55387 12.8121 5.59924 12.9652L2.77729 11.084C2.31666 10.7769 1.83519 10.6634 1.39149 10.762C0.9486 10.8604 0.613055 11.1558 0.427734 11.5264ZM7.00527 14H9.49994C9.77609 14 9.99994 13.7761 9.99994 13.5C9.99994 13.2238 9.77609 13 9.49994 13H6.99349C6.81644 12.9985 6.71607 12.9345 6.6532 12.8614C6.58062 12.7771 6.53221 12.6478 6.53221 12.5C6.53221 12.3522 6.58062 12.2229 6.6532 12.1386C6.71683 12.0646 6.81888 12 6.99995 12H8.99982C9.05356 12 9.10708 11.9913 9.15807 11.9743L12.0811 11H15V13.1615L10.4037 15H4.65133L1.77729 13.0839C1.21308 12.7078 1.19738 12.2232 1.32215 11.9736C1.38683 11.8443 1.48879 11.7647 1.6084 11.7381C1.72719 11.7117 1.93322 11.7232 2.2226 11.9161L5.2226 13.916C5.30473 13.9708 5.40123 14 5.49994 14H6.99014C6.99341 14 6.99668 14 6.99995 14C7.00173 14 7.0035 14 7.00527 14Z" fill="black"/>
</svg>
