<svg width="16" height="16" viewBox="0 0 16 16" fill="none" xmlns="http://www.w3.org/2000/svg">
<path fill-rule="evenodd" clip-rule="evenodd" d="M2.10733 2.11207C2.06437 2.15298 2 2.25013 2 2.5V13.8333C2.00162 13.84 2.01143 13.8799 2.06358 13.9296C2.12239 13.9856 2.17919 14 2.2 14H4.5C4.77614 14 5 14.2239 5 14.5C5 14.7761 4.77614 15 4.5 15H2.2C1.87081 15 1.57761 14.8477 1.37392 14.6537C1.17179 14.4612 1 14.1714 1 13.8333V2.5C1 2.0832 1.11063 1.68035 1.41767 1.38793C1.72015 1.09986 2.12885 1 2.55 1H13.55C13.9711 1 14.3799 1.09986 14.6823 1.38793C14.9894 1.68035 15.1 2.0832 15.1 2.5V3.5C15.1 3.77614 14.8761 4 14.6 4H13V5.5C13 5.77614 12.7761 6 12.5 6C12.2239 6 12 5.77614 12 5.5V2.5C12 2.32875 12.0187 2.15985 12.062 2H2.55C2.27115 2 2.15485 2.06681 2.10733 2.11207ZM13.55 2C13.2711 2 13.1549 2.06681 13.1073 2.11207C13.0644 2.15298 13 2.25013 13 2.5V3H14.1V2.5C14.1 2.25013 14.0356 2.15298 13.9927 2.11207C13.9452 2.06681 13.8289 2 13.55 2ZM3 3.5C3 3.22386 3.22386 3 3.5 3H10.5C10.7761 3 11 3.22386 11 3.5C11 3.77614 10.7761 4 10.5 4H3.5C3.22386 4 3 3.77614 3 3.5ZM3.5 5C3.22386 5 3 5.22386 3 5.5C3 5.77614 3.22386 6 3.5 6H10.5C10.7761 6 11 5.77614 11 5.5C11 5.22386 10.7761 5 10.5 5H3.5ZM8 14C8.55228 14 9 13.5523 9 13V13C8.99999 12.4477 8.55228 12 8 12C7.44775 12 7.00005 12.4477 7 12.9999V13C7 13.5523 7.44772 14 8 14ZM6 13V13C6 14.1046 6.89543 15 8 15C9.10457 15 10 14.1046 10 13V12.9999V8.9999C10 8.37079 9.75382 7.86405 9.35959 7.52078C8.97533 7.18618 8.47878 7.03052 8 7.03052C7.52122 7.03052 7.02467 7.18618 6.64041 7.52078C6.24618 7.86405 6 8.37079 6 8.9999V13ZM7 11.2676C7.29417 11.0974 7.63571 11 8 11C8.36429 11 8.70583 11.0974 9 11.2676V8.9999C9 8.64943 8.87118 8.42147 8.70291 8.27495C8.52467 8.11975 8.27122 8.03052 8 8.03052C7.72878 8.03052 7.47533 8.11975 7.29709 8.27495C7.12882 8.42147 7 8.64943 7 8.9999V11.2676ZM13 14C13.5523 14 14 13.5523 14 13C14 13 14 13 14 13C14 12.4477 13.5523 12 13 12C12.4477 12 12.0001 12.4477 12 12.9999C12 12.9999 12 13 12 13C12 13.5523 12.4477 14 13 14ZM11 13C11 13 11 13 11 13C11 14.1046 11.8954 15 13 15C14.1046 15 15 14.1046 15 13C15 13 15 12.9999 15 12.9999V8.9999C15 8.37079 14.7538 7.86405 14.3596 7.52078C13.9753 7.18618 13.4788 7.03052 13 7.03052C12.5212 7.03052 12.0247 7.18618 11.6404 7.52078C11.2462 7.86405 11 8.37079 11 8.9999V13ZM14 11.2676V8.9999C14 8.64943 13.8712 8.42147 13.7029 8.27495C13.5247 8.11975 13.2712 8.03052 13 8.03052C12.7288 8.03052 12.4753 8.11975 12.2971 8.27495C12.1288 8.42147 12 8.64943 12 8.9999V11.2676C12.2942 11.0974 12.6357 11 13 11C13.3643 11 13.7058 11.0974 14 11.2676Z" fill="black"/>
</svg>
