<svg width="24" height="24" viewBox="0 0 24 24" fill="none" xmlns="http://www.w3.org/2000/svg">
<path fill-rule="evenodd" clip-rule="evenodd" d="M2 3C2 2.57707 2.10539 2.35171 2.22855 2.22855C2.35171 2.10539 2.57707 2 3 2H18.1921C18.0568 2.29706 18 2.63823 18 3V12.5C18 12.7761 18.2239 13 18.5 13C18.7761 13 19 12.7761 19 12.5V5H21.5C21.7761 5 22 4.77614 22 4.5V3C22 2.42293 21.8554 1.89829 21.4786 1.52145C21.1017 1.14461 20.5771 1 20 1H3C2.42293 1 1.89829 1.14461 1.52145 1.52145C1.14461 1.89829 1 2.42293 1 3V20.5C1 20.9126 1.20127 21.2834 1.45895 21.5411C1.71662 21.7987 2.08738 22 2.5 22H4.5C4.77614 22 5 21.7761 5 21.5C5 21.2239 4.77614 21 4.5 21H2.5C2.41262 21 2.28338 20.9513 2.16605 20.8339C2.04873 20.7166 2 20.5874 2 20.5V3ZM19.2286 2.22855C19.3517 2.10539 19.5771 2 20 2C20.4229 2 20.6483 2.10539 20.7714 2.22855C20.8946 2.35171 21 2.57707 21 3V4H19V3C19 2.57707 19.1054 2.35171 19.2286 2.22855ZM4.5 4C4.22386 4 4 4.22386 4 4.5C4 4.77614 4.22386 5 4.5 5H15.5C15.7761 5 16 4.77614 16 4.5C16 4.22386 15.7761 4 15.5 4H4.5ZM4 7.5C4 7.22386 4.22386 7 4.5 7H15.5C15.7761 7 16 7.22386 16 7.5C16 7.77614 15.7761 8 15.5 8H4.5C4.22386 8 4 7.77614 4 7.5ZM6.5 10C6.22386 10 6 10.2239 6 10.5V22.5C6 22.7761 6.22386 23 6.5 23H22.5C22.7761 23 23 22.7761 23 22.5V14.5C23 14.2239 22.7761 14 22.5 14H15V10.5C15 10.2239 14.7761 10 14.5 10H6.5ZM7 11H14V22H7V11ZM11 12.5C11 12.2239 11.2239 12 11.5 12H12.5C12.7761 12 13 12.2239 13 12.5V13.5C13 13.7761 12.7761 14 12.5 14H11.5C11.2239 14 11 13.7761 11 13.5V12.5ZM8.5 12C8.22386 12 8 12.2239 8 12.5V13.5C8 13.7761 8.22386 14 8.5 14H9.5C9.77614 14 10 13.7761 10 13.5V12.5C10 12.2239 9.77614 12 9.5 12H8.5ZM11 15.5C11 15.2239 11.2239 15 11.5 15H12.5C12.7761 15 13 15.2239 13 15.5V16.5C13 16.7761 12.7761 17 12.5 17H11.5C11.2239 17 11 16.7761 11 16.5V15.5ZM8.5 15C8.22386 15 8 15.2239 8 15.5V16.5C8 16.7761 8.22386 17 8.5 17H9.5C9.77614 17 10 16.7761 10 16.5V15.5C10 15.2239 9.77614 15 9.5 15H8.5ZM11 18.5C11 18.2239 11.2239 18 11.5 18H12.5C12.7761 18 13 18.2239 13 18.5V19.5C13 19.7761 12.7761 20 12.5 20H11.5C11.2239 20 11 19.7761 11 19.5V18.5ZM8.5 18C8.22386 18 8 18.2239 8 18.5V19.5C8 19.7761 8.22386 20 8.5 20H9.5C9.77614 20 10 19.7761 10 19.5V18.5C10 18.2239 9.77614 18 9.5 18H8.5ZM19 19.5C19 19.2239 19.2239 19 19.5 19H20.5C20.7761 19 21 19.2239 21 19.5V20.5C21 20.7761 20.7761 21 20.5 21H19.5C19.2239 21 19 20.7761 19 20.5V19.5ZM15 22V15H22V22H15ZM16.5 19C16.2239 19 16 19.2239 16 19.5V20.5C16 20.7761 16.2239 21 16.5 21H17.5C17.7761 21 18 20.7761 18 20.5V19.5C18 19.2239 17.7761 19 17.5 19H16.5ZM19 16.5C19 16.2239 19.2239 16 19.5 16H20.5C20.7761 16 21 16.2239 21 16.5V17.5C21 17.7761 20.7761 18 20.5 18H19.5C19.2239 18 19 17.7761 19 17.5V16.5ZM16.5 16C16.2239 16 16 16.2239 16 16.5V17.5C16 17.7761 16.2239 18 16.5 18H17.5C17.7761 18 18 17.7761 18 17.5V16.5C18 16.2239 17.7761 16 17.5 16H16.5Z" fill="black"/>
</svg>
