<svg width="16" height="16" viewBox="0 0 16 16" fill="none" xmlns="http://www.w3.org/2000/svg">
<path fill-rule="evenodd" clip-rule="evenodd" d="M2 2.5C2 2.25013 2.06437 2.15298 2.10733 2.11207C2.15485 2.06681 2.27115 2 2.55 2H12.062C12.0187 2.15985 12 2.32875 12 2.5V5.5C12 5.77614 12.2239 6 12.5 6C12.7761 6 13 5.77614 13 5.5V4H14.6C14.8761 4 15.1 3.77614 15.1 3.5V2.5C15.1 2.0832 14.9894 1.68035 14.6823 1.38793C14.3799 1.09986 13.9711 1 13.55 1H2.55C2.12885 1 1.72015 1.09986 1.41767 1.38793C1.11063 1.68035 1 2.0832 1 2.5V13.8333C1 14.1714 1.17179 14.4612 1.37392 14.6537C1.57761 14.8477 1.87081 15 2.2 15H5.5C5.77614 15 6 14.7761 6 14.5C6 14.2239 5.77614 14 5.5 14H2.2C2.17919 14 2.12239 13.9856 2.06358 13.9296C2.01143 13.8799 2.00162 13.84 2 13.8333V2.5ZM13.1073 2.11207C13.1549 2.06681 13.2711 2 13.55 2C13.8289 2 13.9452 2.06681 13.9927 2.11207C14.0356 2.15298 14.1 2.25013 14.1 2.5V3H13V2.5C13 2.25013 13.0644 2.15298 13.1073 2.11207ZM3.5 3C3.22386 3 3 3.22386 3 3.5C3 3.77614 3.22386 4 3.5 4H10.5C10.7761 4 11 3.77614 11 3.5C11 3.22386 10.7761 3 10.5 3H3.5ZM3 5.5C3 5.22386 3.22386 5 3.5 5H10.5C10.7761 5 11 5.22386 11 5.5C11 5.77614 10.7761 6 10.5 6H3.5C3.22386 6 3 5.77614 3 5.5ZM7.5 7C7.22386 7 7 7.22386 7 7.5V13.5V15.5C7 15.7761 7.22386 16 7.5 16H15.5C15.7761 16 16 15.7761 16 15.5V13.5V7.5C16 7.22386 15.7761 7 15.5 7H7.5ZM9 15H8V14H9V15ZM10 15H15V14H10V15ZM10 13H12V11.9146C11.4174 11.7087 11 11.1531 11 10.5C11 9.67157 11.6716 9 12.5 9C13.3284 9 14 9.67157 14 10.5C14 11.1531 13.5826 11.7087 13 11.9146V13H15V8H10V13ZM9 8H8V13H9V8ZM12.5 11C12.7761 11 13 10.7761 13 10.5C13 10.2239 12.7761 10 12.5 10C12.2239 10 12 10.2239 12 10.5C12 10.7761 12.2239 11 12.5 11Z" fill="black"/>
</svg>
