<svg width="24" height="24" viewBox="0 0 24 24" fill="none" xmlns="http://www.w3.org/2000/svg">
<path d="M0 0H24V24H0V0Z" fill="none"/>
<path fill-rule="evenodd" clip-rule="evenodd" d="M1 1C1 0.447715 1.44772 0 2 0H19C19.5523 0 20 0.447715 20 1V7C20 7.55228 19.5523 8 19 8C18.4477 8 18 7.55228 18 7V2H3V21H8C8.55228 21 9 21.4477 9 22C9 22.5523 8.55228 23 8 23H2C1.44772 23 1 22.5523 1 22V1ZM4 5C4 4.44772 4.44772 4 5 4H16C16.5523 4 17 4.44772 17 5C17 5.55228 16.5523 6 16 6H5C4.44772 6 4 5.55228 4 5ZM4 9C4 8.44771 4.44772 8 5 8H16C16.5523 8 17 8.44771 17 9C17 9.55229 16.5523 10 16 10H5C4.44772 10 4 9.55229 4 9ZM5 17C4.44772 17 4 17.4477 4 18C4 18.5523 4.44772 19 5 19H8C8.55228 19 9 18.5523 9 18C9 17.4477 8.55228 17 8 17H5ZM21.7071 9.29289C21.3166 8.90237 20.6834 8.90237 20.2929 9.29289L11.2929 18.2929C11.1533 18.4325 11.0582 18.6103 11.0194 18.8039L10.5194 21.3039C10.4539 21.6317 10.5565 21.9707 10.7929 22.2071C11.0293 22.4435 11.3683 22.5462 11.6961 22.4806L14.1961 21.9806C14.3897 21.9419 14.5675 21.8467 14.7071 21.7071L23.7071 12.7071C24.0976 12.3166 24.0976 11.6834 23.7071 11.2929L21.7071 9.29289ZM12.7748 20.2252L12.9212 19.493L21 11.4142L21.5858 12L13.507 20.0788L12.7748 20.2252Z" fill="black"/>
</svg>
