<svg width="19" height="19" viewBox="0 0 19 19" fill="none" xmlns="http://www.w3.org/2000/svg">
<path d="M0 0H19V19H0V0Z" fill="none"/>
<path fill-rule="evenodd" clip-rule="evenodd" d="M2 0C1.44772 0 1 0.447715 1 1V18C1 18.5523 1.44772 19 2 19H5H17C17.5523 19 18 18.5523 18 18V15C18 14.4477 17.5523 14 17 14C16.4477 14 16 14.4477 16 15V17H5H3V2H16V3C16 3.55228 16.4477 4 17 4C17.5523 4 18 3.55228 18 3V1C18 0.447715 17.5523 0 17 0H2ZM4 5C4 4.44772 4.44772 4 5 4H14C14.5523 4 15 4.44772 15 5C15 5.55228 14.5523 6 14 6H5C4.44772 6 4 5.55228 4 5ZM4 9C4 8.44771 4.44772 8 5 8H9.5C10.0523 8 10.5 8.44771 10.5 9C10.5 9.55229 10.0523 10 9.5 10H5C4.44772 10 4 9.55229 4 9ZM15.2929 6.29289C15.6834 5.90237 16.3166 5.90237 16.7071 6.29289L18.7071 8.29289C19.0976 8.68342 19.0976 9.31658 18.7071 9.70711L12.7071 15.7071C12.5675 15.8467 12.3897 15.9419 12.1961 15.9806L9.69613 16.4806C9.36827 16.5462 9.02933 16.4435 8.79291 16.2071C8.55649 15.9707 8.45386 15.6317 8.51944 15.3039L9.01944 12.8039C9.05815 12.6103 9.15331 12.4325 9.29291 12.2929L15.2929 6.29289ZM10.9212 13.493L10.7748 14.2252L11.507 14.0788L16.5858 9L16 8.41421L10.9212 13.493Z" fill="black"/>
</svg>
