<svg width="24" height="24" viewBox="0 0 19 16" fill="none" xmlns="http://www.w3.org/2000/svg">
<path fill-rule="evenodd" clip-rule="evenodd" d="M2 2.42857C2 2.19227 2.05742 2.10759 2.08403 2.08013C2.10784 2.05557 2.18111 2 2.4 2H12.1447C12.1133 2.13898 12.1 2.28355 12.1 2.42857V4.5C12.1 4.77614 12.3239 5 12.6 5C12.8761 5 13.1 4.77614 13.1 4.5V3.85714H14.4C14.6761 3.85714 14.9 3.63329 14.9 3.35714V2.42857C14.9 2.04582 14.8074 1.66622 14.534 1.38416C14.2578 1.09919 13.8811 1 13.5 1H2.4C2.01889 1 1.64216 1.09919 1.36597 1.38416C1.09258 1.66622 1 2.04582 1 2.42857V13.881C1 14.1929 1.1465 14.4668 1.32847 14.6545C1.50948 14.8413 1.78178 15 2.1 15H7.05C7.32614 15 7.55 14.7761 7.55 14.5C7.55 14.2239 7.32614 14 7.05 14H2.10553C2.10376 13.9994 2.10078 13.9983 2.0966 13.9963C2.08336 13.9899 2.06505 13.9777 2.04653 13.9586C2.02808 13.9395 2.01485 13.9193 2.00713 13.9022C2.00101 13.8887 2.00011 13.8812 2 13.8803L2 13.8803V2.42857ZM13.184 2.08013C13.2078 2.05557 13.2811 2 13.5 2C13.7189 2 13.7922 2.05557 13.816 2.08013C13.8426 2.10759 13.9 2.19227 13.9 2.42857V2.85714H13.1V2.42857C13.1 2.19227 13.1574 2.10759 13.184 2.08013ZM3.5 3C3.22386 3 3 3.22386 3 3.5C3 3.77614 3.22386 4 3.5 4H10.5C10.7761 4 11 3.77614 11 3.5C11 3.22386 10.7761 3 10.5 3H3.5ZM3 5.5C3 5.22386 3.22386 5 3.5 5H10.5C10.7761 5 11 5.22386 11 5.5C11 5.77614 10.7761 6 10.5 6H3.5C3.22386 6 3 5.77614 3 5.5ZM3.5 7C3.22386 7 3 7.22386 3 7.5C3 7.77614 3.22386 8 3.5 8H10.5C10.7761 8 11 7.77614 11 7.5C11 7.22386 10.7761 7 10.5 7H3.5ZM8.63484 12.5682C8.63949 12.4907 8.66212 12.4153 8.70093 12.3481L12.1652 6.3478C12.3033 6.10865 12.6091 6.02672 12.8482 6.16479L14.5803 7.16479C14.8194 7.30286 14.9014 7.60865 14.7633 7.8478L11.299 13.8481C11.2602 13.9153 11.2063 13.9726 11.1415 14.0154L9.27546 15.2474C9.11742 15.3518 8.91398 15.3579 8.74997 15.2632C8.58595 15.1685 8.48952 14.9893 8.50086 14.8002L8.63484 12.5682ZM9.58457 13.4356L9.91536 13.6266L9.55898 13.8619L9.58457 13.4356ZM10.683 12.9151L13.6473 7.78081L12.7812 7.28081L9.81695 12.4151L10.683 12.9151ZM3.85355 11.1464C3.65829 10.9512 3.34171 10.9512 3.14645 11.1464C2.95118 11.3417 2.95118 11.6583 3.14645 11.8536L4.14645 12.8536C4.34171 13.0488 4.65829 13.0488 4.85355 12.8536L5.5 12.2071L6.14645 12.8536C6.34171 13.0488 6.65829 13.0488 6.85355 12.8536C7.04882 12.6583 7.04882 12.3417 6.85355 12.1464L5.85355 11.1464C5.65829 10.9512 5.34171 10.9512 5.14645 11.1464L4.5 11.7929L3.85355 11.1464Z" fill="black"/>
</svg>
