<svg width="24" height="24" viewBox="0 0 24 24" fill="none" xmlns="http://www.w3.org/2000/svg">
<path fill-rule="evenodd" clip-rule="evenodd" d="M16.3584 0.0695418C15.4494 0.241669 14.433 0.686604 13.6995 1.23347C13.497 1.3844 12.7798 2.06407 12.1057 2.74386C10.9326 3.92682 10.8775 3.99231 10.8191 4.27175C10.6091 5.27817 11.6217 6.07291 12.5303 5.61483C12.6283 5.56542 13.2563 4.98411 13.926 4.32303C15.4267 2.84142 15.7775 2.61162 16.8783 2.38844C17.7335 2.21512 18.6122 2.34555 19.4759 2.77405C20.1583 3.11259 20.8807 3.83532 21.2191 4.51804C21.6474 5.38219 21.7778 6.2613 21.6045 7.11683C21.3814 8.21821 21.1517 8.56909 19.6708 10.0705C19.01 10.7405 18.429 11.3688 18.3796 11.4669C17.9218 12.3759 18.7161 13.389 19.7221 13.1788C20.0014 13.1205 20.0669 13.0654 21.2493 11.8917C22.5478 10.6028 22.8872 10.2001 23.2621 9.50395C23.5563 8.95743 23.8669 8.019 23.9535 7.41457C24.0488 6.7502 23.991 5.46939 23.8398 4.89193C23.5199 3.67033 23.0141 2.79264 22.1074 1.88537C21.2026 0.980262 20.3316 0.477309 19.099 0.148183C18.5145 -0.00785298 16.9972 -0.051423 16.3584 0.0695418ZM15.2285 7.15757C15.0154 7.24947 7.52939 14.6865 7.26039 15.0735C7.08324 15.3284 7.02514 15.7862 7.12968 16.1031C7.35111 16.7743 8.16491 17.1214 8.79709 16.8143C8.95135 16.7394 10.3106 15.416 12.9143 12.8057C16.1082 9.60389 16.8143 8.86864 16.8742 8.68241C17.0736 8.06302 16.8394 7.45599 16.2926 7.17547C16.036 7.0438 15.5128 7.03496 15.2285 7.15757ZM4.22125 10.8316C3.97326 10.8988 3.82664 11.0246 2.75669 12.089C2.10277 12.7395 1.41617 13.4735 1.23098 13.7201C0.668061 14.4696 0.260256 15.4174 0.0731445 16.4109C-0.0533707 17.0826 -0.00976429 18.4687 0.157696 19.0986C0.472964 20.2846 0.985311 21.1886 1.83513 22.0583C3.05254 23.3041 4.43582 23.9246 6.1461 23.992C7.34896 24.0394 8.193 23.8793 9.21469 23.4097C9.9872 23.0547 10.3979 22.7296 11.7099 21.4345C13.0464 20.1153 13.1873 19.9284 13.1873 19.4758C13.1873 18.6387 12.2867 18.0464 11.5085 18.3717C11.3827 18.4243 10.819 18.9342 10.052 19.689C8.95011 20.7736 8.74578 20.9494 8.33956 21.1621C7.12979 21.7957 5.71479 21.7957 4.50503 21.1621C3.85858 20.8235 3.16648 20.1308 2.83649 19.492C2.20708 18.2737 2.2068 16.885 2.83564 15.6634C3.04959 15.2478 3.20624 15.065 4.30308 13.9516C4.97841 13.266 5.57146 12.625 5.62107 12.5269C6.09332 11.593 5.23728 10.5562 4.22125 10.8316Z" fill="#3D6780"/>
</svg>
