<svg width="25" height="25" viewBox="0 0 25 25" fill="none" xmlns="http://www.w3.org/2000/svg">
<path fill-rule="evenodd" clip-rule="evenodd" d="M8.5 9.5V13H15.5V9.5H8.5ZM7.5 8C7.22386 8 7 8.22386 7 8.5V14C7 14.2761 7.22386 14.5 7.5 14.5H16.5C16.7761 14.5 17 14.2761 17 14V8.5C17 8.22386 16.7761 8 16.5 8H7.5Z" fill="black"/>
<path fill-rule="evenodd" clip-rule="evenodd" d="M10 10.25C10.4142 10.25 10.75 10.5858 10.75 11V11.5C10.75 11.9142 10.4142 12.25 10 12.25C9.58579 12.25 9.25 11.9142 9.25 11.5V11C9.25 10.5858 9.58579 10.25 10 10.25ZM12 10.25C12.4142 10.25 12.75 10.5858 12.75 11V11.5C12.75 11.9142 12.4142 12.25 12 12.25C11.5858 12.25 11.25 11.9142 11.25 11.5V11C11.25 10.5858 11.5858 10.25 12 10.25ZM14 10.25C14.4142 10.25 14.75 10.5858 14.75 11V11.5C14.75 11.9142 14.4142 12.25 14 12.25C13.5858 12.25 13.25 11.9142 13.25 11.5V11C13.25 10.5858 13.5858 10.25 14 10.25Z" fill="black"/>
<path fill-rule="evenodd" clip-rule="evenodd" d="M7.25 16C7.25 15.5858 7.58579 15.25 8 15.25H16C16.4142 15.25 16.75 15.5858 16.75 16C16.75 16.4142 16.4142 16.75 16 16.75H8C7.58579 16.75 7.25 16.4142 7.25 16Z" fill="black"/>
<path d="M12.5 24H2C1.46957 24 0.960859 23.7893 0.585786 23.4142C0.210714 23.0391 0 22.5304 0 22V2C0 1.46957 0.210714 0.960859 0.585786 0.585786C0.960859 0.210714 1.46957 0 2 0H22C22.5304 0 23.0391 0.210714 23.4142 0.585786C23.7893 0.960859 24 1.46957 24 2V13H22V2H2V22H12.5V24Z" fill="black"/>
<path d="M21.01 16.0025L21.72 15.2925C22.11 14.9025 22.74 14.9025 23.13 15.2925L23.84 16.0025C24.23 16.3925 24.23 17.0225 23.84 17.4125L23.13 18.1225L21.01 16.0025ZM20.3 16.7125L15 22.0125V24.1325H17.12L22.42 18.8325L20.3 16.7125Z" fill="black"/>
<path fill-rule="evenodd" clip-rule="evenodd" d="M14.0475 20.7661C13.3897 20.9191 12.7043 21 12 21C7.02944 21 3 16.9706 3 12C3 7.02944 7.02944 3 12 3C16.9706 3 21 7.02944 21 12C21 12.7951 20.8969 13.566 20.7034 14.3003L14.0475 20.7661ZM19 12C19 15.866 15.866 19 12 19C8.13401 19 5 15.866 5 12C5 8.13401 8.13401 5 12 5C15.866 5 19 8.13401 19 12Z" fill="black"/>
</svg>
