<svg width="25" height="25" viewBox="0 0 25 25" fill="none" xmlns="http://www.w3.org/2000/svg">
<path d="M8 24H2C1.46957 24 0.960859 23.7893 0.585786 23.4142C0.210714 23.0391 0 22.5304 0 22V2C0 1.46957 0.210714 0.960859 0.585786 0.585786C0.960859 0.210714 1.46957 0 2 0H22C22.5304 0 23.0391 0.210714 23.4142 0.585786C23.7893 0.960859 24 1.46957 24 2V13H22V2H2V22H8V24Z" fill="black"/>
<path d="M21.01 16.0025L21.72 15.2925C22.11 14.9025 22.74 14.9025 23.13 15.2925L23.84 16.0025C24.23 16.3925 24.23 17.0225 23.84 17.4125L23.13 18.1225L21.01 16.0025ZM20.3 16.7125L15 22.0125V24.1325H17.12L22.42 18.8325L20.3 16.7125Z" fill="black"/>
<path d="M8.5 6.5H11.5" stroke="black" stroke-width="1.5" stroke-linecap="round" stroke-linejoin="round"/>
<path d="M8.5 9H11.5" stroke="black" stroke-width="1.5" stroke-linecap="round" stroke-linejoin="round"/>
<path d="M8.5 11.5H15.5" stroke="black" stroke-width="1.5" stroke-linecap="round" stroke-linejoin="round"/>
<path d="M14 20H6.5C6.22386 20 6 19.7761 6 19.5V4.5C6 4.22386 6.22386 4 6.5 4H13.7929C13.9255 4 14.0527 4.05268 14.1464 4.14645L17.8536 7.85355C17.9473 7.94732 18 8.0745 18 8.20711V12V15.5" stroke="black" stroke-width="2" stroke-linecap="round" stroke-linejoin="round"/>
<path d="M14 4V7.5C14 7.77614 14.2239 8 14.5 8H18" stroke="black" stroke-width="2" stroke-linecap="round" stroke-linejoin="round"/>
</svg>
