<svg width="25" height="25" viewBox="0 0 25 25" fill="none" xmlns="http://www.w3.org/2000/svg">
<path fill-rule="evenodd" clip-rule="evenodd" d="M12.5 5C11.1193 5 10 6.11929 10 7.5C10 8.88071 11.1193 10 12.5 10C13.8807 10 15 8.88071 15 7.5C15 6.11929 13.8807 5 12.5 5ZM8 7.5C8 5.01472 10.0147 3 12.5 3C14.9853 3 17 5.01472 17 7.5C17 9.98528 14.9853 12 12.5 12C10.0147 12 8 9.98528 8 7.5Z" fill="black"/>
<path d="M13 7.5C13 7.77614 12.7761 8 12.5 8C12.2239 8 12 7.77614 12 7.5C12 7.22386 12.2239 7 12.5 7C12.7761 7 13 7.22386 13 7.5Z" fill="black"/>
<path fill-rule="evenodd" clip-rule="evenodd" d="M14.8103 8.45697L13.4247 7.88239C13.4727 7.76656 13.5 7.63836 13.5 7.5C13.5 7.36164 13.4727 7.23344 13.4247 7.11761L14.8103 6.54303C14.9325 6.8378 15 7.16102 15 7.5C15 7.83898 14.9325 8.1622 14.8103 8.45697ZM13.457 5.1897L12.8824 6.57529C12.7666 6.52726 12.6384 6.5 12.5 6.5C12.3616 6.5 12.2334 6.52726 12.1176 6.57529L11.543 5.1897C11.8378 5.06747 12.161 5 12.5 5C12.839 5 13.1622 5.06747 13.457 5.1897ZM10.1897 6.54303C10.0675 6.8378 10 7.16102 10 7.5C10 7.83898 10.0675 8.1622 10.1897 8.45697L11.5753 7.88239C11.5273 7.76656 11.5 7.63836 11.5 7.5C11.5 7.36164 11.5273 7.23344 11.5753 7.11761L10.1897 6.54303ZM11.543 9.8103L12.1176 8.42471C12.2334 8.47274 12.3616 8.5 12.5 8.5C12.6384 8.5 12.7666 8.47274 12.8824 8.42471L13.457 9.8103C13.1622 9.93253 12.839 10 12.5 10C12.161 10 11.8378 9.93253 11.543 9.8103Z" fill="black"/>
<path d="M21.01 16.0025L21.72 15.2925C22.11 14.9025 22.74 14.9025 23.13 15.2925L23.84 16.0025C24.23 16.3925 24.23 17.0225 23.84 17.4125L23.13 18.1225L21.01 16.0025ZM20.3 16.7125L15 22.0125V24.1325H17.12L22.42 18.8325L20.3 16.7125Z" fill="black"/>
<path d="M8 24H2C1.46957 24 0.960859 23.7893 0.585786 23.4142C0.210714 23.0391 0 22.5304 0 22V2C0 1.46957 0.210714 0.960859 0.585786 0.585786C0.960859 0.210714 1.46957 0 2 0H22C22.5304 0 23.0391 0.210714 23.4142 0.585786C23.7893 0.960859 24 1.46957 24 2V13H22V2H2V22H8V24Z" fill="black"/>
<path fill-rule="evenodd" clip-rule="evenodd" d="M3 16C3 14.8954 3.89543 14 5 14H6C7.10457 14 8 14.8954 8 16V19C8 20.1046 7.10457 21 6 21H5C3.89543 21 3 20.1046 3 19V16ZM6 16H5V19H6V16Z" fill="black"/>
<path fill-rule="evenodd" clip-rule="evenodd" d="M11 10C11.5523 10 12 10.4477 12 11V15C12 16.1046 11.1046 17 10 17H7C6.44772 17 6 16.5523 6 16C6 15.4477 6.44772 15 7 15H10V11C10 10.4477 10.4477 10 11 10Z" fill="black"/>
<path fill-rule="evenodd" clip-rule="evenodd" d="M14 10C14.5523 10 15 10.4477 15 11V15H17C17.5523 15 18 15.4477 18 16C18 16.5523 17.5523 17 17 17H15C13.8954 17 13 16.1046 13 15V11C13 10.4477 13.4477 10 14 10Z" fill="black"/>
<path fill-rule="evenodd" clip-rule="evenodd" d="M16.9464 18H7C6.44772 18 6 18.4477 6 19C6 19.5523 6.44772 20 7 20H14.9001L16.9464 18Z" fill="black"/>
<path fill-rule="evenodd" clip-rule="evenodd" d="M17 17.9476L20.847 14.1877C20.5898 14.0673 20.3028 14 20 14H19C17.8954 14 17 14.8954 17 16V17.9476Z" fill="black"/>
</svg>
