<svg width="24" height="24" viewBox="0 0 24 24" fill="none" xmlns="http://www.w3.org/2000/svg">
<path fill-rule="evenodd" clip-rule="evenodd" d="M3.0088 4C3.56108 4 4.00879 4.44772 4.00879 5.00001L3.00879 5L2.00879 4.99999C2.00879 4.44771 2.45651 4 3.0088 4ZM3.00879 5C2.00879 4.99999 2.00879 4.9999 2.00879 4.99999V18.8125C2.00885 20.0146 2.2905 21.1021 3.0306 21.8885C3.78142 22.6863 4.8386 23 6.00879 23H20C20.5522 23 21 22.5523 21 22C21 21.4477 20.5522 21 20 21H6.00879C5.17893 21 4.73616 20.7825 4.48702 20.5178C4.22715 20.2417 4.00883 19.7354 4.00879 18.8125V5.00001C4.00879 4.99992 4.00879 5.00001 3.00879 5Z" fill="black"/>
<path fill-rule="evenodd" clip-rule="evenodd" d="M2.883 2.1154C3.50034 1.42368 4.40348 1 5.50881 1H20.0083C20.0084 1 20.0088 1 20.0088 2C20.0088 3 20.0088 3 20.0087 3H5.50881C4.94494 3 4.59452 3.20132 4.37517 3.4471C4.13966 3.71099 4.00055 4.09034 4 4.50134C3.99945 4.9123 4.13747 5.29051 4.37174 5.55327C4.58979 5.79784 4.9404 6 5.50881 6H20.0083C20.0084 6 20.0088 6 20.0088 7L20.0083 6C20.2736 6 20.5286 6.10544 20.7161 6.2931C20.9037 6.48076 21.009 6.73527 21.0088 7.00059L21 22.0006C20.9997 22.5529 20.5517 23.0003 19.9994 23C19.4471 22.9997 18.9997 22.5517 19 21.9994L19.0082 8H5.50881C4.40134 8 3.49671 7.57716 2.87891 6.88423C2.27732 6.20949 1.99888 5.3377 2 4.49866C2.00112 3.65966 2.28182 2.78901 2.883 2.1154ZM21.0088 2C21.0088 2.55228 20.561 3 20.0087 3L20.0088 2L20.0083 1C20.5606 1 21.0088 1.44772 21.0088 2Z" fill="black"/>
<path fill-rule="evenodd" clip-rule="evenodd" d="M6 10C6 9.44772 6.44772 9 7 9H16C16.5523 9 17 9.44772 17 10V13C17 13.5523 16.5523 14 16 14H7C6.44772 14 6 13.5523 6 13V10ZM8 11V12H15V11H8Z" fill="black"/>
<path fill-rule="evenodd" clip-rule="evenodd" d="M5 4.5C5 3.94772 5.44772 3.5 6 3.5H19C19.5523 3.5 20 3.94772 20 4.5C20 5.05228 19.5523 5.5 19 5.5H6C5.44772 5.5 5 5.05228 5 4.5Z" fill="black"/>
<path fill-rule="evenodd" clip-rule="evenodd" d="M6 17C6 16.4477 6.32832 16 6.73333 16H16.2667C16.6717 16 17 16.4477 17 17C17 17.5523 16.6717 18 16.2667 18H6.73333C6.32832 18 6 17.5523 6 17Z" fill="black"/>
</svg>
