<svg width="24" height="24" viewBox="0 0 24 24" fill="none" xmlns="http://www.w3.org/2000/svg">
<rect width="24" height="24" fill="none"/>
<path fill-rule="evenodd" clip-rule="evenodd" d="M1.29289 0.292893C1.48043 0.105357 1.73478 0 2 0H16C16.5523 0 17 0.447715 17 1V7C17 7.55228 16.5523 8 16 8C15.4477 8 15 7.55228 15 7V2H3V19H8C8.55228 19 9 19.4477 9 20C9 20.5523 8.55228 21 8 21H2C1.73478 21 1.48043 20.8946 1.29289 20.7071C1.10536 20.5196 1 20.2652 1 20V1C1 0.734784 1.10536 0.48043 1.29289 0.292893ZM10 13C10 12.4477 10.4477 12 11 12H13V10C13 9.44772 13.4477 9 14 9H20C20.5523 9 21 9.44772 21 10V12H23C23.5523 12 24 12.4477 24 13V18V21C24 21.5523 23.5523 22 23 22H21V23C21 23.5523 20.5523 24 20 24H14C13.4477 24 13 23.5523 13 23V22H11C10.4477 22 10 21.5523 10 21V18V13ZM19 12V11H15V12H19ZM22 20H21V19H22V20ZM19 22V21V19H15V21V22H19ZM20 17H14H12V14H22V17H20ZM13 20V19H12V20H13Z" fill="black"/>
</svg>
