<svg width="24" height="24" viewBox="0 0 24 24" fill="none" xmlns="http://www.w3.org/2000/svg">
<rect width="24" height="24" fill="none"/>
<path fill-rule="evenodd" clip-rule="evenodd" d="M3.0246 4.00009L3.02459 3.00009C2.47231 3.0001 2.0246 3.44781 2.0246 4.00009C2.0246 7.01173 2.26679 10.2205 3.50516 12.6973C4.13596 13.9589 5.0351 15.0522 6.30151 15.823C7.5661 16.5928 9.12952 17.0001 11.0246 17.0001C12.9197 17.0001 14.4831 16.5928 15.7477 15.823C17.0141 15.0522 17.9132 13.9589 18.544 12.6973C19.7824 10.2205 20.0246 7.01173 20.0246 4.00009C20.0246 3.44782 19.5769 3.00011 19.0246 3.00009H3.02459C3.02459 3.00009 3.02459 3.00009 3.0246 4.00009ZM4.03509 5.00008C4.09212 7.6065 4.39617 10.0071 5.29402 11.8028C5.78821 12.7912 6.45157 13.573 7.34141 14.1146C8.23308 14.6574 9.41967 15.0001 11.0246 15.0001C12.6295 15.0001 13.8161 14.6574 14.7078 14.1146C15.5976 13.573 16.261 12.7912 16.7552 11.8028C17.653 10.0071 17.9571 7.6065 18.0141 5.00009L4.03509 5.00008Z" fill="black"/>
<path fill-rule="evenodd" clip-rule="evenodd" d="M18.0246 7.00005C18.0246 6.44776 18.4723 6.00004 19.0246 6.00003C20.1787 6.00001 21.228 6.28922 21.9817 7.0429C22.7354 7.79658 23.0246 8.84588 23.0246 10C23.0246 10.9963 22.6836 11.7989 22.1323 12.4064C21.6008 12.9922 20.9198 13.3475 20.2949 13.568C19.0704 14.0002 17.8083 14 17.5324 14L17.5247 14C16.9724 14 16.5246 13.5523 16.5246 13.0001C16.5246 12.4478 16.9723 12 17.5245 12C17.7654 12 18.7406 11.9956 19.6293 11.682C20.0669 11.5276 20.4172 11.3203 20.6512 11.0624C20.8656 10.8261 21.0246 10.5037 21.0246 10C21.0246 9.15416 20.8138 8.70343 20.5675 8.45711C20.3212 8.2108 19.8705 8.00002 19.0246 8.00003C18.4723 8.00004 18.0246 7.55233 18.0246 7.00005Z" fill="black"/>
<path fill-rule="evenodd" clip-rule="evenodd" d="M0.0382826 16.8356C0.118635 16.3534 0.535831 16 1.02468 16H21.0247C21.5135 16 21.9307 16.3534 22.0111 16.8356L21.0247 17C22.0111 16.8356 22.0113 16.8367 22.0113 16.8367L22.0115 16.8379L22.0119 16.8406L22.0129 16.8467L22.0153 16.8623C22.017 16.8743 22.0191 16.8892 22.0214 16.9069C22.0259 16.9424 22.0312 16.9892 22.0359 17.0459C22.0453 17.1587 22.0528 17.3133 22.0477 17.4965C22.0377 17.8565 21.9781 18.3619 21.7603 18.8846C21.5377 19.4188 21.1496 19.969 20.504 20.3767C19.8637 20.7811 19.0423 21 18.0247 21H4.02468C3.00705 21 2.18567 20.7811 1.54541 20.3767C0.899846 19.969 0.511737 19.4188 0.289142 18.8846C0.0713368 18.3619 0.0116509 17.8565 0.00164222 17.4965C-0.00345046 17.3134 0.00408637 17.1587 0.0134883 17.0459C0.0182093 16.9892 0.0234586 16.9424 0.0279828 16.907C0.0302476 16.8892 0.0323387 16.8743 0.0341036 16.8624L0.0364908 16.8467L0.0374679 16.8406L0.0378964 16.838L0.0380949 16.8368C0.0380949 16.8368 0.0382826 16.8356 1.02468 17L0.0382826 16.8356ZM2.09265 18C2.10526 18.0388 2.11943 18.0773 2.13529 18.1154C2.2252 18.3312 2.36835 18.531 2.6134 18.6858C2.86376 18.8439 3.29236 19 4.02468 19H18.0247C18.757 19 19.1856 18.8439 19.436 18.6858C19.6811 18.531 19.8242 18.3312 19.9141 18.1154C19.93 18.0773 19.9441 18.0388 19.9567 18H2.09265Z" fill="black"/>
</svg>
