<svg width="24" height="24" viewBox="0 0 24 24" fill="none" xmlns="http://www.w3.org/2000/svg">
<path d="M7.40872 2.81738C6.36524 2.81738 5.32176 3.33912 4.59133 4.3826C3.8609 5.32173 3.54785 6.5739 3.54785 7.93043C3.54785 10.0174 4.48698 11.8956 5.94785 12.7304V20.8696C5.94785 21.1826 6.15655 21.3913 6.46959 21.3913H8.34785C8.66089 21.3913 8.86959 21.1826 8.86959 20.8696V12.8348C9.49568 12.5217 10.1218 11.8956 10.5392 11.0609C11.0609 10.1217 11.2696 9.07825 11.2696 7.93043C11.2696 6.5739 10.8522 5.32173 10.2261 4.3826C9.49568 3.33912 8.4522 2.81738 7.40872 2.81738ZM8.13916 12C7.93046 12.1043 7.82611 12.313 7.82611 12.5217V20.4522H6.99133V12.5217C6.99133 12.313 6.88698 12.1043 6.67829 12C5.42611 11.4783 4.59133 9.80869 4.59133 8.03477C4.59133 6.88695 4.90437 5.84347 5.42611 5.00869C5.94785 4.27825 6.67829 3.86086 7.40872 3.86086C8.13916 3.86086 8.86959 4.27825 9.39133 5.00869C9.91307 5.84347 10.2261 6.88695 10.2261 8.03477C10.2261 9.91303 9.39133 11.4783 8.13916 12Z" fill="#224B80"/>
<path d="M18.887 2.71299C18.4696 2.71299 18.1566 2.81734 17.8435 3.13038C17.5305 2.81734 17.1131 2.60864 16.5913 2.60864C16.0696 2.60864 15.6522 2.81734 15.3392 3.13038C15.0261 2.92169 14.7131 2.81734 14.2957 2.81734C13.4609 2.81734 12.7305 3.54777 12.7305 4.38256V7.93038C12.7305 10.0173 13.6696 11.8956 15.1305 12.7304V20.8695C15.1305 21.1826 15.3392 21.3913 15.6522 21.3913H17.5305C17.8435 21.3913 18.0522 21.1826 18.0522 20.8695V12.8347C18.6783 12.5217 19.3044 11.8956 19.7218 11.0608C20.2435 10.1217 20.4522 9.07821 20.4522 7.93038V4.27821C20.4522 3.44343 19.7218 2.71299 18.887 2.71299ZM19.4087 8.03473C19.4087 9.91299 18.5739 11.5826 17.3218 11.9999C17.1131 12.1043 17.0087 12.2086 17.0087 12.5217V20.4521H16.1739V12.5217C16.1739 12.4173 16.1739 12.313 16.0696 12.313C15.9653 12.2086 15.8609 12.1043 15.7566 12.1043C14.5044 11.5826 13.6696 9.91299 13.6696 8.13908V4.38256C13.6696 4.06951 13.8783 3.86082 14.1913 3.86082C14.5044 3.86082 14.7131 4.06951 14.7131 4.38256V6.99125C14.7131 7.30429 14.9218 7.51299 15.2348 7.51299C15.5479 7.51299 15.7566 7.30429 15.7566 6.99125V4.38256C15.7566 3.96516 16.0696 3.65212 16.487 3.65212C16.6957 3.65212 16.8 3.75647 17.0087 3.86082C17.1131 3.96516 17.2174 4.17386 17.2174 4.38256V7.0956C17.2174 7.40864 17.4261 7.61734 17.7392 7.61734C18.0522 7.61734 18.2609 7.40864 18.2609 7.0956V4.27821C18.2609 3.96516 18.4696 3.75647 18.7826 3.75647C19.0957 3.75647 19.3044 3.96516 19.3044 4.27821L19.4087 8.03473Z" fill="#224B80"/>
</svg>
