<?xml version="1.0" encoding="utf-8"?>
<!-- Generator: Adobe Illustrator 23.0.3, SVG Export Plug-In . SVG Version: 6.00 Build 0)  -->
<svg version="1.1" id="Capa_1" xmlns="http://www.w3.org/2000/svg" xmlns:xlink="http://www.w3.org/1999/xlink" x="0px" y="0px"
	 viewBox="0 0 23 23" style="enable-background:new 0 0 23 23; fill: #224b80" xml:space="preserve">
<g>
	<g>
		<path d="M7.1,2.7c-1,0-2,0.5-2.7,1.5c-0.7,0.9-1,2.1-1,3.4c0,2,0.9,3.8,2.3,4.6V20c0,0.3,0.2,0.5,0.5,0.5H8c0.3,0,0.5-0.2,0.5-0.5
			l0-7.7c0.6-0.3,1.2-0.9,1.6-1.7c0.5-0.9,0.7-1.9,0.7-3c0-1.3-0.4-2.5-1-3.4C9.1,3.2,8.1,2.7,7.1,2.7z M7.8,11.5
			c-0.2,0.1-0.3,0.3-0.3,0.5v7.6H6.7v-7.6c0-0.2-0.1-0.4-0.3-0.5c-1.2-0.5-2-2.1-2-3.8c0-1.1,0.3-2.1,0.8-2.9
			c0.5-0.7,1.2-1.1,1.9-1.1S8.5,4.1,9,4.8c0.5,0.8,0.8,1.8,0.8,2.9C9.8,9.5,9,11,7.8,11.5z"/>
		<path d="M18.1,2.6c-0.4,0-0.7,0.1-1,0.4c0,0,0,0,0,0c-0.3-0.3-0.7-0.5-1.2-0.5c-0.5,0-0.9,0.2-1.2,0.5c-0.3-0.2-0.6-0.3-1-0.3
			c-0.8,0-1.5,0.7-1.5,1.5v3.4c0,2,0.9,3.8,2.3,4.6V20c0,0.3,0.2,0.5,0.5,0.5h1.8c0.3,0,0.5-0.2,0.5-0.5v-7.7
			c0.6-0.3,1.2-0.9,1.6-1.7c0.5-0.9,0.7-1.9,0.7-3V4.1C19.6,3.3,18.9,2.6,18.1,2.6z M18.6,7.7c0,1.8-0.8,3.4-2,3.8
			c-0.2,0.1-0.3,0.2-0.3,0.5v0v7.6h-0.8v-7.6c0-0.1,0-0.2-0.1-0.2c-0.1-0.1-0.2-0.2-0.3-0.2c-1.2-0.5-2-2.1-2-3.8V4.2
			c0-0.3,0.2-0.5,0.5-0.5c0.3,0,0.5,0.2,0.5,0.5v2.5c0,0.3,0.2,0.5,0.5,0.5c0.3,0,0.5-0.2,0.5-0.5V4.2c0,0,0,0,0,0c0,0,0,0,0,0
			c0-0.4,0.3-0.7,0.7-0.7c0.2,0,0.3,0.1,0.5,0.2c0.1,0.1,0.2,0.3,0.2,0.5v2.6c0,0.3,0.2,0.5,0.5,0.5c0.3,0,0.5-0.2,0.5-0.5V4.1
			c0,0,0,0,0,0c0-0.3,0.2-0.5,0.5-0.5c0.3,0,0.5,0.2,0.5,0.5L18.6,7.7L18.6,7.7z"/>
	</g>
</g>
</svg>
