<svg width="24" height="24" viewBox="0 0 24 24" fill="none" xmlns="http://www.w3.org/2000/svg">
<path fill-rule="evenodd" clip-rule="evenodd" d="M1 1C1 0.44772 1.44772 0 2 0H9.5C9.7835 0 10.0537 0.12032 10.2433 0.33104L14.7433 5.33104C14.9086 5.51466 15 5.75296 15 6V8.0164C15.1653 8.00552 15.332 8 15.5 8C19.6421 8 23 11.3579 23 15.5C23 19.6421 19.6421 23 15.5 23C12.2345 23 9.4564 20.913 8.42676 18H2C1.44772 18 1 17.5523 1 17V1ZM8.0164 16C8.00552 15.8347 8 15.668 8 15.5C8 12.2345 10.087 9.4564 13 8.42676V7H9.5C8.94772 7 8.5 6.55228 8.5 6V2H3V16H8.0164ZM10.5 3.60596L11.7546 5H10.5V3.60596ZM15.5 11C16.0523 11 16.5 11.4477 16.5 12V16.8258L18.3492 15.2407C18.7686 14.8813 19.3999 14.9299 19.7593 15.3492C20.1187 15.7685 20.0701 16.3998 19.6508 16.7593L16.1508 19.7593C15.7763 20.0802 15.2237 20.0802 14.8492 19.7593L11.3492 16.7593C10.9299 16.3998 10.8813 15.7685 11.2408 15.3492C11.6002 14.9299 12.2315 14.8813 12.6508 15.2407L14.5 16.8258V12C14.5 11.4477 14.9477 11 15.5 11ZM21 15.5C21 18.5376 18.5376 21 15.5 21C12.4624 21 10 18.5376 10 15.5C10 12.4624 12.4624 10 15.5 10C18.5376 10 21 12.4624 21 15.5Z" fill="black"/>
</svg>
