<svg width="24" height="24" viewBox="0 0 24 24" fill="none" xmlns="http://www.w3.org/2000/svg">
<path fill-rule="evenodd" clip-rule="evenodd" d="M4 0C3.44772 0 3 0.447715 3 1V23C3 23.5523 3.44772 24 4 24H20C20.5523 24 21 23.5523 21 23V7C21 6.73478 20.8946 6.48043 20.7071 6.29289L14.7071 0.292893C14.5196 0.105357 14.2652 0 14 0H4ZM5 22V2H13V7C13 7.55228 13.4477 8 14 8H19V22H5ZM17.5858 6L15 3.41421V6H17.5858ZM12 8C12.5523 8 13 8.44771 13 9V14.8258L15.3492 12.8122C15.7686 12.4527 16.3999 12.5013 16.7593 12.9206C17.1187 13.34 17.0701 13.9713 16.6508 14.3307L12.6508 17.7593C12.2763 18.0802 11.7237 18.0802 11.3492 17.7593L7.34923 14.3307C6.9299 13.9713 6.88134 13.34 7.24076 12.9206C7.60018 12.5013 8.23148 12.4527 8.65081 12.8122L11 14.8258V9C11 8.44771 11.4477 8 12 8ZM6 20C6 19.4477 6.44772 19 7 19H17C17.5523 19 18 19.4477 18 20C18 20.5523 17.5523 21 17 21H7C6.44772 21 6 20.5523 6 20Z" fill="white"/>
</svg>
