<svg width="24" height="24" viewBox="0 0 24 24" fill="none" xmlns="http://www.w3.org/2000/svg">
<path fill-rule="evenodd" clip-rule="evenodd" d="M20.1569 17.416C21.4762 16.7466 22.884 16.8739 23.6139 17.879C24.3771 18.9302 23.9537 20.2961 22.8307 21.1507L19.3213 23.8217C19.1694 23.9373 18.9843 24 18.7944 24H10.8974C10.8086 24 10.7204 23.9863 10.6357 23.9595L3.61607 21.7334C3.15353 21.5867 3.85545 21.4694 4 21C4.14455 20.5306 3.67699 19.887 4.13953 20.0336L11.0313 22.2192H18.5019L21.7778 19.7261C22.0928 19.4863 22.1984 19.2722 22.2281 19.1527C22.256 19.0406 22.2303 18.9757 22.2011 18.9354C22.1632 18.8832 21.8161 18.5651 20.9418 19.0088L18.3097 20.3442C18.1879 20.4061 18.0532 20.4384 17.917 20.4384L10.8974 20.4384C10.4128 20.4384 10.0199 20.0398 10.0199 19.548C10.0199 19.0563 10.4128 18.6576 10.8974 18.6576H17.7099L20.1569 17.416Z" fill="black"/>
<path fill-rule="evenodd" clip-rule="evenodd" d="M4 14.8571C4 14.3838 4.38376 14 4.85714 14H9.14286C9.27592 14 9.40716 14.031 9.52618 14.0905L12.7738 15.7143H16.8571C17.5183 15.7143 18.0772 15.9707 18.4621 16.4038C18.8329 16.821 19 17.3531 19 17.8571C19 18.3612 18.8329 18.8933 18.4621 19.3105C18.0772 19.7435 17.5183 20 16.8571 20C16.3838 20 16 19.6162 16 19.1429C16 19 16 19 16 19C16.196 19 16.7862 18.6155 17.1808 18.1716C17.2385 18.1067 17.2857 17.9959 17.2857 17.8571C17.2857 17.7183 17.2385 17.6076 17.1808 17.5427C17.1371 17.4935 17.0531 17.4286 16.8571 17.4286H12.5719C12.4388 17.4286 12.3071 17.3976 12.1881 17.3381L8.94051 15.7143H4.85714C4.38376 15.7143 4 15.3305 4 14.8571Z" fill="black"/>
<path d="M4 14V22H1V14H4Z" stroke="black" stroke-width="1.5" stroke-linecap="round" stroke-linejoin="round"/>
<path fill-rule="evenodd" clip-rule="evenodd" d="M8 4.61538C8 4.27552 8.3198 4 8.71429 4H22.2857C22.6802 4 23 4.27552 23 4.61538V11.3846C23 11.7245 22.6802 12 22.2857 12H8.71429C8.3198 12 8 11.7245 8 11.3846V4.61538ZM9.42857 5.23077V10.7692H21.5714V5.23077H9.42857Z" fill="black"/>
<path fill-rule="evenodd" clip-rule="evenodd" d="M14.6 6H15.8C16.1814 6 16.4895 6.13906 16.6992 6.36375C16.904 6.58319 17 6.86769 17 7.14286C17 7.41802 16.904 7.70252 16.6992 7.92196C16.4895 8.14666 16.1814 8.28571 15.8 8.28571H15.2V8.85714H16.7V9.42857H15.2V10H14.6V9.42857H14V8.85714H14.6V8.28571H14V7.71429H14.6V6ZM15.2 7.71429H15.8C16.0186 7.71429 16.1605 7.63906 16.2508 7.54232C16.346 7.44033 16.4 7.29627 16.4 7.14286C16.4 6.98945 16.346 6.84538 16.2508 6.74339C16.1605 6.64666 16.0186 6.57143 15.8 6.57143H15.2V7.71429Z" fill="black"/>
</svg>
