<svg width="25" height="25" viewBox="0 0 25 25" fill="none" xmlns="http://www.w3.org/2000/svg">
<rect y="1" width="24" height="24" fill="none"/>
<path fill-rule="evenodd" clip-rule="evenodd" d="M15.9998 3.93341L15.9997 9.00005L21.0664 9.00004C20.0636 6.80474 18.1952 4.93635 15.9998 3.93341ZM15.2745 1.5385C19.1069 2.63336 22.3666 5.89307 23.4613 9.72539C23.5474 10.0271 23.487 10.3518 23.298 10.6023C23.1091 10.8528 22.8135 11 22.4997 11L14.9997 11.0001C14.7345 11.0001 14.4801 10.8947 14.2926 10.7072C14.1051 10.5196 13.9997 10.2653 13.9997 10L13.9998 2.50002C13.9998 2.18624 14.1471 1.89065 14.3976 1.70169C14.6481 1.51273 14.9728 1.45231 15.2745 1.5385Z" fill="black"/>
<path fill-rule="evenodd" clip-rule="evenodd" d="M11 4.05493C6.50005 4.55237 3 8.36745 3 13C3 17.9706 7.02944 22 12 22C16.6326 22 20.4476 18.5 20.9451 14H12C11.4477 14 11 13.5523 11 13V4.05493ZM1 13C1 6.92487 5.92487 2 12 2C12.5523 2 13 2.44772 13 3V12H22C22.5523 12 23 12.4477 23 13C23 19.0751 18.0751 24 12 24C5.92487 24 1 19.0751 1 13Z" fill="black"/>
</svg>
