<svg width="24" height="24" viewBox="0 0 24 24" fill="none" xmlns="http://www.w3.org/2000/svg">
<path fill-rule="evenodd" clip-rule="evenodd" d="M9 3.49844C9 2.67052 9.67106 2 10.5 2H11V15H10C9.61162 15 9.27708 15.1049 9 15.271V6.5V3.49844ZM8 6V3.49844C8 2.11722 9.1198 1 10.5 1H20.5C20.7761 1 21 1.22386 21 1.5V18.5C21 18.7761 20.7761 19 20.5 19H16V23.5C16 23.7761 15.7761 24 15.5 24H5C3.89543 24 3 23.1046 3 22V8.49844C3 7.11722 4.1198 6 5.5 6H8ZM15 19V20H7V7H8V17C8 18.1046 8.89543 19 10 19H15ZM15.5 18H20L19.9999 16H10C9.66953 16 9.42904 16.1453 9.26004 16.3493C9.07972 16.567 9 16.8306 9 17C9 17.5523 9.44772 18 10 18H15.5ZM12 15V2H20L19.9999 15H12ZM4 8.49844C4 7.67052 4.67106 7 5.5 7H6V20H5C4.61162 20 4.27708 20.1049 4 20.271V8.49844ZM5 21H14.9999L15 23H5C4.44772 23 4 22.5523 4 22C4 21.8306 4.07972 21.567 4.26004 21.3493C4.42904 21.1453 4.66953 21 5 21ZM13 3.5C13 3.22386 13.2239 3 13.5 3H18.5C18.7761 3 19 3.22386 19 3.5V7.5C19 7.77614 18.7761 8 18.5 8H13.5C13.2239 8 13 7.77614 13 7.5V3.5ZM14 4V7H18V4H14ZM13.5 10C13.2239 10 13 10.2239 13 10.5C13 10.7761 13.2239 11 13.5 11H18.5C18.7761 11 19 10.7761 19 10.5C19 10.2239 18.7761 10 18.5 10H13.5ZM13.5 12C13.2239 12 13 12.2239 13 12.5C13 12.7761 13.2239 13 13.5 13H18.5C18.7761 13 19 12.7761 19 12.5C19 12.2239 18.7761 12 18.5 12H13.5Z" fill="black"/>
</svg>
