<svg width="24" height="24" viewBox="3 0 24 24" fill="none" xmlns="http://www.w3.org/2000/svg">
<path fill-rule="evenodd" clip-rule="evenodd" d="M4.29289 1.29289C4.48043 1.10536 4.73478 1 5 1H13C13.2652 1 13.5196 1.10536 13.7071 1.29289L19.7071 7.29289C19.8946 7.48043 20 7.73478 20 8V22C20 22.5523 19.5523 23 19 23H5C4.73478 23 4.48043 22.8946 4.29289 22.7071C4.10536 22.5196 4 22.2652 4 22V2C4 1.73478 4.10536 1.48043 4.29289 1.29289ZM6 3V21H18V9H13C12.4477 9 12 8.55228 12 8V3H6ZM14 4.41421L16.5858 7H14V4.41421Z" fill="black"/>
<path fill-rule="evenodd" clip-rule="evenodd" d="M7 12C7 11.4477 7.44772 11 8 11H16C16.5523 11 17 11.4477 17 12C17 12.5523 16.5523 13 16 13H8C7.44772 13 7 12.5523 7 12Z" fill="black"/>
<path fill-rule="evenodd" clip-rule="evenodd" d="M7 7C7 6.44772 7.44772 6 8 6H10C10.5523 6 11 6.44772 11 7C11 7.55228 10.5523 8 10 8H8C7.44772 8 7 7.55228 7 7Z" fill="black"/>
<path fill-rule="evenodd" clip-rule="evenodd" d="M7 17C7 16.4477 7.44772 16 8 16H16C16.5523 16 17 16.4477 17 17C17 17.5523 16.5523 18 16 18H8C7.44772 18 7 17.5523 7 17Z" fill="black"/>
</svg>
