<svg width="24" height="24" viewBox="0 0 24 24" fill="none" xmlns="http://www.w3.org/2000/svg">
<path fill-rule="evenodd" clip-rule="evenodd" d="M3.0088 4C3.56108 4 4.00879 4.44772 4.00879 5.00001L3.00879 5L2.00879 4.99999C2.00879 4.44771 2.45651 4 3.0088 4ZM3.00879 5C2.00879 4.99999 2.00879 4.9999 2.00879 4.99999V18.8125C2.00885 20.0146 2.2905 21.1021 3.0306 21.8885C3.78142 22.6863 4.8386 23 6.00879 23H8.99925C9.55156 23 9.99996 22.5523 9.99996 22C9.99996 21.4477 9.55224 21 8.99993 21H6.00879C5.17893 21 4.73616 20.7825 4.48702 20.5178C4.22715 20.2417 4.00883 19.7354 4.00879 18.8125V5.00001C4.00879 4.99992 4.00879 5.00001 3.00879 5Z" fill="black"/>
<path fill-rule="evenodd" clip-rule="evenodd" d="M2.883 2.1154C3.50034 1.42368 4.40348 1 5.50881 1H20.0083C20.0084 1 20.0088 1 20.0088 2C20.0088 3 20.0088 3 20.0087 3H5.50881C4.94494 3 4.59452 3.20132 4.37517 3.4471C4.13966 3.71099 4.00055 4.09034 4 4.50134C3.99945 4.9123 4.13747 5.29051 4.37174 5.55327C4.58979 5.79784 4.9404 6 5.50881 6H20.0083C20.0084 6 20.0088 6 20.0088 7L20.0083 6C20.2735 6 20.5284 6.10536 20.7159 6.29289C20.9034 6.48043 21.0088 6.73478 21.0088 7V8.99997C21.0088 9.55225 20.5611 9.99997 20.0088 9.99997C19.4565 9.99997 19.0088 9.55225 19.0088 8.99997V8H5.50881C4.40134 8 3.49671 7.57716 2.87891 6.88423C2.27732 6.20949 1.99888 5.3377 2 4.49866C2.00112 3.65966 2.28182 2.78901 2.883 2.1154ZM21.0088 2C21.0088 2.55228 20.561 3 20.0087 3L20.0088 2L20.0083 1C20.5606 1 21.0088 1.44772 21.0088 2Z" fill="black"/>
<circle cx="16" cy="17" r="6" stroke="black" stroke-width="2"/>
<path fill-rule="evenodd" clip-rule="evenodd" d="M14.0909 13.7619C14.0909 13.3411 14.4165 13 14.8182 13H16.6364C17.3512 13 17.953 13.2542 18.3779 13.6993C18.7959 14.1373 19 14.7163 19 15.2857C19 15.8551 18.7959 16.4341 18.3779 16.8721C17.953 17.3172 17.3512 17.5714 16.6364 17.5714H15.5455V17.9524H16.6364C17.038 17.9524 17.3636 18.2935 17.3636 18.7143C17.3636 19.1351 17.038 19.4762 16.6364 19.4762H15.5455V20.2381C15.5455 20.6589 15.2198 21 14.8182 21C14.4165 21 14.0909 20.6589 14.0909 20.2381V19.4762H13.7273C13.3256 19.4762 13 19.1351 13 18.7143C13 18.2935 13.3256 17.9524 13.7273 17.9524H14.0909V17.5714H13.7273C13.3256 17.5714 13 17.2303 13 16.8095C13 16.3887 13.3256 16.0476 13.7273 16.0476H14.0909V13.7619ZM15.5455 16.0476H16.6364C17.0124 16.0476 17.2288 15.9209 17.3494 15.7946C17.4768 15.6611 17.5455 15.4782 17.5455 15.2857C17.5455 15.0932 17.4768 14.9103 17.3494 14.7768C17.2288 14.6505 17.0124 14.5238 16.6364 14.5238H15.5455V16.0476Z" fill="black"/>
</svg>
