<svg width="24" height="24" viewBox="0 0 24 24" fill="none" xmlns="http://www.w3.org/2000/svg">
<g clip-path="url(#clip0_7027_121809)">
<path d="M8 24H2C1.46957 24 0.960859 23.7893 0.585786 23.4142C0.210714 23.0391 0 22.5304 0 22V2C0 1.46957 0.210714 0.960859 0.585786 0.585786C0.960859 0.210714 1.46957 0 2 0H22C22.5304 0 23.0391 0.210714 23.4142 0.585786C23.7893 0.960859 24 1.46957 24 2V13H22V2H2V22H8V24Z" fill="black"/>
<path fill-rule="evenodd" clip-rule="evenodd" d="M4 4.75C4 4.33579 4.59695 4 5.33333 4H18.6667C19.403 4 20 4.33579 20 4.75C20 5.16421 19.403 5.5 18.6667 5.5H5.33333C4.59695 5.5 4 5.16421 4 4.75Z" fill="black"/>
<path fill-rule="evenodd" clip-rule="evenodd" d="M11 7.75C11 7.33579 11.3358 7 11.75 7H19.25C19.6642 7 20 7.33579 20 7.75C20 8.16421 19.6642 8.5 19.25 8.5H11.75C11.3358 8.5 11 8.16421 11 7.75Z" fill="black"/>
<path fill-rule="evenodd" clip-rule="evenodd" d="M19 13C19.4418 13 19.8 13.3582 19.8 13.8V18.4606L21.6794 16.8497C22.0148 16.5622 22.5199 16.601 22.8074 16.9365C23.0949 17.272 23.0561 17.777 22.7206 18.0645L19.5206 20.8074C19.221 21.0642 18.779 21.0642 18.4794 20.8074L15.2794 18.0645C14.9439 17.777 14.9051 17.272 15.1926 16.9365C15.4801 16.601 15.9852 16.5622 16.3206 16.8497L18.2 18.4606V13.8C18.2 13.3582 18.5582 13 19 13Z" fill="black"/>
<path fill-rule="evenodd" clip-rule="evenodd" d="M8 11.75C6.20507 11.75 4.75 13.2051 4.75 15C4.75 16.7949 6.20507 18.25 8 18.25C9.79493 18.25 11.25 16.7949 11.25 15C11.25 13.2051 9.79493 11.75 8 11.75ZM3.25 15C3.25 12.3766 5.37665 10.25 8 10.25C10.6234 10.25 12.75 12.3766 12.75 15C12.75 17.6234 10.6234 19.75 8 19.75C5.37665 19.75 3.25 17.6234 3.25 15Z" fill="black"/>
<path fill-rule="evenodd" clip-rule="evenodd" d="M10.3169 13.1953C10.561 13.4556 10.561 13.8777 10.3169 14.1381L7.81694 16.8047C7.57286 17.0651 7.17714 17.0651 6.93306 16.8047L5.68306 15.4714C5.43898 15.2111 5.43898 14.7889 5.68306 14.5286C5.92714 14.2682 6.32286 14.2682 6.56694 14.5286L7.375 15.3905L9.43306 13.1953C9.67714 12.9349 10.0729 12.9349 10.3169 13.1953Z" fill="black"/>
<path fill-rule="evenodd" clip-rule="evenodd" d="M14.25 23C14.25 22.5858 14.5858 22.25 15 22.25H23C23.4142 22.25 23.75 22.5858 23.75 23C23.75 23.4142 23.4142 23.75 23 23.75H15C14.5858 23.75 14.25 23.4142 14.25 23Z" fill="black"/>
</g>
<defs>
<clipPath id="clip0_7027_121809">
<rect width="24" height="24" fill="white"/>
</clipPath>
</defs>
</svg>
