<svg width="24" height="24" viewBox="0 0 24 24" fill="none" xmlns="http://www.w3.org/2000/svg">
<path fill-rule="evenodd" clip-rule="evenodd" d="M13 2.5C13 2.22386 12.7761 2 12.5 2C12.2239 2 12 2.22386 12 2.5V17.2929L7.85355 13.1464C7.65829 12.9512 7.34171 12.9512 7.14645 13.1464C6.95118 13.3417 6.95118 13.6583 7.14645 13.8536L12.1464 18.8536C12.3417 19.0488 12.6583 19.0488 12.8536 18.8536L17.8536 13.8536C18.0488 13.6583 18.0488 13.3417 17.8536 13.1464C17.6583 12.9512 17.3417 12.9512 17.1464 13.1464L13 17.2929V2.5ZM3 17.5C3 17.2239 2.77614 17 2.5 17C2.22386 17 2 17.2239 2 17.5V18.5C2 19.8807 3.11929 21 4.5 21H20.5C21.8807 21 23 19.8807 23 18.5V17.5C23 17.2239 22.7761 17 22.5 17C22.2239 17 22 17.2239 22 17.5V18.5C22 19.3284 21.3284 20 20.5 20H4.5C3.67157 20 3 19.3284 3 18.5V17.5Z" fill="black"/>
</svg>
