<svg width="16" height="16" viewBox="0 0 16 16" fill="none" xmlns="http://www.w3.org/2000/svg">
<path fill-rule="evenodd" clip-rule="evenodd" d="M7 5C7 5.55228 6.55228 6 6 6C5.44772 6 5 5.55228 5 5C5 4.44772 5.44772 4 6 4C6.55228 4 7 4.44772 7 5ZM7 8.5C7 9.05228 6.55228 9.5 6 9.5C5.44772 9.5 5 9.05228 5 8.5C5 7.94772 5.44772 7.5 6 7.5C6.55228 7.5 7 7.94772 7 8.5ZM6 13C6.55228 13 7 12.5523 7 12C7 11.4477 6.55228 11 6 11C5.44772 11 5 11.4477 5 12C5 12.5523 5.44772 13 6 13Z" fill="#3D6780"/>
<path fill-rule="evenodd" clip-rule="evenodd" d="M11 5C11 5.55228 10.5523 6 10 6C9.44772 6 9 5.55228 9 5C9 4.44772 9.44772 4 10 4C10.5523 4 11 4.44772 11 5ZM11 8.5C11 9.05228 10.5523 9.5 10 9.5C9.44772 9.5 9 9.05228 9 8.5C9 7.94772 9.44772 7.5 10 7.5C10.5523 7.5 11 7.94772 11 8.5ZM10 13C10.5523 13 11 12.5523 11 12C11 11.4477 10.5523 11 10 11C9.44772 11 9 11.4477 9 12C9 12.5523 9.44772 13 10 13Z" fill="#3D6780"/>
</svg>
