<svg width="24" height="24" viewBox="0 0 24 24" fill="none" xmlns="http://www.w3.org/2000/svg">
<path fill-rule="evenodd" clip-rule="evenodd" d="M11 9C11 9.55228 10.5523 10 10 10C9.44772 10 9 9.55228 9 9C9 8.44772 9.44772 8 10 8C10.5523 8 11 8.44772 11 9ZM11 12.5C11 13.0523 10.5523 13.5 10 13.5C9.44772 13.5 9 13.0523 9 12.5C9 11.9477 9.44772 11.5 10 11.5C10.5523 11.5 11 11.9477 11 12.5ZM10 17C10.5523 17 11 16.5523 11 16C11 15.4477 10.5523 15 10 15C9.44772 15 9 15.4477 9 16C9 16.5523 9.44772 17 10 17Z" fill="#3D6780"/>
<path fill-rule="evenodd" clip-rule="evenodd" d="M15 9C15 9.55228 14.5523 10 14 10C13.4477 10 13 9.55228 13 9C13 8.44772 13.4477 8 14 8C14.5523 8 15 8.44772 15 9ZM15 12.5C15 13.0523 14.5523 13.5 14 13.5C13.4477 13.5 13 13.0523 13 12.5C13 11.9477 13.4477 11.5 14 11.5C14.5523 11.5 15 11.9477 15 12.5ZM14 17C14.5523 17 15 16.5523 15 16C15 15.4477 14.5523 15 14 15C13.4477 15 13 15.4477 13 16C13 16.5523 13.4477 17 14 17Z" fill="#3D6780"/>
</svg>
