<svg width="24" height="24" viewBox="0 0 24 24" fill="none" xmlns="http://www.w3.org/2000/svg">
<path fill-rule="evenodd" clip-rule="evenodd" d="M0.5 2.5C0.5 1.94772 0.947715 1.5 1.5 1.5H15C15.2761 1.5 15.5 1.72386 15.5 2C15.5 2.27614 15.2761 2.5 15 2.5H1.5V16H22.5V6C22.5 5.72386 22.7239 5.5 23 5.5C23.2761 5.5 23.5 5.72386 23.5 6V16C23.5 16.5523 23.0523 17 22.5 17H1.5C0.947715 17 0.5 16.5523 0.5 16V2.5Z" fill="black"/>
<path fill-rule="evenodd" clip-rule="evenodd" d="M12 16C12.2761 16 12.5 16.2239 12.5 16.5V22C12.5 22.2761 12.2761 22.5 12 22.5C11.7239 22.5 11.5 22.2761 11.5 22V16.5C11.5 16.2239 11.7239 16 12 16Z" fill="black"/>
<path fill-rule="evenodd" clip-rule="evenodd" d="M5 22C5 21.7239 5.22386 21.5 5.5 21.5H18.5C18.7761 21.5 19 21.7239 19 22C19 22.2761 18.7761 22.5 18.5 22.5H5.5C5.22386 22.5 5 22.2761 5 22Z" fill="black"/>
<path fill-rule="evenodd" clip-rule="evenodd" d="M10.8821 10.2513C10.8967 10.1877 10.9271 10.1317 10.9709 10.088L20.7769 0.281943C20.9325 0.126292 21.217 0.158402 21.4123 0.353665L23.4625 2.40392C23.6578 2.59918 23.6899 2.88365 23.5343 3.0393L13.7282 12.8453C13.6845 12.8891 13.6285 12.9195 13.5649 12.9341L10.9054 13.5433C10.75 13.5789 10.5673 13.5167 10.4334 13.3828C10.2995 13.2489 10.2373 13.0662 10.2729 12.9108L10.8821 10.2513ZM11.6146 11.2954L12.5208 12.2016L11.3454 12.4708L11.6146 11.2954ZM13.3029 11.8564L20.911 4.24837L19.5678 2.90522L11.9598 10.5133L13.3029 11.8564ZM20.1315 2.34156L21.4746 3.6847L22.5453 2.61403L21.2022 1.27088L20.1315 2.34156Z" fill="black"/>
<path d="M3 13.5H9.5" stroke="black" stroke-linecap="round"/>
</svg>
