<svg width="24" height="24" viewBox="0 0 24 24" fill="none" xmlns="http://www.w3.org/2000/svg">
<rect width="24" height="24" fill="none"/>
<path d="M23.1214 0.878662C21.9499 -0.292887 20.0506 -0.292887 18.879 0.878662L18.7577 0.999975H2.00002C1.44772 0.999975 1 1.44768 1 1.99996L1 22C1 22.5523 1.44772 23 2.00002 23H22.0009C22.5532 23 23.0009 22.5523 23.0009 22L23.0009 5.24138L23.1214 5.12081C24.2929 3.94936 24.2929 2.05021 23.1214 0.878662ZM21.7071 2.29288C22.0976 2.68335 22.0976 3.31621 21.7071 3.70668L14.0386 11.3758L12.1214 13.2929C11.8743 13.54 11.6071 13.7619 11.3242 13.9584C10.6612 14.4187 9.91004 14.7368 9.11834 14.8916C9.33632 13.7501 9.89246 12.6933 10.7219 11.8639L20.2933 2.29288C20.6838 1.90241 21.3166 1.90241 21.7071 2.29288ZM21.0008 7.24219L21.0008 21H3.00005L3.00004 3H16.7574L9.3073 10.4499C7.96128 11.7959 7.15186 13.5866 7.03036 15.4872L7.01953 15.6609L7.00181 15.9354C6.97153 16.4039 7.26816 16.814 7.69047 16.9512C7.78788 16.9828 7.89204 17 8.00038 17C9.62273 17 11.1925 16.4967 12.5019 15.5763C12.8686 15.3185 13.2149 15.0282 13.5361 14.707L15.4587 12.7842L21.0008 7.24219Z" fill="black"/>
</svg>
