<svg width="24" height="24" viewBox="0 0 24 24" fill="none" xmlns="http://www.w3.org/2000/svg">
<path fill-rule="evenodd" clip-rule="evenodd" d="M4 2C4 1.44772 4.44772 1 5 1H13.75C14.0218 1 14.282 1.11067 14.4705 1.30653L19.7205 6.76108C19.8998 6.9474 20 7.19594 20 7.45455V9.5C20 10.0523 19.5523 10.5 19 10.5C18.4477 10.5 18 10.0523 18 9.5V8.45455H13.75C13.1977 8.45455 12.75 8.00683 12.75 7.45455V3H6V21H10C10.5523 21 11 21.4477 11 22C11 22.5523 10.5523 23 10 23H5C4.44772 23 4 22.5523 4 22V2ZM14.75 4.48099L16.6495 6.45455H14.75V4.48099Z" fill="black"/>
<path fill-rule="evenodd" clip-rule="evenodd"
      d="M19.94 11.2929C20.3305 10.9024 20.9637 10.9024 21.3542 11.2929L23.7071 13.6458C24.0976 14.0364 24.0976 14.6695 23.7071 15.06L16.6483 22.1189C16.5087 22.2585 16.3309 22.3536 16.1373 22.3923L13.1961 22.9806C12.8683 23.0462 12.5293 22.9435 12.2929 22.7071C12.0565 22.4707 11.9539 22.1317 12.0194 21.8039L12.6077 18.8627C12.6464 18.6691 12.7415 18.4913 12.8811 18.3517L19.94 11.2929ZM14.5095 19.5518L14.2748 20.7252L15.4482 20.4906L21.5858 14.3529L20.6471 13.4142L14.5095 19.5518Z" fill="black"/>
</svg>
