<svg width="24" height="24" viewBox="0 0 24 24" fill="none" xmlns="http://www.w3.org/2000/svg">
<path fill-rule="evenodd" clip-rule="evenodd" d="M12 11C14.2091 11 16 9.20914 16 7C16 4.79086 14.2091 3 12 3C9.79086 3 8 4.79086 8 7C8 9.20914 9.79086 11 12 11ZM12 13C15.3137 13 18 10.3137 18 7C18 3.68629 15.3137 1 12 1C8.68629 1 6 3.68629 6 7C6 10.3137 8.68629 13 12 13Z" fill="black"/>
<path fill-rule="evenodd" clip-rule="evenodd" d="M9.75395 14.1392C10.5011 14.3251 11.2039 14.5 12 14.5C12.5523 14.5 13 14.9477 13 15.5C13 16.0523 12.5523 16.5 12 16.5C10.9387 16.5 9.98175 16.2594 9.24409 16.074C9.13362 16.0462 9.02806 16.0197 8.92781 15.9954C8.06093 15.7852 7.69282 15.7752 7.43681 15.8995C5.77637 16.7058 4.90931 18.1762 4.45494 19.5412C4.27586 20.0792 4.16667 20.5853 4.10037 21L8.5 21C9.05228 21 9.5 21.4477 9.5 22C9.5 22.5523 9.05229 23 8.5 23L3 23C2.73423 23 2.47938 22.8942 2.29175 22.7059C2.10413 22.5177 1.99915 22.2625 2.00001 21.9967L3 22C2.00001 21.9967 2.00001 21.9963 2.00001 21.9959L2.00001 21.995L2.00002 21.9927L2.00007 21.9869L2.00029 21.9696C2.00051 21.9556 2.0009 21.9369 2.00158 21.9136C2.00293 21.8669 2.00545 21.802 2.01015 21.7208C2.01953 21.5586 2.03764 21.3304 2.07267 21.053C2.14247 20.5002 2.28086 19.74 2.55731 18.9095C3.10702 17.2581 4.23996 15.2285 6.56319 14.1004C7.55072 13.6209 8.61207 13.8609 9.39904 14.0517C9.51878 14.0807 9.63691 14.1101 9.75395 14.1392ZM3.99999 22.0039L3.99998 22.0054L3.99999 22.0045L3.99999 22.0039Z" fill="black"/>
<path fill-rule="evenodd" clip-rule="evenodd" d="M19.94 11.2929C20.3305 10.9024 20.9637 10.9024 21.3542 11.2929L23.7071 13.6458C24.0976 14.0364 24.0976 14.6695 23.7071 15.06L16.6483 22.1189C16.5087 22.2585 16.3309 22.3536 16.1373 22.3923L13.1961 22.9806C12.8683 23.0462 12.5293 22.9435 12.2929 22.7071C12.0565 22.4707 11.9539 22.1317 12.0194 21.8039L12.6077 18.8627C12.6464 18.6691 12.7415 18.4913 12.8811 18.3517L19.94 11.2929ZM14.5095 19.5518L14.2748 20.7252L15.4482 20.4906L21.5858 14.3529L20.6471 13.4142L14.5095 19.5518Z" fill="black"/>
</svg>
