<svg width="18" height="18" viewBox="0 0 18 18" fill="none" xmlns="http://www.w3.org/2000/svg">
<rect width="18" height="18" fill="white"/>
<path d="M17.3506 0.649446C16.4847 -0.216482 15.0809 -0.216482 14.2149 0.649446L13.8242 1H1.99998C1.49998 1 0.999985 1.5 0.999987 2V16C0.999985 16.5 1.49998 17 1.99998 17H16.0695C16.5 17 17 16.5 17 16V4.17617L17.3506 3.78495C18.2165 2.91909 18.2165 1.51537 17.3506 0.649446ZM16.3052 1.69474C16.5939 1.98335 16.5939 2.45111 16.3052 2.73972L10.6372 8.40818L9.22011 9.8252C9.03752 10.0078 8.84002 10.1718 8.63092 10.3171C8.14086 10.6573 7.58566 10.8924 7.00049 11.0068C7.16161 10.1631 7.57267 9.38204 8.18577 8.76896L15.2602 1.69474C15.5488 1.40613 16.0166 1.40613 16.3052 1.69474ZM15 6V15H2.99998V3H12L7.14016 7.72384C6.14528 8.71869 5.54701 10.0423 5.4572 11.4471L5.4492 11.5754L5.4361 11.7783C5.41372 12.1246 5.63297 12.4278 5.94512 12.5291C6.01711 12.5525 6.0941 12.5652 6.17417 12.5652C7.37331 12.5652 8.5336 12.1932 9.50142 11.5129C9.77244 11.3224 10.0284 11.1078 10.2658 10.8704L11.6868 9.44922L15 6Z" fill="black"/>
</svg>
