<?xml version="1.0" encoding="utf-8"?>
<!-- Generator: Adobe Illustrator 23.0.3, SVG Export Plug-In . SVG Version: 6.00 Build 0)  -->
<svg version="1.1" id="Capa_1" xmlns="http://www.w3.org/2000/svg" xmlns:xlink="http://www.w3.org/1999/xlink" x="0px" y="0px"
	 viewBox="0 0 23 23" style="enable-background:new 0 0 23 23;" xml:space="preserve">
<g>
	<g>
		<path d="M19.5,4.1h-16c-0.9,0-1.7,0.8-1.7,1.7v11.3c0,0.9,0.8,1.7,1.7,1.7h16c0.9,0,1.7-0.8,1.7-1.7V5.8
			C21.2,4.9,20.4,4.1,19.5,4.1z M19.2,5.3L11.5,13L3.8,5.3H19.2z M3,16.9V6.1l5.5,5.4L3,16.9z M3.8,17.7l5.5-5.5l1.9,1.9
			c0.2,0.2,0.6,0.2,0.8,0l1.9-1.9l5.4,5.4H3.8z M20,16.9l-5.4-5.4L20,6.1V16.9z"/>
	</g>
</g>
</svg>
