<svg width="24" height="24" viewBox="0 0 24 24" fill="none" xmlns="http://www.w3.org/2000/svg">
<path d="M20.3479 4.27832H3.65221C2.71308 4.27832 1.8783 5.1131 1.8783 6.05223V17.8435C1.8783 18.7827 2.71308 19.6174 3.65221 19.6174H20.3479C21.287 19.6174 22.1218 18.7827 22.1218 17.8435V6.05223C22.1218 5.1131 21.287 4.27832 20.3479 4.27832ZM20.0348 5.53049L12 13.5653L3.96525 5.53049H20.0348ZM3.13047 17.6348V6.36528L8.8696 12.0001L3.13047 17.6348ZM3.96525 18.4696L9.70438 12.7305L11.687 14.7131C11.8957 14.9218 12.3131 14.9218 12.5218 14.7131L14.5044 12.7305L20.1392 18.3653H3.96525V18.4696ZM20.8696 17.6348L15.2348 12.0001L20.8696 6.36528V17.6348Z" fill="black"/>
</svg>
