<svg width="24" height="24" viewBox="0 0 24 24" fill="none" xmlns="http://www.w3.org/2000/svg">
<g clip-path="url(#clip0_3543_28361)">
<path fill-rule="evenodd" clip-rule="evenodd" d="M5.5 2C5.22386 2 5 2.22386 5 2.5V9.5C5 9.77614 5.22386 10 5.5 10C5.77614 10 6 9.77614 6 9.5V3H21V16H14.5C14.2239 16 14 16.2239 14 16.5C14 16.7761 14.2239 17 14.5 17H21.5C21.7761 17 22 16.7761 22 16.5V2.5C22 2.22386 21.7761 2 21.5 2H5.5ZM12 6.5C12 6.22386 12.2239 6 12.5 6H17.5C17.6326 6 17.7598 6.05268 17.8536 6.14645C17.9473 6.24021 18 6.36739 18 6.5V11.5C18 11.7761 17.7761 12 17.5 12C17.2239 12 17 11.7761 17 11.5V7.70711L12 12.7071V22.5C12 22.7761 11.7761 23 11.5 23H1.5C1.22386 23 1 22.7761 1 22.5V12.5C1 12.2239 1.22386 12 1.5 12H11.2929L16.2929 7H12.5C12.2239 7 12 6.77614 12 6.5ZM2 13V22H11V13H2Z" fill="black"/>
</g>
<defs>
<clipPath id="clip0_3543_28361">
<rect width="24" height="24" fill="white"/>
</clipPath>
</defs>
</svg>
