<svg width="26" height="24" viewBox="0 0 26 24" fill="none" xmlns="http://www.w3.org/2000/svg">
<path d="M7 7C7 7.55229 6.55228 8 6 8C5.44772 8 5 7.55229 5 7C5 6.44772 5.44772 6 6 6C6.55228 6 7 6.44772 7 7Z" fill="#020202"/>
<path fill-rule="evenodd" clip-rule="evenodd" d="M9 7C9 6.44772 9.40701 6 9.90909 6H18.0909C18.593 6 19 6.44772 19 7C19 7.55229 18.593 8 18.0909 8H9.90909C9.40701 8 9 7.55229 9 7Z" fill="black"/>
<path d="M7 17C7 17.5523 6.55228 18 6 18C5.44772 18 5 17.5523 5 17C5 16.4477 5.44772 16 6 16C6.55228 16 7 16.4477 7 17Z" fill="#020202"/>
<path fill-rule="evenodd" clip-rule="evenodd" d="M9 17C9 16.4477 9.44771 16 10 16H13C13.5523 16 14 16.4477 14 17C14 17.5523 13.5523 18 13 18H10C9.44771 18 9 17.5523 9 17Z" fill="black"/>
<path d="M7 12C7 12.5523 6.55228 13 6 13C5.44772 13 5 12.5523 5 12C5 11.4477 5.44772 11 6 11C6.55228 11 7 11.4477 7 12Z" fill="#020202"/>
<path fill-rule="evenodd" clip-rule="evenodd" d="M9 12C9 11.4477 9.40701 11 9.90909 11H18.0909C18.593 11 19 11.4477 19 12C19 12.5523 18.593 13 18.0909 13H9.90909C9.40701 13 9 12.5523 9 12Z" fill="black"/>
<path fill-rule="evenodd" clip-rule="evenodd" d="M21.7929 12.2929C22.1834 11.9024 22.8166 11.9024 23.2071 12.2929L25.2071 14.2929C25.5976 14.6834 25.5976 15.3166 25.2071 15.7071L19.2071 21.7071C19.0675 21.8467 18.8897 21.9419 18.6961 21.9806L16.1961 22.4806C15.8683 22.5462 15.5293 22.4435 15.2929 22.2071C15.0565 21.9707 14.9539 21.6317 15.0194 21.3039L15.5194 18.8039C15.5582 18.6103 15.6533 18.4325 15.7929 18.2929L21.7929 12.2929ZM17.4212 19.493L17.2748 20.2252L18.007 20.0788L23.0858 15L22.5 14.4142L17.4212 19.493Z" fill="black"/>
<path fill-rule="evenodd" clip-rule="evenodd" d="M1 1H23V9.5C23 10.0523 22.5523 10.5 22 10.5C21.4477 10.5 21 10.0523 21 9.5V3H3V21H13C13.5523 21 14 21.4477 14 22C14 22.5523 13.5523 23 13 23H1V1Z" fill="black"/>
</svg>
