<svg width="24" height="24" viewBox="0 0 24 24" fill="none" xmlns="http://www.w3.org/2000/svg">
<rect width="24" height="24" fill="none"/>
<path fill-rule="evenodd" clip-rule="evenodd" d="M8 1C7.73478 1 7.48043 1.10536 7.29289 1.29289C7.10536 1.48043 7 1.73478 7 2V6H2C1.44772 6 1 6.44772 1 7V17C1 17.5523 1.44772 18 2 18H7V22C7 22.5523 7.44772 23 8 23H22C22.5523 23 23 22.5523 23 22V2C23 1.44772 22.5523 1 22 1H8ZM9 18V21H21V3H9V6H13C13.5523 6 14 6.44772 14 7V17C14 17.5523 13.5523 18 13 18H9ZM3 16V8H12V16H3ZM3.95972 9H6.24034L7.5 10.5746L8.75966 9H11.0403L8.64031 12L11.0403 15H8.75972L7.5 13.4254L6.24028 15H3.95966L6.35969 12L3.95972 9Z" fill="black"/>
</svg>
