<svg width="24" height="24" viewBox="0 0 24 24" fill="none" xmlns="http://www.w3.org/2000/svg">
<rect width="24" height="24" fill="none"/>
<path fill-rule="evenodd" clip-rule="evenodd" d="M3.0088 4C3.56108 4 4.00879 4.44772 4.00879 5.00001L3.00879 5L2.00879 4.99999C2.00879 4.44771 2.45651 4 3.0088 4ZM3.00879 5C2.00879 4.99999 2.00879 4.9999 2.00879 4.99999V18.8125C2.00885 20.0146 2.2905 21.1021 3.0306 21.8885C3.78142 22.6863 4.8386 23 6.00879 23H8.99925C9.55156 23 9.99996 22.5523 9.99996 22C9.99996 21.4477 9.55224 21 8.99993 21H6.00879C5.17893 21 4.73616 20.7825 4.48702 20.5178C4.22715 20.2417 4.00883 19.7354 4.00879 18.8125V5.00001C4.00879 4.99992 4.00879 5.00001 3.00879 5Z" fill="black"/>
<path fill-rule="evenodd" clip-rule="evenodd" d="M2.883 2.1154C3.50034 1.42368 4.40348 1 5.50881 1H20.0083C20.0084 1 20.0088 1 20.0088 2C20.0088 3 20.0088 3 20.0087 3H5.50881C4.94494 3 4.59452 3.20132 4.37517 3.4471C4.13966 3.71099 4.00055 4.09034 4 4.50134C3.99945 4.9123 4.13747 5.29051 4.37174 5.55327C4.58979 5.79784 4.9404 6 5.50881 6H20.0083C20.0084 6 20.0088 6 20.0088 7L20.0083 6C20.2735 6 20.5284 6.10536 20.7159 6.29289C20.9034 6.48043 21.0088 6.73478 21.0088 7V8.99997C21.0088 9.55225 20.5611 9.99997 20.0088 9.99997C19.4565 9.99997 19.0088 9.55225 19.0088 8.99997V8H5.50881C4.40134 8 3.49671 7.57716 2.87891 6.88423C2.27732 6.20949 1.99888 5.3377 2 4.49866C2.00112 3.65966 2.28182 2.78901 2.883 2.1154ZM21.0088 2C21.0088 2.55228 20.561 3 20.0087 3L20.0088 2L20.0083 1C20.5606 1 21.0088 1.44772 21.0088 2Z" fill="black"/>
<path fill-rule="evenodd" clip-rule="evenodd" d="M16.4517 16.4086C16.5395 16.4369 16.7032 16.4739 17 16.4739C17.2968 16.4739 17.4605 16.4369 17.5483 16.4086C17.6339 16.381 17.6861 16.3511 17.7987 16.2838C17.8044 16.2804 17.8108 16.2766 17.8179 16.2723C17.9258 16.2068 18.1923 16.0452 18.5439 16.0082C18.9292 15.9678 19.2747 16.0818 19.5707 16.2219C21.3235 17.0516 22.1753 18.5456 22.5848 19.7448C22.7907 20.3478 22.8935 20.8987 22.9454 21.2994C22.9715 21.5007 22.9851 21.667 22.9922 21.7866C22.9957 21.8464 22.9977 21.8948 22.9987 21.9302C22.9993 21.948 22.9996 21.9625 22.9997 21.9736L22.9999 21.9878L23 21.9929L23 21.9949L23 21.9959C23 21.9963 23 21.9967 22 22L23 21.9967C23.0009 22.2625 22.8959 22.5177 22.7083 22.7059C22.5206 22.8942 22.2658 23 22 23L12 23C11.7342 23 11.4794 22.8942 11.2917 22.7059C11.1041 22.5177 10.9991 22.2625 11 21.9967L12 22C11 21.9967 11 21.9963 11 21.9958L11 21.9949L11 21.9929L11.0001 21.9877L11.0003 21.9736C11.0004 21.9625 11.0007 21.948 11.0013 21.9302C11.0023 21.8948 11.0043 21.8464 11.0078 21.7866C11.0149 21.667 11.0285 21.5007 11.0546 21.2994C11.1065 20.8987 11.2093 20.3478 11.4152 19.7448C11.8247 18.5455 12.6765 17.0516 14.4293 16.2219C14.7253 16.0818 15.0708 15.9677 15.4561 16.0082C15.8077 16.0452 16.0742 16.2068 16.1821 16.2723C16.1892 16.2766 16.1956 16.2804 16.2013 16.2838C16.3139 16.3511 16.3661 16.381 16.4517 16.4086ZM13.1366 21C13.1793 20.8101 13.2351 20.6043 13.3079 20.3911C13.6124 19.4993 14.1804 18.5664 15.2512 18.0458C15.38 18.1213 15.5758 18.2276 15.8381 18.3122C16.1567 18.4148 16.5321 18.4739 17 18.4739C17.4679 18.4739 17.8433 18.4148 18.1619 18.3122C18.4242 18.2276 18.62 18.1213 18.7488 18.0458C19.8196 18.5664 20.3876 19.4994 20.6921 20.3911C20.7649 20.6043 20.8207 20.8101 20.8634 21L13.1366 21Z" fill="black"/>
<path fill-rule="evenodd" clip-rule="evenodd" d="M17 14C17.5523 14 18 13.5523 18 13C18 12.4477 17.5523 12 17 12C16.4477 12 16 12.4477 16 13C16 13.5523 16.4477 14 17 14ZM17 16C18.6569 16 20 14.6569 20 13C20 11.3431 18.6569 10 17 10C15.3431 10 14 11.3431 14 13C14 14.6569 15.3431 16 17 16Z" fill="black"/>
</svg>
