<svg width="24" height="24" viewBox="0 0 24 24" fill="none" xmlns="http://www.w3.org/2000/svg">
<path fill-rule="evenodd" clip-rule="evenodd" d="M9.75365 1.06906C9.90634 1.15891 10.0001 1.32284 10.0001 1.5V3.5H16C16.2761 3.5 16.5 3.72386 16.5 4V10.2647H17.875V8.50001C17.875 8.3052 17.9881 8.12812 18.1649 8.04628C18.3417 7.96443 18.5499 7.99271 18.6985 8.11875L22.8235 11.6188C22.9355 11.7138 23 11.8532 23 12C23 12.1468 22.9355 12.2863 22.8235 12.3813L18.6985 15.8813C18.5499 16.0073 18.3417 16.0356 18.1649 15.9537C17.9881 15.8719 17.875 15.6948 17.875 15.5V13.7353H16.5V20C16.5 20.2761 16.2761 20.5 16 20.5H10.0001V22.5C10.0001 22.6772 9.90634 22.8411 9.75365 22.9309C9.60097 23.0208 9.41214 23.0231 9.25727 22.9371L4.76776 20.4429C4.7402 20.4284 4.71416 20.4114 4.68994 20.3923C4.65171 20.3621 4.61882 20.3271 4.59166 20.2886C4.53393 20.2071 4.5 20.1075 4.5 20V19.9995V4.00045V4C4.5 3.89247 4.53394 3.79288 4.5917 3.71133C4.61885 3.67287 4.65173 3.63786 4.68994 3.60772C4.71416 3.58855 4.7402 3.57158 4.76775 3.5571L9.25727 1.06292C9.41214 0.976885 9.60097 0.979222 9.75365 1.06906ZM15.5 13.7353H13.5C13.2239 13.7353 13 13.5114 13 13.2353V10.7647C13 10.4886 13.2239 10.2647 13.5 10.2647H15.5V4.5H10.0001V19.5H15.5V13.7353ZM9.00009 2.34976V3.99036L9 4L9.00009 4.00964V19.9904L9 20L9.00009 20.0096V21.6502L5.5 19.7057V4.29425L9.00009 2.34976ZM18.875 10.7647V9.57998L21.7272 12L18.875 14.42V13.2353C18.875 12.9592 18.6511 12.7353 18.375 12.7353H14V11.2647H18.375C18.6511 11.2647 18.875 11.0409 18.875 10.7647Z" fill="black"/>
</svg>
