<svg width="24" height="24" viewBox="0 0 24 24" fill="none" xmlns="http://www.w3.org/2000/svg">
<path fill-rule="evenodd" clip-rule="evenodd" d="M1.00958 3C1.56186 3.00041 2.00925 3.44846 2.00884 4.00074L1.00884 4C2.00884 4.00074 2.00884 4.00074 2.00884 4.00074L2.00438 10.2507C2.00216 13.5009 1.99995 17.0004 2 18C2.00004 18.8436 2.21187 19.2943 2.46 19.5413C2.70891 19.7892 3.16296 20 4.00884 20H6.99943L7 21L6.99986 22H4.00884C2.85467 22 1.80435 21.7108 1.04888 20.9587C0.292618 20.2057 5.57714e-05 19.1564 7.56356e-07 18C-4.68678e-05 16.9996 0.00216244 13.4991 0.00438301 10.2493L0.00883607 3.9998C0.00883607 3.9998 0.00883651 3.99926 1.00779 4L0.00883607 3.9998C0.00924711 3.44752 0.457296 2.99959 1.00958 3ZM8 21C8 21.5523 7.55214 22 6.99986 22L7 21L6.99943 20C7.55171 20 8 20.4477 8 21Z" fill="black"/>
<path fill-rule="evenodd" clip-rule="evenodd" d="M0.826672 1.34073C1.41857 0.544871 2.33351 0 3.50881 0H16.9995C16.9995 0 17 0 17 1C17 2 16.9999 2 16.9999 2H3.50881C3.01491 2 2.67629 2.20513 2.4315 2.53427C2.16552 2.8919 2.00065 3.42109 2 4.00111C1.99936 4.58119 2.16305 5.10948 2.42802 5.46611C2.6715 5.79381 3.01031 6 3.50881 6H16.9995C16.9995 6 17 6 17 7C18 7 18 7.00014 18 7.00014V8C18 8.55228 17.5523 9 17 9C16.4477 9 16 8.55228 16 8H3.50881C2.33143 8 1.41501 7.45619 0.822629 6.65889C0.251747 5.89052 -0.00102115 4.91881 3.09968e-06 3.99889C0.00102747 3.07891 0.255961 2.1081 0.826672 1.34073ZM17 7L18 7.00014C18 6.73492 17.8946 6.48043 17.7071 6.29289C17.5196 6.10536 17.2648 6 16.9995 6L17 7ZM18 1C18 1.55228 17.5522 2 16.9999 2L17 1L16.9995 0C17.5518 0 18 0.447715 18 1Z" fill="black"/>
<path fill-rule="evenodd" clip-rule="evenodd" d="M3 4C3 3.44772 3.44772 3 4 3H17C17.5523 3 18 3.44772 18 4C18 4.55228 17.5523 5 17 5H4C3.44772 5 3 4.55228 3 4Z" fill="black"/>
<path d="M8 11H4V15H6" stroke="black" stroke-width="2" stroke-linecap="round" stroke-linejoin="round"/>
<path fill-rule="evenodd" clip-rule="evenodd" d="M13.0909 13.7619C13.0909 13.3411 13.4165 13 13.8182 13H15.6364C16.3512 13 16.953 13.2542 17.3779 13.6993C17.7959 14.1373 18 14.7163 18 15.2857C18 15.8551 17.7959 16.4341 17.3779 16.8721C16.953 17.3172 16.3512 17.5714 15.6364 17.5714H14.5455V17.9524H15.6364C16.038 17.9524 16.3636 18.2935 16.3636 18.7143C16.3636 19.1351 16.038 19.4762 15.6364 19.4762H14.5455V20.2381C14.5455 20.6589 14.2198 21 13.8182 21C13.4165 21 13.0909 20.6589 13.0909 20.2381V19.4762H12.7273C12.3256 19.4762 12 19.1351 12 18.7143C12 18.2935 12.3256 17.9524 12.7273 17.9524H13.0909V17.5714H12.7273C12.3256 17.5714 12 17.2303 12 16.8095C12 16.3887 12.3256 16.0476 12.7273 16.0476H13.0909V13.7619ZM14.5455 16.0476H15.6364C16.0124 16.0476 16.2288 15.9209 16.3494 15.7946C16.4768 15.6611 16.5455 15.4782 16.5455 15.2857C16.5455 15.0932 16.4768 14.9103 16.3494 14.7768C16.2288 14.6505 16.0124 14.5238 15.6364 14.5238H14.5455V16.0476Z" fill="black"/>
<circle cx="15" cy="17" r="6" stroke="black" stroke-width="2"/>
</svg>
