<svg width="24" height="24" viewBox="0 0 24 24" fill="none" xmlns="http://www.w3.org/2000/svg">
<rect width="24" height="24" fill="none"/>
<path fill-rule="evenodd" clip-rule="evenodd" d="M11.7929 12.2071C11.4024 11.8166 11.4024 11.1834 11.7929 10.7929L19.2929 3.29289C19.5789 3.00689 20.009 2.92134 20.3827 3.07612C20.7564 3.2309 21 3.59554 21 4V10C21 10.5523 20.5523 11 20 11C19.4477 11 19 10.5523 19 10V6.41421L13.2071 12.2071C12.8166 12.5976 12.1834 12.5976 11.7929 12.2071Z" fill="black"/>
<path fill-rule="evenodd" clip-rule="evenodd" d="M21 4C21 4.55228 20.5523 5 20 5H14C13.4477 5 13 4.55228 13 4C13 3.44771 13.4477 3 14 3H20C20.5523 3 21 3.44771 21 4Z" fill="black"/>
<path fill-rule="evenodd" clip-rule="evenodd" d="M3.29289 3.29289C3.48043 3.10536 3.73478 3 4 3H10C10.5523 3 11 3.44771 11 4C11 4.55228 10.5523 5 10 5H5V19H19V14C19 13.4477 19.4477 13 20 13C20.5523 13 21 13.4477 21 14V20C21 20.5523 20.5523 21 20 21H4C3.44772 21 3 20.5523 3 20V4C3 3.73478 3.10536 3.48043 3.29289 3.29289Z" fill="black"/>
</svg>
