<svg width="20" height="20" viewBox="0 0 20 20" fill="none" xmlns="http://www.w3.org/2000/svg">
<path d="M0 0H20V20H0V0Z" fill="none"/>
<path d="M11 19H9.00005C8.43755 19 8.00005 18.5625 8.00005 18L7.99999 12H6.00005C5.43755 12 5 11.5625 5 11V9C5 8.51852 5.51763 8 6.00005 8H8.00007C8.00007 8 8 8.5 8 6C8 3.5 10.188 1 13 1H15C15.5625 1 16 1.41031 16 2V4C16 4.5625 15.5625 5 15 5C15 5 13.5 5 13 5C12.5 5 12 5.49539 12 6C12 6.50461 12 8 12 8H14C14.6299 8 15 8.38133 15 9V11C15 11.5625 14.6289 12 14 12H12V18C12 18.5625 11.5625 19 11 19ZM9.12505 18H11L10.8534 12C10.875 11.4375 11.4375 11 12 11H14V9H12C11.4375 9 11 8.5625 11 8C11 8 11 7 11 6C11 5 12 4 13 4C14 4 15 4 15 4L15 2C15 2 15 2 13 2C11 2 9 4 9 6C9 8 9.00005 8 9.00005 8C8.97858 8.5625 8.56249 9 7.99999 9H6.00005V11H7.99999C8.56249 11 9.12499 11.4375 9.12499 12L9.12505 18Z" fill="black"/>
</svg>
