<svg width="20" height="20" viewBox="0 0 20 20" fill="none" xmlns="http://www.w3.org/2000/svg">
<path d="M0 0H20V20H0V0Z" fill="none"/>
<path fill-rule="evenodd" clip-rule="evenodd" d="M5.71423 2.5C5.55933 2.5 5.41309 2.5719 5.31836 2.69458L3.60413 4.91681C3.53662 5.00433 3.5 5.11169 3.5 5.22223V6V8H3C2.73474 8 2.48047 8.10535 2.29285 8.29291C2.10535 8.48041 2 8.7348 2 9V15.8571C2 16.4583 2.28284 16.9826 2.63025 17.3399C2.97595 17.6955 3.49805 18 4.11108 18L14 18.0001H17.5C17.7761 18.0001 18 17.7762 18 17.5001V5.00006C18 4.72388 17.7761 4.50006 17.5 4.50006H15.5C15.4141 4.50006 15.3552 4.49799 15.2922 4.49585C15.24 4.49402 15.1848 4.49213 15.1089 4.49115C14.983 4.48962 14.817 4.49213 14.6569 4.53479C14.48 4.58197 14.2888 4.68408 14.1561 4.88916C14.0338 5.07825 14 5.29633 14 5.50006V8H12.5V3C12.5 2.72388 12.2761 2.5 12 2.5H7H5.71423ZM4.5 8V6.5H7C7.27612 6.5 7.5 6.27612 7.5 6V3.5H11.5V8H4.5ZM6.5 5.5V3.5H5.96008L4.5 5.39264V5.5H6.5ZM17 17.0001L15 17V9.00006V5.50006V5.492C15.0253 5.49103 15.057 5.4906 15.0966 5.49109C15.1416 5.49164 15.1886 5.4931 15.2432 5.49481L15.2776 5.49591L15.3866 5.49878C15.4231 5.49957 15.4611 5.50006 15.5 5.50006H17V17.0001ZM14 17.0001V9.00006L3 9V15.8571C3 16.4286 3.55554 17 4.11108 17L14 17.0001ZM5.5 10C5.22388 10 5 10.2239 5 10.5C5 10.7761 5.22388 11 5.5 11H11.5C11.7761 11 12 10.7761 12 10.5C12 10.2239 11.7761 10 11.5 10H5.5ZM10 12.5C10 12.7761 9.77612 13 9.5 13C9.22388 13 9 12.7761 9 12.5C9 12.2239 9.22388 12 9.5 12C9.77612 12 10 12.2239 10 12.5ZM7.5 13C7.77612 13 8 12.7761 8 12.5C8 12.2239 7.77612 12 7.5 12C7.22388 12 7 12.2239 7 12.5C7 12.7761 7.22388 13 7.5 13ZM10 15.5C10 15.7761 9.77612 16 9.5 16C9.22388 16 9 15.7761 9 15.5C9 15.2239 9.22388 15 9.5 15C9.77612 15 10 15.2239 10 15.5ZM7.5 16C7.77612 16 8 15.7761 8 15.5C8 15.2239 7.77612 15 7.5 15C7.22388 15 7 15.2239 7 15.5C7 15.7761 7.22388 16 7.5 16ZM6 12.5C6 12.7761 5.77612 13 5.5 13C5.22388 13 5 12.7761 5 12.5C5 12.2239 5.22388 12 5.5 12C5.77612 12 6 12.2239 6 12.5ZM5.5 16C5.77612 16 6 15.7761 6 15.5C6 15.2239 5.77612 15 5.5 15C5.22388 15 5 15.2239 5 15.5C5 15.7761 5.22388 16 5.5 16ZM12 12.5C12 12.7761 11.7761 13 11.5 13C11.2239 13 11 12.7761 11 12.5C11 12.2239 11.2239 12 11.5 12C11.7761 12 12 12.2239 12 12.5ZM11.5 16C11.7761 16 12 15.7761 12 15.5C12 15.2239 11.7761 15 11.5 15C11.2239 15 11 15.2239 11 15.5C11 15.7761 11.2239 16 11.5 16Z" fill="black"/>
</svg>
