<svg width="24" height="24" viewBox="0 0 24 24" fill="none" xmlns="http://www.w3.org/2000/svg">
<g clip-path="url(#clip0_8392_175145)">
<rect x="1" y="1" width="22" height="22" rx="1" stroke="black" stroke-width="2" stroke-dasharray="8 8"/>
<rect x="1" y="1" width="22" height="7" rx="1" stroke="black" stroke-width="2"/>
<path fill-rule="evenodd" clip-rule="evenodd" d="M12 11C12.5523 11 13 11.4477 13 12V17.8258L15.3492 15.8122C15.7686 15.4527 16.3999 15.5013 16.7593 15.9206C17.1187 16.34 17.0701 16.9713 16.6508 17.3307L12.6508 20.7593C12.2763 21.0802 11.7237 21.0802 11.3492 20.7593L7.34923 17.3307C6.9299 16.9713 6.88134 16.34 7.24076 15.9206C7.60018 15.5013 8.23148 15.4527 8.65081 15.8122L11 17.8258V12C11 11.4477 11.4477 11 12 11Z" fill="black"/>
</g>
<defs>
<clipPath id="clip0_8392_175145">
<rect width="24" height="24" fill="white"/>
</clipPath>
</defs>
</svg>
