<svg width="24" height="24" viewBox="0 0 24 24" fill="none" xmlns="http://www.w3.org/2000/svg">
<rect width="24" height="24" fill="none"/>
<path fill-rule="evenodd" clip-rule="evenodd" d="M1.12339 1.51879C1.29903 1.19885 1.63502 1 2 1H22C22.3603 1 22.6927 1.19379 22.8702 1.5073C23.0477 1.82081 23.0429 2.20557 22.8575 2.5145C21.8478 4.19725 20.5895 6.12663 19.3448 8.03519L19.3376 8.04627C18.1442 9.87618 16.9636 11.6867 16 13.2781V19C16 19.3557 15.8111 19.6846 15.5039 19.8638L9.50387 23.3638C9.19458 23.5442 8.81243 23.5455 8.50194 23.3671C8.19145 23.1888 8 22.8581 8 22.5V13.2912L1.15634 2.53688C0.96039 2.22895 0.947763 1.83874 1.12339 1.51879ZM3.82167 3L9.84366 12.4631C9.94577 12.6236 10 12.8098 10 13V20.759L14 18.4256V13C14 12.8188 14.0493 12.6409 14.1425 12.4855C15.1522 10.8028 16.4104 8.8734 17.6551 6.96486L17.6624 6.95373C18.5465 5.5981 19.4236 4.25314 20.2106 3H3.82167Z" fill="black"/>
</svg>
