<svg width="24" height="24" viewBox="0 0 24 24" fill="none" xmlns="http://www.w3.org/2000/svg">
<rect width="24" height="24" fill="none"/>
<path fill-rule="evenodd" clip-rule="evenodd" d="M8 1C7.44772 1 7 1.44772 7 2V7C7 7.55228 7.44772 8 8 8H11V11H3C2.44772 11 2 11.4477 2 12V16H1C0.447715 16 0 16.4477 0 17V21C0 21.5523 0.447715 22 1 22H5C5.55228 22 6 21.5523 6 21V17C6 16.4477 5.55228 16 5 16H4V13H11V16H10C9.44771 16 9 16.4477 9 17V21C9 21.5523 9.44771 22 10 22H14C14.5523 22 15 21.5523 15 21V17C15 16.4477 14.5523 16 14 16H13V13H20V16H19C18.4477 16 18 16.4477 18 17V21C18 21.5523 18.4477 22 19 22H23C23.5523 22 24 21.5523 24 21V17C24 16.4477 23.5523 16 23 16H22V12C22 11.4477 21.5523 11 21 11H13V8H16C16.5523 8 17 7.55228 17 7V2C17 1.44772 16.5523 1 16 1H8ZM21 18H20V20H22V18H21ZM3 18H2V20H4V18H3ZM11 18H12H13V20H11V18ZM12 6H15V3H9V6H12Z" fill="black"/>
</svg>
