<svg width="23" height="23" viewBox="0 0 23 23" fill="none" xmlns="http://www.w3.org/2000/svg">
<path fill-rule="evenodd" clip-rule="evenodd" d="M10.3978 0.0272266C6.54388 0.40218 3.18866 2.63858 1.32027 6.07785C0.735926 7.15344 0.297411 8.50152 0.0867078 9.87008C-0.0285109 10.6182 -0.0289796 12.3038 0.0857703 13.0576C0.476567 15.6242 1.59374 17.8386 3.39655 19.6201C5.17335 21.3758 7.32632 22.4465 9.8668 22.8377C10.6149 22.9529 12.3005 22.9534 13.0543 22.8386C15.6209 22.4478 17.8354 21.3306 19.6168 19.5278C21.3725 17.751 22.4432 15.5981 22.8344 13.0576C22.9496 12.3095 22.9501 10.6238 22.8353 9.87008C22.0564 4.75405 18.176 0.858508 13.1012 0.0977735C12.5083 0.00885165 10.9929 -0.030664 10.3978 0.0272266ZM10.9449 3.68905V6.17985L10.5348 6.14751C9.72238 6.08338 8.63511 5.84291 7.88141 5.56068C7.67891 5.48483 7.5028 5.41237 7.49005 5.39962C7.45189 5.36141 7.74814 4.63316 8.036 4.05759C8.70556 2.71893 9.46269 1.85216 10.352 1.40624C11.0156 1.07357 10.9449 0.801555 10.9449 3.68905ZM12.3934 1.30982C13.3424 1.69546 14.2635 2.73562 14.972 4.22165C15.2479 4.8006 15.4686 5.36198 15.4339 5.39671C15.4196 5.41105 15.2422 5.48479 15.0397 5.56058C14.264 5.85093 13.2233 6.08235 12.4098 6.14544L11.9762 6.17905V3.68863C11.9762 1.49169 11.9846 1.19821 12.0474 1.19821C12.0866 1.19821 12.2423 1.24841 12.3934 1.30982ZM8.43069 1.6318C7.84142 2.24971 7.21203 3.29437 6.72735 4.45888C6.62174 4.71266 6.52682 4.9288 6.51646 4.93916C6.46419 4.99148 5.32935 4.22577 4.67197 3.69468L4.56313 3.60674L4.92978 3.31377C5.60947 2.77073 6.49897 2.23101 7.28867 1.88254C7.65121 1.7226 8.45558 1.43741 8.55233 1.4346C8.59203 1.43343 8.54099 1.51616 8.43069 1.6318ZM14.8534 1.5793C16.0056 1.97484 17.3028 2.70815 18.1802 3.45988L18.3609 3.61466L18.0162 3.88949C17.5459 4.26444 16.5107 4.94821 16.4133 4.94821C16.4008 4.94821 16.3329 4.79526 16.2624 4.60837C15.9033 3.65648 15.1294 2.33155 14.5784 1.72555C14.4319 1.56445 14.3377 1.43259 14.369 1.43259C14.4004 1.43259 14.6183 1.49863 14.8534 1.5793ZM4.22352 4.64676C4.62922 4.98454 5.45853 5.5469 5.91735 5.79543C6.11816 5.90418 6.20347 5.97637 6.18908 6.0253C5.86653 7.12101 5.58894 8.82726 5.52922 10.0818C5.5145 10.3907 5.4921 10.7121 5.47939 10.7959L5.45628 10.9482H1.00565L1.0273 10.8427C1.03925 10.7848 1.06175 10.5791 1.07732 10.3857C1.20266 8.83035 1.82975 7.10052 2.79046 5.66015C3.09041 5.21033 3.78219 4.33884 3.83924 4.33884C3.84716 4.33884 4.02008 4.4774 4.22352 4.64676ZM19.3865 4.65838C20.0054 5.39873 20.4169 6.02413 20.8215 6.83938C21.4146 8.0346 21.7065 9.09088 21.889 10.7021L21.9169 10.9482H17.4728L17.4438 10.7724C17.4278 10.6758 17.4145 10.4642 17.4142 10.3024C17.4128 9.53085 17.1434 7.62721 16.8941 6.62671C16.8189 6.3253 16.7574 6.04687 16.7574 6.00791C16.7574 5.96901 16.8998 5.85862 17.0738 5.76257C17.5147 5.51929 18.2576 5.01008 18.7027 4.64596C18.909 4.4773 19.0883 4.34057 19.1012 4.34221C19.1141 4.3438 19.2425 4.48607 19.3865 4.65838ZM7.58028 6.54374C8.4103 6.84829 9.63828 7.11351 10.5113 7.17674L10.9449 7.20815V10.9482H6.49011L6.51767 10.4209C6.58602 9.11169 6.88607 7.15466 7.12494 6.45993C7.15138 6.3831 7.13371 6.37987 7.58028 6.54374ZM15.8984 6.87341C16.1483 7.92116 16.334 9.24491 16.4028 10.4677L16.4298 10.9482H11.9762V7.21166L12.4098 7.17974C13.306 7.11383 14.5363 6.84772 15.3277 6.54871C15.534 6.47076 15.723 6.41249 15.7479 6.41919C15.7727 6.4259 15.8404 6.63032 15.8984 6.87341ZM5.47944 12.1318C5.49214 12.2156 5.51483 12.5428 5.52978 12.859C5.58027 13.9253 5.80232 15.3929 6.07049 16.4326C6.23249 17.0605 6.29849 16.9423 5.53086 17.3986C5.08391 17.6643 4.6116 18.0017 4.01258 18.4832L3.85368 18.611L3.62029 18.3538C2.24633 16.8403 1.23796 14.5356 1.07732 12.542C1.06175 12.3486 1.03925 12.143 1.0273 12.0849L1.00565 11.9795H5.45628L5.47944 12.1318ZM10.9449 13.8513C10.9449 15.594 10.9393 15.7247 10.8629 15.7461C10.8178 15.7587 10.591 15.7832 10.359 15.8006C9.55588 15.8608 8.44208 16.1061 7.60574 16.4071L7.14936 16.5714L7.12025 16.4434C7.10427 16.373 7.04966 16.1475 6.99894 15.9424C6.77849 15.0507 6.5773 13.6009 6.51899 12.4834L6.49269 11.9795H10.9449V13.8513ZM16.4038 12.5068C16.3387 13.7737 16.1079 15.3031 15.8171 16.3945L15.771 16.5674L15.2447 16.3861C14.3542 16.0794 13.3617 15.8629 12.5621 15.8008C12.3559 15.7847 12.1397 15.7618 12.0816 15.7497L11.9762 15.7277V11.9795H16.431L16.4038 12.5068ZM21.8909 12.2959C21.7046 14.2443 21.0538 16.0088 19.9506 17.5568C19.7063 17.8995 19.1581 18.5576 19.0977 18.5804C19.076 18.5886 18.8938 18.462 18.6929 18.299C18.2601 17.9479 17.4679 17.4084 17.0319 17.1679L16.7205 16.9961L16.856 16.4682C17.1395 15.3646 17.3596 13.8516 17.4425 12.4365L17.4693 11.9795H21.9211L21.8909 12.2959ZM10.9449 19.2451C10.9449 22.1251 11.0155 21.8541 10.352 21.5214C9.47164 21.08 8.71124 20.2144 8.05053 18.9015C7.74022 18.285 7.46474 17.5957 7.51189 17.5539C7.53092 17.5371 7.71524 17.4602 7.92149 17.3832C8.62105 17.1216 9.6576 16.8897 10.4762 16.8115C10.6953 16.7906 10.8905 16.7706 10.9098 16.7671C10.9291 16.7636 10.9449 17.8787 10.9449 19.2451ZM12.5855 16.8305C13.0332 16.8708 13.6761 16.9891 14.1559 17.1193C14.6636 17.2572 15.3926 17.5108 15.4231 17.5603C15.4904 17.6691 14.7581 19.2289 14.3666 19.8106C13.7558 20.7181 13.0202 21.3901 12.372 21.6327C12.2297 21.6859 12.0824 21.7295 12.0447 21.7295C11.9855 21.7295 11.9762 21.3936 11.9762 19.243V16.7564L12.1285 16.7798C12.2123 16.7926 12.418 16.8155 12.5855 16.8305ZM17.0387 18.3721C17.5733 18.7088 18.3043 19.2665 18.3043 19.3378C18.3043 19.3968 17.6485 19.9015 17.1324 20.2397C16.371 20.7387 15.0418 21.3511 14.4605 21.4708L14.2965 21.5046L14.5119 21.2772C15.1176 20.6378 15.8436 19.4137 16.2658 18.3199L16.3968 17.9807L16.5654 18.0805C16.6581 18.1354 16.8711 18.2666 17.0387 18.3721ZM6.74961 18.5213C7.21874 19.6482 7.84977 20.6901 8.42989 21.2959C8.67397 21.5507 8.61355 21.5514 7.93297 21.3016C7.25464 21.0526 6.68521 20.7798 6.06964 20.4089C5.56461 20.1047 4.6168 19.4057 4.6168 19.3376C4.6168 19.2207 6.39697 18.0027 6.512 18.0409C6.53596 18.0489 6.64288 18.2651 6.74961 18.5213Z" fill="black"/>
</svg>
