<svg width="24" height="24" viewBox="0 0 24 24" fill="none" xmlns="http://www.w3.org/2000/svg">
<rect width="24" height="24" fill="none"/>
<path fill-rule="evenodd" clip-rule="evenodd" d="M0 2C0 1.44771 0.447715 0.999999 1 0.999999H15C15.5523 0.999999 16 1.44771 16 2C16 2.55228 15.5523 3 15 3H2V16H22V10C22 9.44771 22.4477 9 23 9C23.5523 9 24 9.44771 24 10V17C24 17.5523 23.5523 18 23 18H1C0.447715 18 0 17.5523 0 17V2Z" fill="black"/>
<path fill-rule="evenodd" clip-rule="evenodd" d="M6.29289 12.7071C5.90237 12.3166 5.90237 11.6834 6.29289 11.2929L12.2929 5.29289C12.6834 4.90237 13.3166 4.90237 13.7071 5.29289L16 7.58579L22.2929 1.29289C22.5789 1.00689 23.009 0.921338 23.3827 1.07612C23.7564 1.2309 24 1.59554 24 2V6C24 6.55228 23.5523 7 23 7C22.4477 7 22 6.55228 22 6V4.41421L16.7071 9.70711C16.3166 10.0976 15.6834 10.0976 15.2929 9.70711L13 7.41421L7.70711 12.7071C7.31658 13.0976 6.68342 13.0976 6.29289 12.7071Z" fill="black"/>
<path fill-rule="evenodd" clip-rule="evenodd" d="M24 2C24 2.55228 23.5523 3 23 3H19C18.4477 3 18 2.55228 18 2C18 1.44771 18.4477 0.999999 19 0.999999H23C23.5523 0.999999 24 1.44771 24 2Z" fill="black"/>
<path fill-rule="evenodd" clip-rule="evenodd" d="M12 16C12.5523 16 13 16.4477 13 17V21H18.5C19.0523 21 19.5 21.4477 19.5 22C19.5 22.5523 19.0523 23 18.5 23H5.5C4.94772 23 4.5 22.5523 4.5 22C4.5 21.4477 4.94772 21 5.5 21H11V17C11 16.4477 11.4477 16 12 16Z" fill="black"/>
</svg>
