<svg width="16" height="16" viewBox="0 0 16 16" fill="none" xmlns="http://www.w3.org/2000/svg">
<g clip-path="url(#clip0)">
<path fill-rule="evenodd" clip-rule="evenodd" d="M9.15005 0.142876C9.34471 -0.0478633 9.65625 -0.0475908 9.85057 0.143488L15.8506 6.0435C16.0459 6.23558 16.0503 6.54909 15.8604 6.74657L13.6615 9.03347C13.8665 9.36664 13.9513 9.72887 13.9283 10.0864C13.8968 10.5755 13.6669 11.0184 13.3426 11.3427C13.0183 11.6669 12.5755 11.8969 12.0864 11.9283C12.0348 11.9316 11.9832 11.9327 11.9315 11.9315C11.9327 11.9832 11.9316 12.0348 11.9283 12.0864C11.8969 12.5755 11.667 13.0184 11.3427 13.3427C11.0184 13.6669 10.5755 13.8969 10.0864 13.9283C10.0447 13.931 10.0028 13.9322 9.96094 13.9319C9.9621 13.9581 9.96265 13.9843 9.96259 14.0105C9.96162 14.4767 9.76995 14.8948 9.49088 15.2044C9.21372 15.5118 8.82894 15.736 8.40585 15.7907C8.20427 15.8168 7.99835 15.8034 7.79922 15.7457C7.54963 15.9066 7.25238 16 6.93331 16C6.04966 16 5.33331 15.2836 5.33331 14.4C5.33331 14.1534 5.38909 13.9199 5.48872 13.7113C5.28013 13.8109 5.04659 13.8667 4.80001 13.8667C3.91636 13.8667 3.20001 13.1503 3.20001 12.2667C3.20001 12.0201 3.2558 11.7865 3.35544 11.5779C3.14683 11.6775 2.91326 11.7333 2.66665 11.7333C1.78299 11.7333 1.06665 11.017 1.06665 10.1333C1.06665 9.49526 1.44014 8.94443 1.98043 8.68754L0.146447 6.85355C0.0526785 6.75979 0 6.63261 0 6.5C0 6.36739 0.0526784 6.24021 0.146447 6.14645L5.14645 1.14645C5.34171 0.951184 5.65829 0.951184 5.85355 1.14645L6.99602 2.28891C7.42017 1.85783 7.88496 1.39372 8.27317 1.00843C8.52365 0.75984 8.74276 0.543553 8.89928 0.389392L9.08327 0.208412L9.15005 0.142876ZM8.49977 14.7275C8.58777 14.6823 8.67346 14.6176 8.74816 14.5348C8.88395 14.3841 8.9622 14.1972 8.96259 14.0085C8.96297 13.8288 8.89309 13.6002 8.64642 13.3536L9.35353 12.6465C9.35354 12.6465 9.35355 12.6465 9.35356 12.6465L9.35359 12.6465C9.58599 12.8789 9.81944 12.9434 10.0223 12.9304C10.2379 12.9165 10.4599 12.8113 10.6356 12.6355C10.8113 12.4598 10.9165 12.2379 10.9304 12.0223C10.9433 11.8212 10.88 11.59 10.6525 11.3596L10.6464 11.3536L11.3535 10.6465L11.3536 10.6465L11.3536 10.6465L11.3596 10.6525C11.59 10.88 11.8212 10.9433 12.0222 10.9304C12.2378 10.9165 12.4598 10.8113 12.6355 10.6355C12.8112 10.4598 12.9165 10.2379 12.9303 10.0223C12.9434 9.81941 12.8788 9.58596 12.6464 9.35356L12.6464 9.35354C12.642 9.34912 12.6377 9.34461 12.6334 9.34L8.76052 5.1642C8.59947 5.33742 8.39526 5.55664 8.16816 5.79943C7.62312 6.38213 6.94396 7.10308 6.41328 7.64974C6.04953 8.02444 5.59921 8.18404 5.15638 8.15583C4.72582 8.1284 4.33229 7.92617 4.0471 7.63286C3.76061 7.33819 3.56445 6.93181 3.55889 6.47609C3.55322 6.01181 3.74587 5.54702 4.14645 5.14645C4.6398 4.6531 4.97907 4.31818 5.26549 4.03545L5.2655 4.03544L5.2655 4.03544L5.26551 4.03543C5.6259 3.67967 5.90259 3.40654 6.29723 3.00434L5.5 2.20711L1.20711 6.5L3.35355 8.64644C3.37579 8.66868 3.3955 8.6925 3.41268 8.71753C3.92052 8.98568 4.26665 9.51908 4.26665 10.1333C4.26665 10.3799 4.21086 10.6135 4.11122 10.8221C4.31983 10.7224 4.55341 10.6667 4.80001 10.6667C5.68367 10.6667 6.40001 11.383 6.40001 12.2667C6.40001 12.5132 6.34423 12.7468 6.2446 12.9554C6.45319 12.8558 6.68674 12.8 6.93331 12.8C7.81697 12.8 8.53331 13.5163 8.53331 14.4C8.53331 14.5122 8.52176 14.6217 8.49977 14.7275ZM9.50008 1.20131C9.35649 1.34292 9.17702 1.52029 8.97759 1.71821C8.47826 2.21378 7.85593 2.83614 7.35876 3.34827C6.75527 3.96993 6.42245 4.2985 5.95932 4.75574L5.9593 4.75575L5.95904 4.756C5.67226 5.03913 5.33549 5.37161 4.85355 5.85355C4.61916 6.08794 4.55683 6.30161 4.55881 6.46389C4.5609 6.63473 4.63502 6.80302 4.76408 6.93576C4.89445 7.06985 5.06176 7.14777 5.21996 7.15785C5.36589 7.16715 5.53226 7.12162 5.69577 6.95319C6.21962 6.41358 6.89349 5.69829 7.43784 5.11632C7.70971 4.82567 7.9487 4.56888 8.11971 4.38477L8.39318 4.08985C8.48773 3.98759 8.62092 3.92909 8.7602 3.92899C8.89947 3.92888 9.03247 3.98687 9.12718 4.08898L13.0066 8.27179L14.7969 6.40986L9.50008 1.20131ZM2.66665 10.7333C2.99802 10.7333 3.26665 10.4647 3.26665 10.1333C3.26665 9.80195 2.99802 9.53333 2.66665 9.53333C2.33528 9.53333 2.06665 9.80195 2.06665 10.1333C2.06665 10.4647 2.33528 10.7333 2.66665 10.7333ZM4.80001 12.8667C5.13138 12.8667 5.40001 12.598 5.40001 12.2667C5.40001 11.9353 5.13138 11.6667 4.80001 11.6667C4.46864 11.6667 4.20001 11.9353 4.20001 12.2667C4.20001 12.598 4.46864 12.8667 4.80001 12.8667ZM7.53331 14.4C7.53331 14.7314 7.26468 15 6.93331 15C6.60194 15 6.33331 14.7314 6.33331 14.4C6.33331 14.0686 6.60194 13.8 6.93331 13.8C7.26468 13.8 7.53331 14.0686 7.53331 14.4Z" fill="black"/>
</g>
<defs>
<clipPath id="clip0">
<rect width="16" height="16" fill="white"/>
</clipPath>
</defs>
</svg>
