<svg width="24" height="24" viewBox="0 0 24 24" fill="none" xmlns="http://www.w3.org/2000/svg">
<path d="M0 0H24V24H0V0Z" fill="none"/>
<path fill-rule="evenodd" clip-rule="evenodd" d="M13.0157 0.98258C13.5055 0.655457 14.098 0.544199 14.6644 0.638608C16.026 0.865538 17 2.15512 17 4V10.9487C17.2673 10.6856 17.5846 10.408 17.9447 10.168C18.898 9.53239 20.1235 9.33975 20.9835 10.2143C21.7378 10.9813 21.7811 12.1861 21.4587 13.2822C20.7759 15.6039 19.326 17.7756 17.5721 19.5213C15.8189 21.2663 13.7046 22.643 11.6238 23.3252C9.56016 24.0019 7.35787 24.0413 5.64394 22.8128C3.92005 21.5771 3.00004 19.2821 3 16L3.00005 10.0012L3.00005 7.00003C3.00005 5.23341 3.94999 3.75005 5.49999 3.75005C5.67439 3.75005 5.8412 3.76883 5.99992 3.80469L5.99992 3.50001C5.99993 1.77258 7.10716 0.675107 8.41694 0.565958C8.95797 0.520871 9.52219 0.651716 9.9922 0.97692C10.4453 0.649378 10.9852 0.5 11.5 0.5C12.0178 0.5 12.561 0.651098 13.0157 0.98258ZM7.99993 7.00003C7.99993 6.99546 7.99992 6.9909 7.99991 6.98634L7.99992 3.50002C7.99992 3.0812 8.1217 2.85784 8.22012 2.74576C8.32352 2.628 8.45515 2.56971 8.58303 2.55905C8.71627 2.54795 8.81936 2.58944 8.87877 2.64059C8.92236 2.67813 9.00005 2.76785 9.00005 2.99999V8.99994C9.00005 9.55223 9.44776 9.99999 10 9.99999C10.5523 9.99999 11 9.55227 11 8.99999V2.99999C11 2.77135 11.0758 2.67335 11.1332 2.62241C11.2089 2.5551 11.3381 2.5 11.5 2.5C11.662 2.5 11.7912 2.5551 11.8669 2.62241C11.9242 2.67335 12 2.77135 12 2.99999V9.99976C12 10.552 12.4478 11 13 11C13.5523 11 14 10.5523 14 9.99999V2.99999C14 2.764 14.0798 2.68319 14.109 2.65885C14.1504 2.62433 14.2264 2.59318 14.3356 2.6114C14.4741 2.63447 15 2.84489 15 4V12.7569L15.1239 12.9821C15.293 13.2895 15.7165 13.921 16.5135 13.8515C16.8409 13.823 17.0891 13.6753 17.2387 13.5672C17.3932 13.4555 17.5273 13.3229 17.6316 13.2131C17.7507 13.0879 17.8614 12.963 17.9709 12.8396C18.2854 12.4849 18.5897 12.1416 19.0541 11.832C19.3206 11.6544 19.4861 11.6257 19.5468 11.6243C19.5539 11.6241 19.5596 11.6243 19.5639 11.6246C19.5797 11.6464 19.6208 11.7165 19.6403 11.8725C19.6641 12.0636 19.6489 12.3475 19.54 12.7178C18.9729 14.6461 17.7354 16.5369 16.1612 18.1037C14.5864 19.6712 12.7322 20.857 11.0007 21.4248C9.25199 21.9981 7.7982 21.8962 6.80911 21.1872C5.82997 20.4854 5.00003 18.9679 5 16L5.00005 10.0001L5.00005 9.99879L5.00007 9.65103L5.00005 7.00003C5.00005 6.41003 5.14754 6.0742 5.26879 5.91253C5.38532 5.75715 5.47795 5.75005 5.49998 5.75005C5.52201 5.75005 5.61464 5.75715 5.73118 5.91254C5.85163 6.07314 5.99799 6.40563 5.99991 6.98845L5.99992 10.4996C5.99992 11.0519 6.44762 11.5 6.99989 11.5C7.55216 11.5001 7.99988 11.0524 7.99992 10.5001L7.99993 7.00003Z" fill="black"/>
</svg>
