<svg width="24" height="24" viewBox="0 0 24 24" fill="none" xmlns="http://www.w3.org/2000/svg">
<path fill-rule="evenodd" clip-rule="evenodd" d="M3 5C3 4.44772 3.44772 4 4 4H15C15.5523 4 16 4.44772 16 5C16 5.55228 15.5523 6 15 6H4C3.44772 6 3 5.55228 3 5Z" fill="black"/>
<path fill-rule="evenodd" clip-rule="evenodd" d="M3 9C3 8.44772 3.5 8 4 8H10C10.5 8 11 8.44772 11 9C11 9.55228 10.5 10 10 10H4C3.5 10 3 9.55228 3 9Z" fill="black"/>
<path fill-rule="evenodd" clip-rule="evenodd" d="M3 18C3 17.4478 3.5 17 4 17L6 17C6.5 17 7 17.4478 7 18C7 18.5523 6.5 19 6 19L4 19C3.5 19 3 18.5523 3 18Z" fill="black"/>
<path fill-rule="evenodd" clip-rule="evenodd" d="M0 1C0 0.447715 0.447715 0 1 0H18C18.5523 0 19 0.447715 19 1V7C19 7.55228 18.5523 8 18 8C17.4477 8 17 7.55228 17 7V2H2V21H7C7.55228 21 8 21.4477 8 22C8 22.5523 7.55228 23 7 23H1C0.447715 23 0 22.5523 0 22V1Z" fill="black"/>
<path fill-rule="evenodd" clip-rule="evenodd" d="M21.0036 10.5C21.0035 10.2239 20.7795 10.0001 20.5033 10.0003C20.4949 10.0003 20.4864 10.0003 20.478 10.0003C20.2499 10.0004 20.0386 10.0005 19.87 10.0194C19.6989 10.0385 19.4613 10.0859 19.2749 10.2725C19.0886 10.459 19.0415 10.6967 19.0225 10.8678C19.0039 11.0365 19.0041 11.2478 19.0042 11.4759C19.0042 11.4843 19.0042 11.4927 19.0042 11.5012C19.0044 11.738 19.0039 11.8868 18.9951 11.9918C18.8901 12.0007 18.7413 12.0013 18.5045 12.0015C18.2284 12.0016 18.0047 12.2256 18.0048 12.5018C18.005 12.7779 18.229 13.0016 18.5051 13.0015C18.5136 13.0015 18.522 13.0015 18.5304 13.0015C18.7586 13.0014 18.9699 13.0013 19.1385 12.9824C19.3096 12.9633 19.5472 12.9158 19.7335 12.7293C19.9198 12.5428 19.967 12.3051 19.9859 12.1339C20.0046 11.9653 20.0044 11.754 20.0043 11.5259C20.0042 11.5175 20.0042 11.5091 20.0042 11.5006C20.0041 11.2638 20.0046 11.115 20.0134 11.01C20.1184 11.0011 20.2671 11.0004 20.5039 11.0003C20.7801 11.0001 21.0038 10.7761 21.0036 10.5Z" fill="black"/>
<path fill-rule="evenodd" clip-rule="evenodd" d="M18.0019 10.5C18.0018 10.2239 17.7778 10.0001 17.5016 10.0003C17.4932 10.0003 17.4847 10.0003 17.4763 10.0003C17.2482 10.0004 17.0369 10.0005 16.8683 10.0194C16.6972 10.0385 16.4595 10.0859 16.2732 10.2725C16.0869 10.459 16.0397 10.6967 16.0208 10.8678C16.0022 11.0365 16.0023 11.2478 16.0025 11.4759C16.0025 11.4843 16.0025 11.4927 16.0025 11.5012C16.0027 11.738 16.0021 11.8868 15.9934 11.9918C15.8884 12.0007 15.7396 12.0013 15.5028 12.0015C15.2267 12.0016 15.003 12.2256 15.0031 12.5018C15.0033 12.7779 15.2273 13.0016 15.5034 13.0015C15.5119 13.0015 15.5203 13.0015 15.5287 13.0015C15.7568 13.0014 15.9682 13.0013 16.1367 12.9824C16.3079 12.9633 16.5455 12.9158 16.7318 12.7293C16.9181 12.5428 16.9653 12.3051 16.9842 12.1339C17.0029 11.9653 17.0027 11.754 17.0025 11.5259C17.0025 11.5175 17.0025 11.5091 17.0025 11.5006C17.0024 11.2638 17.0029 11.115 17.0117 11.01C17.1167 11.0011 17.2654 11.0004 17.5022 11.0003C17.7784 11.0001 18.0021 10.7761 18.0019 10.5Z" fill="black"/>
<path fill-rule="evenodd" clip-rule="evenodd" d="M15.0002 10.5C15.0001 10.2239 14.7761 10.0001 14.4999 10.0003C14.4915 10.0003 14.483 10.0003 14.4746 10.0003C14.2465 10.0004 14.0352 10.0005 13.8666 10.0194C13.6955 10.0385 13.4578 10.0859 13.2715 10.2725C13.0852 10.459 13.038 10.6967 13.0191 10.8678C13.0005 11.0365 13.0006 11.2478 13.0008 11.4759C13.0008 11.4843 13.0008 11.4927 13.0008 11.5012C13.001 11.738 13.0004 11.8868 12.9917 11.9918C12.8867 12.0007 12.7379 12.0013 12.5011 12.0015C12.225 12.0016 12.0012 12.2256 12.0014 12.5018C12.0016 12.7779 12.2256 13.0016 12.5017 13.0015C12.5102 13.0015 12.5186 13.0015 12.527 13.0015C12.7551 13.0014 12.9664 13.0013 13.135 12.9824C13.3062 12.9633 13.5438 12.9158 13.7301 12.7293C13.9164 12.5428 13.9636 12.3051 13.9825 12.1339C14.0011 11.9653 14.001 11.754 14.0008 11.5259C14.0008 11.5175 14.0008 11.5091 14.0008 11.5006C14.0007 11.2638 14.0012 11.115 14.01 11.01C14.1149 11.0011 14.2637 11.0004 14.5005 11.0003C14.7767 11.0001 15.0004 10.7761 15.0002 10.5Z" fill="black"/>
<path d="M12 15V23" stroke="black" stroke-width="2" stroke-linecap="round" stroke-linejoin="round"/>
<path d="M15 15V23" stroke="black" stroke-width="2" stroke-linecap="round" stroke-linejoin="round"/>
<path d="M18 15V23" stroke="black" stroke-width="2" stroke-linecap="round" stroke-linejoin="round"/>
<path d="M21 15V23" stroke="black" stroke-width="2" stroke-linecap="round" stroke-linejoin="round"/>
<path d="M10 17L23 17" stroke="black" stroke-linecap="round" stroke-linejoin="round"/>
</svg>
