<svg width="24" height="24" viewBox="0 0 24 24" fill="none" xmlns="http://www.w3.org/2000/svg">
<rect width="24" height="24" fill="none"/>
<g clip-path="url(#clip0)">
<path d="M11.9998 18.0002C11.4478 18.0002 10.9998 18.4482 10.9998 19.0002C10.9998 19.5522 11.4478 20.0002 11.9998 20.0002C12.5518 20.0002 12.9998 19.5522 12.9998 19.0002C12.9998 18.4482 12.5518 18.0002 11.9998 18.0002Z" fill="black"/>
<path d="M20.4851 3.51488C15.7986 -1.17164 8.20036 -1.17164 3.51483 3.51497C-1.17164 8.20144 -1.17164 15.7996 3.51502 20.4852C8.20036 25.1716 15.7986 25.1716 20.4851 20.4851C25.1716 15.7996 25.1716 8.20144 20.4851 3.51488ZM19.071 19.0708C15.1655 22.9763 8.83369 22.9763 4.92924 19.071C1.0237 15.1664 1.0237 8.83458 4.92914 4.92914C8.83369 1.02366 15.1655 1.02366 19.0709 4.92914C22.9763 8.83463 22.9763 15.1664 19.071 19.0708Z" fill="black"/>
<path d="M12.717 4.06331C10.2314 3.627 7.99983 5.51939 7.99983 8.0002C7.99983 8.55249 8.44753 9.00019 8.99981 9.00019C9.55209 9.00019 9.9998 8.55249 9.9998 8.0002C9.9998 6.75769 11.1143 5.81255 12.3709 6.03314C13.1623 6.17227 13.8277 6.83775 13.9669 7.62933C14.1216 8.50978 13.7097 9.34181 12.963 9.75347C11.7266 10.4352 10.9998 11.7993 10.9998 13.2572V15.0002C10.9998 15.5525 11.4475 16.0002 11.9998 16.0002C12.552 16.0002 12.9997 15.5525 12.9997 15.0002V13.2572C12.9997 12.497 13.3619 11.8174 13.9286 11.5049C15.4148 10.6856 16.2411 9.01627 15.9367 7.2832C15.6518 5.66264 14.3374 4.34817 12.717 4.06331Z" fill="black"/>
</g>
<defs>
<clipPath id="clip0">
<rect width="24" height="24" fill="white"/>
</clipPath>
</defs>
</svg>
