<svg width="16" height="16" viewBox="0 0 16 16" fill="none" xmlns="http://www.w3.org/2000/svg">
<path fill-rule="evenodd" clip-rule="evenodd" d="M5.38655 2.60229C5.15664 3.06212 5 3.73236 5 4.5C5 5.1526 5.11333 5.738 5.29093 6.18354C5.45596 6.56749 5.57219 6.75203 5.67471 6.85224C5.74848 6.92435 5.83541 6.97348 6.02185 6.99889C6.15042 6.98616 6.38234 6.85993 6.61345 6.39771C6.84336 5.93788 7 5.26764 7 4.5C7 3.73236 6.84336 3.06212 6.61345 2.60229C6.36858 2.11255 6.1228 2 6 2C5.8772 2 5.63142 2.11255 5.38655 2.60229ZM4.49213 2.15507C4.79015 1.55903 5.29437 1 6 1H13C13.785 1 14.2825 1.66827 14.5554 2.27758C14.8474 2.92926 15 3.75079 15 4.5C15 5.30428 14.8488 6.1289 14.5534 6.77137C14.2715 7.38453 13.7697 8 13 8H6H5.9717L5.94358 7.99681C5.57644 7.95511 5.25369 7.83909 4.9757 7.56735C4.72253 7.31988 4.54273 6.97604 4.36948 6.57209L4.36475 6.56107L4.36489 6.56102C4.13201 5.98003 4 5.26366 4 4.5C4 3.61078 4.17915 2.78103 4.49213 2.15507ZM7.50787 2.15507C7.48183 2.10298 7.45421 2.05118 7.42502 2H13C13.1461 2 13.3985 2.14104 13.6428 2.6864C13.8681 3.18937 14 3.86784 14 4.5C14 5.19572 13.8667 5.8711 13.6449 6.35363C13.4095 6.86547 13.1613 7 13 7H7.42502C7.45421 6.94882 7.48183 6.89702 7.50787 6.84493C7.82085 6.21897 8 5.38922 8 4.5C8 3.61078 7.82085 2.78103 7.50787 2.15507ZM6 12.3571C6 12.8963 5.83358 13.3027 5.58447 13.5696C5.33828 13.8333 4.97556 14 4.5 14C4.02444 14 3.66172 13.8333 3.41553 13.5696C3.16642 13.3027 3 12.8963 3 12.3571C3 12.139 3.08274 11.8275 3.24919 11.4446C3.41122 11.0718 3.63305 10.6747 3.86647 10.2987C4.08752 9.94261 4.3139 9.61354 4.5 9.35234C4.6861 9.61354 4.91248 9.94261 5.13353 10.2987C5.36695 10.6747 5.58878 11.0718 5.75081 11.4446C5.91726 11.8275 6 12.139 6 12.3571ZM4.5 15C5.22444 15 5.86172 14.7381 6.31553 14.2519C6.76642 13.7688 7 13.1037 7 12.3571C7 11.9325 6.85218 11.4699 6.66793 11.0459C6.47926 10.6119 6.23026 10.1693 5.98312 9.77122C5.73503 9.3716 5.48312 9.00773 5.28474 8.73049C5.18544 8.59171 5.09909 8.47401 5.03362 8.38484L5.02738 8.37635L5.02732 8.37627C4.99713 8.33515 4.97243 8.30151 4.95274 8.27439L4.9276 8.23941L4.92015 8.22877C4.9189 8.22694 4.91813 8.22581 4.91776 8.22527L4.91751 8.22488C4.825 8.0845 4.66813 8 4.5 8C4.33187 8 4.175 8.0845 4.08249 8.22488L4.08249 8.2249C4.0824 8.22503 4.0816 8.22623 4.07985 8.22877L4.0724 8.23941L4.04726 8.27439C4.02761 8.30146 4.00297 8.33502 3.97286 8.37603L3.97256 8.37643L3.96639 8.38484C3.90092 8.47401 3.81456 8.59171 3.71526 8.73049C3.51689 9.00773 3.26497 9.3716 3.01688 9.77122C2.76975 10.1693 2.52074 10.6119 2.33207 11.0459C2.14782 11.4699 2 11.9325 2 12.3571C2 13.1037 2.23358 13.7688 2.68447 14.2519C3.13828 14.7381 3.77556 15 4.5 15Z" fill="black"/>
</svg>
