<svg width="16" height="16" viewBox="0 0 16 16" fill="none" xmlns="http://www.w3.org/2000/svg">
    <path fill-rule="evenodd" clip-rule="evenodd" d="M8 16C12.4183 16 16 12.4183 16 8C16 3.58172 12.4183 0 8 0C3.58172 0 0 3.58172 0 8C0 12.4183 3.58172 16 8 16ZM3.38016 6.75354L2.48727 7.64644C2.292 7.8417 2.292 8.15828 2.48727 8.35354L6.04683 11.9131C6.24209 12.1084 6.55867 12.1084 6.75393 11.9131L12.9802 5.68688C13.1754 5.49161 13.1754 5.17503 12.9802 4.97977L12.0873 4.08688C11.892 3.89161 11.5754 3.89161 11.3802 4.08688L6.40038 9.06666L4.08727 6.75354C3.892 6.55828 3.57542 6.55828 3.38016 6.75354Z" fill="#1A76E2"/>
</svg>