<svg width="24" height="24" viewBox="0 0 24 24" fill="none" xmlns="http://www.w3.org/2000/svg">
<path fill-rule="evenodd" clip-rule="evenodd" d="M1 20C1 18.8954 1.89543 18 3 18H9C9.55228 18 10 18.4477 10 19C10 19.5523 9.55228 20 9 20H3V23C3 23.5523 2.55228 24 2 24C1.44772 24 1 23.5523 1 23V20Z" fill="black"/>
<path fill-rule="evenodd" clip-rule="evenodd" d="M22 -7.61239e-06C22.5523 -7.61239e-06 23 0.447708 23 0.999992V11C23 12.1046 22.1046 13 21 13H7V23C7 23.5523 6.55228 24 6 24C5.44772 24 5 23.5523 5 23V13C5 11.8954 5.89543 11 7 11H21V0.999992C21 0.447708 21.4477 -7.61239e-06 22 -7.61239e-06Z" fill="black"/>
<path fill-rule="evenodd" clip-rule="evenodd" d="M11 6.99999C12.1046 6.99999 13 6.10456 13 4.99999C13 3.89542 12.1046 2.99999 11 2.99999C9.89543 2.99999 9 3.89542 9 4.99999C9 6.10456 9.89543 6.99999 11 6.99999ZM11 8.99999C13.2091 8.99999 15 7.20913 15 4.99999C15 2.79085 13.2091 0.999992 11 0.999992C8.79086 0.999992 7 2.79085 7 4.99999C7 7.20913 8.79086 8.99999 11 8.99999Z" fill="black"/>
<path fill-rule="evenodd" clip-rule="evenodd" d="M13 21C14.1046 21 15 20.1046 15 19C15 17.8954 14.1046 17 13 17C11.8954 17 11 17.8954 11 19C11 20.1046 11.8954 21 13 21ZM13 23C15.2091 23 17 21.2091 17 19C17 16.7909 15.2091 15 13 15C10.7909 15 9 16.7909 9 19C9 21.2091 10.7909 23 13 23Z" fill="black"/>
<path fill-rule="evenodd" clip-rule="evenodd" d="M11 7.99999C11.5523 7.99999 12 8.44771 12 8.99999V11C12 11.5523 11.5523 12 11 12C10.4477 12 10 11.5523 10 11V8.99999C10 8.44771 10.4477 7.99999 11 7.99999Z" fill="black"/>
<path fill-rule="evenodd" clip-rule="evenodd" d="M17.9722 0.00037797C18.5243 -0.0149574 18.9843 0.420153 18.9996 0.972225L19.4711 17.9445C19.5023 19.0703 18.5982 20 17.4718 20H16C15.4477 20 15 19.5523 15 19C15 18.4477 15.4477 18 16 18H17.4718L17.0004 1.02776C16.9851 0.475688 17.4202 0.0157133 17.9722 0.00037797Z" fill="black"/>
</svg>
