<svg width="16" height="16" viewBox="0 0 16 16" fill="none" xmlns="http://www.w3.org/2000/svg">
<path fill-rule="evenodd" clip-rule="evenodd" d="M14 1.5C14 1.22386 13.7761 1 13.5 1C13.2239 1 13 1.22386 13 1.5V7H7V5.94999C8.14112 5.71836 9 4.70948 9 3.5C9 2.11929 7.88071 1 6.5 1C5.11929 1 4 2.11929 4 3.5C4 4.70948 4.85888 5.71836 6 5.94999V7H3.5C3.22386 7 3 7.22386 3 7.5V12H1.5C1.22386 12 1 12.2239 1 12.5V15.5C1 15.7761 1.22386 16 1.5 16C1.77614 16 2 15.7761 2 15.5V13H3V15.5C3 15.7761 3.22386 16 3.5 16C3.77614 16 4 15.7761 4 15.5V13H7.05001C7.28164 14.1411 8.29052 15 9.5 15C10.7095 15 11.7184 14.1411 11.95 13H13.5C13.7761 13 14 12.7761 14 12.5V8H15.5C15.7761 8 16 7.77614 16 7.5V1.5C16 1.22386 15.7761 1 15.5 1C15.2239 1 15 1.22386 15 1.5V7H14V1.5ZM13 8H4V12H7.05001C7.28164 10.8589 8.29052 10 9.5 10C10.7095 10 11.7184 10.8589 11.95 12H13V8ZM11 12.5C11 11.6716 10.3284 11 9.5 11C8.67157 11 8 11.6716 8 12.5C8 13.3284 8.67157 14 9.5 14C10.3284 14 11 13.3284 11 12.5ZM8 3.5C8 4.32843 7.32843 5 6.5 5C5.67157 5 5 4.32843 5 3.5C5 2.67157 5.67157 2 6.5 2C7.32843 2 8 2.67157 8 3.5Z" fill="black"/>
</svg>
