<svg width="24" height="24" viewBox="0 0 24 24" fill="none" xmlns="http://www.w3.org/2000/svg">
<rect width="24" height="24" fill="none"/>
<path fill-rule="evenodd" clip-rule="evenodd" d="M21 12C21 16.9706 16.9706 21 12 21C7.02944 21 3 16.9706 3 12C3 7.02944 7.02944 3 12 3C16.9706 3 21 7.02944 21 12ZM23 12C23 18.0751 18.0751 23 12 23C5.92487 23 1 18.0751 1 12C1 5.92487 5.92487 1 12 1C18.0751 1 23 5.92487 23 12ZM10.16 6C9.60772 6 9.16 6.44772 9.16 7V11.1765H8C7.44772 11.1765 7 11.6242 7 12.1765C7 12.7288 7.44772 13.1765 8 13.1765H9.16V14.4118H8C7.44772 14.4118 7 14.8595 7 15.4118C7 15.964 7.44772 16.4118 8 16.4118H9.16V18C9.16 18.5523 9.60772 19 10.16 19C10.7123 19 11.16 18.5523 11.16 18V16.4118H13.76C14.3123 16.4118 14.76 15.964 14.76 15.4118C14.76 14.8595 14.3123 14.4118 13.76 14.4118H11.16V13.1765H13.76C16.3691 13.1765 18 11.5324 18 9.58824C18 7.64404 16.3691 6 13.76 6H10.16ZM13.76 11.1765H11.16V8H13.76C15.4709 8 16 8.94419 16 9.58824C16 10.2323 15.4709 11.1765 13.76 11.1765Z" fill="black"/>
</svg>
