<svg width="24" height="24" viewBox="0 0 24 24" fill="none" xmlns="http://www.w3.org/2000/svg">
<rect width="24" height="24" fill="none"/>
<path fill-rule="evenodd" clip-rule="evenodd" d="M19 0C19.3038 0 19.5911 0.13809 19.7809 0.375305L23.7809 5.37531C24.021 5.67548 24.0678 6.08672 23.9013 6.43319C23.7348 6.77965 23.3844 7 23 7H22V23C22 23.5523 21.5523 24 21 24H17C16.4477 24 16 23.5523 16 23V7H15C14.6156 7 14.2652 6.77965 14.0987 6.43319C13.9322 6.08672 13.979 5.67548 14.2191 5.37531L18.2191 0.375305C18.4089 0.13809 18.6962 0 19 0ZM17.0782 5.00301C17.5939 5.04291 18 5.47404 18 6V22H20V6C20 5.47404 20.4061 5.04291 20.9218 5.00301L19 2.60078L17.0782 5.00301ZM8 10C8 9.44771 8.44772 9 9 9H13C13.5523 9 14 9.44771 14 10V23C14 23.5523 13.5523 24 13 24H9C8.44772 24 8 23.5523 8 23V10ZM10 11V22H12V11H10ZM0 14C0 13.4477 0.447715 13 1 13H5C5.55228 13 6 13.4477 6 14V23C6 23.5523 5.55228 24 5 24H1C0.447715 24 0 23.5523 0 23V14ZM2 15V22H4V15H2Z" fill="black"/>
</svg>
