<svg width="24" height="24" viewBox="0 0 24 24" fill="none" xmlns="http://www.w3.org/2000/svg">
<path d="M10.1668 8.33332C9.66058 8.33332 9.25018 8.74373 9.25018 9.24999C9.25018 9.75625 9.66058 10.1667 10.1668 10.1667H11.0835V16.5833H10.1668C9.66058 16.5833 9.25018 16.9937 9.25018 17.5C9.25018 18.0062 9.66058 18.4167 10.1668 18.4167H13.8335C14.3398 18.4167 14.7502 18.0062 14.7502 17.5C14.7502 16.9937 14.3398 16.5833 13.8335 16.5833H12.9168V9.24999C12.9168 8.74373 12.5064 8.33332 12.0002 8.33332H10.1668Z" fill="black"/>
<path d="M11.5418 7.41666C12.3012 7.41666 12.9168 6.80105 12.9168 6.04166C12.9168 5.28227 12.3012 4.66666 11.5418 4.66666C10.7825 4.66666 10.1668 5.28227 10.1668 6.04166C10.1668 6.80105 10.7825 7.41666 11.5418 7.41666Z" fill="black"/>
<path fill-rule="evenodd" clip-rule="evenodd" d="M4.22211 4.22205C8.51718 -0.0740112 15.4822 -0.074011 19.7782 4.22196C24.0742 8.51797 24.0742 15.483 19.7782 19.778C15.4822 24.074 8.51718 24.074 4.22228 19.7781C-0.0738204 15.483 -0.0738201 8.51797 4.22211 4.22205ZM18.364 18.3638C21.9439 14.7847 21.9441 9.21605 18.3641 5.63603C14.7842 2.056 9.21518 2.05593 5.63602 5.63596C2.05604 9.21594 2.05601 14.7846 5.63608 18.3638C9.21516 21.9437 14.784 21.9439 18.364 18.3638Z" fill="black"/>
</svg>
