<svg width="24" height="24" viewBox="0 0 24 24" fill="none" xmlns="http://www.w3.org/2000/svg">
<rect width="24" height="24" fill="none"/>
<path d="M20.4851 3.51488C15.7986 -1.17164 8.20036 -1.17164 3.51483 3.51497C-1.17164 8.20144 -1.17164 15.7996 3.51502 20.4852C8.20036 25.1716 15.7986 25.1716 20.4851 20.4851C25.1716 15.7996 25.1716 8.20144 20.4851 3.51488ZM19.071 19.0708C15.1655 22.9763 8.83369 22.9763 4.92924 19.071C1.0237 15.1664 1.0237 8.83458 4.92914 4.92914C8.83369 1.02366 15.1655 1.02366 19.0709 4.92914C22.9763 8.83463 22.9763 15.1664 19.071 19.0708Z" fill="black"/>
<path fill-rule="evenodd" clip-rule="evenodd" d="M9 9C9 8.44772 9.44772 8 10 8H12C12.5523 8 13 8.44772 13 9V18C13 18.5523 12.5523 19 12 19C11.4477 19 11 18.5523 11 18V10H10C9.44772 10 9 9.55228 9 9Z" fill="black"/>
<path fill-rule="evenodd" clip-rule="evenodd" d="M9 18C9 17.4477 9.44772 17 10 17H14C14.5523 17 15 17.4477 15 18C15 18.5523 14.5523 19 14 19H10C9.44772 19 9 18.5523 9 18Z" fill="black"/>
<path d="M13 5.5C13 6.32843 12.3284 7 11.5 7C10.6716 7 10 6.32843 10 5.5C10 4.67157 10.6716 4 11.5 4C12.3284 4 13 4.67157 13 5.5Z" fill="black"/>
</svg>
