<svg width="16" height="16" viewBox="0 0 16 16" fill="none" xmlns="http://www.w3.org/2000/svg">
<path fill-rule="evenodd" clip-rule="evenodd" d="M8 2.5C8 2.22386 7.77614 2 7.5 2C7.22386 2 7 2.22386 7 2.5V8H2V7.5C2 7.22386 1.77614 7 1.5 7C1.22386 7 1 7.22386 1 7.5V8.5V12.5V13.5C1 13.7761 1.22386 14 1.5 14C1.77614 14 2 13.7761 2 13.5V13H13.5H15V13.5C15 13.7761 15.2239 14 15.5 14C15.7761 14 16 13.7761 16 13.5V12.5V8.5V7.5C16 7.22386 15.7761 7 15.5 7C15.2239 7 15 7.22386 15 7.5V8H10V2.5C10 2.22386 9.77614 2 9.5 2C9.22386 2 9 2.22386 9 2.5V8.5V9.5C9 9.77614 9.22386 10 9.5 10C9.77614 10 10 9.77614 10 9.5V9H15V12H13.5H2V9H7V9.5C7 9.77614 7.22386 10 7.5 10C7.77614 10 8 9.77614 8 9.5V8.5V2.5Z" fill="black"/>
</svg>
