<svg width="24" height="24" viewBox="0 0 24 24" fill="none" xmlns="http://www.w3.org/2000/svg">
<path fill-rule="evenodd" clip-rule="evenodd" d="M1 12C1.55228 12 2 12.4477 2 13V22C2 22.5523 1.55228 23 1 23C0.447715 23 0 22.5523 0 22V13C0 12.4477 0.447715 12 1 12Z" fill="black"/>
<path fill-rule="evenodd" clip-rule="evenodd" d="M23 12C23.5523 12 24 12.4477 24 13V22C24 22.5523 23.5523 23 23 23C22.4477 23 22 22.5523 22 22V13C22 12.4477 22.4477 12 23 12Z" fill="black"/>
<path fill-rule="evenodd" clip-rule="evenodd" d="M0 21C0 20.4477 0.447715 20 1 20H23C23.5523 20 24 20.4477 24 21C24 21.5523 23.5523 22 23 22H1C0.447715 22 0 21.5523 0 21Z" fill="black"/>
<path fill-rule="evenodd" clip-rule="evenodd" d="M10 1C10.5523 1 11 1.44772 11 2V16C11 16.5523 10.5523 17 10 17C9.44772 17 9 16.5523 9 16V2C9 1.44772 9.44772 1 10 1Z" fill="black"/>
<path fill-rule="evenodd" clip-rule="evenodd" d="M14 1C14.5523 1 15 1.44772 15 2V16C15 16.5523 14.5523 17 14 17C13.4477 17 13 16.5523 13 16V2C13 1.44772 13.4477 1 14 1Z" fill="black"/>
<path fill-rule="evenodd" clip-rule="evenodd" d="M0 14C0 13.4477 0.447715 13 1 13H10C10.5523 13 11 13.4477 11 14C11 14.5523 10.5523 15 10 15H1C0.447715 15 0 14.5523 0 14Z" fill="black"/>
<path fill-rule="evenodd" clip-rule="evenodd" d="M13 14C13 13.4477 13.4477 13 14 13H23C23.5523 13 24 13.4477 24 14C24 14.5523 23.5523 15 23 15H14C13.4477 15 13 14.5523 13 14Z" fill="black"/>
</svg>
