<svg width="20" height="20" viewBox="0 0 20 20" fill="none" xmlns="http://www.w3.org/2000/svg">
<path d="M0 0H20V20H0V0Z" fill="none"/>
<path fill-rule="evenodd" clip-rule="evenodd" d="M4.5 1C4.22386 1 4 1.22386 4 1.5V18.5C4 18.7761 4.22386 19 4.5 19H13.5C13.7761 19 14 18.7761 14 18.5V15.5C14 15.2239 13.7761 15 13.5 15H5V5H13V5.5C13 5.77614 13.2239 6 13.5 6C13.7761 6 14 5.77614 14 5.5V1.5C14 1.22386 13.7761 1 13.5 1H4.5ZM5 16V18H13V16H5ZM13 4H5V2H13V4ZM15.5 6C15.2956 6 15.1117 6.12448 15.0358 6.3143L13.1615 11H9.8465L8.7215 8H12.5C12.7761 8 13 7.77614 13 7.5C13 7.22386 12.7761 7 12.5 7H8C7.83601 7 7.68245 7.08042 7.58904 7.2152C7.49563 7.34999 7.47426 7.52201 7.53184 7.67556L9.03184 11.6756C9.10502 11.8707 9.29158 12 9.5 12H10C9.44772 12 9 12.4477 9 13C9 13.5523 9.44772 14 10 14C10.5523 14 11 13.5523 11 13C11 12.4477 10.5523 12 10 12H13C12.4477 12 12 12.4477 12 13C12 13.5523 12.4477 14 13 14C13.5523 14 14 13.5523 14 13C14 12.4477 13.5523 12 13 12H13.5C13.7045 12 13.8883 11.8755 13.9642 11.6857L15.8385 7H17.5C17.7761 7 18 6.77614 18 6.5C18 6.22386 17.7761 6 17.5 6H15.5Z" fill="black"/>
</svg>
