<svg width="20" height="20" viewBox="0 0 20 20" fill="none" xmlns="http://www.w3.org/2000/svg">
<path d="M0 0H20V20H0V0Z" fill="none"/>
<path fill-rule="evenodd" clip-rule="evenodd" d="M10.0001 2C7.19216 2 4.74222 3.50964 3.43178 5.75226C3.29246 5.99068 2.98625 6.07102 2.74782 5.9317C2.5094 5.79238 2.42906 5.48616 2.56838 5.24774C4.05247 2.70795 6.8257 1 10.0001 1C13.1745 1 15.9477 2.70795 17.4318 5.24774C17.5711 5.48616 17.4908 5.79238 17.2523 5.9317C17.0139 6.07102 16.7077 5.99068 16.5684 5.75226C15.2579 3.50964 12.808 2 10.0001 2ZM2.74782 14.0683C2.98625 13.929 3.29246 14.0093 3.43178 14.2477C4.74222 16.4904 7.19216 18 10.0001 18C12.808 18 15.2579 16.4904 16.5684 14.2477C16.7077 14.0093 17.0139 13.929 17.2523 14.0683C17.4908 14.2076 17.5711 14.5138 17.4318 14.7523C15.9477 17.2921 13.1745 19 10.0001 19C6.8257 19 4.05247 17.2921 2.56838 14.7523C2.42906 14.5138 2.5094 14.2076 2.74782 14.0683Z" fill="black"/>
<path fill-rule="evenodd" clip-rule="evenodd" d="M8.64674 2.89926C8.18266 3.53115 7.77465 4.46461 7.48494 5.62146L6.51489 5.37854C6.82401 4.14419 7.27502 3.07764 7.84075 2.30733C8.40141 1.54392 9.13264 1 9.99989 1C10.8671 1 11.5984 1.54392 12.1591 2.30733C12.7248 3.07764 13.1758 4.14418 13.4849 5.37854L12.5149 5.62146C12.2252 4.46461 11.8172 3.53116 11.3531 2.89927C10.8839 2.26048 10.4146 2 9.99989 2C9.58522 2 9.11588 2.26047 8.64674 2.89926ZM8.64674 17.1007C9.11588 17.7395 9.58522 18 9.99989 18C10.4146 18 10.8839 17.7395 11.3531 17.1007C11.8172 16.4688 12.2252 15.5354 12.5149 14.3785L13.4849 14.6215C13.1758 15.8558 12.7248 16.9224 12.1591 17.6927C11.5984 18.4561 10.8671 19 9.99989 19C9.13264 19 8.40141 18.4561 7.84075 17.6927C7.27502 16.9224 6.82401 15.8558 6.51489 14.6215L7.48494 14.3785C7.77465 15.5354 8.18266 16.4688 8.64674 17.1007Z" fill="black"/>
<path fill-rule="evenodd" clip-rule="evenodd" d="M17 6H3V5H17V6ZM17 15H3V14H17V15ZM0.974355 8.34188C0.887031 8.07991 0.603871 7.93833 0.3419 8.02566C0.079928 8.11298 -0.0616519 8.39614 0.0256719 8.65811L1.02567 11.6581C1.08962 11.85 1.26285 11.9844 1.46457 11.9987C1.66629 12.0131 1.85679 11.9045 1.94723 11.7236L3.00001 9.61803L4.0528 11.7236C4.14324 11.9045 4.33374 12.0131 4.53546 11.9987C4.73718 11.9844 4.9104 11.85 4.97436 11.6581L5.97436 8.65811C6.06168 8.39614 5.9201 8.11298 5.65813 8.02566C5.39616 7.93833 5.113 8.07991 5.02567 8.34188L4.40739 10.1967L3.44723 8.27639C3.36253 8.107 3.1894 8 3.00001 8C2.81063 8 2.6375 8.107 2.5528 8.27639L1.59263 10.1967L0.974355 8.34188ZM7.97436 8.34188C7.88703 8.07991 7.60387 7.93833 7.3419 8.02566C7.07993 8.11298 6.93835 8.39614 7.02567 8.65811L8.02567 11.6581C8.08895 11.848 8.25934 11.9818 8.45877 11.9983C8.65821 12.0148 8.84828 11.9108 8.94191 11.7339L10 9.7353L11.0581 11.7339C11.1518 11.9108 11.3418 12.0148 11.5413 11.9983C11.7407 11.9818 11.9111 11.848 11.9744 11.6581L12.9744 8.65811C13.0617 8.39614 12.9201 8.11298 12.6581 8.02566C12.3962 7.93833 12.113 8.07991 12.0257 8.34188L11.3952 10.2334L10.4419 8.43272C10.3553 8.26904 10.1852 8.16667 10 8.16667C9.81481 8.16667 9.64477 8.26904 9.55812 8.43272L8.60484 10.2334L7.97436 8.34188ZM14.3419 8.02566C14.6039 7.93833 14.887 8.07991 14.9744 8.34188L15.6048 10.2334L16.5581 8.43272C16.6448 8.26904 16.8148 8.16667 17 8.16667C17.1852 8.16667 17.3553 8.26904 17.4419 8.43272L18.3952 10.2334L19.0257 8.34188C19.113 8.07991 19.3962 7.93833 19.6581 8.02566C19.9201 8.11298 20.0617 8.39614 19.9744 8.65811L18.9744 11.6581C18.9111 11.848 18.7407 11.9818 18.5413 11.9983C18.3418 12.0148 18.1518 11.9108 18.0581 11.7339L17 9.7353L15.9419 11.7339C15.8483 11.9108 15.6582 12.0148 15.4588 11.9983C15.2593 11.9818 15.089 11.848 15.0257 11.6581L14.0257 8.65811C13.9383 8.39614 14.0799 8.11298 14.3419 8.02566Z" fill="black"/>
</svg>
