<svg width="16" height="16" viewBox="0 0 16 16" fill="none" xmlns="http://www.w3.org/2000/svg">
<path fill-rule="evenodd" clip-rule="evenodd" d="M1.5 1C1.22386 1 1 1.22386 1 1.5V10.5V12.5V15.5C1 15.7761 1.22386 16 1.5 16H15.5C15.7761 16 16 15.7761 16 15.5V12.5V10.5V1.5C16 1.22386 15.7761 1 15.5 1H1.5ZM11 10.5V7.94999C10.8384 7.98278 10.6712 8 10.5 8C10.3288 8 10.1616 7.98278 10 7.94999V10.5C10 10.7761 9.77614 11 9.5 11H2V12H15V11H11.5C11.2239 11 11 10.7761 11 10.5ZM12 10V7.50018C12.6072 7.04408 13 6.31791 13 5.5C13 4.11929 11.8807 3 10.5 3C9.11929 3 8 4.11929 8 5.5C8 6.31791 8.39278 7.04408 9 7.50018V10H7V2H15V10H12ZM6 2V10H5V2H6ZM4 2V10H2V2H4ZM2 13V15H4V13H2ZM5 13V15H6V13H5ZM7 13V15H15V13H7ZM10.5 7C11.3284 7 12 6.32843 12 5.5C12 4.67157 11.3284 4 10.5 4C9.67157 4 9 4.67157 9 5.5C9 6.32843 9.67157 7 10.5 7Z" fill="black"/>
</svg>
