<svg width="24" height="24" viewBox="0 0 24 24" fill="none" xmlns="http://www.w3.org/2000/svg">
<rect width="24" height="24" fill="none"/>
<path fill-rule="evenodd" clip-rule="evenodd" d="M12.8978 1.05964C12.7804 0.820335 12.5724 0.637789 12.3198 0.552534C12.0673 0.467279 11.7912 0.486372 11.5527 0.605574L6.55275 3.10557C6.31553 3.22418 6.13514 3.43217 6.05128 3.68378C5.96741 3.93539 5.98693 4.21002 6.10555 4.44723L7.60561 7.44721C7.84672 7.9294 8.42667 8.13367 8.91675 7.90901L13.9766 5.58949C14.2218 5.47708 14.4112 5.27037 14.5018 5.01628C14.5924 4.76219 14.5765 4.48228 14.4577 4.24009L12.8978 1.05964ZM8.9621 5.68809L8.34162 4.4472L11.5459 2.84508L12.21 4.19918L8.9621 5.68809ZM17.9082 5.58177C17.7969 5.34007 17.5938 5.1527 17.344 5.06113C17.0941 4.96956 16.8181 4.98134 16.577 5.09387L9.0771 8.59382C8.57813 8.82667 8.36128 9.41909 8.59202 9.91905L11.5919 16.4191C11.821 16.9156 12.4065 17.136 12.9061 16.9138L20.4638 13.5536C20.7082 13.4449 20.8989 13.2428 20.9932 12.9925C21.0876 12.7422 21.0777 12.4645 20.9658 12.2216L17.9082 5.58177ZM12.9946 14.6857L10.8252 9.98509L16.512 7.33128L18.7253 12.1377L12.9946 14.6857ZM11.5 22C11.7761 22 12 21.7761 12 21.5C12 21.2239 11.7761 21 11.5 21C11.2239 21 11 21.2239 11 21.5C11 21.7761 11.2239 22 11.5 22ZM11.5 24C12.8807 24 14 22.8807 14 21.5C14 20.7514 13.6709 20.0796 13.1495 19.6214L21.5365 15.8091L22.1055 16.9472C22.3525 17.4412 22.9532 17.6414 23.4472 17.3944C23.9412 17.1474 24.1414 16.5468 23.8944 16.0528L22.8944 14.0528C22.6539 13.5717 22.0758 13.3671 21.5862 13.5896L11.4988 18.1748L4.91135 3.58842C4.79937 3.34047 4.5912 3.14885 4.33485 3.05774C4.0785 2.96664 3.7961 2.98391 3.55276 3.10558L1.55276 4.10558C1.05878 4.35257 0.858558 4.95324 1.10555 5.44722C1.35254 5.9412 1.95321 6.14142 2.44719 5.89443L3.51676 5.35965L9.92801 19.556C9.36191 20.0143 9 20.7149 9 21.5C9 22.8807 10.1193 24 11.5 24Z" fill="black"/>
</svg>
