<svg width="24" height="24" viewBox="0 0 24 24" fill="none" xmlns="http://www.w3.org/2000/svg">
<path fill-rule="evenodd" clip-rule="evenodd" d="M19 5H5V6H19V5ZM5 4C4.44772 4 4 4.44772 4 5V6C4 6.55228 4.44772 7 5 7H10V9.08535C9.4174 9.29127 9 9.84689 9 10.5V11.05C8.02044 11.2489 7.24885 12.0204 7.05001 13H5C5 12.4477 4.55228 12 4 12H3C2.44772 12 2 12.4477 2 13H0.5C0.223858 13 0 13.2239 0 13.5V19.5C0 19.7761 0.223858 20 0.5 20H2C2 20.5523 2.44772 21 3 21H4C4.55228 21 5 20.5523 5 20H7.05001C7.28164 21.1411 8.29052 22 9.5 22H14.5C15.7095 22 16.7184 21.1411 16.95 20H19C19 20.5523 19.4477 21 20 21H21C21.5523 21 22 20.5523 22 20H23.5C23.7761 20 24 19.7761 24 19.5V13.5C24 13.2239 23.7761 13 23.5 13H22C22 12.4477 21.5523 12 21 12H20C19.4477 12 19 12.4477 19 13H16.95C16.7512 12.0204 15.9796 11.2489 15 11.05V10.5C15 9.84689 14.5826 9.29127 14 9.08535V7H19C19.5523 7 20 6.55228 20 6V5C20 4.44772 19.5523 4 19 4H5ZM13 7H11V9H13V7ZM10 10.5C10 10.2239 10.2239 10 10.5 10H13.5C13.7761 10 14 10.2239 14 10.5V11H10V10.5ZM7 14H5V19H7V14ZM17 19H19V14H17V19ZM8 13.5C8 12.6716 8.67157 12 9.5 12H14.5C15.3284 12 16 12.6716 16 13.5V19.5C16 20.3284 15.3284 21 14.5 21H9.5C8.67157 21 8 20.3284 8 19.5V13.5ZM3 13H4V20H3V19.5V13.5V13ZM2 19H1V14H2V19ZM21 13H20V20H21V19.5V13.5V13ZM23 14H22V19H23V14ZM13.0845 18.5696C13.3336 18.3027 13.5 17.8963 13.5 17.3571C13.5 17.139 13.4173 16.8275 13.2508 16.4446C13.0888 16.0718 12.867 15.6747 12.6335 15.2987C12.4125 14.9426 12.1861 14.6135 12 14.3523C11.8139 14.6135 11.5875 14.9426 11.3665 15.2987C11.133 15.6747 10.9112 16.0718 10.7492 16.4446C10.5827 16.8275 10.5 17.139 10.5 17.3571C10.5 17.8963 10.6664 18.3027 10.9155 18.5696C11.1617 18.8333 11.5244 19 12 19C12.4756 19 12.8383 18.8333 13.0845 18.5696ZM13.8155 19.2519C13.3617 19.7381 12.7244 20 12 20C11.2756 20 10.6383 19.7381 10.1845 19.2519C9.73358 18.7688 9.5 18.1037 9.5 17.3571C9.5 16.9325 9.64782 16.4699 9.83207 16.0459C10.0207 15.6119 10.2697 15.1693 10.5169 14.7712C10.765 14.3716 11.0169 14.0077 11.2153 13.7305C11.3146 13.5917 11.4009 13.474 11.4664 13.3848L11.4728 13.3761C11.503 13.335 11.5276 13.3015 11.5473 13.2744L11.5724 13.2394L11.5799 13.2288L11.5825 13.2249L11.5825 13.2249C11.675 13.0845 11.8319 13 12 13C12.1681 13 12.325 13.0845 12.4175 13.2249L12.4175 13.2249L12.4202 13.2288L12.4276 13.2394L12.4527 13.2744C12.4724 13.3015 12.4972 13.3352 12.5274 13.3763L12.5336 13.3848C12.5991 13.474 12.6854 13.5917 12.7847 13.7305C12.9831 14.0077 13.235 14.3716 13.4831 14.7712C13.7303 15.1693 13.9793 15.6119 14.1679 16.0459C14.3522 16.4699 14.5 16.9325 14.5 17.3571C14.5 18.1037 14.2664 18.7688 13.8155 19.2519Z" fill="black"/>
</svg>
