<svg width="25" height="24" viewBox="0 0 25 24" fill="none" xmlns="http://www.w3.org/2000/svg">
<path d="M4.13257 6H2.13257V20C2.13257 21.1 3.03257 22 4.13257 22H18.1326V20H4.13257V6ZM20.1326 2H8.13257C7.03257 2 6.13257 2.9 6.13257 4V16C6.13257 17.1 7.03257 18 8.13257 18H20.1326C21.2326 18 22.1326 17.1 22.1326 16V4C22.1326 2.9 21.2326 2 20.1326 2ZM20.1326 16H8.13257V4H20.1326V16ZM10.1326 9H18.1326V11H10.1326V9ZM10.1326 12H14.1326V14H10.1326V12ZM10.1326 6H18.1326V8H10.1326V6Z" fill="black"/>
</svg>
