<svg width="24" height="24" viewBox="0 0 24 24" fill="none" xmlns="http://www.w3.org/2000/svg">
<rect width="24" height="24" fill="none"/>
<path d="M22.5356 1.46437C20.5831 -0.488125 17.417 -0.488125 15.4645 1.46437L11.3644 5.5654C10.2079 6.72188 9.73662 8.3038 9.95018 9.80733C8.44636 9.59364 6.86393 10.065 5.70731 11.2216L1.46438 15.4645C-0.488126 17.417 -0.488126 20.5832 1.46438 22.5357C3.4181 24.4881 6.58306 24.4881 8.53552 22.5357L12.7784 18.2927C13.9348 17.1364 14.4062 15.5543 14.1928 14.0507C15.6963 14.2643 17.2782 13.7929 18.4347 12.6364L22.5356 8.5355C24.4881 6.583 24.4881 3.41687 22.5356 1.46437ZM11.3642 16.8785L7.12132 21.1215C5.94983 22.2929 4.05081 22.2929 2.87834 21.1212C1.70709 19.95 1.70709 18.0502 2.87858 16.8787L7.1215 12.6358C8.04498 11.7124 9.42088 11.5174 10.536 12.05L7.29316 15.2928C6.90265 15.6833 6.90265 16.3165 7.29316 16.707C7.68367 17.0975 8.31685 17.0975 8.70736 16.707L11.9501 13.4642C12.4826 14.5793 12.2877 15.9551 11.3642 16.8785ZM21.1214 7.1213L17.0205 11.2222C16.0969 12.1458 14.7214 12.3407 13.6065 11.8079L16.7073 8.70706C17.0978 8.31655 17.0978 7.68337 16.7073 7.29286C16.3168 6.90235 15.6836 6.90235 15.2931 7.29286L12.1927 10.3933C11.6604 9.27803 11.8553 7.90288 12.7788 6.97946L16.8788 2.87843C18.0502 1.70704 19.95 1.70704 21.1215 2.87852C22.2929 4.05005 22.2929 5.94987 21.1214 7.1213Z" fill="black"/>
</svg>
