<svg width="24" height="24" viewBox="0 0 24 24" fill="none" xmlns="http://www.w3.org/2000/svg">
<path fill-rule="evenodd" clip-rule="evenodd" d="M21 3V13.5C21 14.0523 21.4477 14.5 22 14.5C22.5523 14.5 23 14.0523 23 13.5V2C23 1.73478 22.8946 1.48043 22.7071 1.29289C22.5196 1.10536 22.2652 1 22 1H2C1.44772 1 1 1.44772 1 2L1 22C1 22.2652 1.10536 22.5196 1.29289 22.7071C1.48043 22.8946 1.73478 23 2 23H13C13.5523 23 14 22.5523 14 22C14 21.4477 13.5523 21 13 21H3V3H21Z" fill="black"/>
<path d="M7 7C7 7.55229 6.55228 8 6 8C5.44772 8 5 7.55229 5 7C5 6.44772 5.44772 6 6 6C6.55228 6 7 6.44772 7 7Z" fill="#020202"/>
<path fill-rule="evenodd" clip-rule="evenodd" d="M9 7C9 6.44772 9.44772 6 10 6H19C19.5523 6 20 6.44772 20 7C20 7.55229 19.5523 8 19 8H10C9.44772 8 9 7.55229 9 7Z" fill="black"/>
<path d="M7 17C7 17.5523 6.55228 18 6 18C5.44772 18 5 17.5523 5 17C5 16.4477 5.44772 16 6 16C6.55228 16 7 16.4477 7 17Z" fill="#020202"/>
<path fill-rule="evenodd" clip-rule="evenodd" d="M9 17C9 16.4477 9.44772 16 10 16H13C13.5523 16 14 16.4477 14 17C14 17.5523 13.5523 18 13 18H10C9.44772 18 9 17.5523 9 17Z" fill="black"/>
<path d="M7 12C7 12.5523 6.55228 13 6 13C5.44772 13 5 12.5523 5 12C5 11.4477 5.44772 11 6 11C6.55228 11 7 11.4477 7 12Z" fill="#020202"/>
<path fill-rule="evenodd" clip-rule="evenodd" d="M9 12C9 11.4477 9.44772 11 10 11H19C19.5523 11 20 11.4477 20 12C20 12.5523 19.5523 13 19 13H10C9.44772 13 9 12.5523 9 12Z" fill="black"/>
<path fill-rule="evenodd" clip-rule="evenodd" d="M18.5 20C19.3284 20 20 19.3284 20 18.5C20 17.6716 19.3284 17 18.5 17C17.6716 17 17 17.6716 17 18.5C17 19.3284 17.6716 20 18.5 20ZM18.5 22C20.433 22 22 20.433 22 18.5C22 16.567 20.433 15 18.5 15C16.567 15 15 16.567 15 18.5C15 20.433 16.567 22 18.5 22Z" fill="black"/>
<path fill-rule="evenodd" clip-rule="evenodd" d="M19.7929 19.7929C20.1834 19.4024 20.8166 19.4024 21.2071 19.7929L23.7071 22.2929C24.0976 22.6834 24.0976 23.3166 23.7071 23.7071C23.3166 24.0976 22.6834 24.0976 22.2929 23.7071L19.7929 21.2071C19.4024 20.8166 19.4024 20.1834 19.7929 19.7929Z" fill="black"/>
</svg>
