<svg width="24" height="24" viewBox="0 0 24 24" fill="none" xmlns="http://www.w3.org/2000/svg">
<path d="M13 8C13 7.44772 12.5523 7 12 7C11.4477 7 11 7.44772 11 8V13.8258L8.65081 11.8122C8.23148 11.4527 7.60018 11.5013 7.24076 11.9206C6.88134 12.34 6.9299 12.9713 7.34923 13.3307L11.3492 16.7593C11.7237 17.0802 12.2763 17.0802 12.6508 16.7593L16.6508 13.3307C17.0701 12.9713 17.1187 12.34 16.7593 11.9206C16.3999 11.5013 15.7686 11.4527 15.3492 11.8122L13 13.8258V8Z" fill="black"/>
<path fill-rule="evenodd" clip-rule="evenodd" d="M4 0C3.44772 0 3 0.447715 3 1V23C3 23.5523 3.44772 24 4 24H20C20.5523 24 21 23.5523 21 23V1C21 0.447715 20.5523 0 20 0H4ZM5 22V2H19V22H5Z" fill="black"/>
</svg>
