<svg width="24" height="24" viewBox="0 0 24 24" fill="none" xmlns="http://www.w3.org/2000/svg">
<rect width="24" height="24" fill="none"/>
<path d="M15.0001 15C14.4478 15 14.0001 15.4477 14.0001 16V19H2.00003V5H14.0001V8.00002C14.0001 8.5523 14.4478 9 15.0001 9C15.5524 9 16.0001 8.5523 16.0001 8.00002V3.99997C16.0001 3.44769 15.5524 2.99998 15.0001 2.99998H0.999991C0.447706 2.99998 0 3.44769 0 3.99997V20C0 20.5523 0.447706 21 0.999991 21H15.0001C15.5524 21 16.0001 20.5523 16.0001 20V16C16.0001 15.4477 15.5524 15 15.0001 15Z" fill="black"/>
<path d="M23.7734 12.6338C23.783 12.6221 23.7913 12.6099 23.8002 12.5979C23.8108 12.5838 23.8218 12.5699 23.8317 12.5551C23.8412 12.5409 23.8495 12.5261 23.8582 12.5115C23.8662 12.4981 23.8746 12.485 23.8819 12.4713C23.8899 12.4564 23.8967 12.441 23.9039 12.4258C23.9106 12.4114 23.9178 12.3973 23.9239 12.3826C23.93 12.3678 23.935 12.3527 23.9403 12.3377C23.946 12.3219 23.952 12.3064 23.9569 12.2903C23.9615 12.2752 23.9648 12.26 23.9686 12.2448C23.9728 12.2284 23.9774 12.2121 23.9807 12.1954C23.9841 12.1778 23.9862 12.1601 23.9888 12.1424C23.9909 12.1278 23.9937 12.1135 23.9951 12.0987C24.0016 12.033 24.0016 11.9669 23.9951 11.9013C23.9937 11.8865 23.9909 11.8722 23.9888 11.8575C23.9863 11.8399 23.9842 11.8221 23.9807 11.8046C23.9774 11.7878 23.9728 11.7716 23.9686 11.7551C23.9648 11.7399 23.9615 11.7247 23.9569 11.7097C23.952 11.6936 23.946 11.678 23.9403 11.6622C23.9349 11.6472 23.93 11.6321 23.9239 11.6174C23.9178 11.6026 23.9106 11.5885 23.9039 11.5742C23.8967 11.559 23.8899 11.5436 23.8819 11.5287C23.8746 11.5149 23.8662 11.5019 23.8582 11.4885C23.8495 11.4739 23.8412 11.4591 23.8317 11.4448C23.8218 11.43 23.8108 11.4162 23.8002 11.402C23.7913 11.3901 23.783 11.3778 23.7734 11.3662C23.7529 11.3411 23.7311 11.317 23.7082 11.294C23.7079 11.2936 23.7075 11.2933 23.7072 11.2929L19.7072 7.29295C19.3167 6.90244 18.6835 6.90244 18.293 7.29295C17.9025 7.68347 17.9025 8.31666 18.293 8.70717L20.5859 11.0001H12.0001C11.4478 11.0001 11.0001 11.4478 11.0001 12C11.0001 12.5523 11.4478 13 12.0001 13H20.5859L18.293 15.2929C17.9025 15.6834 17.9025 16.3166 18.293 16.7071C18.6835 17.0977 19.3167 17.0977 19.7072 16.7071L23.7072 12.7072C23.7076 12.7068 23.7079 12.7064 23.7082 12.7061C23.7311 12.683 23.7529 12.6588 23.7734 12.6338Z" fill="black"/>
</svg>
