<svg width="24" height="24" viewBox="0 0 24 24" fill="none" xmlns="http://www.w3.org/2000/svg">
<path fill-rule="evenodd" clip-rule="evenodd" d="M7 16.9999C8.18771 16.9999 9.5 15.8602 9.5 13.9999C9.5 12.1396 8.18771 10.9999 7 10.9999C5.81229 10.9999 4.5 12.1396 4.5 13.9999C4.5 15.8602 5.81229 16.9999 7 16.9999ZM9.51113 9.85016C8.79388 9.31326 7.92988 8.99988 7 8.99988C4.51472 8.99988 2.5 11.2385 2.5 13.9999C2.5 16.7613 4.51472 18.9999 7 18.9999C7.92988 18.9999 8.79389 18.6865 9.51114 18.1496C9.58339 18.6309 9.9986 18.9999 10.5 18.9999C11.0523 18.9999 11.5 18.5522 11.5 17.9999V13.9999V9.99988C11.5 9.44759 11.0523 8.99988 10.5 8.99988C9.9986 8.99988 9.58339 9.36889 9.51113 9.85016ZM19.5 13.9999C19.5 15.8602 18.1877 16.9999 17 16.9999C15.8123 16.9999 14.5 15.8602 14.5 13.9999C14.5 12.1396 15.8123 10.9999 17 10.9999C18.1877 10.9999 19.5 12.1396 19.5 13.9999ZM19.5111 9.85016C18.7939 9.31326 17.9299 8.99988 17 8.99988C14.5147 8.99988 12.5 11.2385 12.5 13.9999C12.5 16.7613 14.5147 18.9999 17 18.9999C17.9299 18.9999 18.7939 18.6865 19.5111 18.1496C19.5834 18.6309 19.9986 18.9999 20.5 18.9999C21.0523 18.9999 21.5 18.5522 21.5 17.9999V13.9999V9.99988C21.5 9.44759 21.0523 8.99988 20.5 8.99988C19.9986 8.99988 19.5834 9.36889 19.5111 9.85016Z" fill="black"/>
</svg>
