<svg width="24" height="24" viewBox="0 0 24 24" fill="none" xmlns="http://www.w3.org/2000/svg">
<path d="M23.7068 22.2929L17.0364 15.6298C18.2753 14.0881 19.0171 12.1307 19.0171 10C19.0171 5.0297 14.9835 1 10.0085 1C5.03352 1 1 5.0297 1 10C1 14.9703 5.03352 19 10.0085 19C12.1296 19 14.0792 18.2671 15.6184 17.0416L22.2912 23.7071C22.6821 24.0976 23.3159 24.0976 23.7068 23.7071C24.0977 23.3166 24.0977 22.6834 23.7068 22.2929ZM3.00196 10C3.00196 6.13426 6.13923 3.00001 10.0086 3.00001C13.8779 3.00001 17.0153 6.13426 17.0153 10C17.0153 11.9385 16.2263 13.6929 14.9517 14.9606C13.6847 16.2205 11.9374 17 10.0086 17C6.13923 17 3.00196 13.8657 3.00196 10Z" fill="black"/>
</svg>
