<svg width="24" height="24" viewBox="0 0 24 24" fill="none" xmlns="http://www.w3.org/2000/svg">
<rect width="24" height="24" fill="none"/>
<path fill-rule="evenodd" clip-rule="evenodd" d="M13.0045 3C13.0598 2.70858 13.1649 2.50327 13.2724 2.36564C13.4687 2.11439 13.7374 2 14 2C14.2626 2 14.5313 2.11439 14.7276 2.36565C14.8351 2.50328 14.9402 2.70858 14.9954 3H13.0045ZM11 5V5.99999C11 6.55227 11.4477 6.99999 12 6.99999C12.5523 6.99999 13 6.55227 13 5.99999V5H15V5.99999C15 6.55227 15.4477 6.99999 16 6.99999C16.5523 6.99999 17 6.55227 17 5.99999V5H18V10H10V5H11ZM10.9868 3C11.0578 2.2731 11.3011 1.64028 11.6963 1.13435C12.2813 0.385611 13.1376 0 14 0C14.8624 0 15.7187 0.385613 16.3036 1.13435C16.6989 1.64027 16.9422 2.2731 17.0132 3H19C19.5523 3 20 3.44772 20 4V11C20 11.5523 19.5523 12 19 12H9C8.44772 12 8 11.5523 8 11V4C8 3.44772 8.44772 3 9 3H10.9868ZM2.00804e-07 13C2.00804e-07 12.4477 0.447715 12 1 12H6C6.15525 12 6.30836 12.0361 6.44721 12.1056L10.2361 14H15C15.7714 14 16.4234 14.2992 16.8724 14.8044C17.3051 15.2912 17.5 15.9119 17.5 16.5C17.5 16.5444 17.4989 16.589 17.4966 16.6338L19.5528 15.6057C21.0563 14.8539 22.6608 14.9968 23.4926 16.1257C24.3624 17.3062 23.8798 18.8403 22.6 19.8001L18.6004 22.7998C18.4273 22.9297 18.2164 23.0001 18 23.0001H9.00002C8.89886 23.0001 8.79829 22.9848 8.70174 22.9546L0.723929 20.4614C0.650135 20.4403 0.579834 20.4108 0.514093 20.3742C0.390203 20.3055 0.284904 20.2125 0.20247 20.1034C0.1103 19.9817 0.0453198 19.8384 0.0165751 19.6823C0.00416251 19.6156 -0.00153235 19.5473 2.00804e-07 19.4783V13ZM14.9843 17.0001H9.00002C8.44774 17.0001 8.00002 17.4478 8.00002 18.0001C8.00002 18.5524 8.44774 19.0001 9.00002 19.0001H17C17.1553 19.0001 17.3088 18.9638 17.4476 18.8944L20.4472 17.3945C21.4437 16.8963 21.8393 17.2534 21.8825 17.3121C21.9158 17.3573 21.945 17.4302 21.9133 17.5562C21.8794 17.6904 21.7591 17.9309 21.4001 18.2001L17.6667 21.0001H9.15264L2 18.7648V14H5.76393L9.55279 15.8944C9.69164 15.9639 9.8453 16 10.0005 16H15C15.2286 16 15.3266 16.0758 15.3776 16.1331C15.4449 16.2088 15.5 16.3381 15.5 16.5C15.5 16.6619 15.4449 16.7912 15.3776 16.8669C15.3266 16.9242 15.2286 17 15 17L14.9843 17.0001Z" fill="black"/>
</svg>
