<svg width="24" height="24" viewBox="0 0 24 24" fill="none" xmlns="http://www.w3.org/2000/svg">
<path fill-rule="evenodd" clip-rule="evenodd" d="M3.29289 21.5589C2.90237 21.1684 2.90237 20.5352 3.29289 20.1447L19.2929 4.14467C19.5789 3.85867 20.009 3.77312 20.3827 3.9279C20.7564 4.08268 21 4.44731 21 4.85178V12.8518C21 13.4041 20.5523 13.8518 20 13.8518C19.4477 13.8518 19 13.4041 19 12.8518V7.26599L4.70711 21.5589C4.31658 21.9494 3.68342 21.9494 3.29289 21.5589Z" fill="black"/>
<path fill-rule="evenodd" clip-rule="evenodd" d="M21 4.85178C21 5.40406 20.5523 5.85178 20 5.85178H12C11.4477 5.85178 11 5.40406 11 4.85178C11 4.29949 11.4477 3.85178 12 3.85178H20C20.5523 3.85178 21 4.29949 21 4.85178Z" fill="black"/>
</svg>
