<svg width="16" height="16" viewBox="0 0 16 16" fill="none" xmlns="http://www.w3.org/2000/svg">
<path fill-rule="evenodd" clip-rule="evenodd" d="M14 1.49998C14 1.30418 13.8857 1.12644 13.7076 1.04515C13.5294 0.963847 13.3203 0.993999 13.1724 1.12229C11.2388 2.79942 9.00854 2.72886 7.01831 2.66587C6.6499 2.65422 6.28979 2.64286 5.94116 2.64286H3.11768C2.21509 2.64286 1.54041 3.11015 1.11194 3.7606C0.692993 4.3964 0.5 5.21263 0.5 5.99998C0.5 6.78739 0.692993 7.60356 1.11194 8.23936C1.45044 8.75328 1.94263 9.15287 2.57947 9.29801L4.86731 15.1812C4.9668 15.437 5.25391 15.5648 5.5105 15.4676L7.17725 14.836C7.43445 14.7385 7.56458 14.4516 7.46851 14.1939L5.66663 9.35716H5.93896C6.34973 9.36064 6.76355 9.34947 7.17883 9.33824C9.20703 9.28337 11.2699 9.22758 13.1724 10.8777C13.3203 11.006 13.5294 11.0362 13.7076 10.9549C13.8857 10.8736 14 10.6958 14 10.5V7.85276C14.5865 7.55491 15 6.83757 15 5.99998C15 5.16239 14.5865 4.44505 14 4.1472V1.49998ZM4.59949 9.35716H3.67542L5.61963 14.3568L6.35791 14.0771L4.59949 9.35716ZM1.9469 4.31077C2.22424 3.88987 2.6084 3.64286 3.11768 3.64286H4.5V8.35716H3.11768C2.6084 8.35716 2.22424 8.11015 1.9469 7.68919C1.65991 7.25358 1.5 6.64122 1.5 5.99998C1.5 5.35881 1.65991 4.74644 1.9469 4.31077ZM5.94543 8.35716H5.5V3.64286H5.94116C6.05164 3.64286 6.16577 3.64445 6.28333 3.64714C6.48181 3.65165 6.68994 3.65916 6.90649 3.66697C8.65222 3.73002 10.9381 3.8126 13 2.4965V9.5009C10.9966 8.21281 8.84277 8.28031 7.05566 8.33634C6.66638 8.34855 6.29456 8.36015 5.94543 8.35716Z" fill="black"/>
</svg>
