<svg width="24" height="24" viewBox="0 0 24 24" fill="none" xmlns="http://www.w3.org/2000/svg">
<rect width="24" height="24" fill="none"/>
<path fill-rule="evenodd" clip-rule="evenodd" d="M21 1.99998C21 1.60945 20.7726 1.25466 20.4178 1.09147C20.063 0.928285 19.6457 0.986574 19.3492 1.24073C16.1496 3.98324 12.9888 3.99999 9.99998 3.99999H9.98242H9.96491H9.94745H9.93003H9.91266H9.89533H9.87805H9.86082H9.84362H9.82648H9.80938H9.79232H9.77532H9.75835H9.74143H9.72456H9.70773H9.69095H9.67421H9.65751H9.64086H9.62426H9.6077H9.59118H9.57471H9.55829H9.54191H9.52557H9.50928H9.49303H9.47683H9.46067H9.44456H9.42849H9.41246H9.39648H9.38055H9.36465H9.3488H9.333H9.31724H9.30152H9.28585H9.27022H9.25463H9.23909H9.22359H9.20814H9.19273H9.17736H9.16204H9.14676H9.13152H9.11633H9.10118H9.08607H9.07101H9.05599H9.04101H9.02608H9.01119H8.99634H8.98154H8.96678H8.95206H8.93738H8.92275H8.90816H8.89361H8.87911H8.86465H8.85023H8.83585H8.82152H8.80722H8.79297H8.77877H8.7646H8.75048H8.7364H8.72236H8.70837H8.69441H8.6805H8.66663H8.6528H8.63902H8.62527H8.61157H8.59791H8.58429H8.57072H8.55718H8.54369H8.53024H8.51683H8.50346H8.49013H8.47684H8.4636H8.4504H8.43723H8.42411H8.41103H8.398H8.385H8.37204H8.35913H8.34625H8.33342H8.32063H8.30787H8.29516H8.28249H8.26986H8.25727H8.24473H8.23222H8.21975H8.20732H8.19494H8.18259H8.17028H8.15802H8.14579H8.13361H8.12146H8.10936H8.09729H8.08527H8.07328H8.06134H8.04943H8.03757H8.02574H8.01396H8.00221H7.9905H7.97884H7.96721H7.95562H7.94407H7.93257H7.9211H7.90967H7.89828H7.88692H7.87561H7.86434H7.8531H7.84191H7.83075H7.81964H7.80856H7.79752H7.78652H7.77556H7.76463H7.75375H7.74291H7.7321H7.72133H7.7106H7.69991H7.68926H7.67864H7.66807H7.65753H7.64703H7.63657H7.62615H7.61576H7.60541H7.59511H7.58483H7.5746H7.56441H7.55425H7.54413H7.53405H7.52401H7.514H7.50403H7.4941H7.48421H7.47435H7.46453H7.45475H7.44501H7.4353H7.42563H7.416H7.40641H7.39685H7.38733H7.37785H7.3684H7.35899H7.34962H7.34029H7.33099H7.32173H7.3125H7.30331H7.29416H7.28505H7.27597H7.26693H7.25792H7.24895H7.24002H7.23112H7.22226H7.21344H7.20465H7.1959H7.18719H7.17851H7.16986H7.16126H7.15269H7.14415H7.13565H7.12719H7.11876H7.11037H7.10201H7.09369H7.08541H7.07716H7.06894H7.06076H7.05262H7.04451H7.03644H7.0284H7.0204H7.01243H7.0045H6.9966H6.98874H6.98092H6.97312H6.96537H6.95765H6.94996H6.94231H6.93469H6.92711H6.91956H6.91204H6.90456H6.89712H6.88971H6.88233H6.87499H6.86769H6.86041H6.85318H6.84597H6.8388H6.83167H6.82456H6.8175H6.81046H6.80346H6.7965H6.78956H6.78266H6.7758H6.76897H6.76217H6.75541H6.74868H6.74198H6.73532H6.72869H6.72209H6.71553H6.709H6.7025H6.69604H6.68961H6.68321H6.67685H6.67052H6.66422H6.65796H6.65172H6.64552H6.63936H6.63322H6.62712H6.62106H6.61502H6.60902H6.60305H6.59711H6.5912H6.58533H6.57949H6.57368H6.56791H6.56216H6.55645H6.55077H6.54512H6.53951H6.53393H6.52837H6.52285H6.51737H6.51191H6.50649H6.50109H6.49573H6.49041H6.48511H6.47984H6.47461H6.46941H6.46423H6.4591H6.45399H6.44891H6.44386H6.43885H6.43386H6.42891H6.42399H6.4191H6.41424H6.40941H6.40461H6.39985H6.39511H6.39041H6.38573H6.38109H6.37648H6.37189H6.36734H6.36282H6.35833H6.35387H6.34944H6.34504H6.34067H6.33633H6.33202H6.32774H6.32349H6.31927H6.31508H6.31092H6.30679H6.30269H6.29862H6.29458H6.29057H6.28659H6.28264H6.27872H6.27483H6.27097H6.26713H6.26333H6.25956H6.25581H6.2521H6.24841H6.24475H6.24112H6.23753H6.23396H6.23042H6.2269H6.22342H6.21997H6.21654H6.21315H6.20978H6.20644H6.20313H6.19985H6.1966H6.19337H6.19017H6.18701H6.18387H6.18076H6.17767H6.17462H6.17159H6.1686H6.16563H6.16268H6.15977H6.15689H6.15403H6.1512H6.1484H6.14562H6.14288H6.14016H6.13747H6.1348H6.13217H6.12956H6.12698H6.12442H6.1219H6.1194H6.11693H6.11448H6.11207H6.10968H6.10732H6.10498H6.10267H6.10039H6.09814H6.09591H6.09371H6.09153H6.08939H6.08727H6.08517H6.08311H6.08107H6.07905H6.07706H6.0751H6.07317H6.07126H6.06938H6.06752H6.06569H6.06389H6.06211H6.06036H6.05864H6.05694H6.05527H6.05362H6.052H6.05041H6.04884H6.04729H6.04577H6.04428H6.04282H6.04138H6.03996H6.03857H6.03721H6.03587H6.03455H6.03326H6.032H6.03076H6.02955H6.02836H6.0272H6.02606H6.02495H6.02386H6.0228H6.02176H6.02075H6.01976H6.0188H6.01786H6.01694H6.01605H6.01519H6.01435H6.01353H6.01274H6.01197H6.01123H6.01051H6.00982H6.00914H6.0085H6.00788H6.00728H6.0067H6.00615H6.00563H6.00513H6.00465H6.00419H6.00376H6.00335H6.00297H6.00261H6.00227H6.00196H6.00167H6.0014H6.00116H6.00094H6.00075H6.00057H6.00042H6.0003H6.00019H6.00011H6.00006H6.00002L6.00001 4.99999V3.99999C4.6121 3.99999 3.5716 4.71482 2.91795 5.6953C2.28406 6.64615 2 7.85168 2 9.00002C2 10.1484 2.28406 11.3539 2.91795 12.3047C3.45274 13.1069 4.24649 13.7313 5.27758 13.9318L8.56164 22.8457C8.65497 23.099 8.84678 23.3039 9.09345 23.4136C9.34012 23.5234 9.62069 23.5287 9.87137 23.4285L12.3714 22.4285C12.8693 22.2293 13.1214 21.6729 12.943 21.1672L10.4147 14.0036C13.4949 14.0319 16.2879 14.1353 19.3492 16.7593C19.6457 17.0135 20.063 17.0717 20.4178 16.9086C20.7726 16.7454 21 16.3906 21 16V11.8293C21.0876 11.7983 21.1734 11.7634 21.2571 11.7247C21.2713 11.7181 21.2855 11.7114 21.2996 11.7047C22.3056 11.2204 23 10.1913 23 8.99999C23 7.80873 22.3056 6.77963 21.2996 6.29533C21.2855 6.28855 21.2713 6.28187 21.2571 6.2753C21.1734 6.23662 21.0876 6.20168 21 6.17071V1.99998ZM6.00001 4.99999L6.00002 5.99999H6.00006H6.00011H6.00019H6.0003H6.00042H6.00057H6.00075H6.00094H6.00116H6.0014H6.00167H6.00196H6.00227H6.00261H6.00297H6.00335H6.00376H6.00419H6.00465H6.00513H6.00563H6.00615H6.0067H6.00728H6.00788H6.0085H6.00914H6.00982H6.01051H6.01123H6.01197H6.01274H6.01353H6.01435H6.01519H6.01605H6.01694H6.01786H6.0188H6.01976H6.02075H6.02176H6.0228H6.02386H6.02495H6.02606H6.0272H6.02836H6.02955H6.03076H6.032H6.03326H6.03455H6.03587H6.03721H6.03857H6.03996H6.04138H6.04282H6.04428H6.04577H6.04729H6.04884H6.05041H6.052H6.05362H6.05527H6.05694H6.05864H6.06036H6.06211H6.06389H6.06569H6.06752H6.06938H6.07126H6.07317H6.0751H6.07706H6.07905H6.08107H6.08311H6.08517H6.08727H6.08939H6.09153H6.09371H6.09591H6.09814H6.10039H6.10267H6.10498H6.10732H6.10968H6.11207H6.11448H6.11693H6.1194H6.1219H6.12442H6.12698H6.12956H6.13217H6.1348H6.13747H6.14016H6.14288H6.14562H6.1484H6.1512H6.15403H6.15689H6.15977H6.16268H6.16563H6.1686H6.17159H6.17462H6.17767H6.18076H6.18387H6.18701H6.19017H6.19337H6.1966H6.19985H6.20313H6.20644H6.20978H6.21315H6.21654H6.21997H6.22342H6.2269H6.23042H6.23396H6.23753H6.24112H6.24475H6.24841H6.2521H6.25581H6.25956H6.26333H6.26713H6.27097H6.27483H6.27872H6.28264H6.28659H6.29057H6.29458H6.29862H6.30269H6.30679H6.31092H6.31508H6.31927H6.32349H6.32774H6.33202H6.33633H6.34067H6.34504H6.34944H6.35387H6.35833H6.36282H6.36734H6.37189H6.37648H6.38109H6.38573H6.39041H6.39511H6.39985H6.40461H6.40941H6.41424H6.4191H6.42399H6.42891H6.43386H6.43885H6.44386H6.44891H6.45399H6.4591H6.46423H6.46941H6.47461H6.47984H6.48511H6.49041H6.49573H6.50109H6.50649H6.51191H6.51737H6.52285H6.52837H6.53393H6.53951H6.54512H6.55077H6.55645H6.56216H6.56791H6.57368H6.57949H6.58533H6.5912H6.59711H6.60305H6.60902H6.61502H6.62106H6.62712H6.63322H6.63936H6.64552H6.65172H6.65796H6.66422H6.67052H6.67685H6.68321H6.68961H6.69604H6.7025H6.709H6.71553H6.72209H6.72869H6.73532H6.74198H6.74868H6.75541H6.76217H6.76897H6.7758H6.78266H6.78956H6.7965H6.80346H6.81046H6.8175H6.82456H6.83167H6.8388H6.84597H6.85318H6.86041H6.86769H6.87499H6.88233H6.88971H6.89712H6.90456H6.91204H6.91956H6.92711H6.93469H6.94231H6.94996H6.95765H6.96537H6.97312H6.98092H6.98874H6.9966H7.0045H7.01243H7.0204H7.0284H7.03644H7.04451H7.05262H7.06076H7.06894H7.07716H7.08541H7.09369H7.10201H7.11037H7.11876H7.12719H7.13565H7.14415H7.15269H7.16126H7.16986H7.17851H7.18719H7.1959H7.20465H7.21344H7.22226H7.23112H7.24002H7.24895H7.25792H7.26693H7.27597H7.28505H7.29416H7.30331H7.3125H7.32173H7.33099H7.34029H7.34962H7.35899H7.3684H7.37785H7.38733H7.39685H7.40641H7.416H7.42563H7.4353H7.44501H7.45475H7.46453H7.47435H7.48421H7.4941H7.50403H7.514H7.52401H7.53405H7.54413H7.55425H7.56441H7.5746H7.58483H7.59511H7.60541H7.61576H7.62615H7.63657H7.64703H7.65753H7.66807H7.67864H7.68926H7.69991H7.7106H7.72133H7.7321H7.74291H7.75375H7.76463H7.77556H7.78652H7.79752H7.80856H7.81964H7.83075H7.84191H7.8531H7.86434H7.87561H7.88692H7.89828H7.90967H7.9211H7.93257H7.94407H7.95562H7.96721H7.97884H7.9905L7.99998 5.99999L7.99998 12.0001H6.02542C6.01003 11.9997 5.9946 11.9996 5.97914 11.9999C5.37745 11.9935 4.92446 11.7089 4.58205 11.1953C4.21594 10.6462 4 9.85169 4 9.00002C4 8.14835 4.21594 7.35387 4.58205 6.8047C4.9284 6.28517 5.38791 5.99999 6.00001 5.99999V4.99999ZM10.0085 12.0001H9.99998L9.99998 5.99999L10.0459 5.99999C12.6129 6.00007 15.7751 6.00016 19 3.97839V14.0145C15.8929 12.0474 12.945 12.0237 10.2231 12.0018L10.0085 12.0001V12.0001ZM7.43413 14.0001H8.29248L10.7376 20.9279L10.083 21.1898L7.43413 14.0001Z" fill="black"/>
</svg>
