<svg width="24" height="24" viewBox="0 0 24 24" fill="none" xmlns="http://www.w3.org/2000/svg">
<g clip-path="url(#clip0)">
<path fill-rule="evenodd" clip-rule="evenodd" d="M0 1.5C0 1.22386 0.223858 1 0.5 1H23.5C23.7761 1 24 1.22386 24 1.5C24 1.77614 23.7761 2 23.5 2H0.5C0.223858 2 0 1.77614 0 1.5ZM23.8412 4.13447C24.043 4.32289 24.0539 4.63929 23.8655 4.84116L17.1839 12L23.8655 19.1588C24.0539 19.3607 24.043 19.6771 23.8412 19.8655C23.6393 20.0539 23.3229 20.043 23.1345 19.8412L16.1345 12.3412C15.9552 12.1491 15.9552 11.8509 16.1345 11.6588L23.1345 4.15884C23.3229 3.95697 23.6393 3.94606 23.8412 4.13447ZM0.5 8C0.223858 8 0 8.22386 0 8.5C0 8.77614 0.223858 9 0.5 9H13.5C13.7761 9 14 8.77614 14 8.5C14 8.22386 13.7761 8 13.5 8H0.5ZM0 15.5C0 15.2239 0.223858 15 0.5 15H13.5C13.7761 15 14 15.2239 14 15.5C14 15.7761 13.7761 16 13.5 16H0.5C0.223858 16 0 15.7761 0 15.5ZM0.5 22C0.223858 22 0 22.2239 0 22.5C0 22.7761 0.223858 23 0.5 23H23.5C23.7761 23 24 22.7761 24 22.5C24 22.2239 23.7761 22 23.5 22H0.5Z" fill="black"/>
</g>
<defs>
<clipPath id="clip0">
<rect width="24" height="24" fill="white"/>
</clipPath>
</defs>
</svg>
