<svg width="24" height="24" viewBox="0 0 24 24" fill="none" xmlns="http://www.w3.org/2000/svg">
<g clip-path="url(#clip0)">
<path fill-rule="evenodd" clip-rule="evenodd" d="M24 1.5C24 1.22386 23.7761 1 23.5 1H0.500002C0.22386 1 0 1.22386 0 1.5C0 1.77614 0.22386 2 0.500002 2H23.5C23.7761 2 24 1.77614 24 1.5ZM0.158843 4.13447C-0.0430326 4.32289 -0.0539427 4.63929 0.134474 4.84116L6.81606 12L0.134474 19.1588C-0.0539427 19.3607 -0.0430326 19.6771 0.158843 19.8655C0.360718 20.0539 0.677113 20.043 0.86553 19.8412L7.86553 12.3412C8.04483 12.1491 8.04483 11.8509 7.86553 11.6588L0.86553 4.15884C0.677113 3.95697 0.360718 3.94606 0.158843 4.13447ZM23.5 8C23.7761 8 24 8.22386 24 8.5C24 8.77614 23.7761 9 23.5 9H10.5C10.2239 9 10 8.77614 10 8.5C10 8.22386 10.2239 8 10.5 8H23.5ZM24 15.5C24 15.2239 23.7761 15 23.5 15H10.5C10.2239 15 10 15.2239 10 15.5C10 15.7761 10.2239 16 10.5 16H23.5C23.7761 16 24 15.7761 24 15.5ZM23.5 22C23.7761 22 24 22.2239 24 22.5C24 22.7761 23.7761 23 23.5 23H0.500002C0.22386 23 0 22.7761 0 22.5C0 22.2239 0.22386 22 0.500002 22H23.5Z" fill="black"/>
</g>
<defs>
<clipPath id="clip0">
<rect width="24" height="24" fill="white"/>
</clipPath>
</defs>
</svg>
