<svg width="24" height="24" viewBox="0 0 24 24" fill="none" xmlns="http://www.w3.org/2000/svg">
<path d="M0 0H24V24H0V0Z" fill="none"/>
<path fill-rule="evenodd" clip-rule="evenodd" d="M5.46418 3.15567C5.75323 2.97223 6.11604 2.94941 6.4258 3.09518L23.4258 11.0952C23.7763 11.2601 24 11.6126 24 12C24 12.3874 23.7763 12.7399 23.4258 12.9048L6.4258 20.9048C6.11604 21.0506 5.75323 21.0278 5.46418 20.8443C5.17513 20.6609 5 20.3423 5 20V4C5 3.65766 5.17513 3.3391 5.46418 3.15567ZM7 5.57578V18.4242L20.6515 12L7 5.57578Z" fill="black"/>
<path fill-rule="evenodd" clip-rule="evenodd" d="M6.70711 7.29289C7.09763 7.68342 7.09763 8.31658 6.70711 8.70711L3.41421 12L6.70711 15.2929C7.09763 15.6834 7.09763 16.3166 6.70711 16.7071C6.31658 17.0976 5.68342 17.0976 5.29289 16.7071L1.29289 12.7071C0.902369 12.3166 0.902369 11.6834 1.29289 11.2929L5.29289 7.29289C5.68342 6.90237 6.31658 6.90237 6.70711 7.29289Z" fill="black"/>
<path fill-rule="evenodd" clip-rule="evenodd" d="M21 13H6V11H21V13Z" fill="black"/>
</svg>
