<svg width="20" height="20" viewBox="0 0 20 20" fill="none" xmlns="http://www.w3.org/2000/svg">
<path d="M0 0H20V20H0V0Z" fill="none"/>
<path fill-rule="evenodd" clip-rule="evenodd" d="M1.5 4C1.22386 4 1 4.22386 1 4.5V15.5C1 15.7761 1.22386 16 1.5 16H18.5C18.7761 16 19 15.7761 19 15.5V4.5C19 4.22386 18.7761 4 18.5 4H1.5ZM2 5.7433V14.3273L6.29201 10.4645L2 5.7433ZM2.74743 15H17.2526L13.0181 11.189L10.3536 13.8536C10.1583 14.0488 9.84171 14.0488 9.64645 13.8536L6.98189 11.189L2.74743 15ZM18 14.3273V5.74331L13.708 10.4645L18 14.3273ZM17.3243 5H2.67573L7.36197 10.1549L10 12.7929L12.638 10.1549L17.3243 5Z" fill="black"/>
</svg>
