<svg width="20" height="20" viewBox="0 0 20 20" fill="none" xmlns="http://www.w3.org/2000/svg">
<path d="M0 0H20V20H0V0Z" fill="none"/>
<path fill-rule="evenodd" clip-rule="evenodd" d="M9.99999 3C6.13403 3 2.99999 6.13403 2.99999 10C2.99999 11.1766 3.42443 12.7843 3.93932 13.7614C4.0061 13.8843 4.02111 14.0343 3.96813 14.1756L2.85436 17.1456L5.82446 16.0319C5.99352 15.9684 6.17492 16.0023 6.30761 16.1058C7.41772 16.937 8.32787 17 9.99999 17C13.866 17 17 13.866 17 10C17 6.13403 13.866 3 9.99999 3ZM1.99999 10C1.99999 11.2698 2.41564 12.9127 2.95495 14.0296L1.53185 17.8245C1.46301 18.0081 1.50781 18.2149 1.64648 18.3536C1.78515 18.4922 1.99194 18.537 2.17553 18.4682L5.92553 17.062C7.22607 17.9526 8.39086 18 9.99999 18C14.4183 18 18 14.4183 18 10C18 5.58173 14.4183 2 9.99999 2C5.58166 2 1.99999 5.58173 1.99999 10ZM5.99999 11C6.55224 11 6.99999 10.5523 6.99999 10C6.99999 9.44769 6.55224 9 5.99999 9C5.44775 9 4.99999 9.44769 4.99999 10C4.99999 10.5523 5.44775 11 5.99999 11ZM11 10C11 10.5523 10.5522 11 9.99999 11C9.44775 11 8.99999 10.5523 8.99999 10C8.99999 9.44769 9.44775 9 9.99999 9C10.5522 9 11 9.44769 11 10ZM14 11C14.5522 11 15 10.5523 15 10C15 9.44769 14.5522 9 14 9C13.4477 9 13 9.44769 13 10C13 10.5523 13.4477 11 14 11Z" fill="black"/>
</svg>
