<svg width="24" height="24" viewBox="0 0 24 24" fill="none" xmlns="http://www.w3.org/2000/svg">
<path fill-rule="evenodd" clip-rule="evenodd" d="M10.6871 21.9146C5.7847 21.2717 2 17.0778 2 12C2 6.47715 6.47715 2 12 2C17.0778 2 21.2717 5.7847 21.9146 10.6871C22.7392 11.33 23.4346 12.1309 23.9552 13.0443C23.9849 12.7002 24 12.3518 24 12C24 5.37258 18.6274 0 12 0C5.37258 0 0 5.37258 0 12C0 18.6274 5.37258 24 12 24C12.3518 24 12.7002 23.9849 13.0443 23.9552C12.1309 23.4346 11.33 22.7392 10.6871 21.9146ZM9.06189 16C9.02104 16.3276 9 16.6613 9 17C9 17.3387 9.02104 17.6724 9.06189 18H6C5.44772 18 5 17.5523 5 17C5 16.4477 5.44772 16 6 16H9.06189ZM9.25204 15H6C5.44772 15 5 14.5523 5 14V7C5 6.44772 5.44772 6 6 6H18C18.5523 6 19 6.44772 19 7V9.25204C18.3608 9.08751 17.6906 9 17 9V8H7V13H10.0703C9.71218 13.619 9.43466 14.2905 9.25204 15ZM15.5085 9.13878C15.0269 9.22959 14.5606 9.36356 14.1137 9.53652C14.2808 9.2176 14.615 9 15 9C15.1857 9 15.3595 9.05061 15.5085 9.13878ZM13 10.0703C12.3146 10.4668 11.6934 10.962 11.156 11.5366C11.0572 11.3816 11 11.1975 11 11V10C11 9.44771 11.4477 9 12 9C12.5523 9 13 9.44771 13 10V10.0703ZM20.8437 15.5369C21.1402 15.0709 21.0028 14.4528 20.5369 14.1563C20.0709 13.8598 19.4528 13.9972 19.1563 14.4631L16.2546 19.023L14.6247 17.7191C14.1934 17.3741 13.5641 17.444 13.2191 17.8753C12.8741 18.3066 12.944 18.9359 13.3753 19.2809L15.0052 20.5848C15.9343 21.3281 17.3031 21.1007 17.9419 20.0968L20.8437 15.5369ZM10 10C10 9.44771 9.55229 9 9 9C8.44771 9 8 9.44771 8 10V11C8 11.5523 8.44771 12 9 12C9.55229 12 10 11.5523 10 11V10Z" fill="black"/>
<circle cx="17" cy="17" r="6" stroke="black" stroke-width="2"/>
</svg>
