<svg width="24" height="24" viewBox="0 0 24 24" fill="none" xmlns="http://www.w3.org/2000/svg">
<path fill-rule="evenodd" clip-rule="evenodd" d="M12 22C17.5228 22 22 17.5228 22 12C22 6.47715 17.5228 2 12 2C6.47715 2 2 6.47715 2 12C2 17.5228 6.47715 22 12 22ZM12 24C18.6274 24 24 18.6274 24 12C24 5.37258 18.6274 0 12 0C5.37258 0 0 5.37258 0 12C0 18.6274 5.37258 24 12 24Z" fill="black"/>
<path fill-rule="evenodd" clip-rule="evenodd" d="M7 8V13H17V8H7ZM6 6C5.44772 6 5 6.44772 5 7V14C5 14.5523 5.44772 15 6 15H18C18.5523 15 19 14.5523 19 14V7C19 6.44772 18.5523 6 18 6H6Z" fill="black"/>
<path fill-rule="evenodd" clip-rule="evenodd" d="M5 17C5 16.4477 5.44772 16 6 16H18C18.5523 16 19 16.4477 19 17C19 17.5523 18.5523 18 18 18H6C5.44772 18 5 17.5523 5 17Z" fill="black"/>
<path fill-rule="evenodd" clip-rule="evenodd" d="M9 9C9.55228 9 10 9.44772 10 10V11C10 11.5523 9.55228 12 9 12C8.44772 12 8 11.5523 8 11V10C8 9.44772 8.44772 9 9 9Z" fill="black"/>
<path fill-rule="evenodd" clip-rule="evenodd" d="M15 9C15.5523 9 16 9.44772 16 10V11C16 11.5523 15.5523 12 15 12C14.4477 12 14 11.5523 14 11V10C14 9.44772 14.4477 9 15 9Z" fill="black"/>
<path fill-rule="evenodd" clip-rule="evenodd" d="M12 9C12.5523 9 13 9.44772 13 10V11C13 11.5523 12.5523 12 12 12C11.4477 12 11 11.5523 11 11V10C11 9.44772 11.4477 9 12 9Z" fill="black"/>
</svg>
