<svg width="24" height="24" viewBox="0 0 24 24" fill="none" xmlns="http://www.w3.org/2000/svg">
<path fill-rule="evenodd" clip-rule="evenodd" d="M21.8 14C21.9311 13.3538 22 12.6849 22 12C22 11.3151 21.9311 10.6462 21.8 10H23V14H21.8ZM21.5422 15C20.2679 19.0571 16.4776 22 12 22C7.52236 22 3.73207 19.0571 2.4578 15H0.5C0.223858 15 0 14.7761 0 14.5V9.5C0 9.22386 0.223858 9 0.5 9H2.4578C3.73207 4.94289 7.52236 2 12 2C16.4776 2 20.2679 4.94289 21.5422 9H23.5C23.7761 9 24 9.22386 24 9.5V14.5C24 14.7761 23.7761 15 23.5 15H21.5422ZM1 14H2.20004C2.06886 13.3538 2 12.6849 2 12C2 11.3151 2.06886 10.6462 2.20004 10H1V14ZM21 12C21 16.9706 16.9706 21 12 21C7.02944 21 3 16.9706 3 12C3 7.02944 7.02944 3 12 3C16.9706 3 21 7.02944 21 12ZM12 20C16.4183 20 20 16.4183 20 12C20 7.58172 16.4183 4 12 4C7.58172 4 4 7.58172 4 12C4 16.4183 7.58172 20 12 20ZM19 12C19 15.866 15.866 19 12 19C8.13401 19 5 15.866 5 12C5 8.13401 8.13401 5 12 5C15.866 5 19 8.13401 19 12ZM7 8H8V10H7V8ZM12 8H11V10H12V8ZM9 8H10V10H9V8ZM15 8H14V10H15V8ZM16 8H17V10H16V8ZM13 12C13 12.5523 12.5523 13 12 13C11.4477 13 11 12.5523 11 12C11 11.4477 11.4477 11 12 11C12.5523 11 13 11.4477 13 12ZM15 16C15.5523 16 16 15.5523 16 15C16 14.4477 15.5523 14 15 14C14.4477 14 14 14.4477 14 15C14 15.5523 14.4477 16 15 16ZM15 17C16.1046 17 17 16.1046 17 15C17 13.8954 16.1046 13 15 13C13.8954 13 13 13.8954 13 15C13 16.1046 13.8954 17 15 17ZM6.5 12C6.22386 12 6 12.2239 6 12.5C6 12.7761 6.22386 13 6.5 13H8.5C8.77614 13 9 12.7761 9 12.5C9 12.2239 8.77614 12 8.5 12H6.5ZM7 14.5C7 14.2239 7.22386 14 7.5 14H10.5C10.7761 14 11 14.2239 11 14.5C11 14.7761 10.7761 15 10.5 15H7.5C7.22386 15 7 14.7761 7 14.5ZM8.5 16C8.22386 16 8 16.2239 8 16.5C8 16.7761 8.22386 17 8.5 17H11.5C11.7761 17 12 16.7761 12 16.5C12 16.2239 11.7761 16 11.5 16H8.5Z" fill="black"/>
</svg>
