<svg width="24" height="24" viewBox="0 0 24 24" fill="none" xmlns="http://www.w3.org/2000/svg">
<rect width="24" height="24" fill="none"/>
<path fill-rule="evenodd" clip-rule="evenodd" d="M20.7071 3.29289C21.0976 3.68342 21.0976 4.31658 20.7071 4.70711L4.70711 20.7071C4.42111 20.9931 3.99099 21.0787 3.61732 20.9239C3.24364 20.7691 3 20.4045 3 20V12C3 11.4477 3.44772 11 4 11C4.55228 11 5 11.4477 5 12V17.5858L19.2929 3.29289C19.6834 2.90237 20.3166 2.90237 20.7071 3.29289Z" fill="black"/>
<path fill-rule="evenodd" clip-rule="evenodd" d="M3 20C3 19.4477 3.44772 19 4 19H12C12.5523 19 13 19.4477 13 20C13 20.5523 12.5523 21 12 21H4C3.44772 21 3 20.5523 3 20Z" fill="black"/>
</svg>
