<svg width="24" height="24" viewBox="0 0 24 24" fill="none" xmlns="http://www.w3.org/2000/svg">
<rect width="24" height="24" fill="none"/>
<path fill-rule="evenodd" clip-rule="evenodd" d="M3 8V7H2V19H6.5H15V7H14V8C14 8.55228 13.5523 9 13 9C12.4477 9 12 8.55228 12 8V7H5V8C5 8.55228 4.55228 9 4 9C3.44772 9 3 8.55228 3 8ZM4 21.5C4 21.3288 4.01722 21.1616 4.05001 21H1C0.447715 21 0 20.5523 0 20V6C0 5.44772 0.447715 5 1 5H3.0184C3.13311 3.46356 3.77673 2.23551 4.74189 1.37759C5.79117 0.444898 7.16193 0 8.5 0C9.83807 0 11.2088 0.444894 12.2581 1.37758C13.2233 2.2355 13.8669 3.46356 13.9816 5H16C16.5523 5 17 5.44772 17 6V10.5H18.5C18.7224 10.5 18.9384 10.5741 19.1139 10.7106L23.6139 14.2106C23.8575 14.4001 24 14.6914 24 15V16V20C24 20.5523 23.5523 21 23 21H20.95C20.9828 21.1616 21 21.3288 21 21.5C21 22.8807 19.8807 24 18.5 24C17.1193 24 16 22.8807 16 21.5C16 21.3288 16.0172 21.1616 16.05 21H8.94999C8.98279 21.1616 9 21.3288 9 21.5C9 22.8807 7.88071 24 6.5 24C5.11929 24 4 22.8807 4 21.5ZM21.3712 15L20 13.9335V15H21.3712ZM18 12.5V16C18 16.5523 18.4477 17 19 17H22V19H18.5H17V12.5H18ZM10.9294 2.87241C11.4613 3.34522 11.8687 4.03681 11.9736 5H5.0264C5.13126 4.03681 5.5387 3.34522 6.07061 2.87241C6.70883 2.3051 7.58807 2 8.5 2C9.41193 2 10.2912 2.3051 10.9294 2.87241ZM12.4961 10.1318L8.99614 8.13176C8.68871 7.95608 8.31129 7.95608 8.00386 8.13176L4.50386 10.1318C4.19229 10.3098 4 10.6411 4 11V15C4 15.3589 4.19229 15.6902 4.50386 15.8682L8.00386 17.8682C8.31129 18.0439 8.68871 18.0439 8.99614 17.8682L12.4961 15.8682C12.8077 15.6902 13 15.3589 13 15V11C13 10.6411 12.8077 10.3098 12.4961 10.1318ZM6 14.4197V12.7232L7.5 13.5803V15.2768L6 14.4197ZM9.5 15.2768V13.5803L11 12.7232V14.4197L9.5 15.2768ZM8.5 11.8482L9.98444 11L8.5 10.1518L7.01556 11L8.5 11.8482Z" fill="black"/>
</svg>
