<svg width="32" height="32" viewBox="0 0 32 32" fill="none" xmlns="http://www.w3.org/2000/svg">
<mask id="path-1-inside-1_7138_128143" fill="white">
<path d="M8 10C8 6.68629 10.6863 4 14 4H32V28H14C10.6863 28 8 25.3137 8 22V10Z"/>
</mask>
<path d="M7 10C7 6.13401 10.134 3 14 3H32V5H14C11.2386 5 9 7.23858 9 10H7ZM32 29H14C10.134 29 7 25.866 7 22H9C9 24.7614 11.2386 27 14 27H32V29ZM14 29C10.134 29 7 25.866 7 22V10C7 6.13401 10.134 3 14 3V5C11.2386 5 9 7.23858 9 10V22C9 24.7614 11.2386 27 14 27V29ZM32 4V28V4Z" fill="#3D6780" mask="url(#path-1-inside-1_7138_128143)"/>
<path d="M22.251 10.9291C21.9754 10.6534 21.531 10.6534 21.2554 10.9291L16.581 15.6034C16.3617 15.8228 16.3617 16.1772 16.581 16.3966L21.2554 21.0709C21.531 21.3466 21.9754 21.3466 22.251 21.0709C22.5267 20.7953 22.5267 20.3509 22.251 20.0753L18.1785 15.9972L22.2567 11.9191C22.5267 11.6491 22.5267 11.1991 22.251 10.9291Z" fill="#3D6780"/>
</svg>
