<svg width="32" height="32" viewBox="0 0 32 32" fill="none" xmlns="http://www.w3.org/2000/svg">
<path d="M9.74893 21.0709C10.0246 21.3466 10.4689 21.3466 10.7446 21.0709L15.4189 16.3966C15.6383 16.1772 15.6383 15.8228 15.4189 15.6034L10.7446 10.9291C10.4689 10.6534 10.0246 10.6534 9.74893 10.9291C9.47331 11.2047 9.47331 11.6491 9.74893 11.9247L13.8214 16.0028L9.74331 20.0809C9.47331 20.3509 9.47331 20.8009 9.74893 21.0709Z" fill="#3D6780"/>
<path d="M0.5 4.5H18C21.0376 4.5 23.5 6.96243 23.5 10V22C23.5 25.0376 21.0376 27.5 18 27.5H0.5V4.5Z" stroke="#3D6780"/>
</svg>
