<svg width="24" height="24" viewBox="0 0 24 24" fill="none" xmlns="http://www.w3.org/2000/svg">
<path d="M24 3C24 4.65685 22.6569 6 21 6C19.3431 6 18 4.65685 18 3C18 1.34315 19.3431 0 21 0C22.6569 0 24 1.34315 24 3Z" fill="black"/>
<path fill-rule="evenodd" clip-rule="evenodd" d="M0 3C0 1.89543 0.89543 1 2 1H15C16.1046 1 17 1.89543 17 3V21C17 22.1046 16.1046 23 15 23H2C0.89543 23 0 22.1046 0 21V3ZM2 21V3H15V21H2Z" fill="black"/>
<path fill-rule="evenodd" clip-rule="evenodd" d="M12.7071 5.29289C13.0976 5.68342 13.0976 6.31658 12.7071 6.70711L8.70711 10.7071C8.31658 11.0976 7.68342 11.0976 7.29289 10.7071L5.29289 8.70711C4.90237 8.31658 4.90237 7.68342 5.29289 7.29289C5.68342 6.90237 6.31658 6.90237 6.70711 7.29289L8 8.58579L11.2929 5.29289C11.6834 4.90237 12.3166 4.90237 12.7071 5.29289Z" fill="black"/>
<path fill-rule="evenodd" clip-rule="evenodd" d="M12.7071 13.2929C13.0976 13.6834 13.0976 14.3166 12.7071 14.7071L8.70711 18.7071C8.31658 19.0976 7.68342 19.0976 7.29289 18.7071L5.29289 16.7071C4.90237 16.3166 4.90237 15.6834 5.29289 15.2929C5.68342 14.9024 6.31658 14.9024 6.70711 15.2929L8 16.5858L11.2929 13.2929C11.6834 12.9024 12.3166 12.9024 12.7071 13.2929Z" fill="#008000"/>
</svg>
