<svg width="24" height="24" viewBox="0 0 24 24" fill="none" xmlns="http://www.w3.org/2000/svg">
<path fill-rule="evenodd" clip-rule="evenodd" d="M4 2C4 1.44772 4.44772 1 5 1H13.75C14.0218 1 14.282 1.11067 14.4705 1.30653L19.7205 6.76108C19.8998 6.9474 20 7.19594 20 7.45455V9.5C20 10.0523 19.5523 10.5 19 10.5C18.4477 10.5 18 10.0523 18 9.5V8.45455H13.75C13.1977 8.45455 12.75 8.00683 12.75 7.45455V3H6V21H10C10.5523 21 11 21.4477 11 22C11 22.5523 10.5523 23 10 23H5C4.44772 23 4 22.5523 4 22V2ZM14.75 4.48099L16.6495 6.45455H14.75V4.48099Z" fill="black"/>
<path fill-rule="evenodd" clip-rule="evenodd" d="M17 21C19.2091 21 21 19.2091 21 17C21 14.7909 19.2091 13 17 13C14.7909 13 13 14.7909 13 17C13 19.2091 14.7909 21 17 21ZM17 23C20.3137 23 23 20.3137 23 17C23 13.6863 20.3137 11 17 11C13.6863 11 11 13.6863 11 17C11 20.3137 13.6863 23 17 23Z" fill="black"/>
<path fill-rule="evenodd" clip-rule="evenodd" d="M17 14C17.5523 14 18 14.4477 18 15L18 19C18 19.5523 17.5523 20 17 20C16.4477 20 16 19.5523 16 19L16 15C16 14.4477 16.4477 14 17 14Z" fill="black"/>
<path fill-rule="evenodd" clip-rule="evenodd" d="M20 17C20 17.5523 19.5523 18 19 18H15C14.4477 18 14 17.5523 14 17C14 16.4477 14.4477 16 15 16H19C19.5523 16 20 16.4477 20 17Z" fill="black"/>
</svg>
