<svg width="24" height="24" viewBox="0 0 24 24" fill="none" xmlns="http://www.w3.org/2000/svg">
<path fill-rule="evenodd" clip-rule="evenodd" d="M7.03198 4.84037C8.30976 3.64778 10.063 3 12 3C12.5523 3 13 3.44772 13 4C13 4.55228 12.5523 5 12 5C10.5085 5 9.2617 5.49507 8.39662 6.30248C7.53801 7.10385 7.00002 8.26293 7.00002 9.71429V15.4286C7.00002 16.797 6.42813 18.0912 5.90733 19H12C12.5523 19 13 19.4477 13 20C13 20.5523 12.5523 21 12 21H4.00002C3.60764 21 3.25152 20.7705 3.08938 20.4132C2.92747 20.0564 2.98889 19.6379 3.24639 19.3427C3.24644 19.3426 3.24648 19.3426 3.24652 19.3425L3.24689 19.3421C3.24696 19.342 3.24703 19.342 3.2471 19.3419C3.24712 19.3419 3.24713 19.3419 3.24714 19.3418C3.24724 19.3417 3.24734 19.3416 3.24744 19.3415L3.24798 19.3409L3.25932 19.3276C3.27032 19.3146 3.28801 19.2935 3.31142 19.2648C3.3583 19.2074 3.42785 19.12 3.51252 19.0071C3.68255 18.7804 3.90984 18.4557 4.13624 18.0676C4.60432 17.2651 5.00002 16.3076 5.00002 15.4286V9.71429C5.00002 7.73707 5.74773 6.03901 7.03198 4.84037Z" fill="black"/>
<path fill-rule="evenodd" clip-rule="evenodd" d="M16.968 4.84037C15.6902 3.64778 13.937 3 12 3C11.4477 3 11 3.44772 11 4C11 4.55228 11.4477 5 12 5C13.4915 5 14.7383 5.49507 15.6034 6.30248C16.462 7.10385 17 8.26293 17 9.71429V15.4286C17 16.797 17.5719 18.0912 18.0927 19H12C11.4477 19 11 19.4477 11 20C11 20.5523 11.4477 21 12 21H20C20.3924 21 20.7485 20.7705 20.9106 20.4132C21.0725 20.0564 21.0111 19.6379 20.7536 19.3427C20.7536 19.3426 20.7535 19.3426 20.7535 19.3425L20.7531 19.3421C20.753 19.342 20.753 19.342 20.7529 19.3419C20.7529 19.3419 20.7529 19.3419 20.7529 19.3418C20.7528 19.3417 20.7527 19.3416 20.7526 19.3415L20.752 19.3409L20.7407 19.3276C20.7297 19.3146 20.712 19.2935 20.6886 19.2648C20.6417 19.2074 20.5722 19.12 20.4875 19.0071C20.3174 18.7804 20.0902 18.4557 19.8638 18.0676C19.3957 17.2651 19 16.3076 19 15.4286V9.71429C19 7.73707 18.2523 6.03901 16.968 4.84037Z" fill="black"/>
<path fill-rule="evenodd" clip-rule="evenodd" d="M11.3321 21.6679C11.5668 21.9025 11.8252 22 12 22C12.1748 22 12.4332 21.9025 12.6679 21.6679C12.9025 21.4332 13 21.1748 13 21H15C15 21.8252 14.5975 22.5668 14.0821 23.0821C13.5668 23.5975 12.8252 24 12 24C11.1748 24 10.4332 23.5975 9.91789 23.0821C9.40255 22.5668 9 21.8252 9 21H11C11 21.1748 11.0975 21.4332 11.3321 21.6679Z" fill="black"/>
<path fill-rule="evenodd" clip-rule="evenodd" d="M12 -4.37114e-08C12.5523 -8.2479e-09 13 0.447715 13 1L13 4C13 4.55228 12.5523 5 12 5C11.4477 5 11 4.55228 11 4L11 1C11 0.447715 11.4477 -1.95703e-08 12 -4.37114e-08Z" fill="black"/>
</svg>
