<svg width="20" height="20" viewBox="0 0 20 20" fill="none" xmlns="http://www.w3.org/2000/svg">
<path d="M0 0H20V20H0V0Z" fill="none"/>
<path fill-rule="evenodd" clip-rule="evenodd" d="M2 1.5C2 1.22386 2.22386 1 2.5 1H15.5C15.7761 1 16 1.22386 16 1.5V5.5C16 5.77614 15.7761 6 15.5 6C15.2239 6 15 5.77614 15 5.5V2H3V18H11.5C11.7761 18 12 18.2239 12 18.5C12 18.7761 11.7761 19 11.5 19H2.5C2.22386 19 2 18.7761 2 18.5V1.5Z" fill="black"/>
<path fill-rule="evenodd" clip-rule="evenodd" d="M15 8.5C13.0505 8.5 11.5 10.0221 11.5 11.8636C11.5 12.6355 11.5819 13.2371 11.9119 13.7165L11.0881 14.2835C10.5757 13.539 10.5 12.6715 10.5 11.8636C10.5 9.43743 12.5312 7.5 15 7.5C17.4688 7.5 19.5 9.43743 19.5 11.8636C19.5 12.6715 19.4243 13.539 18.9119 14.2835L18.0881 13.7165C18.4181 13.2371 18.5 12.6355 18.5 11.8636C18.5 10.0221 16.9495 8.5 15 8.5Z" fill="black"/>
<path fill-rule="evenodd" clip-rule="evenodd" d="M4 4C4 3.44772 4.44772 3 5 3H7C7.55228 3 8 3.44772 8 4V6C8 6.55228 7.55228 7 7 7H5C4.44772 7 4 6.55228 4 6V4ZM5 4V6H7V4H5Z" fill="black"/>
<path fill-rule="evenodd" clip-rule="evenodd" d="M4 9C4 8.44772 4.44772 8 5 8H7C7.55228 8 8 8.44772 8 9V11C8 11.5523 7.55228 12 7 12H5C4.44772 12 4 11.5523 4 11V9ZM5 9V11H7V9H5Z" fill="black"/>
<path fill-rule="evenodd" clip-rule="evenodd" d="M4 14C4 13.4477 4.44772 13 5 13H7C7.55228 13 8 13.4477 8 14V16C8 16.5523 7.55228 17 7 17H5C4.44772 17 4 16.5523 4 16V14ZM5 14V16H7V14H5Z" fill="black"/>
<path fill-rule="evenodd" clip-rule="evenodd" d="M10 4C10 3.44772 10.4477 3 11 3H13C13.5523 3 14 3.44772 14 4V6C14 6.55228 13.5523 7 13 7H11C10.4477 7 10 6.55228 10 6V4ZM11 4V6H13V4H11Z" fill="black"/>
<path fill-rule="evenodd" clip-rule="evenodd" d="M11.2133 13.5904C11.4395 13.432 11.7513 13.487 11.9097 13.7133L15 18.1281L18.0904 13.7133C18.2488 13.487 18.5605 13.432 18.7868 13.5904C19.013 13.7487 19.068 14.0605 18.9097 14.2867L15.4097 19.2867C15.3161 19.4204 15.1632 19.5 15 19.5C14.8369 19.5 14.684 19.4204 14.5904 19.2867L11.0904 14.2867C10.9321 14.0605 10.9871 13.7487 11.2133 13.5904Z" fill="black"/>
<path fill-rule="evenodd" clip-rule="evenodd" d="M15 13C15.5523 13 16 12.5523 16 12C16 11.4477 15.5523 11 15 11C14.4477 11 14 11.4477 14 12C14 12.5523 14.4477 13 15 13ZM15 14C16.1046 14 17 13.1046 17 12C17 10.8954 16.1046 10 15 10C13.8954 10 13 10.8954 13 12C13 13.1046 13.8954 14 15 14Z" fill="black"/>
</svg>
