<?xml version="1.0" encoding="utf-8"?>
<!-- Generator: Adobe Illustrator 23.0.3, SVG Export Plug-In . SVG Version: 6.00 Build 0)  -->
<svg version="1.1" id="Слой_1" xmlns="http://www.w3.org/2000/svg" xmlns:xlink="http://www.w3.org/1999/xlink" x="0px" y="0px"
	 viewBox="0 0 23 23" style="enable-background:new 0 0 23 23;" xml:space="preserve">
<g id="Page-1">
	<g>
		<path id="Shape" d="M21,16.9H2c-0.2,0-0.4-0.2-0.4-0.4V3.9c0-0.6,0.5-1.1,1.1-1.1h17.6c0.6,0,1.1,0.5,1.1,1.1v12.6
			C21.3,16.8,21.2,16.9,21,16.9z M2.4,16.2h18.3V3.9c0-0.2-0.2-0.4-0.4-0.4H2.7c-0.2,0-0.4,0.2-0.4,0.4V16.2z"/>
		<path d="M20.3,20.1H2.7c-1,0-1.8-0.8-1.8-1.8v-1.4c0-0.4,0.3-0.7,0.7-0.7h19.7c0.4,0,0.7,0.3,0.7,0.7v1.4
			C22,19.3,21.3,20.1,20.3,20.1z M1.7,16.9v1.4c0,0.6,0.5,1.1,1.1,1.1h17.6c0.6,0,1.1-0.5,1.1-1.1v-1.4H1.7z"/>
		<path d="M13.9,18.4H9.1c-0.4,0-0.8-0.2-0.9-0.6l-0.5-1c-0.1-0.1,0-0.2,0-0.3c0.1-0.1,0.2-0.2,0.3-0.2h7c0.1,0,0.2,0.1,0.3,0.2
			c0.1,0.1,0.1,0.2,0,0.3l-0.5,1C14.6,18.1,14.3,18.4,13.9,18.4L13.9,18.4z M8.6,16.9l0.3,0.5c0.1,0.1,0.2,0.2,0.3,0.2h4.8
			c0.1,0,0.3-0.1,0.3-0.2l0.3-0.5H8.6z"/>
		<path d="M9.6,15.5c-0.7,0-1.2-0.6-1.2-1.2c0-0.7,0.6-1.2,1.2-1.2s1.2,0.6,1.2,1.2C10.8,15,10.2,15.5,9.6,15.5z M9.6,13.8
			C9.3,13.8,9,14,9,14.3c0,0.3,0.2,0.5,0.5,0.5c0.3,0,0.5-0.2,0.5-0.5C10.1,14,9.9,13.8,9.6,13.8z"/>
		<path d="M14.1,15.5c-0.7,0-1.2-0.6-1.2-1.2c0-0.7,0.6-1.2,1.2-1.2c0.7,0,1.2,0.6,1.2,1.2C15.4,15,14.8,15.5,14.1,15.5z M14.1,13.8
			c-0.3,0-0.5,0.2-0.5,0.5c0,0.3,0.2,0.5,0.5,0.5c0.3,0,0.5-0.2,0.5-0.5C14.7,14,14.4,13.8,14.1,13.8z"/>
		<path d="M15.1,12.4H8.7c-0.2,0-0.4-0.2-0.4-0.4c0-0.2,0.2-0.4,0.4-0.4h6.4L16,8.2H8.2C8,8.2,7.8,8,7.8,7.8S8,7.5,8.2,7.5H16
			c0.2,0,0.4,0.1,0.6,0.3c0.1,0.2,0.2,0.4,0.1,0.6l-0.9,3.5C15.7,12.2,15.4,12.4,15.1,12.4L15.1,12.4z"/>
		<path d="M15.4,13.8H9.1c-0.4,0-0.7-0.2-0.9-0.5c-0.2-0.3-0.2-0.7,0-1L8.3,12L7.8,7.7c-0.1-0.5-0.5-0.9-1-0.9H5.9
			c-0.2,0-0.4-0.2-0.4-0.4c0-0.2,0.2-0.4,0.4-0.4h0.9c0.9,0,1.6,0.7,1.7,1.5L9,12c0,0.1,0,0.1,0,0.2l-0.2,0.4c-0.1,0.1,0,0.2,0,0.3
			C8.9,13,9,13.1,9.1,13.1h6.2c0.2,0,0.4,0.2,0.4,0.4C15.7,13.6,15.6,13.8,15.4,13.8L15.4,13.8z"/>
		<path d="M13.3,12.4h-2.5c-0.2,0-0.3-0.1-0.4-0.3l-0.4-4.2c0-0.1,0-0.3,0.1-0.3c0.1-0.1,0.2-0.1,0.4,0c0.1,0.1,0.2,0.2,0.2,0.3
			l0.3,3.9H13l0.7-3.9c0-0.2,0.2-0.3,0.4-0.3c0.2,0,0.3,0.2,0.3,0.4l-0.7,4.2C13.6,12.3,13.4,12.4,13.3,12.4z"/>
		<path d="M15.9,10.3H8.4c-0.2,0-0.4-0.2-0.4-0.4c0-0.2,0.2-0.4,0.4-0.4h7.5c0.2,0,0.4,0.2,0.4,0.4C16.2,10.1,16.1,10.3,15.9,10.3z"
			/>
	</g>
</g>
</svg>
