<svg width="24" height="24" viewBox="0 0 24 24" fill="none" xmlns="http://www.w3.org/2000/svg">
<g clip-path="url(#clip0)">
<path fill-rule="evenodd" clip-rule="evenodd" d="M22 2.5C22 2.22386 21.7761 2 21.5 2C21.2239 2 21 2.22386 21 2.5V4.10351C20.0134 3.11719 18.7768 2.45979 17.451 2.25582C15.6606 1.98036 13.7532 2.53971 12.1464 4.14645C11.9512 4.34171 11.9512 4.65829 12.1464 4.85355C12.3417 5.04882 12.6583 5.04882 12.8536 4.85355C14.2468 3.46029 15.8394 3.01964 17.299 3.24419C18.4767 3.42538 19.5971 4.04473 20.4746 5.00001L18.5 5C18.2239 5 18 5.22385 18 5.5C18 5.77614 18.2239 6 18.5 6L21.5 6.00002C21.6326 6.00002 21.7598 5.94734 21.8536 5.85357C21.9473 5.7598 22 5.63263 22 5.50002V2.5ZM3.26696 6.26779C3.09025 6.44694 3 6.66021 3 6.83333V18.9868L7.04395 13.5354C7.48212 12.9456 7.90085 12.5501 8.40982 12.3115C8.91189 12.076 9.4493 12.0189 10.0606 12.0002L10.0759 12H20.0973V9.5C20.0973 9.32687 20.007 9.1136 19.8303 8.93445C19.6532 8.75488 19.4458 8.66667 19.2821 8.66667H11.3911C11.115 8.66667 10.891 8.44281 10.891 8.16667V6.83333C10.891 6.66021 10.8008 6.44694 10.6241 6.26779C10.447 6.08821 10.2396 6 10.0759 6H3.81517C3.65144 6 3.44409 6.08821 3.26696 6.26779ZM11.891 7.66667V6.83333C11.891 6.33979 11.6525 5.8864 11.336 5.56555C11.02 5.24512 10.5697 5 10.0759 5H3.81517C3.32133 5 2.87108 5.24512 2.55502 5.56555C2.23854 5.8864 2 6.33979 2 6.83333V20.5C2 21.0242 2.26871 21.4194 2.63101 21.6643C2.97839 21.899 3.41094 22 3.81517 22H15.3366C16.6297 22 17.7577 21.4494 18.3536 20.8536C18.5059 20.7012 18.8987 20.2104 19.3739 19.6039C19.8626 18.9802 20.47 18.193 21.071 17.4124L21.4657 16.8997L21.4665 16.8986C21.9287 16.298 22.3705 15.7239 22.7339 15.2553C22.9671 14.9548 23.1667 14.6991 23.3182 14.5085C23.394 14.413 23.4565 14.3354 23.5045 14.2773C23.5285 14.2482 23.5478 14.2253 23.5626 14.2082C23.5753 14.1934 23.5817 14.1865 23.5833 14.1847L23.5834 14.1847L23.5834 14.1847C23.8064 13.9586 23.9527 13.696 23.9905 13.4089C24.0285 13.1196 23.9497 12.8547 23.8098 12.6419C23.5426 12.2356 23.0474 12 22.57 12H21.0973V9.5C21.0973 9.00646 20.8587 8.55306 20.5422 8.23221C20.2262 7.91179 19.7759 7.66667 19.2821 7.66667H11.891ZM3.02209 20.6354C3.05014 20.7132 3.10544 20.7779 3.19098 20.8357C3.33679 20.9343 3.56182 21 3.81517 21H15.3366C16.3703 21 17.2423 20.5506 17.6464 20.1464C17.7441 20.0488 18.0876 19.624 18.5868 18.9871C19.0725 18.3673 19.6775 17.5832 20.2787 16.8023L20.6722 16.2911L20.6736 16.2893C21.1359 15.6886 21.5792 15.1126 21.9437 14.6425C22.1775 14.3411 22.38 14.0817 22.5352 13.8864C22.6803 13.7037 22.8059 13.5489 22.8717 13.4822C22.9775 13.3749 22.9957 13.304 22.999 13.2786C23.0021 13.2554 22.9988 13.2286 22.9742 13.1914C22.9126 13.0977 22.7502 13 22.57 13H10.0836C9.50521 13.018 9.14151 13.0728 8.83438 13.2169C8.5328 13.3583 8.2332 13.6115 7.84689 14.1315L3.02209 20.6354ZM7 18.5C7 18.2239 7.22386 18 7.5 18H16.5C16.7761 18 17 18.2239 17 18.5C17 18.7761 16.7761 19 16.5 19H7.5C7.22386 19 7 18.7761 7 18.5Z" fill="black"/>
</g>
<defs>
<clipPath id="clip0">
<rect width="24" height="24" fill="white"/>
</clipPath>
</defs>
</svg>
