<svg width="16" height="16" viewBox="0 0 16 16" fill="none" xmlns="http://www.w3.org/2000/svg">
<path fill-rule="evenodd" clip-rule="evenodd" d="M4.5 1C4.33282 1 4.17671 1.08355 4.08397 1.22265L2.08397 4.22265C2.02922 4.30478 2 4.40129 2 4.5V14.5C2 14.7761 2.22386 15 2.5 15H13.5C13.7761 15 14 14.7761 14 14.5V4.5C14 4.40129 13.9708 4.30478 13.916 4.22265L11.916 1.22265C11.8233 1.08355 11.6672 1 11.5 1H4.5ZM3.43426 4L4.76759 2H7.5V4H3.43426ZM8.5 4V2H11.2324L12.5657 4H8.5ZM3 5H13V14H3V5ZM9.16522 8.10435C9.30435 7.96522 9.58261 7.96522 9.72174 8.10435C9.86087 8.31304 9.86087 8.52174 9.72174 8.66087L7.63478 10.7478C7.56522 10.8174 7.42609 10.887 7.35652 10.887C7.28696 10.887 7.14783 10.8174 7.07826 10.7478L6.10435 9.77391C5.96522 9.63478 5.96522 9.35652 6.10435 9.21739C6.24348 9.07826 6.52174 9.07826 6.66087 9.21739L7.35652 9.91304L9.16522 8.10435Z" fill="black"/>
</svg>
