<svg width="24" height="24" viewBox="0 0 24 24" fill="none" xmlns="http://www.w3.org/2000/svg">
<rect width="24" height="24" fill="none"/>
<path fill-rule="evenodd" clip-rule="evenodd" d="M7.00011 0C6.66575 0 6.35352 0.167101 6.16806 0.4453L2.17512 6.4347C2.12175 6.51245 2.07908 6.59812 2.04924 6.68959C2.01449 6.79583 1.99842 6.90573 2.00012 7.01472V22C2.00012 22.5523 2.44784 23 3.00012 23H21.0001C21.5524 23 22.0001 22.5523 22.0001 22V7.01259C22.0014 6.91733 21.9891 6.82141 21.9626 6.72786C21.9326 6.62138 21.8854 6.52211 21.8241 6.43324L17.8322 0.4453C17.6467 0.167101 17.3345 0 17.0001 0H12.0001H7.00011ZM7.53529 2H11.0001V6H4.86862L7.53529 2ZM13.0001 2V6H19.1316L16.4649 2H13.0001ZM4.00012 8H12.0001H20.0001V21H4.00012V8ZM15.7072 13.7071C16.0978 13.3166 16.0978 12.6834 15.7072 12.2929C15.3167 11.9024 14.6835 11.9024 14.293 12.2929L11.0001 15.5858L9.70723 14.2929C9.3167 13.9024 8.68354 13.9024 8.29302 14.2929C7.90249 14.6834 7.90249 15.3166 8.29302 15.7071L10.293 17.7071C10.6835 18.0976 11.3167 18.0976 11.7072 17.7071L15.7072 13.7071Z" fill="black"/>
</svg>
