<svg width="24" height="24" viewBox="0 0 24 24" fill="none" xmlns="http://www.w3.org/2000/svg">
<path d="M20 9V3" stroke="black" stroke-width="2" stroke-linecap="round" stroke-linejoin="round"/>
<path d="M20 9H14" stroke="black" stroke-width="2" stroke-linecap="round" stroke-linejoin="round"/>
<path d="M2 12C2 7.02944 5.95043 3 10.8235 3C15.6966 3 18 6 19 8" stroke="black" stroke-width="2" stroke-linecap="round" stroke-linejoin="round"/>
<path d="M2 15V21" stroke="black" stroke-width="2" stroke-linecap="round" stroke-linejoin="round"/>
<path d="M2 15H8" stroke="black" stroke-width="2" stroke-linecap="round" stroke-linejoin="round"/>
<path d="M11.1765 21C6.30337 21 4 18.3333 3 16.5556" stroke="black" stroke-width="2" stroke-linecap="round" stroke-linejoin="round"/>
<path d="M23.6283 16.565L23.0215 16.4481C22.4517 16.3388 22.1904 15.6732 22.5335 15.2053L22.9144 14.686C23.0482 14.5036 23.0289 14.2509 22.8689 14.0909L22.0462 13.2682C21.8908 13.1128 21.647 13.0896 21.4651 13.2128L20.9536 13.5593C20.4733 13.8844 19.8179 13.5984 19.7294 13.0251L19.6319 12.3889C19.5975 12.1652 19.4051 12 19.1788 12H18.0151C17.7953 12 17.6064 12.1561 17.565 12.3719L17.4147 13.1552C17.3073 13.7123 16.6654 13.9783 16.1954 13.6601L15.535 13.2128C15.353 13.0895 15.1092 13.1128 14.9539 13.2682L14.1311 14.0909C13.9711 14.2508 13.9518 14.5036 14.0856 14.686L14.4665 15.2053C14.8096 15.6732 14.5483 16.3387 13.9788 16.4481L13.3717 16.565C13.1559 16.6066 13 16.7954 13 17.0151V18.1783C13 18.4045 13.165 18.5969 13.3885 18.6313L14.0252 18.7294C14.5988 18.8176 14.8848 19.4731 14.5593 19.9535L14.2128 20.4651C14.0895 20.647 14.1128 20.8908 14.2682 21.0462L15.0909 21.8689C15.2508 22.0289 15.5036 22.0482 15.686 21.9144L16.2053 21.5335C16.6732 21.1904 17.3389 21.4517 17.4486 22.0215L17.565 22.628C17.6064 22.8439 17.7953 23 18.0151 23H19.1788C19.4051 23 19.5975 22.8349 19.6318 22.6112L19.7006 22.1634C19.7908 21.5772 20.4704 21.2956 20.9487 21.6463L21.3138 21.9143C21.4962 22.0482 21.7491 22.0289 21.9091 21.8689L22.7318 21.0462C22.8872 20.8908 22.9104 20.647 22.7872 20.465L22.4407 19.9535C22.1152 19.4731 22.4012 18.8176 22.9747 18.7294L23.6114 18.6313C23.835 18.5969 24 18.4045 24 18.1783V17.0151C24 16.7954 23.8441 16.6066 23.6283 16.565ZM23.0833 17.7852L22.8352 17.8234C21.5966 18.0139 20.9788 19.43 21.6818 20.4677L21.816 20.6657L21.5391 20.9425L21.4909 20.9072C20.4575 20.1495 18.9894 20.7579 18.7945 22.0241L18.7854 22.0833H18.3938L18.3488 21.8484C18.1118 20.6175 16.6738 20.0531 15.6631 20.7943L15.4609 20.9426L15.184 20.6657L15.3182 20.4676C16.0212 19.43 15.4034 18.0139 14.1646 17.8234L13.9166 17.7852V17.3935L14.1518 17.3482C15.3823 17.1121 15.9469 15.6739 15.2056 14.6632L15.0573 14.461L15.3343 14.184L15.6813 14.4191C16.6963 15.1064 18.0829 14.5319 18.3147 13.3283L18.3938 12.9167H18.7853L18.8233 13.1644C19.0145 14.403 20.4299 15.0206 21.4674 14.3183L21.6656 14.184L21.9426 14.4609L21.7943 14.6631C21.053 15.6738 21.6175 17.112 22.8483 17.3483L23.0832 17.3935V17.7852H23.0833Z" fill="black"/>
<path d="M18.5 14C16.5671 14 15 15.5671 15 17.5C15 19.4329 16.5671 21 18.5 21C20.4329 21 22 19.4329 22 17.5C22 15.5671 20.4329 14 18.5 14ZM18.5 19.6C17.3403 19.6 16.4 18.6597 16.4 17.5C16.4 16.3403 17.3403 15.4 18.5 15.4C19.6597 15.4 20.6 16.3403 20.6 17.5C20.6 18.6597 19.6597 19.6 18.5 19.6Z" fill="black"/>
<path d="M15.2368 14.3606C15.3258 14.4397 15.4553 14.5223 15.5218 14.6221C15.5452 14.6571 15.5974 14.6729 15.6229 14.7122C15.6447 14.7458 15.7301 14.762 15.7301 14.7905C15.7301 14.8384 15.6954 14.8489 15.6659 14.8821C15.6497 14.9003 15.6609 14.9445 15.6589 14.9667C15.6558 15.001 15.6327 15.0284 15.6315 15.0622C15.63 15.1009 15.6206 15.1645 15.6393 15.1992C15.6898 15.2931 15.7692 15.1186 15.7959 15.0794C15.8439 15.009 15.9323 14.9674 16.0058 14.9306C16.0452 14.9109 16.087 14.8973 16.1162 14.8617C16.1293 14.8456 16.1205 14.8349 16.1389 14.8257" stroke="black" stroke-linecap="round"/>
<path d="M18.5915 12.9369C18.5141 12.9369 18.4752 12.9172 18.4435 12.987C18.4192 13.0403 18.4278 13.1308 18.4677 13.1718C18.5784 13.2852 18.5276 13.4128 18.4278 13.5163C18.3551 13.5918 18.3096 13.645 18.3096 13.7512C18.3096 13.8735 18.3296 13.8761 18.4583 13.8883C18.5581 13.8977 18.6591 13.888 18.7575 13.9063C18.7915 13.9126 18.8565 13.904 18.8734 13.9376" stroke="black" stroke-linecap="round"/>
<path d="M20.5222 14.6704C20.6146 14.6704 20.692 14.669 20.7759 14.6313C20.8146 14.6139 20.8583 14.6141 20.8996 14.6141C20.9521 14.6141 20.9889 14.5902 21.0375 14.5859C21.1136 14.5792 21.2272 14.5636 21.2974 14.5295C21.3949 14.4821 21.5004 14.4095 21.6075 14.4019C21.7012 14.3952 21.6207 14.4347 21.5864 14.4943C21.5518 14.5543 21.5018 14.6002 21.4603 14.6556C21.4259 14.7015 21.4187 14.7365 21.4023 14.7902C21.3864 14.8426 21.368 14.8618 21.3405 14.903C21.3009 14.9624 21.3008 15.0315 21.3327 15.0988C21.3642 15.1654 21.422 15.2106 21.382 15.2906" stroke="black" stroke-linecap="round"/>
<path d="M21.8895 16.8411C21.8374 16.915 21.868 16.9683 21.8982 17.0454C21.9222 17.1068 21.9771 17.1807 22.0234 17.2271C22.079 17.2827 22.0761 17.3488 22.0728 17.4299C22.0713 17.4664 22.0616 17.5711 22.0234 17.5881C21.9975 17.5996 22.0023 17.6234 22.0023 17.6476C22.0023 17.6905 22.0007 17.7293 21.9913 17.7713C21.9769 17.8363 21.9816 17.8253 22.0195 17.7846C22.0851 17.7144 22.1716 17.6266 22.2717 17.6155C22.3174 17.6104 22.373 17.5973 22.411 17.5708C22.465 17.5334 22.5199 17.5519 22.5825 17.5317C22.694 17.4957 22.8319 17.5176 22.949 17.5176C22.9612 17.5176 22.9094 17.5176 22.8965 17.5176C22.8252 17.5176 22.7656 17.5569 22.7023 17.5849C22.5629 17.6467 22.4161 17.7276 22.292 17.8167C22.246 17.8497 22.2133 17.883 22.1746 17.9232C22.1326 17.9668 22.0754 17.9886 22.0313 18.0305C22.0186 18.0425 21.9743 18.0702 21.9866 18.0579C22.0409 18.0036 22.1487 17.9742 22.2137 17.9326C22.3093 17.8715 22.379 17.7799 22.4823 17.7282C22.5691 17.6848 22.6321 17.5957 22.7227 17.5599C22.7395 17.5532 22.8323 17.5528 22.8323 17.5254C22.8323 17.4956 22.676 17.6044 22.6647 17.6131C22.415 17.8074 22.115 17.9264 21.8895 18.1519" stroke="black" stroke-linecap="round"/>
<path d="M21.3256 19.3782C21.3256 19.6674 21.3055 19.9589 21.2841 20.2466C21.2797 20.3072 21.3108 20.3264 21.3264 20.3758C21.3464 20.439 21.3418 20.5214 21.3789 20.5762C21.4456 20.675 21.5206 20.6694 21.6122 20.7305C21.6608 20.7628 21.495 20.7235 21.4384 20.7093C21.3399 20.6847 21.2486 20.6545 21.1479 20.6389C20.9156 20.6027 20.7054 20.4916 20.4721 20.4916C20.4128 20.4916 20.3583 20.4831 20.2999 20.4775C20.1932 20.4674 20.5161 20.4746 20.6201 20.4486C20.6939 20.4301 20.7541 20.3843 20.8308 20.4032C20.967 20.4366 21.0821 20.5164 21.2129 20.5621C21.3381 20.6059 21.4618 20.626 21.5934 20.6326C21.625 20.6342 21.705 20.6326 21.6216 20.6326C21.4831 20.6326 21.3449 20.6341 21.2066 20.6255C20.9852 20.6119 20.7711 20.5903 20.5489 20.5903C20.4532 20.5903 20.3562 20.5945 20.2607 20.5872C20.2011 20.5826 20.1449 20.5621 20.0853 20.5621C19.7402 20.5621 20.7754 20.548 21.1205 20.548C21.2654 20.548 21.4322 20.5299 21.5668 20.5911C21.6136 20.6123 21.6529 20.6459 21.6992 20.6678C21.7264 20.6807 21.7856 20.7044 21.7344 20.7172" stroke="black" stroke-linecap="round"/>
<path d="M19.6343 20.7452C19.5559 20.7452 19.4863 20.7364 19.4166 20.7765C19.3554 20.8118 19.2891 20.8388 19.2256 20.8689C19.168 20.8962 19.094 20.9014 19.0415 20.9433C18.9418 21.0231 18.9225 21.0652 18.8795 21.179C18.8545 21.245 18.804 21.2831 18.7745 21.345C18.7446 21.4079 18.7041 21.4916 18.7041 21.5627C18.7041 21.6482 18.7345 21.7801 18.6258 21.7741C18.5414 21.7694 18.4754 21.5932 18.4363 21.5314C18.3745 21.4337 18.3441 21.3226 18.2757 21.2275C18.238 21.175 18.1916 21.1241 18.1403 21.085C18.1039 21.0573 18.0553 20.9988 18.0134 20.9848" stroke="black" stroke-linecap="round"/>
<path d="M15.6032 19.4487C15.6032 19.5413 15.6069 19.6015 15.6424 19.6852C15.6551 19.7153 15.6737 19.7548 15.6737 19.7878C15.6737 19.8761 15.6477 19.9691 15.6244 20.0532C15.6155 20.0851 15.6241 20.1195 15.6142 20.1503C15.6011 20.1911 15.5737 20.2255 15.5601 20.2662C15.5378 20.3333 15.5034 20.3951 15.4693 20.4565C15.4445 20.5011 15.4277 20.5722 15.4826 20.6014C15.5327 20.6279 15.5739 20.6455 15.6244 20.61C15.68 20.5708 15.7293 20.4714 15.7927 20.4526C15.9547 20.4044 16.0769 20.3085 16.25 20.3085C16.3761 20.3085 16.4818 20.2921 16.6031 20.2678C16.6444 20.2595 16.6886 20.2521 16.7308 20.2521" stroke="black" stroke-linecap="round"/>
<path d="M15.5893 18.0533C15.4356 17.9764 15.2427 17.9174 15.1242 17.7886C15.0667 17.7262 15.0368 17.6764 15.0004 17.6023C14.9587 17.5171 14.955 17.4347 14.955 17.3415C14.955 17.2695 15.0088 17.1875 14.8963 17.2233C14.7976 17.2547 14.7185 17.3694 14.6136 17.3767C14.5311 17.3825 14.393 17.4475 14.3239 17.4895C14.26 17.5283 14.208 17.5655 14.208 17.6445C14.208 17.7355 14.4954 17.7998 14.5745 17.8481C14.6183 17.8749 14.6522 17.9024 14.6935 17.9327C14.7416 17.9679 14.8147 17.976 14.8705 17.9969" stroke="black" stroke-linecap="round"/>
</svg>
