<svg width="16" height="16" viewBox="0 0 16 16" fill="none" xmlns="http://www.w3.org/2000/svg">
<path fill-rule="evenodd" clip-rule="evenodd" d="M1 1.5C1 1.22386 1.22386 1 1.5 1H15.5C15.7761 1 16 1.22386 16 1.5V15.5C16 15.7761 15.7761 16 15.5 16H1.5C1.22386 16 1 15.7761 1 15.5V1.5ZM2 2V15H15V2H2Z" fill="black"/>
<path fill-rule="evenodd" clip-rule="evenodd" d="M3 4C3 3.44772 3.44772 3 4 3H5C5.55228 3 6 3.44772 6 4V5C6 5.55228 5.55228 6 5 6H4C3.44772 6 3 5.55228 3 5V4ZM5 4H4V5H5V4Z" fill="black"/>
<path fill-rule="evenodd" clip-rule="evenodd" d="M3 12C3 11.4477 3.44772 11 4 11H5C5.55228 11 6 11.4477 6 12V13C6 13.5523 5.55228 14 5 14H4C3.44772 14 3 13.5523 3 13V12ZM5 12H4V13H5V12Z" fill="black"/>
<path fill-rule="evenodd" clip-rule="evenodd" d="M7 4C7 3.44772 7.44772 3 8 3H9C9.55228 3 10 3.44772 10 4V5C10 5.55228 9.55228 6 9 6H8C7.44772 6 7 5.55228 7 5V4ZM9 4H8V5H9V4Z" fill="black"/>
<path fill-rule="evenodd" clip-rule="evenodd" d="M11 4C11 3.44772 11.4477 3 12 3H13C13.5523 3 14 3.44772 14 4V5C14 5.55228 13.5523 6 13 6H12C11.4477 6 11 5.55228 11 5V4ZM13 4H12V5H13V4Z" fill="black"/>
<path fill-rule="evenodd" clip-rule="evenodd" d="M3 8C3 7.44772 3.44772 7 4 7H5C5.55228 7 6 7.44772 6 8V9C6 9.55228 5.55228 10 5 10H4C3.44772 10 3 9.55228 3 9V8ZM5 8H4V9H5V8Z" fill="black"/>
<path fill-rule="evenodd" clip-rule="evenodd" d="M7 8C7 7.44772 7.44772 7 8 7H9C9.55228 7 10 7.44772 10 8V9C10 9.55228 9.55228 10 9 10H8C7.44772 10 7 9.55228 7 9V8ZM9 8H8V9H9V8Z" fill="black"/>
<path fill-rule="evenodd" clip-rule="evenodd" d="M11 8C11 7.44772 11.4477 7 12 7H13C13.5523 7 14 7.44772 14 8V9C14 9.55228 13.5523 10 13 10H12C11.4477 10 11 9.55228 11 9V8ZM13 8H12V9H13V8Z" fill="black"/>
<path fill-rule="evenodd" clip-rule="evenodd" d="M11 12C11 11.4477 11.4477 11 12 11H13C13.5523 11 14 11.4477 14 12V13C14 13.5523 13.5523 14 13 14H12C11.4477 14 11 13.5523 11 13V12ZM13 12H12V13H13V12Z" fill="black"/>
<path fill-rule="evenodd" clip-rule="evenodd" d="M7 11.5C7 11.2239 7.22386 11 7.5 11H9.5C9.77614 11 10 11.2239 10 11.5V15.5C10 15.7761 9.77614 16 9.5 16C9.22386 16 9 15.7761 9 15.5V12H8V15.5C8 15.7761 7.77614 16 7.5 16C7.22386 16 7 15.7761 7 15.5V11.5Z" fill="black"/>
</svg>
