<svg width="24" height="24" viewBox="0 0 24 24" fill="none" xmlns="http://www.w3.org/2000/svg">
<path fill-rule="evenodd" clip-rule="evenodd" d="M9.38708 2C9.38708 0.895416 10.2825 0 11.3871 0H21C22.1046 0 23 0.895447 23 2V22V24H21H3H1V22V12.5C1 11.3954 1.89545 10.5 3 10.5H9.38708V2ZM3 22H5V16.5C5 15.3954 5.89545 14.5 7 14.5H9C10.1046 14.5 11 15.3954 11 16.5V22H21V2H11.3871V10.5C11.3871 11.6046 10.4916 12.5 9.38708 12.5H3V22ZM9 22V16.5H7V22H9ZM13 5H15V7H13V5ZM15 9H13V11H15V9ZM13 13H15V15H13V13ZM15 17H13V19H15V17ZM17 5H19V7H17V5ZM19 9H17V11H19V9ZM17 13H19V15H17V13ZM19 17H17V19H19V17Z" fill="black"/>
</svg>
