<svg width="24" height="24" viewBox="0 0 24 24" fill="none" xmlns="http://www.w3.org/2000/svg">
<rect width="24" height="24" fill="none"/>
<path fill-rule="evenodd" clip-rule="evenodd" d="M2 1C1.44772 1 1 1.44772 1 2V22C1 22.5523 1.44772 23 2 23H22C22.5523 23 23 22.5523 23 22V2C23 1.44772 22.5523 1 22 1H2ZM3 21V3H8V8.10557C8 8.45215 8.17945 8.77402 8.47427 8.95623C8.76909 9.13843 9.13723 9.155 9.44721 9L12 7.72361L14.5528 9C14.8628 9.155 15.2309 9.13843 15.5257 8.95623C15.8205 8.77402 16 8.45215 16 8.10557V3H21V21H3ZM10.8293 14C10.4175 12.8348 9.30622 12 8 12C6.34315 12 5 13.3431 5 15C5 16.6569 6.34315 18 8 18C9.30622 18 10.4175 17.1652 10.8293 16H14V17C14 17.5523 14.4477 18 15 18C15.5523 18 16 17.5523 16 17V16H17V17C17 17.5523 17.4477 18 18 18C18.5523 18 19 17.5523 19 17V15C19 14.4477 18.5523 14 18 14H15H10.8293ZM9 15C9 14.4477 8.55228 14 8 14C7.44772 14 7 14.4477 7 15C7 15.5523 7.44772 16 8 16C8.55228 16 9 15.5523 9 15ZM10 3.10557V6.48754L11.5528 5.71115C11.8343 5.57038 12.1657 5.57038 12.4472 5.71115L14 6.48754V3.10557H10Z" fill="black"/>
</svg>
