<svg width="24" height="24" viewBox="0 0 24 24" fill="none" xmlns="http://www.w3.org/2000/svg">
<rect width="24" height="24" fill="none"/>
<path fill-rule="evenodd" clip-rule="evenodd" d="M8.03014 5C8.14577 4.07039 8.58498 3.38765 9.1872 2.90587C9.91806 2.32118 10.9364 2 12 2C13.0636 2 14.0819 2.32117 14.8128 2.90587C15.415 3.38765 15.8542 4.07038 15.9699 5H8.03014ZM6 7V8.00003C6 8.55231 6.44772 9.00003 7 9.00003C7.55228 9.00003 8 8.55231 8 8.00003V7H16V8.00003C16 8.55231 16.4477 9.00003 17 9.00003C17.5523 9.00003 18 8.55231 18 8.00003V7H19V21H5V7H6ZM6.02007 5C6.14803 3.42872 6.87823 2.1918 7.9378 1.34414C9.08194 0.428828 10.5636 0 12 0C13.4364 0 14.9181 0.428824 16.0622 1.34413C17.1218 2.1918 17.852 3.42871 17.9799 5H20C20.5523 5 21 5.44772 21 6V22C21 22.5523 20.5523 23 20 23H4C3.44772 23 3 22.5523 3 22V6C3 5.44772 3.44772 5 4 5H6.02007ZM7.47 10.652L11.47 8.152C11.7943 7.94933 12.2057 7.94933 12.53 8.152L16.53 10.652C16.8224 10.8347 17 11.1552 17 11.5V16.5C17 16.8448 16.8224 17.1653 16.53 17.348L12.53 19.848C12.2057 20.0507 11.7943 20.0507 11.47 19.848L7.47 17.348C7.17762 17.1653 7 16.8448 7 16.5V11.5C7 11.1552 7.17762 10.8347 7.47 10.652ZM9 13.3042V15.9458L11 17.1958V14.5542L9 13.3042ZM13 14.5542V17.1958L15 15.9458V13.3042L13 14.5542ZM14.1132 11.5L12 12.8208L9.8868 11.5L12 10.1792L14.1132 11.5Z" fill="black"/>
</svg>
