<svg width="24" height="24" viewBox="0 0 24 24" fill="none" xmlns="http://www.w3.org/2000/svg">
<rect width="24" height="24" fill="none"/>
<path fill-rule="evenodd" clip-rule="evenodd" d="M11.5205 7.47002C11.4993 7.5473 11.4902 7.65689 11.4902 8.00002C11.4902 8.55767 11.0469 9.00974 10.5 9.00974C9.95314 9.00974 9.50982 8.55767 9.50982 8.00002C9.50982 7.99169 9.50981 7.98328 9.50981 7.9748C9.50972 7.68452 9.5096 7.30422 9.6133 6.92612C9.73278 6.49046 9.96367 6.1288 10.2998 5.78604C12.2509 3.79648 15.4483 2.98977 17.7002 5.28604C17.9177 5.50789 18.2041 5.79181 18.523 6.10802C18.5528 6.13764 18.583 6.16754 18.6134 6.19771C18.9654 6.54677 19.348 6.92687 19.7002 7.28604C20.0869 7.68036 20.0869 8.31968 19.7002 8.714C19.3135 9.10832 18.6865 9.10832 18.2998 8.714C17.9586 8.36606 17.5853 7.99509 17.2327 7.6454C17.2016 7.61451 17.1705 7.58375 17.1397 7.55318C16.8245 7.24064 16.5278 6.94648 16.2998 6.714C15.105 5.49554 13.1958 5.68885 11.7001 7.214C11.5482 7.3689 11.529 7.43906 11.5205 7.46989L11.5205 7.47002ZM10.5 9.9903C11.0469 9.9903 11.4902 10.4424 11.4902 11C11.4902 11.0885 11.4894 11.1541 11.4888 11.2097C11.488 11.2824 11.4873 11.3381 11.4888 11.4057C11.4909 11.5001 11.4975 11.5398 11.502 11.5593C11.502 11.5593 11.502 11.5593 11.502 11.5593C11.5023 11.562 11.5093 11.6329 11.7045 11.832C13.1852 13.3418 15.0929 13.5168 16.2998 12.286C16.5751 12.0053 16.8883 11.695 17.2101 11.3761L17.263 11.3237C17.6057 10.9841 17.9588 10.6338 18.2998 10.286C18.6865 9.89172 19.3135 9.89172 19.7002 10.286C20.0869 10.6804 20.0869 11.3197 19.7002 11.714C19.3478 12.0734 18.985 12.4332 18.6432 12.772L18.5943 12.8204C18.2686 13.1431 17.965 13.444 17.7002 13.714C15.4604 15.998 12.2703 15.2648 10.3042 13.2599C9.93436 12.8828 9.68604 12.4979 9.57605 12.0293C9.4996 11.7036 9.505 11.3497 9.50856 11.1164C9.50922 11.0731 9.50982 11.034 9.50982 11C9.50982 10.4424 9.95314 9.9903 10.5 9.9903Z" fill="black"/>
<path fill-rule="evenodd" clip-rule="evenodd" d="M9.50981 7.99998C9.50981 7.44233 9.95313 6.99026 10.5 6.99026L15 6.99026C15.2593 6.99026 15.5082 7.09395 15.6933 7.27906L17.1933 8.77906C17.3832 8.96895 17.4902 9.22876 17.4902 9.49997C17.4902 9.77119 17.3832 10.031 17.1933 10.2209L15.6933 11.7209C15.5082 11.906 15.2593 12.0097 15 12.0097L10.5 12.0097C9.9531 12.0097 9.50978 11.5576 9.50978 11C9.50978 10.4423 9.9531 9.99026 10.5 9.99026L14.5955 9.99026L15.0858 9.49997L14.5955 9.00969L10.5 9.0097C9.95314 9.0097 9.50981 8.55763 9.50981 7.99998Z" fill="black"/>
<path fill-rule="evenodd" clip-rule="evenodd" d="M21 9H19V7H21V9Z" fill="black"/>
<path fill-rule="evenodd" clip-rule="evenodd" d="M21 12H19V10H21V12Z" fill="black"/>
<path fill-rule="evenodd" clip-rule="evenodd" d="M14 16C14.5523 16 15 16.4477 15 17V19C15 19.5523 14.5523 20 14 20C13.4477 20 13 19.5523 13 19V17C13 16.4477 13.4477 16 14 16Z" fill="black"/>
<path fill-rule="evenodd" clip-rule="evenodd" d="M8 17C8 16.4477 8.44772 16 9 16H17C17.5523 16 18 16.4477 18 17V19C18 19.5523 17.5523 20 17 20C16.4477 20 16 19.5523 16 19V18H9C8.44772 18 8 17.5523 8 17Z" fill="black"/>
<path fill-rule="evenodd" clip-rule="evenodd" d="M11.5205 7.47002C11.4993 7.5473 11.4902 7.65689 11.4902 8.00002C11.4902 8.55767 11.0469 9.00974 10.5 9.00974C9.95314 9.00974 9.50982 8.55767 9.50982 8.00002C9.50982 7.99169 9.50981 7.98328 9.50981 7.9748C9.50972 7.68452 9.5096 7.30422 9.6133 6.92612C9.73278 6.49046 9.96367 6.1288 10.2998 5.78604C12.2509 3.79648 15.4483 2.98977 17.7002 5.28604C17.9177 5.50789 18.2041 5.79181 18.523 6.10802C18.5528 6.13764 18.583 6.16754 18.6134 6.19771C18.9654 6.54677 19.348 6.92687 19.7002 7.28604C20.0869 7.68036 20.0869 8.31968 19.7002 8.714C19.3135 9.10832 18.6865 9.10832 18.2998 8.714C17.9586 8.36606 17.5853 7.99509 17.2327 7.6454C17.2016 7.61451 17.1705 7.58375 17.1397 7.55318C16.8245 7.24064 16.5278 6.94648 16.2998 6.714C15.105 5.49554 13.1958 5.68885 11.7001 7.214C11.5482 7.3689 11.529 7.43906 11.5205 7.46989L11.5205 7.47002ZM10.5 9.9903C11.0469 9.9903 11.4902 10.4424 11.4902 11C11.4902 11.0885 11.4894 11.1541 11.4888 11.2097C11.488 11.2824 11.4873 11.3381 11.4888 11.4057C11.4909 11.5001 11.4975 11.5398 11.502 11.5593C11.502 11.5593 11.502 11.5593 11.502 11.5593C11.5023 11.562 11.5093 11.6329 11.7045 11.832C13.1852 13.3418 15.0929 13.5168 16.2998 12.286C16.5751 12.0053 16.8883 11.695 17.2101 11.3761L17.263 11.3237C17.6057 10.9841 17.9588 10.6338 18.2998 10.286C18.6865 9.89172 19.3135 9.89172 19.7002 10.286C20.0869 10.6804 20.0869 11.3197 19.7002 11.714C19.3478 12.0734 18.985 12.4332 18.6432 12.772L18.5943 12.8204C18.2686 13.1431 17.965 13.444 17.7002 13.714C15.4604 15.998 12.2703 15.2648 10.3042 13.2599C9.93436 12.8828 9.68604 12.4979 9.57605 12.0293C9.4996 11.7036 9.505 11.3497 9.50856 11.1164C9.50922 11.0731 9.50982 11.034 9.50982 11C9.50982 10.4424 9.95314 9.9903 10.5 9.9903Z" fill="black"/>
<path fill-rule="evenodd" clip-rule="evenodd" d="M9.50981 7.99998C9.50981 7.44233 9.95313 6.99026 10.5 6.99026L15 6.99026C15.2593 6.99026 15.5082 7.09395 15.6933 7.27906L17.1933 8.77906C17.3832 8.96895 17.4902 9.22876 17.4902 9.49997C17.4902 9.77119 17.3832 10.031 17.1933 10.2209L15.6933 11.7209C15.5082 11.906 15.2593 12.0097 15 12.0097L10.5 12.0097C9.9531 12.0097 9.50978 11.5576 9.50978 11C9.50978 10.4423 9.9531 9.99026 10.5 9.99026L14.5955 9.99026L15.0858 9.49997L14.5955 9.00969L10.5 9.0097C9.95314 9.0097 9.50981 8.55763 9.50981 7.99998Z" fill="black"/>
<path fill-rule="evenodd" clip-rule="evenodd" d="M1 2C1 1.44772 1.44772 1 2 1H22C22.5523 1 23 1.44772 23 2V22C23 22.5523 22.5523 23 22 23H2C1.44772 23 1 22.5523 1 22V2ZM3 3V21H21V3H3Z" fill="black"/>
<path fill-rule="evenodd" clip-rule="evenodd" d="M7 18C7.55228 18 8 17.5523 8 17C8 16.4477 7.55228 16 7 16C6.44772 16 6 16.4477 6 17C6 17.5523 6.44772 18 7 18ZM7 20C8.65685 20 10 18.6569 10 17C10 15.3431 8.65685 14 7 14C5.34315 14 4 15.3431 4 17C4 18.6569 5.34315 20 7 20Z" fill="black"/>
<path fill-rule="evenodd" clip-rule="evenodd" d="M21 9H19V7H21V9Z" fill="black"/>
<path fill-rule="evenodd" clip-rule="evenodd" d="M21 12H19V10H21V12Z" fill="black"/>
</svg>
