<svg width="16" height="16" viewBox="0 0 16 16" fill="none" xmlns="http://www.w3.org/2000/svg">
<path fill-rule="evenodd" clip-rule="evenodd" d="M2.5 0C2.22386 0 2 0.223858 2 0.5V2.90909C2 2.94014 2.00283 2.97052 2.00824 3H0.5C0.223858 3 0 3.22386 0 3.5V11.5C0 11.7761 0.223858 12 0.5 12H4.18421C4.19181 12 4.19937 11.9998 4.20689 11.9995C4.85965 14.3083 6.98226 16 9.5 16C12.5376 16 15 13.5376 15 10.5C15 9.79442 14.8671 9.11986 14.6251 8.5H15.5C15.7761 8.5 16 8.27614 16 8V0.5C16 0.223858 15.7761 0 15.5 0H2.5ZM14.1105 7.5H15V1H3V2.90909C3 2.94014 2.99717 2.97052 2.99176 3H12.5C12.7761 3 13 3.22386 13 3.5V6.25716C13.4299 6.61223 13.805 7.03139 14.1105 7.5ZM12 5.59971V4H1V11H4.02242C4.00758 10.8353 4 10.6685 4 10.5C4 7.46243 6.46243 5 9.5 5C10.4002 5 11.2499 5.21628 12 5.59971ZM7.96 8.17645C7.96 7.90031 8.18386 7.67645 8.46 7.67645H10.06C10.6443 7.67645 11.1317 7.85735 11.4784 8.17597C11.8231 8.49286 12 8.92128 12 9.35292C12 9.78456 11.8231 10.213 11.4784 10.5299C11.1317 10.8485 10.6443 11.0294 10.06 11.0294H8.96V11.5H10.06C10.3361 11.5 10.56 11.7238 10.56 12C10.56 12.2761 10.3361 12.5 10.06 12.5H8.96V13.1765C8.96 13.4526 8.73614 13.6765 8.46 13.6765C8.18386 13.6765 7.96 13.4526 7.96 13.1765V12.5H7.5C7.22386 12.5 7 12.2761 7 12C7 11.7238 7.22386 11.5 7.5 11.5H7.96V11.0294H7.5C7.22386 11.0294 7 10.8055 7 10.5294C7 10.2533 7.22386 10.0294 7.5 10.0294H7.96V8.17645ZM8.96 10.0294H10.06C10.4357 10.0294 10.6683 9.91617 10.8016 9.79362C10.9369 9.66933 11 9.50952 11 9.35292C11 9.19633 10.9369 9.03652 10.8016 8.91223C10.6683 8.78968 10.4357 8.67645 10.06 8.67645H8.96V10.0294ZM14 10.5C14 12.9853 11.9853 15 9.5 15C7.01472 15 5 12.9853 5 10.5C5 8.01472 7.01472 6 9.5 6C11.9853 6 14 8.01472 14 10.5Z" fill="black"/>
</svg>
