<svg width="24" height="24" viewBox="0 0 24 24" fill="none" xmlns="http://www.w3.org/2000/svg">
<path fill-rule="evenodd" clip-rule="evenodd" d="M5.55279 0.105573C5.80828 -0.0221678 6.10619 -0.0345595 6.3714 0.0715237L8.50001 0.922967L10.6286 0.0715237C10.8938 -0.0345595 11.1917 -0.0221678 11.4472 0.105573L13.4472 1.10557C13.7124 1.23818 13.9051 1.48166 13.9733 1.77025C14.0414 2.05884 13.9779 2.36278 13.8 2.6L11.7119 5.38409C13.4717 6.29932 15.0157 8.21499 15.9353 10.6462C16.1307 11.1628 15.8703 11.7399 15.3538 11.9353C14.8372 12.1307 14.2601 11.8703 14.0647 11.3538C13.1755 9.0029 11.7274 7.50847 10.4425 7H10.0102C10.0029 7.00008 9.9956 7.00008 9.98832 7H7.0117C7.00441 7.00008 6.99713 7.00008 6.98986 7H6.43106C6.02447 7.17386 5.5549 7.52261 5.05916 8.0657C4.51462 8.66225 3.9875 9.43987 3.52612 10.3229C2.59551 12.1041 2 14.1817 2 15.8421C2 18.3254 2.70872 19.7937 3.73514 20.668C4.79289 21.5689 6.37327 22 8.4337 22C10.2866 22 11.4447 21.8231 12.4522 21.1634C12.9142 20.8609 13.5341 20.9902 13.8366 21.4522C14.1392 21.9142 14.0098 22.5341 13.5478 22.8366C12.0273 23.8323 10.3656 24 8.4337 24C6.14714 24 4.01067 23.5298 2.43831 22.1905C0.834634 20.8246 0 18.714 0 15.8421C0 13.7779 0.716336 11.3818 1.75348 9.39677C2.27598 8.39672 2.89672 7.4681 3.58202 6.71734C4.08301 6.16851 4.64683 5.68374 5.26098 5.34796L3.20001 2.6C3.02209 2.36278 2.95863 2.05884 3.02676 1.77025C3.09489 1.48166 3.28758 1.23818 3.55279 1.10557L5.55279 0.105573ZM7.50001 5H9.50001L11.4811 2.35857L10.9545 2.09526L8.8714 2.92848C8.63299 3.02384 8.36703 3.02384 8.12862 2.92848L6.04556 2.09526L5.51894 2.35857L7.50001 5ZM7 11.5H9C9.63568 11.5 10.1492 11.7434 10.4987 12.1366C10.8401 12.5206 11 13.0185 11 13.5C11 13.9815 10.8401 14.4794 10.4987 14.8634C10.1492 15.2566 9.63568 15.5 9 15.5H8V16.5H10.5V17.5H8V18.5H7V17.5H6V16.5H7V15.5H6V14.5H7V11.5ZM8 14.5H9C9.36432 14.5 9.60082 14.3684 9.7513 14.1991C9.90995 14.0206 10 13.7685 10 13.5C10 13.2315 9.90995 12.9794 9.7513 12.8009C9.60082 12.6316 9.36432 12.5 9 12.5H8V14.5Z" fill="black"/>
<path fill-rule="evenodd" clip-rule="evenodd" d="M18.7929 10.2929C19.1834 9.90237 19.8166 9.90237 20.2071 10.2929L22.2071 12.2929C22.5976 12.6834 22.5976 13.3166 22.2071 13.7071L16.2071 19.7071C16.0675 19.8467 15.8897 19.9419 15.6961 19.9806L13.1961 20.4806C12.8683 20.5462 12.5293 20.4435 12.2929 20.2071C12.0565 19.9707 11.9539 19.6317 12.0194 19.3039L12.5194 16.8039C12.5582 16.6103 12.6533 16.4325 12.7929 16.2929L18.7929 10.2929ZM14.4212 17.493L14.2748 18.2252L15.007 18.0788L20.0858 13L19.5 12.4142L14.4212 17.493Z" fill="black"/>
</svg>
