<svg width="20" height="20" viewBox="0 0 20 20" fill="none" xmlns="http://www.w3.org/2000/svg">
<rect width="20" height="20" fill="none"/>
<path fill-rule="evenodd" clip-rule="evenodd" d="M15.0768 16.183C16.8617 14.7158 18 12.4908 18 10C18 5.58173 14.4183 2 10 2C5.58167 2 2 5.58173 2 10C2 12.4996 3.14636 14.7314 4.94202 16.1985C5.49194 15.4659 6.18701 14.8303 6.97632 14.3601C7.87415 13.8253 8.90222 13.5 9.98145 13.5C11.1212 13.5 12.1909 13.813 13.1125 14.3596C13.8868 14.8187 14.5563 15.4423 15.0768 16.183ZM14.2661 16.7688C13.8246 16.1371 13.2568 15.6077 12.6025 15.2197C11.8297 14.7615 10.9354 14.5 9.98145 14.5C9.10547 14.5 8.2522 14.764 7.48804 15.2192C6.82031 15.6169 6.22681 16.1573 5.75464 16.7819C6.98499 17.5537 8.44043 18 10 18C11.5684 18 13.0314 17.5486 14.2661 16.7688ZM10 19C14.9706 19 19 14.9706 19 10C19 5.02942 14.9706 1 10 1C5.02942 1 1 5.02942 1 10C1 14.9706 5.02942 19 10 19ZM10 12C11.5494 12 13 10.547 13 8.5C13 6.453 11.5494 5 10 5C8.45056 5 7 6.453 7 8.5C7 10.547 8.45056 12 10 12ZM10 13C12.2091 13 14 10.9853 14 8.5C14 6.01471 12.2091 4 10 4C7.79089 4 6 6.01471 6 8.5C6 10.9853 7.79089 13 10 13Z" fill="black"/>
</svg>
