<svg width="16" height="16" viewBox="0 0 16 16" fill="none" xmlns="http://www.w3.org/2000/svg">
<rect width="16" height="16" fill="none"/>
<path fill-rule="evenodd" clip-rule="evenodd" d="M12.3202 13.5082C13.9519 12.2266 15 10.2357 15 8C15 4.13403 11.866 1 8 1C4.13403 1 1 4.13403 1 8C1 10.2396 2.05176 12.2336 3.68835 13.5149C4.14807 12.6699 4.76477 11.9266 5.48718 11.3886C6.21936 10.8434 7.0741 10.5 7.98523 10.5C8.94141 10.5 9.82959 10.8289 10.5837 11.388C11.2953 11.9153 11.8882 12.6472 12.3202 13.5082ZM11.4833 14.0731C11.1078 13.2822 10.5891 12.6367 9.98828 12.1913C9.38696 11.7456 8.70398 11.5 7.98523 11.5C7.33203 11.5 6.68176 11.7458 6.08435 12.1907C5.47046 12.6479 4.92688 13.3056 4.52222 14.0763C5.54675 14.664 6.73413 15 8 15C9.26807 15 10.4574 14.6628 11.4833 14.0731ZM8 16C12.4183 16 16 12.4183 16 8C16 3.58173 12.4183 0 8 0C3.58167 0 0 3.58173 0 8C0 12.4183 3.58167 16 8 16ZM8 9C8.96545 9 10 8.03088 10 6.5C10 4.96912 8.96545 4 8 4C7.03455 4 6 4.96912 6 6.5C6 8.03088 7.03455 9 8 9ZM8 10C9.65686 10 11 8.43298 11 6.5C11 4.56702 9.65686 3 8 3C6.34314 3 5 4.56702 5 6.5C5 8.43298 6.34314 10 8 10Z" fill="black"/>
</svg>
