<svg width="20" height="20" viewBox="0 0 20 20" fill="none" xmlns="http://www.w3.org/2000/svg">
<path d="M0 0H20V20H0V0Z" fill="none"/>
<path d="M15.2144 12.6395C14.8359 12.2789 14.3627 12.0985 13.8895 12.0985C13.4163 12.0985 12.9431 12.2789 12.5645 12.6395L11.4289 13.7215C11.3342 13.6314 11.2396 13.6314 11.145 13.5412C11.0503 13.451 10.861 13.451 10.7664 13.3609C9.63073 12.6395 8.58969 11.8281 7.6433 10.6559C7.17011 10.1149 6.88619 9.66408 6.60227 9.12308C6.98083 8.85259 7.26475 8.58209 7.54866 8.31159C7.6433 8.22143 7.73794 8.13126 7.83258 8.0411C8.58969 7.31977 8.58969 6.32795 7.83258 5.51646L6.79155 4.52464C6.69691 4.43447 6.60227 4.34431 6.41299 4.16397C6.22372 3.98364 5.9398 3.71315 5.75052 3.53282C5.37196 3.17215 4.89877 2.99182 4.42557 2.99182C3.95238 2.99182 3.47918 3.17215 3.10062 3.53282L1.87032 4.79513C1.39712 5.24596 1.1132 5.78696 1.01856 6.41812C0.923925 7.5001 1.20784 8.49192 1.49176 9.12308C2.05959 10.7461 3.00599 12.1887 4.42557 13.7215C6.12908 15.615 8.1165 17.1478 10.3878 18.1396C11.2396 18.5003 12.4699 19.0413 13.7002 19.0413C13.7948 19.0413 13.8895 19.0413 13.9841 19.0413C14.8359 19.0413 15.593 18.7708 16.1608 18.1396C16.3501 17.8691 16.5394 17.6888 16.8233 17.5085C17.0126 17.3282 17.1072 17.238 17.2965 17.0577C17.6751 16.697 17.8643 16.2462 17.8643 15.7953C17.8643 15.3445 17.6751 14.8937 17.2965 14.533L15.2144 12.6395ZM16.634 16.4265C16.5394 16.4265 16.5394 16.4265 16.634 16.4265C16.4447 16.6068 16.3501 16.697 16.1608 16.8773C15.8769 17.0577 15.6876 17.3282 15.4037 17.5987C15.0252 17.9593 14.552 18.1396 13.9841 18.1396C13.8895 18.1396 13.8895 18.1396 13.7948 18.1396C12.6592 18.0495 11.6181 17.6888 10.861 17.3282C8.68433 16.3363 6.79155 14.8937 5.27732 13.1805C3.95238 11.7379 3.10062 10.2952 2.53279 8.85259C2.15423 7.86077 2.05959 7.22961 2.05959 6.50828C2.05959 6.05745 2.24887 5.69679 2.62743 5.42629L3.85774 4.25414C4.04702 4.07381 4.23629 3.98364 4.42557 3.98364C4.70949 3.98364 4.89877 4.16397 4.99341 4.25414C5.27732 4.43447 5.4666 4.6148 5.75052 4.8853C5.84516 4.97546 6.03444 5.1558 6.12908 5.24596L7.17011 6.23778C7.54866 6.59845 7.54866 6.95911 7.17011 7.31977C6.98083 7.40994 6.88619 7.59027 6.79155 7.68043C6.50763 7.95093 6.12908 8.31159 5.84516 8.58209C5.56124 8.85259 5.56124 9.21325 5.65588 9.39358C5.9398 10.0247 6.31836 10.5657 6.88619 11.2871C7.92722 12.5494 9.06289 13.451 10.2932 14.1724C10.4825 14.2625 10.5771 14.3527 10.7664 14.4429C10.861 14.533 11.0503 14.533 11.145 14.6232C11.2396 14.7134 11.4289 14.7134 11.5235 14.7134C11.8074 14.7134 11.9967 14.533 12.0913 14.4429L13.4163 13.1805C13.5109 13.0904 13.7948 12.91 13.9841 12.91C14.1734 12.91 14.4573 13.0904 14.552 13.1805L16.634 15.1642C17.0126 15.615 17.0126 16.0658 16.634 16.4265Z" fill="black"/>
<path d="M10.7662 6.05745C11.8072 6.23778 12.659 6.68861 13.4161 7.31977C14.1732 8.04109 14.6464 8.85258 14.7411 9.8444C14.7411 10.1149 15.025 10.2051 15.2143 10.2051H15.3089C15.5928 10.2051 15.7821 9.93457 15.6874 9.66407C15.4982 8.49192 14.9303 7.5001 14.0786 6.68861C13.2268 5.87712 12.0912 5.33612 10.9555 5.15579C10.6716 5.15579 10.3877 5.24596 10.3877 5.51645C10.293 5.78695 10.4823 6.05745 10.7662 6.05745Z" fill="black"/>
<path d="M19.0001 9.57391C18.6215 7.68044 17.7698 5.96729 16.2555 4.6148C14.8359 3.26232 13.0378 2.36066 11.0504 2C10.7665 2 10.4825 2.18033 10.4825 2.36066C10.4825 2.63116 10.5772 2.90166 10.8611 2.90166C12.6592 3.17215 14.2681 3.98364 15.4984 5.24596C16.8234 6.50828 17.5805 8.0411 17.959 9.66408C17.959 9.93458 18.243 10.0247 18.4322 10.0247H18.5269C18.8108 10.1149 19.0001 9.84441 19.0001 9.57391Z" fill="black"/>
</svg>
