<svg width="24" height="24" viewBox="0 0 24 24" fill="none" xmlns="http://www.w3.org/2000/svg">
<path fill-rule="evenodd" clip-rule="evenodd" d="M2 3H4V3.5V6.5V7H2V3ZM5 7H17.5C17.7761 7 18 7.22386 18 7.5V9.5C18 9.77614 17.7761 10 17.5 10H6.5C4.567 10 3 11.567 3 13.5V17.5C3 19.433 4.567 21 6.5 21H19C19 21.5523 19.4477 22 20 22H22C22.5523 22 23 21.5523 23 21V17C23 16.4477 22.5523 16 22 16H20C19.4477 16 19 16.4477 19 17H7.5C7.22386 17 7 16.7761 7 16.5V14.5C7 14.2239 7.22386 14 7.5 14H18.5C20.433 14 22 12.433 22 10.5V6.5C22 4.567 20.433 3 18.5 3H5C5 2.44772 4.55228 2 4 2H2C1.44772 2 1 2.44772 1 3V7C1 7.55228 1.44772 8 2 8H4C4.55228 8 5 7.55228 5 7ZM19 20H6.5C5.11929 20 4 18.8807 4 17.5V13.5C4 12.1193 5.11929 11 6.5 11H17.5C18.3284 11 19 10.3284 19 9.5V7.5C19 6.67157 18.3284 6 17.5 6H5V4H18.5C19.8807 4 21 5.11929 21 6.5V10.5C21 11.8807 19.8807 13 18.5 13H7.5C6.67157 13 6 13.6716 6 14.5V16.5C6 17.3284 6.67157 18 7.5 18H19V20ZM20 20.5V21H22V17H20V17.5V20.5Z" fill="black"/>
</svg>
