<svg width="16" height="16" viewBox="0 0 16 16" fill="none" xmlns="http://www.w3.org/2000/svg">
<path fill-rule="evenodd" clip-rule="evenodd" d="M16 0.5C16 0.223858 15.7761 0 15.5 0C15.2239 0 15 0.223858 15 0.5V1H13.5C12.1193 1 11 2.11929 11 3.5V10.5C11 10.7761 10.7761 11 10.5 11H9.5C9.22386 11 9 10.7761 9 10.5V3.5C9 2.11929 7.88071 1 6.5 1H3.5C2.11929 1 1 2.11929 1 3.5V15H0.5C0.223858 15 0 15.2239 0 15.5C0 15.7761 0.223858 16 0.5 16H1.5H3.5H4.5C4.77614 16 5 15.7761 5 15.5C5 15.2239 4.77614 15 4.5 15H4V4.5C4 4.22386 4.22386 4 4.5 4H5.5C5.77614 4 6 4.22386 6 4.5V11.5C6 12.8807 7.11929 14 8.5 14H11.5C12.8807 14 14 12.8807 14 11.5V4.5C14 4.22386 14.2239 4 14.5 4H15V4.5C15 4.77614 15.2239 5 15.5 5C15.7761 5 16 4.77614 16 4.5V3.5V1.5V0.5ZM15 2H13.5C12.6716 2 12 2.67157 12 3.5V10.5C12 11.3284 11.3284 12 10.5 12H9.5C8.67157 12 8 11.3284 8 10.5V3.5C8 2.67157 7.32843 2 6.5 2H3.5C2.67157 2 2 2.67157 2 3.5V15H3V4.5C3 3.67157 3.67157 3 4.5 3H5.5C6.32843 3 7 3.67157 7 4.5V11.5C7 12.3284 7.67157 13 8.5 13H11.5C12.3284 13 13 12.3284 13 11.5V4.5C13 3.67157 13.6716 3 14.5 3H15V2Z" fill="black"/>
</svg>
