<svg width="24" height="24" viewBox="0 0 24 24" fill="none" xmlns="http://www.w3.org/2000/svg">
<path d="M14 12V18" stroke="black" stroke-linecap="round"/>
<path d="M14 20.5V21" stroke="black" stroke-linecap="round" stroke-linejoin="round"/>
<path d="M13.3826 5.5628C13.6291 5.50728 13.7855 5.26183 13.714 5.01943C13.3706 3.85553 12.7297 2.79812 11.8511 1.95353C10.8623 1.00299 9.61599 0.363893 8.26704 0.115625C6.91809 -0.132643 5.52592 0.0208597 4.26347 0.557065C3.00102 1.09327 1.92391 1.98855 1.16594 3.1317C0.407972 4.27484 0.00254232 5.61548 1.19122e-05 6.98709C-0.00251849 8.35869 0.397962 9.70081 1.15171 10.8468C1.90546 11.9927 2.97925 12.8919 4.23972 13.4328C5.35968 13.9134 6.58317 14.0922 7.78893 13.9554C8.04004 13.9269 8.20529 13.6874 8.16046 13.4387V13.4387C8.11563 13.1899 7.87769 13.0265 7.62631 13.0525C6.59748 13.1589 5.55574 13.0016 4.60061 12.5917C3.50494 12.1216 2.57153 11.3399 1.91634 10.3438C1.26114 9.3477 0.913017 8.18105 0.915216 6.98877C0.917416 5.7965 1.26984 4.63114 1.92871 3.63745C2.58758 2.64377 3.52386 1.86554 4.62125 1.39944C5.71865 0.933338 6.9288 0.799905 8.10138 1.01571C9.27396 1.23152 10.3573 1.78706 11.2168 2.61333C11.9661 3.33361 12.5166 4.23195 12.819 5.22109C12.8928 5.46277 13.136 5.61832 13.3826 5.5628V5.5628Z" fill="#111111"/>
<path d="M7 3V7.15385L4.5 9.5" stroke="black" stroke-linecap="round" stroke-linejoin="round"/>
<circle cx="7" cy="7" r="1" fill="#111111"/>
<path d="M4.88648 21.493L13.1381 7.46529C13.5247 6.80798 14.4753 6.80798 14.8619 7.46529L23.1135 21.493C23.5057 22.1596 23.025 23 22.2516 23H5.74842C4.975 23 4.49435 22.1596 4.88648 21.493Z" stroke="black" stroke-linecap="round" stroke-linejoin="round"/>
</svg>
