<svg width="20" height="20" viewBox="0 0 20 20" fill="none" xmlns="http://www.w3.org/2000/svg">
<path d="M0 0H20V20H0V0Z" fill="none"/>
<path fill-rule="evenodd" clip-rule="evenodd" d="M3 4.5C3 4.22386 3.22386 4 3.5 4H19.5C19.7761 4 20 4.22386 20 4.5V13.5C20 13.7761 19.7761 14 19.5 14H16V16C16 16.5523 15.5523 17 15 17H1C0.447715 17 0 16.5523 0 16V8C0 7.44772 0.447715 7 1 7H3V4.5ZM19 13H16V8C16 7.44772 15.5523 7 15 7H4V5H19V13ZM1 8H3.5H15V13.5V16H1V8ZM3 9C2.44772 9 2 9.44772 2 10V13C2 13.5523 2.44772 14 3 14H6C6.55228 14 7 13.5523 7 13V10C7 9.44772 6.55228 9 6 9H3ZM3 13V10H6V13H3ZM9.5 12C9.5 11.7239 9.72386 11.5 10 11.5H14C14.2761 11.5 14.5 11.7239 14.5 12C14.5 12.2761 14.2761 12.5 14 12.5H10C9.72386 12.5 9.5 12.2761 9.5 12ZM10 13.5C9.72386 13.5 9.5 13.7239 9.5 14C9.5 14.2761 9.72386 14.5 10 14.5H14C14.2761 14.5 14.5 14.2761 14.5 14C14.5 13.7239 14.2761 13.5 14 13.5H10Z" fill="black"/>
</svg>
