<svg width="24" height="24" viewBox="0 0 24 24" fill="none" xmlns="http://www.w3.org/2000/svg">
<path fill-rule="evenodd" clip-rule="evenodd" d="M20 10C20 14.4183 16.4183 18 12 18C7.58172 18 4 14.4183 4 10C4 5.58172 7.58172 2 12 2C16.4183 2 20 5.58172 20 10ZM14 18.777C13.3568 18.9229 12.6874 19 12 19C11.3126 19 10.6432 18.9229 10 18.777V20H14V18.777ZM14.9999 18.4879C18.4955 17.2525 21 13.9187 21 10C21 5.02944 16.9706 1 12 1C7.02944 1 3 5.02944 3 10C3 13.9187 5.50449 17.2525 9.00015 18.4879C9.00005 18.4919 9 18.496 9 18.5V20H4.5C4.22386 20 4 20.2239 4 20.5V22.5C4 22.7761 4.22386 23 4.5 23H19.5C19.7761 23 20 22.7761 20 22.5V20.5C20 20.2239 19.7761 20 19.5 20H15V18.5C15 18.496 14.9999 18.4919 14.9999 18.4879ZM17.9873 10.3938L18.9852 10.4583C18.995 10.3068 19 10.154 19 10C19 9.84604 18.995 9.69323 18.9852 9.54174L17.9873 9.60623C17.9957 9.73627 18 9.86757 18 10C18 10.1324 17.9957 10.2637 17.9873 10.3938ZM17.6833 8.07048L18.6302 7.7491C18.5315 7.4581 18.4141 7.17569 18.2795 6.90331L17.383 7.34627C17.4983 7.57958 17.5988 7.82139 17.6833 8.07048ZM16.5114 6.04419L17.263 5.38455C17.0614 5.15491 16.8451 4.93857 16.6155 4.73703L15.9558 5.48861C16.1528 5.66154 16.3385 5.84716 16.5114 6.04419ZM14.6537 4.61702L15.0967 3.72048C14.8243 3.5859 14.5419 3.46852 14.2509 3.36976L13.9295 4.31671C14.1786 4.40125 14.4204 4.50174 14.6537 4.61702ZM12.3938 4.01268L12.4583 3.01476C12.3068 3.00497 12.154 3 12 3C11.846 3 11.6932 3.00497 11.5417 3.01476L11.6062 4.01268C11.7363 4.00428 11.8676 4 12 4C12.1324 4 12.2637 4.00428 12.3938 4.01268ZM10.0705 4.31671L9.7491 3.36976C9.4581 3.46852 9.17569 3.5859 8.90331 3.72048L9.34627 4.61702C9.57958 4.50175 9.82139 4.40125 10.0705 4.31671ZM8.04419 5.48861L7.38455 4.73703C7.15491 4.93857 6.93857 5.15491 6.73703 5.38455L7.48861 6.04419C7.66154 5.84716 7.84716 5.66154 8.04419 5.48861ZM6.61702 7.34627L5.72048 6.90331C5.5859 7.17569 5.46852 7.4581 5.36976 7.7491L6.31671 8.07048C6.40125 7.82139 6.50174 7.57958 6.61702 7.34627ZM5 10C5 9.84604 5.00497 9.69323 5.01476 9.54174L6.01268 9.60623C6.00428 9.73627 6 9.86757 6 10C6 10.1324 6.00428 10.2637 6.01268 10.3938L5.01476 10.4583C5.00497 10.3068 5 10.154 5 10ZM6.31671 11.9295L5.36976 12.2509C5.46852 12.5419 5.5859 12.8243 5.72048 13.0967L6.61702 12.6537C6.50175 12.4204 6.40125 12.1786 6.31671 11.9295ZM7.48861 13.9558L6.73703 14.6155C6.93857 14.8451 7.15491 15.0614 7.38455 15.263L8.04419 14.5114C7.84716 14.3385 7.66154 14.1528 7.48861 13.9558ZM9.34627 15.383L8.90331 16.2795C9.17569 16.4141 9.4581 16.5315 9.7491 16.6302L10.0705 15.6833C9.82139 15.5988 9.57958 15.4983 9.34627 15.383ZM11.6062 15.9873L11.5417 16.9852C11.6932 16.995 11.846 17 12 17C12.154 17 12.3068 16.995 12.4583 16.9852L12.3938 15.9873C12.2637 15.9957 12.1324 16 12 16C11.8676 16 11.7363 15.9957 11.6062 15.9873ZM13.9295 15.6833L14.2509 16.6302C14.5419 16.5315 14.8243 16.4141 15.0967 16.2795L14.6537 15.383C14.4204 15.4983 14.1786 15.5988 13.9295 15.6833ZM15.9558 14.5114L16.6155 15.263C16.8451 15.0614 17.0614 14.8451 17.263 14.6155L16.5114 13.9558C16.3385 14.1528 16.1528 14.3385 15.9558 14.5114ZM17.383 12.6537L18.2795 13.0967C18.4141 12.8243 18.5315 12.5419 18.6302 12.2509L17.6833 11.9295C17.5988 12.1786 17.4983 12.4204 17.383 12.6537ZM15.8536 6.14645C16.0337 6.3266 16.0496 6.61341 15.8904 6.81235L13.8904 9.31235L13.8823 9.32231C13.9585 9.53393 14 9.76211 14 10C14 11.1046 13.1046 12 12 12C11.7766 12 11.5617 11.9634 11.3611 11.8958L10.9472 12.7236C10.8753 12.8674 10.7387 12.9678 10.5801 12.9936C10.4215 13.0193 10.2601 12.9672 10.1465 12.8536L9.14645 11.8536C9.03281 11.7399 8.98072 11.5786 9.00646 11.4199C9.03221 11.2613 9.13265 11.1247 9.2764 11.0528L10.1042 10.6389C10.0366 10.4383 10 10.2234 10 10C10 8.89543 10.8954 8 12 8C12.2379 8 12.4661 8.04153 12.6777 8.11774L12.6877 8.10957L15.1877 6.10957C15.3866 5.95041 15.6734 5.9663 15.8536 6.14645ZM13 10C13 10.5523 12.5523 11 12 11C11.4477 11 11 10.5523 11 10C11 9.44772 11.4477 9 12 9C12.5523 9 13 9.44772 13 10ZM10.3441 11.637L10.363 11.6559L10.382 11.618L10.3441 11.637ZM5 22V21H19V22H5Z" fill="black"/>
</svg>
