<svg width="24" height="24" viewBox="0 0 24 24" fill="none" xmlns="http://www.w3.org/2000/svg">
<path fill-rule="evenodd" clip-rule="evenodd" d="M12 18C16.4183 18 20 14.4183 20 10C20 5.58172 16.4183 2 12 2C7.58172 2 4 5.58172 4 10C4 14.4183 7.58172 18 12 18ZM12 20C17.5228 20 22 15.5228 22 10C22 4.47715 17.5228 0 12 0C6.47715 0 2 4.47715 2 10C2 15.5228 6.47715 20 12 20Z" fill="black"/>
<path fill-rule="evenodd" clip-rule="evenodd" d="M8 18C8.55228 18 9 18.4477 9 19V22C9 22.5523 8.55228 23 8 23C7.44772 23 7 22.5523 7 22V19C7 18.4477 7.44772 18 8 18Z" fill="black"/>
<path fill-rule="evenodd" clip-rule="evenodd" d="M16 18C16.5523 18 17 18.4477 17 19V22C17 22.5523 16.5523 23 16 23C15.4477 23 15 22.5523 15 22V19C15 18.4477 15.4477 18 16 18Z" fill="black"/>
<path fill-rule="evenodd" clip-rule="evenodd" d="M1 23C1 22.4477 1.44772 22 2 22H22C22.5523 22 23 22.4477 23 23C23 23.5523 22.5523 24 22 24H2C1.44772 24 1 23.5523 1 23Z" fill="black"/>
<path fill-rule="evenodd" clip-rule="evenodd" d="M19.9324 11.0449L17.9492 10.7862C17.9826 10.5298 18 10.2674 18 10C18 9.73259 17.9826 9.47024 17.9492 9.21382L19.9324 8.95513C19.977 9.2971 20 9.64586 20 10C20 10.3541 19.977 10.7029 19.9324 11.0449ZM19.393 6.9377L17.5455 7.7038C17.3437 7.21711 17.0791 6.76188 16.7614 6.34838L18.3472 5.12973C18.7702 5.68022 19.1233 6.28732 19.393 6.9377ZM16.8703 3.6528L15.6516 5.23864C15.2381 4.92088 14.7829 4.65632 14.2962 4.4545L15.0623 2.60704C15.7127 2.87675 16.3198 3.22977 16.8703 3.6528ZM13.0449 2.06762L12.7862 4.05082C12.5298 4.01737 12.2674 4 12 4C11.7326 4 11.4702 4.01737 11.2138 4.05082L10.9551 2.06762C11.2971 2.02301 11.6459 2 12 2C12.3541 2 12.7029 2.02301 13.0449 2.06762ZM8.9377 2.60704L9.7038 4.4545C9.21711 4.65632 8.76188 4.92088 8.34838 5.23864L7.12973 3.6528C7.68022 3.22977 8.28732 2.87675 8.9377 2.60704ZM5.6528 5.12973L7.23864 6.34838C6.92088 6.76188 6.65632 7.21711 6.4545 7.70381L4.60704 6.9377C4.87675 6.28732 5.22977 5.68022 5.6528 5.12973ZM4.06762 8.95513C4.02301 9.2971 4 9.64586 4 10C4 10.3541 4.02301 10.7029 4.06762 11.0449L6.05082 10.7862C6.01737 10.5298 6 10.2674 6 10C6 9.73259 6.01737 9.47024 6.05082 9.21382L4.06762 8.95513ZM4.60704 13.0623L6.4545 12.2962C6.65632 12.7829 6.92088 13.2381 7.23864 13.6516L5.6528 14.8703C5.22977 14.3198 4.87675 13.7127 4.60704 13.0623ZM7.12973 16.3472L8.34838 14.7614C8.76188 15.0791 9.21711 15.3437 9.70381 15.5455L8.9377 17.393C8.28732 17.1233 7.68022 16.7702 7.12973 16.3472ZM10.9551 17.9324L11.2138 15.9492C11.4702 15.9826 11.7326 16 12 16C12.2674 16 12.5298 15.9826 12.7862 15.9492L13.0449 17.9324C12.7029 17.977 12.3541 18 12 18C11.6459 18 11.2971 17.977 10.9551 17.9324ZM15.0623 17.393L14.2962 15.5455C14.7829 15.3437 15.2381 15.0791 15.6516 14.7614L16.8703 16.3472C16.3198 16.7702 15.7127 17.1233 15.0623 17.393ZM18.3472 14.8703L16.7614 13.6516C17.0791 13.2381 17.3437 12.7829 17.5455 12.2962L19.393 13.0623C19.1233 13.7127 18.7702 14.3198 18.3472 14.8703Z" fill="black"/>
<path fill-rule="evenodd" clip-rule="evenodd" d="M10.2764 10.5528C10.4689 10.4566 10.7014 10.4943 10.8536 10.6465L11.3536 11.1465C11.5057 11.2986 11.5435 11.5311 11.4472 11.7236L10.9472 12.7236C10.8753 12.8674 10.7387 12.9678 10.5801 12.9936C10.4215 13.0193 10.2601 12.9672 10.1465 12.8536L9.14645 11.8536C9.03281 11.7399 8.98072 11.5786 9.00646 11.4199C9.03221 11.2613 9.13265 11.1247 9.2764 11.0528L10.2764 10.5528ZM10.3441 11.637L10.363 11.6559L10.382 11.618L10.3441 11.637Z" fill="black"/>
<path fill-rule="evenodd" clip-rule="evenodd" d="M12 11C12.5523 11 13 10.5523 13 10C13 9.44772 12.5523 9 12 9C11.4477 9 11 9.44772 11 10C11 10.5523 11.4477 11 12 11ZM12 12C13.1046 12 14 11.1046 14 10C14 8.89543 13.1046 8 12 8C10.8954 8 10 8.89543 10 10C10 11.1046 10.8954 12 12 12Z" fill="black"/>
<path fill-rule="evenodd" clip-rule="evenodd" d="M15.8536 6.14645C16.0337 6.3266 16.0496 6.61341 15.8904 6.81235L13.8904 9.31235C13.8016 9.42341 13.6697 9.49137 13.5277 9.49924C13.3856 9.5071 13.247 9.45412 13.1464 9.35356L12.6464 8.85356C12.5459 8.75299 12.4929 8.61436 12.5008 8.47235C12.5086 8.33035 12.5766 8.19841 12.6877 8.10957L15.1877 6.10957C15.3866 5.95041 15.6734 5.9663 15.8536 6.14645Z" fill="black"/>
</svg>
