<svg width="24" height="24" viewBox="0 0 24 24" fill="none" xmlns="http://www.w3.org/2000/svg">
<rect width="24" height="24" fill="none"/>
<path fill-rule="evenodd" clip-rule="evenodd" d="M8 0C7.44772 0 7 0.447715 7 1V6C7 6.26522 7.10536 6.51957 7.29289 6.70711L13.2929 12.7071C13.6834 13.0976 14.3166 13.0976 14.7071 12.7071L19.7071 7.70711C20.0976 7.31658 20.0976 6.68342 19.7071 6.29289L13.7071 0.292893C13.5196 0.105357 13.2652 0 13 0H8ZM9 5.58579V2H12.5858L17.5858 7L14 10.5858L9 5.58579ZM1 12C0.447715 12 1.83747e-08 12.4477 1.83747e-08 13V19.4783C-0.00153111 19.5473 0.00415708 19.6156 0.0165558 19.6822C0.0452948 19.8383 0.110299 19.9817 0.20251 20.1034C0.284938 20.2126 0.390223 20.3055 0.514093 20.3742C0.579834 20.4108 0.650135 20.4403 0.723929 20.4614L8.70174 22.9546C8.79829 22.9848 8.89886 23.0001 9.00002 23.0001H18C18.2164 23.0001 18.4273 22.9297 18.6004 22.7998L22.6 19.8001C23.8798 18.8403 24.3624 17.3062 23.4926 16.1257C22.6608 14.9968 21.0563 14.8539 19.5528 15.6057L17.4966 16.6338C17.4989 16.589 17.5 16.5444 17.5 16.5C17.5 15.9119 17.3051 15.2912 16.8724 14.8044C16.4234 14.2992 15.7714 14 15 14H10.2361L6.44721 12.1056C6.30836 12.0361 6.15525 12 6 12H1ZM9.00002 17.0001H14.9843L15 17C15.2286 17 15.3266 16.9242 15.3776 16.8669C15.4449 16.7912 15.5 16.6619 15.5 16.5C15.5 16.3381 15.4449 16.2088 15.3776 16.1331C15.3266 16.0758 15.2286 16 15 16H10.0005C9.8453 16 9.69164 15.9639 9.55279 15.8944L5.76393 14H2V18.7648L9.15264 21.0001H17.6667L21.4001 18.2001C21.7591 17.9309 21.8794 17.6904 21.9132 17.5562C21.945 17.4302 21.9158 17.3573 21.8825 17.3121C21.8393 17.2534 21.4437 16.8963 20.4472 17.3945L17.4476 18.8944C17.3088 18.9638 17.1553 19.0001 17 19.0001H9.00002C8.44774 19.0001 8.00002 18.5524 8.00002 18.0001C8.00002 17.4478 8.44774 17.0001 9.00002 17.0001Z" fill="black"/>
</svg>
