<svg width="24" height="24" viewBox="0 0 24 24" fill="none" xmlns="http://www.w3.org/2000/svg">
<path fill-rule="evenodd" clip-rule="evenodd" d="M6.50011 1C6.22397 1 6.00011 1.22386 6.00011 1.5V5H4.50011C4.31072 5 4.13759 5.107 4.0529 5.27639L1.05913 11.2639C1.02683 11.3241 1.0065 11.3917 1.00132 11.4634C1.00045 11.4754 1.00001 11.4873 1 11.4992C1 11.4995 1 11.4997 1 11.5V19.5C1 19.7761 1.22386 20 1.5 20H6V22.5C6 22.7761 6.22386 23 6.5 23H17.5C17.7761 23 18 22.7761 18 22.5V20H22.5C22.7761 20 23 19.7761 23 19.5V11.5144C23.0019 11.4494 22.9912 11.3834 22.9666 11.3199C22.9605 11.304 22.9536 11.2886 22.946 11.2737L19.9473 5.27639C19.8626 5.107 19.6895 5 19.5001 5H18.0001V4.5C18.0001 4.36739 17.9474 4.24021 17.8537 4.14645L14.8537 1.14645C14.7599 1.05268 14.6327 1 14.5001 1H6.50011ZM21.6911 11L19.1911 6H18.0001V9.5C18.0001 9.77614 17.7763 10 17.5001 10H6.50011C6.22397 10 6.00011 9.77614 6.00011 9.5V6H4.80913L2.30913 11H21.6911ZM15.0001 2.70711L16.293 4H15.0001V2.70711ZM7.00011 2H14.0001V4.5C14.0001 4.77614 14.224 5 14.5001 5H17.0001V9H7.00011V2ZM18 18.5V19H22V12H2V19H6V18.5C5.39298 18.5 4.88936 18.3082 4.53307 17.9742C4.17931 17.6425 4.00001 17.1967 4 16.75C3.99999 16.3034 4.17927 15.8575 4.53302 15.5259C4.88931 15.1918 5.39295 15 5.99999 15H6.5H7.24942H16.7506H17.5H18C18.6071 15 19.1107 15.1918 19.467 15.5259C19.8207 15.8575 20 16.3034 20 16.75C20 17.1967 19.8207 17.6425 19.4669 17.9742C19.1106 18.3082 18.607 18.5 18 18.5ZM18 17.5C18.3929 17.5 18.6393 17.3793 18.783 17.2446C18.9293 17.1075 19 16.9283 19 16.75C19 16.5716 18.9293 16.3925 18.783 16.2554C18.6393 16.1207 18.393 16 18 16L18 17.5ZM17 16H16.75H7.24999H7V19.5V22H17V19.5V16ZM6 16V17.5C5.60706 17.5 5.3607 17.3793 5.21699 17.2446C5.07072 17.1075 5 16.9283 5 16.75C5 16.5716 5.07071 16.3925 5.21696 16.2554C5.36066 16.1207 5.60702 16 5.99999 16H6ZM8 17.5C8 17.2239 8.22386 17 8.5 17H15.5C15.7761 17 16 17.2239 16 17.5C16 17.7761 15.7761 18 15.5 18H8.5C8.22386 18 8 17.7761 8 17.5ZM8.5 19C8.22386 19 8 19.2239 8 19.5C8 19.7761 8.22386 20 8.5 20H15.5C15.7761 20 16 19.7761 16 19.5C16 19.2239 15.7761 19 15.5 19H8.5ZM8 13.5C8 13.2239 8.22386 13 8.5 13H11.5C11.7761 13 12 13.2239 12 13.5C12 13.7761 11.7761 14 11.5 14H8.5C8.22386 14 8 13.7761 8 13.5Z" fill="black"/>
</svg>
