<svg width="24" height="24" viewBox="0 0 24 24" fill="none" xmlns="http://www.w3.org/2000/svg">
<rect width="24" height="24" fill="none"/>
<path d="M5.00004 8.00005C4.44804 8.00005 4.00005 8.44803 4.00005 9.00003C4.00005 9.55204 4.44804 10 5.00004 10C5.55204 10 6.00003 9.55204 6.00003 9.00003C6.00003 8.44803 5.55204 8.00005 5.00004 8.00005Z" fill="black"/>
<path d="M9.00004 10C9.55204 10 10 9.55204 10 9.00003C10 8.44803 9.55204 8.00005 9.00004 8.00005C8.44804 8.00005 8.00005 8.44803 8.00005 9.00003C8.00005 9.55204 8.44804 10 9.00004 10Z" fill="black"/>
<path d="M19.0001 10C19.5521 10 20 9.55204 20 9.00003C20 8.44803 19.5521 8.00005 19.0001 8.00005C18.4481 8.00005 18.0001 8.44803 18.0001 9.00003C18.0001 9.55204 18.4481 10 19.0001 10Z" fill="black"/>
<path d="M23.0001 5.00004H19.0001V0.999988C19.0001 0.447705 18.5524 0 18.0001 0H6.00002C5.44774 0 5.00004 0.447705 5.00004 0.999988V4.99999H0.999988C0.447705 5.00004 0 5.44774 0 6.00002V13V19.0001C0 19.5523 0.447705 20 0.999988 20H4.99999V23.0001C4.99999 23.5523 5.44769 24 5.99998 24H18C18.5523 24 19 23.5523 19 23.0001V20H23C23.5523 20 24 19.5523 24 19.0001V13V6.00002C24.0001 5.44774 23.5524 5.00004 23.0001 5.00004ZM7.00001 2.00002H17V5.00004H7.00001V2.00002ZM2.00002 7.00001H6.00002H18.0001H22.0001V12H18.0001H6.00002H2.00002V7.00001ZM2.00002 18.0001V14.0001H5.00004V18.0001H2.00002ZM17.0001 22.0001H12H7.00001V19.0001V14.0001H17V19.0001L17.0001 22.0001ZM22.0001 18.0001H19.0001V14.0001H22.0001V18.0001Z" fill="black"/>
<path d="M14.0001 15.0001H10.0001C9.44774 15.0001 9.00003 15.4478 9.00003 16C9.00003 16.5523 9.44774 17 10 17H14C14.5523 17 15 16.5523 15 16C15.0001 15.4478 14.5524 15.0001 14.0001 15.0001Z" fill="black"/>
<path d="M14.0001 18.0001H10.0001C9.44774 18.0001 9.00003 18.4478 9.00003 19.0001C9.00003 19.5523 9.44774 20 10 20H14C14.5523 20 15 19.5523 15 19.0001C15.0001 18.4478 14.5524 18.0001 14.0001 18.0001Z" fill="black"/>
</svg>
