<svg width="24" height="24" viewBox="0 0 24 24" fill="none" xmlns="http://www.w3.org/2000/svg">
<path d="M12 1C5.928 1 1 5.928 1 12C1 18.072 5.928 23 12 23C18.072 23 23 18.072 23 12C23 5.928 18.072 1 12 1ZM12 21C7.149 21 3 16.851 3 12C3 7.149 7.149 3 12 3C16.851 3 21 7.149 21 12C21 16.851 16.851 21 12 21ZM17.8272 7.92176C17.3979 7.48935 16.6989 7.48811 16.268 7.91901L9.8 14.387L7.72725 12.3223C7.29829 11.895 6.60437 11.8956 6.17625 12.3238V12.3238C5.74754 12.7525 5.74754 13.4475 6.17625 13.8762L9.09289 16.7929C9.48342 17.1834 10.1166 17.1834 10.5071 16.7929L17.8245 9.47551C18.2532 9.04676 18.2545 8.35201 17.8272 7.92176V7.92176Z" fill="black"/>
</svg>
