<svg width="24" height="24" viewBox="0 0 24 24" fill="none" xmlns="http://www.w3.org/2000/svg">
<rect width="24" height="24" fill="none"/>
<path fill-rule="evenodd" clip-rule="evenodd" d="M3.0088 4C3.56108 4 4.00879 4.44772 4.00879 5.00001L3.00879 5L2.00879 4.99999C2.00879 4.44771 2.45651 4 3.0088 4ZM3.00879 5C2.00879 4.99999 2.00879 4.9999 2.00879 4.99999V18.8125C2.00885 20.0146 2.2905 21.1021 3.0306 21.8885C3.78142 22.6863 4.8386 23 6.00879 23H8.99925C9.55156 23 9.99996 22.5523 9.99996 22C9.99996 21.4477 9.55224 21 8.99993 21H6.00879C5.17893 21 4.73616 20.7825 4.48702 20.5178C4.22715 20.2417 4.00883 19.7354 4.00879 18.8125V5.00001C4.00879 4.99992 4.00879 5.00001 3.00879 5Z" fill="black"/>
<path fill-rule="evenodd" clip-rule="evenodd" d="M2.883 2.1154C3.50034 1.42368 4.40348 1 5.50881 1H20.0083C20.0084 1 20.0088 1 20.0088 2C20.0088 3 20.0088 3 20.0087 3H5.50881C4.94494 3 4.59452 3.20132 4.37517 3.4471C4.13966 3.71099 4.00055 4.09034 4 4.50134C3.99945 4.9123 4.13747 5.29051 4.37174 5.55327C4.58979 5.79784 4.9404 6 5.50881 6H20.0083C20.0084 6 20.0088 6 20.0088 7L20.0083 6C20.2735 6 20.5284 6.10536 20.7159 6.29289C20.9034 6.48043 21.0088 6.73478 21.0088 7V8.99997C21.0088 9.55225 20.5611 9.99997 20.0088 9.99997C19.4565 9.99997 19.0088 9.55225 19.0088 8.99997V8H5.50881C4.40134 8 3.49671 7.57716 2.87891 6.88423C2.27732 6.20949 1.99888 5.3377 2 4.49866C2.00112 3.65966 2.28182 2.78901 2.883 2.1154ZM21.0088 2C21.0088 2.55228 20.561 3 20.0087 3L20.0088 2L20.0083 1C20.5606 1 21.0088 1.44772 21.0088 2Z" fill="black"/>
<path fill-rule="evenodd" clip-rule="evenodd" d="M16.4855 10.1425C16.8022 9.9525 17.1978 9.9525 17.5145 10.1425L22.5145 13.1425C22.8157 13.3232 23 13.6487 23 14V20C23 20.3513 22.8157 20.6768 22.5145 20.8575L17.5145 23.8575C17.1978 24.0475 16.8022 24.0475 16.4855 23.8575L11.4855 20.8575C11.1843 20.6768 11 20.3513 11 20V14C11 13.6487 11.1843 13.3232 11.4855 13.1425L16.4855 10.1425ZM13 15.7662V19.4338L16 21.2338V17.5662L13 15.7662ZM18 17.5662V21.2338L21 19.4338V15.7662L18 17.5662ZM20.0563 14L17 15.8338L13.9437 14L17 12.1662L20.0563 14Z" fill="black"/>
</svg>
