<svg width="24" height="24" viewBox="0 0 24 24" fill="none" xmlns="http://www.w3.org/2000/svg">
<rect width="24" height="24" fill="none"/>
<path fill-rule="evenodd" clip-rule="evenodd" d="M11.4785 0.146718C11.7987 -0.0489061 12.2013 -0.0489061 12.5215 0.146718L21.5215 5.64672C21.8187 5.82837 22 6.15163 22 6.5V17.5C22 17.8484 21.8187 18.1716 21.5215 18.3533L12.5215 23.8533C12.2013 24.0489 11.7987 24.0489 11.4785 23.8533L2.47855 18.3533C2.1813 18.1716 2 17.8484 2 17.5V6.5C2 6.15163 2.1813 5.82837 2.47855 5.64672L11.4785 0.146718ZM4 8.28306V16.9392L11 21.2169V12.5608L4 8.28306ZM13 12.5608V21.2169L20 16.9392V8.28306L13 12.5608ZM19.0823 6.5L12 10.8281L9.45267 9.27135L16.4554 4.89467L19.0823 6.5ZM7.54467 8.10535L14.5474 3.72867L12 2.17195L4.91773 6.5L7.54467 8.10535ZM5.52814 11.1183C5.8533 10.9443 6.24784 10.9634 6.5547 11.168L9.5547 13.168C9.8329 13.3534 10 13.6656 10 14V18C10 18.3688 9.79702 18.7077 9.47186 18.8817C9.1467 19.0557 8.75216 19.0366 8.4453 18.8321L5.4453 16.8321C5.1671 16.6466 5 16.3344 5 16V12C5 11.6312 5.20298 11.2923 5.52814 11.1183ZM7 13.8685V15.4648L8 16.1315V14.5352L7 13.8685Z" fill="black"/>
</svg>
