<svg width="24" height="24" viewBox="0 0 24 24" fill="none" xmlns="http://www.w3.org/2000/svg">
<rect width="24" height="24" fill="none"/>
<path fill-rule="evenodd" clip-rule="evenodd" d="M12 4C9.98618 4 8 5.61615 8 8C8 8.55228 7.55228 9 7 9C6.44772 9 6 8.55228 6 8C6 4.38385 9.01382 2 12 2C14.9862 2 18 4.38385 18 8C18 9.02341 17.5772 9.96638 17.0564 10.765C16.5311 11.5704 15.8488 12.3155 15.2071 12.9571C14.8839 13.2803 14.5624 13.5856 14.2695 13.8629C14.2494 13.8819 14.2295 13.9008 14.2097 13.9195C13.9371 14.1776 13.6957 14.406 13.4884 14.6134C13.2619 14.8398 13.1087 15.0091 13.0169 15.1324C13.0107 15.1407 13.0051 15.1484 13 15.1556V16.9994C13 17.5517 12.5523 18 12 18C11.4477 18 11 17.5523 11 17V15C11 14.5215 11.267 14.1337 11.4128 13.9379C11.5944 13.694 11.8318 13.4415 12.0741 13.1991C12.3019 12.9713 12.5631 12.7242 12.8293 12.4723C12.851 12.4517 12.8728 12.4311 12.8946 12.4105C13.1876 12.1331 13.4911 11.8447 13.7929 11.5429C14.4012 10.9345 14.9689 10.3046 15.3811 9.67248C15.7978 9.03362 16 8.47659 16 8C16 5.61615 14.0138 4 12 4ZM12.9555 15.2261C12.9552 15.2262 12.9568 15.2224 12.9613 15.2147C12.958 15.2221 12.9557 15.226 12.9555 15.2261Z" fill="black"/>
<path d="M13 21C13 21.5523 12.5523 22 12 22C11.4477 22 11 21.5523 11 21C11 20.4477 11.4477 20 12 20C12.5523 20 13 20.4477 13 21Z" fill="black"/>
</svg>
