<svg width="16" height="16" viewBox="0 0 16 16" fill="none" xmlns="http://www.w3.org/2000/svg">
<g clip-path="url(#clip0)">
<path fill-rule="evenodd" clip-rule="evenodd" d="M6.49968 9.04844e-08C6.77582 -0.000164253 6.99981 0.22356 6.99998 0.499702C7.00014 0.775845 6.77642 0.999836 6.50027 1C6.31723 1.00011 6.20051 1.01251 6.12537 1.03064C6.08068 1.04142 6.06129 1.05169 6.0551 1.0557C6.0511 1.06189 6.04094 1.08115 6.03027 1.12541C6.01222 1.20028 5.9999 1.31677 6.00001 1.4997C6.00024 1.89686 5.96089 2.34306 5.65201 2.65176C5.3434 2.96019 4.8973 2.99973 4.50046 2.99997C4.22432 3.00014 4.00033 2.77641 4.00016 2.50027C4 2.22413 4.22372 2.00014 4.49987 1.99997C4.68291 1.99986 4.79963 1.98746 4.87475 1.96934C4.91936 1.95857 4.93874 1.94832 4.94495 1.94431C4.94895 1.93811 4.9591 1.91884 4.96976 1.87462C4.9878 1.79975 5.00012 1.68324 5.00001 1.5003C4.99977 1.10309 5.03917 0.656895 5.3481 0.348199C5.65672 0.0398016 6.10282 0.000236498 6.49968 9.04844e-08ZM6.05273 1.05746L6.05415 1.05633C6.05312 1.05704 6.05269 1.05744 6.05273 1.05746ZM6.05572 1.05476L6.05687 1.05331C6.05685 1.05327 6.05645 1.05371 6.05572 1.05476ZM4.94591 1.94368L4.94733 1.94254C4.94737 1.94256 4.94706 1.94285 4.94634 1.94337L4.94591 1.94368ZM4.94432 1.94526L4.94317 1.94671C4.94319 1.94676 4.94359 1.94632 4.94432 1.94526ZM3 5.49995C3 4.67152 3.67157 3.99995 4.5 3.99995C5.32843 3.99995 6 4.67152 6 5.49995V5.99995H7V5.49995C7 4.67152 7.67157 3.99995 8.5 3.99995C9.32843 3.99995 10 4.67152 10 5.49995V5.99995H11V5.49995C11 4.67152 11.6716 3.99995 12.5 3.99995C13.3284 3.99995 14 4.67152 14 5.49995V14.4999C14 15.3284 13.3284 15.9999 12.5 15.9999C11.6716 15.9999 11 15.3284 11 14.4999V13.9999H10V14.4999C10 15.3284 9.32843 15.9999 8.5 15.9999C7.67157 15.9999 7 15.3284 7 14.4999V13.9999H6V14.4999C6 15.3284 5.32843 15.9999 4.5 15.9999C3.67157 15.9999 3 15.3284 3 14.4999V13.9999H2V14.4999C2 14.7761 1.77614 14.9999 1.5 14.9999C1.22386 14.9999 1 14.7761 1 14.4999V13.4999V11.5001V8.49995V6.49995V5.49995C1 5.2238 1.22386 4.99995 1.5 4.99995C1.77614 4.99995 2 5.2238 2 5.49995V5.99995H3V5.49995ZM3 12.9999H2V12.0001H3V12.9999ZM3 11.0001H2V8.99995H3V11.0001ZM3 7.99995H2V6.99995H3V7.99995ZM6 7.99995V6.99995H7V7.99995H6ZM6 8.99995H7V10.9999H6V8.99995ZM6 11.9999H7V12.9999H6V11.9999ZM10 7.99995V6.99995H11V7.99995H10ZM10 8.99995H11V10.9999H10V8.99995ZM10 11.9999H11V12.9999H10V11.9999ZM4.5 4.99995C4.22386 4.99995 4 5.2238 4 5.49995V14.4999C4 14.7761 4.22386 14.9999 4.5 14.9999C4.77614 14.9999 5 14.7761 5 14.4999V5.49995C5 5.2238 4.77614 4.99995 4.5 4.99995ZM8.5 4.99995C8.22386 4.99995 8 5.2238 8 5.49995V14.4999C8 14.7761 8.22386 14.9999 8.5 14.9999C8.77614 14.9999 9 14.7761 9 14.4999V5.49995C9 5.2238 8.77614 4.99995 8.5 4.99995ZM12 5.49995C12 5.2238 12.2239 4.99995 12.5 4.99995C12.7761 4.99995 13 5.2238 13 5.49995V14.4999C13 14.7761 12.7761 14.9999 12.5 14.9999C12.2239 14.9999 12 14.7761 12 14.4999V5.49995ZM9.99998 0.499702C9.99981 0.22356 9.77582 -0.000164253 9.49968 9.04844e-08C9.10282 0.000236498 8.65672 0.0398016 8.3481 0.348199C8.03917 0.656895 7.99977 1.10309 8.00001 1.5003C8.00012 1.68324 7.9878 1.79975 7.96976 1.87462C7.9591 1.91884 7.94895 1.93811 7.94495 1.94431C7.93875 1.94832 7.91936 1.95857 7.87475 1.96934C7.79963 1.98746 7.68291 1.99986 7.49987 1.99997C7.22372 2.00014 7 2.22413 7.00016 2.50027C7.00033 2.77641 7.22432 3.00014 7.50046 2.99997C7.8973 2.99973 8.3434 2.96019 8.65201 2.65176C8.96089 2.34306 9.00024 1.89686 9.00001 1.4997C8.9999 1.31677 9.01222 1.20028 9.03027 1.12541C9.04094 1.08115 9.0511 1.06189 9.0551 1.0557C9.06129 1.05169 9.08068 1.04142 9.12537 1.03064C9.20051 1.01251 9.31723 1.00011 9.50027 1C9.77642 0.999836 10.0001 0.775845 9.99998 0.499702ZM9.05273 1.05746L9.05415 1.05633L9.05346 1.05682C9.05293 1.05723 9.0527 1.05745 9.05273 1.05746ZM9.05572 1.05476L9.05687 1.05331C9.05685 1.05327 9.05645 1.05371 9.05572 1.05476ZM7.94733 1.94254L7.94591 1.94368C7.94694 1.94296 7.94738 1.94256 7.94733 1.94254ZM7.94432 1.94526L7.94317 1.94671C7.94319 1.94676 7.94359 1.94632 7.94432 1.94526ZM12.4997 9.04844e-08C12.7758 -0.000164253 12.9998 0.22356 13 0.499702C13.0001 0.775845 12.7764 0.999836 12.5003 1C12.3172 1.00011 12.2005 1.01251 12.1254 1.03064C12.0807 1.04142 12.0613 1.05169 12.0551 1.0557C12.0511 1.06189 12.0409 1.08115 12.0303 1.12541C12.0122 1.20028 11.9999 1.31677 12 1.4997C12.0002 1.89686 11.9609 2.34306 11.652 2.65176C11.3434 2.96019 10.8973 2.99973 10.5005 2.99997C10.2243 3.00014 10.0003 2.77641 10.0002 2.50027C10 2.22413 10.2237 2.00014 10.4999 1.99997C10.6829 1.99986 10.7996 1.98746 10.8748 1.96934C10.9194 1.95857 10.9387 1.94832 10.945 1.94431C10.9489 1.93811 10.9591 1.91884 10.9698 1.87462C10.9878 1.79975 11.0001 1.68324 11 1.5003C10.9998 1.10309 11.0392 0.656895 11.3481 0.348199C11.6567 0.0398016 12.1028 0.000236498 12.4997 9.04844e-08ZM12.0527 1.05746L12.0542 1.05633C12.0531 1.05704 12.0527 1.05744 12.0527 1.05746ZM12.0557 1.05476L12.0569 1.05331C12.0569 1.05327 12.0564 1.05371 12.0557 1.05476ZM10.9473 1.94254L10.9459 1.94368C10.9469 1.94296 10.9474 1.94256 10.9473 1.94254ZM10.9443 1.94526L10.9432 1.94671C10.9432 1.94676 10.9436 1.94632 10.9443 1.94526Z" fill="black"/>
</g>
<defs>
<clipPath id="clip0">
<rect width="16" height="16" fill="white"/>
</clipPath>
</defs>
</svg>
