<svg width="24" height="24" viewBox="0 0 24 24" fill="none" xmlns="http://www.w3.org/2000/svg">
<path fill-rule="evenodd" clip-rule="evenodd" d="M17.4992 0.999512C17.7753 0.999347 17.9993 1.22307 17.9995 1.49921C17.9997 1.77536 17.7759 1.99935 17.4998 1.99951C17.263 1.99965 17.1142 2.00035 17.0092 2.00924C17.0005 2.11424 16.9999 2.263 17.0001 2.49981L17.0001 2.52512C17.0003 2.75324 17.0004 2.96455 16.9818 3.13316C16.9629 3.30431 16.9157 3.542 16.7294 3.72852C16.5431 3.91505 16.3054 3.96252 16.1343 3.98164C15.9657 4.00048 15.7544 4.00058 15.5263 4.00069L15.501 4.0007C15.2248 4.00087 15.0008 3.77714 15.0007 3.501C15.0005 3.22486 15.2242 3.00087 15.5004 3.0007C15.7372 3.00056 15.886 2.99987 15.9909 2.99098C15.9997 2.88598 16.0002 2.73721 16.0001 2.5004L16.0001 2.47509V2.47508V2.47506V2.47505C15.9999 2.24694 15.9998 2.03566 16.0184 1.86705C16.0373 1.6959 16.0845 1.45821 16.2708 1.27169C16.4571 1.08517 16.6947 1.03769 16.8659 1.01857C17.0345 0.999738 17.2458 0.999635 17.4739 0.999525L17.4992 0.999512ZM6 5.99995C4.89543 5.99995 4 6.89538 4 7.99995V8.99995H3V8.49995C3 8.22381 2.77614 7.99995 2.5 7.99995H0.5C0.223858 7.99995 0 8.22381 0 8.49995V12.4999C0 12.7761 0.223858 12.9999 0.5 12.9999H2.5C2.77614 12.9999 3 12.7761 3 12.4999V11.9999H4V15.9999H3V15.4999C3 15.2238 2.77614 14.9999 2.5 14.9999H0.5C0.223858 14.9999 0 15.2238 0 15.4999V19.4999C0 19.7761 0.223858 19.9999 0.5 19.9999H2.5C2.77614 19.9999 3 19.7761 3 19.4999V18.9999H4V20C4 21.1045 4.89543 22 6 22C7.10457 22 8 21.1045 8 20V18.9999H9V20C9 21.1045 9.89543 22 11 22C12.1046 22 13 21.1045 13 20V18.9999H14V20C14 21.1045 14.8954 22 16 22C17.1046 22 18 21.1045 18 20V18.9999H19V20C19 21.1045 19.8954 22 21 22C22.1046 22 23 21.1045 23 20V7.99995C23 6.89538 22.1046 5.99995 21 5.99995C19.8954 5.99995 19 6.89538 19 7.99995V8.99995H18V7.99995C18 6.89538 17.1046 5.99995 16 5.99995C14.8954 5.99995 14 6.89538 14 7.99995V8.99995H13V7.99995C13 6.89538 12.1046 5.99995 11 5.99995C9.89543 5.99995 9 6.89538 9 7.99995V8.99995H8V7.99995C8 6.89538 7.10457 5.99995 6 5.99995ZM3 17.9999V16.9999H4V17.9999H3ZM1 15.9999H2V16.4999V18.4999V18.9999H1V15.9999ZM3 10.9999H4V9.99995H3V10.9999ZM2 9.49995V8.99995H1V11.9999H2V11.4999V9.49995ZM5 18.4999V20C5 20.5522 5.44772 21 6 21C6.55228 21 7 20.5522 7 20V7.99995C7 7.44767 6.55228 6.99995 6 6.99995C5.44772 6.99995 5 7.44767 5 7.99995V9.49995V18.4999ZM9 17.9999H8V16.9999H9V17.9999ZM9 15.9999H8V11.9999H9V15.9999ZM9 10.9999H8V9.99995H9V10.9999ZM14 17.9999H13V16.9999H14V17.9999ZM14 15.9999H13V11.9999H14V15.9999ZM14 10.9999H13V9.99995H14V10.9999ZM19 17.9999H18V16.9999H19V17.9999ZM19 15.9999H18V11.9999H19V15.9999ZM19 10.9999H18V9.99995H19V10.9999ZM10 7.99995C10 7.44767 10.4477 6.99995 11 6.99995C11.5523 6.99995 12 7.44767 12 7.99995V20C12 20.5522 11.5523 21 11 21C10.4477 21 10 20.5522 10 20V7.99995ZM16 6.99995C15.4477 6.99995 15 7.44767 15 7.99995V20C15 20.5522 15.4477 21 16 21C16.5523 21 17 20.5522 17 20V7.99995C17 7.44767 16.5523 6.99995 16 6.99995ZM20 7.99995C20 7.44767 20.4477 6.99995 21 6.99995C21.5523 6.99995 22 7.44767 22 7.99995V20C22 20.5522 21.5523 21 21 21C20.4477 21 20 20.5522 20 20V7.99995ZM13.9995 1.49921C13.9993 1.22307 13.7753 0.999347 13.4992 0.999512L13.4739 0.999525C13.2458 0.999635 13.0345 0.999738 12.8659 1.01857C12.6947 1.03769 12.4571 1.08517 12.2708 1.27169C12.0845 1.45821 12.0373 1.6959 12.0184 1.86705C11.9998 2.03566 11.9999 2.24695 12.0001 2.47506V2.47508V2.47509L12.0001 2.5004C12.0002 2.73721 11.9997 2.88598 11.9909 2.99098C11.886 2.99987 11.7372 3.00056 11.5004 3.0007C11.2242 3.00087 11.0005 3.22486 11.0007 3.501C11.0008 3.77714 11.2248 4.00087 11.501 4.0007L11.5263 4.00069C11.7544 4.00058 11.9657 4.00048 12.1343 3.98164C12.3054 3.96252 12.5431 3.91505 12.7294 3.72852C12.9157 3.542 12.9629 3.30431 12.9818 3.13316C13.0004 2.96455 13.0003 2.75326 13.0001 2.52515V2.52514V2.52512L13.0001 2.49981C12.9999 2.263 13.0005 2.11424 13.0092 2.00924C13.1142 2.00035 13.263 1.99965 13.4998 1.99951C13.7759 1.99935 13.9997 1.77536 13.9995 1.49921ZM9.49919 0.999512C9.77533 0.999347 9.99932 1.22307 9.99949 1.49921C9.99965 1.77536 9.77593 1.99935 9.49979 1.99951C9.26298 1.99965 9.11421 2.00035 9.00922 2.00924C9.00046 2.11424 8.99994 2.263 9.00008 2.49981L9.0001 2.52512V2.52514C9.00026 2.75325 9.00041 2.96455 8.98178 3.13316C8.96286 3.30431 8.91567 3.542 8.72937 3.72852C8.54307 3.91505 8.30543 3.96252 8.13431 3.98164C7.96571 4.00048 7.75441 4.00058 7.52629 4.00069L7.50098 4.0007C7.22483 4.00087 7.00084 3.77714 7.00068 3.501C7.00051 3.22486 7.22424 3.00087 7.50038 3.0007C7.73719 3.00056 7.88595 2.99987 7.99094 2.99098C7.99971 2.88598 8.00023 2.73721 8.00008 2.5004L8.00007 2.47509C7.99991 2.24697 7.99976 2.03567 8.01839 1.86705C8.0373 1.6959 8.0845 1.45821 8.2708 1.27169C8.4571 1.08517 8.69473 1.03769 8.86586 1.01857C9.03446 0.999738 9.24576 0.999635 9.47388 0.999525L9.49919 0.999512Z" fill="black"/>
</svg>
