<svg version="1.0" xmlns="http://www.w3.org/2000/svg" width="20" height="20" viewBox="0 0 20 20" fill="none">
<g transform="translate(0,20) scale(0.000444,-0.000350)"
fill="#000000" stroke="none">
<path d="M3160 57110 c-396 -31 -849 -160 -1225 -347 -125 -63 -265 -140 -275 -152 -3 -3 -21 -14 -40 -24 -58 -29 -268 -183 -385 -282 -139 -117 -357 -340 -462 -472 -394 -494 -636 -1058 -718 -1669 -15 -109 -17 -2336 -28 -25464 -7 -13940 -9 -25424 -6 -25520 21 -587 267 -1256 650 -1766 560 -747 1374 -1228 2304 -1363 l140 -20 19395 -11 c19311 -11 19396 -11 19535 9 318 45 590 120 885 243 118 49 383 185 409 209 10 10 21 16 23 14 7 -7 282 183 393 271 142 113 406 378 519 519 391 491 623 1022 716 1641 l21 139 13 25402 c8 13971 10 25455 5 25520 -18 260 -71 519 -162 788 -426 1261 -1576 2173 -2911 2309 -122 13 -2064 15 -14111 20 -7683 3 -16357 8 -19275 10 -2918 2 -5352 0 -5410 -4z m37745 -1666 c714 -5 863 -11 1010 -40 185 -36 393 -111 540 -195 50 -28 96
-52 102 -52 7 0 11 -2 8 -5 -2 -2 35 -32 83 -66 47 -33 138 -112 202 -175 63 -63 119 -113 125 -112 5 2 7 -1 3 -4 -4 -4 12 -33 36 -64 156 -203 266 -443 327 -716 23 -99 23 -111 27 -990 2 -489 -1 -11881 -8 -25315 -10 -20961 -13 -24440 -25 -24528 -74 -531 -401 -1007 -880 -1280 -227 -128 -520 -218 -743 -228 -51 -2 -96 -5 -100 -6 -4 -2 -8570 0 -19037 4 -13013 5 -19082 11 -19195 18 -192 12 -318 36 -485 91 -609 203 -1061 710 -1187 1332 l-23 112 4 14320 c2 7876 7 19286 11 25355 l7 11035 25 115 c36 162 69 254 149 415 82 166 171 294 294 423 308 324 702 515 1158 562 88 9 36383 4 37572 -6z"/>
<path d="M30640 54149 c-609 -26 -1181 -238 -1653 -611 -130 -103 -338 -312 -446 -448 -391 -492 -627 -1106 -690 -1800 -27 -288 -9 -731 39 -1018 216 -1259 1083 -2186 2265 -2421 364 -72 829 -71 1188 4 418 86 808 263 1157 523 138 103 415 376 520 512 152 197 316 477 404 690 125 301 198 584 247 943 41 312 37 790 -11 1116 -154 1053 -749 1881 -1630 2269 -424 187 -866 263 -1390 241z m427 -1685 c97 -17 230 -57 296 -90 26 -14 47 -21 47 -17 0 5 4 4 8 -2 4 -5 39 -31 77 -56 341 -224 535 -677 535 -1248 0 -771 -329 -1335 -886 -1520 -149 -50 -235 -64 -394 -64 -269 -1 -485 62 -694 202 -67 44 -196 164 -244 226 -131 171 -222 391 -275 665 -19 100 -22 148 -21 370 0 234 2 266 27 392 134 684 528 1092 1117 1157 103 11 295 4 407 -15z"/>
<path d="M38135 54149 c-246 -20 -472 -151 -607 -350 -49 -73 -1258 -2249 -1250 -2249 4 0 2 -4 -4 -8 -12 -8 -45 -68 -43 -78 0 -4 -4 -10 -9 -13 -10 -7 -43 -67 -41 -77 0 -4 -4 -10 -9 -13 -10 -7 -43 -67 -41 -77 0 -4 -4 -10 -9 -13 -5 -3 -333 -589 -729 -1301 -720 -1295 -2358 -4240 -3526 -6340 -341 -613 -637 -1151 -657 -1195 -55 -117 -74 -208 -74 -345 1 -236 73 -418 233 -583 224 -233 560 -312 874 -207 165 56 292 148 404 295 17 22 265 461 550 975 286 514 1703 3061 3148 5660 2112 3796 2636 4745 2664 4825 36 100 36 101 36 265 -1 157 -2 169 -32 257 -75 225 -215 388 -418 488 -147 73 -288 98 -460 84z"/>
<path d="M5252 52699 c-35 -4 -80 -14 -100 -20 -20 -7 -43 -14 -51 -15 -31 -6 -121 -49 -185 -91 -187 -121 -317 -311 -360 -528 -15 -73 -16 -672 -14 -6785 l3 -6705 33 -95 c39 -110 75 -178 144 -263 117 -148 297 -257 481 -292 61 -11 2833 -14 17357 -17 l17285 -3 79 23 c44 13 120 44 170 70 74 37 109 64 187 142 132 131 203 259 235 427 21 109 21 1107 0 1216 -53 273 -244 505 -502 608 -214 86 -489 77 -687 -22 -276 -138 -444 -393 -464 -701 l-6 -98 -5537 0 c-3045 0 -10391 3 -16323 7 l-10787 6 0 5740 0 5740 9875 -6 c6616 -4 9895 -3 9933 4 323 57 583 295 662 606 117 453 -143 901 -595 1025 l-80 22 -3005 7 c-4307 9 -17673 8 -17748 -2z"/>
<path d="M39365 47603 c-118 -10 -337 -47 -460 -77 -666 -165 -1224 -545 -1630 -1113 -46 -64 -81 -121 -79 -125 3 -4 1 -8 -3 -8 -14 0 -107 -164 -182 -320 -166 -346 -265 -699 -317 -1130 -22 -179 -25 -648 -6 -815 104 -906 463 -1610 1086 -2133 307 -257 732 -464 1146 -555 510 -114 1039 -93 1538 59 118 36 327 121 442 179 52 27 101 50 108 51 7 1 47 24 90 50 585 360 1014 907 1244 1584 211 623 253 1395 113 2059 -181 856 -666 1543 -1365 1936 -47 26 -88 52 -91 56 -9 15 -222 106 -346 149 -332 115 -628 161 -1018 158 -126 -1 -248 -3 -270 -5z m495 -1674 c376 -52 663 -254 827 -584 79 -157 131 -336 158 -540 18 -139 21 -424 5 -565 -33 -300 -120 -562 -258 -775 -25 -38 -44 -70 -43 -70 11 0 -151 -161 -207 -206 -241 -194 -563 -291 -866 -260 -137 14 -143 15 -252 46 -426 124 -735 496 -839 1010 -75 369 -49 748 76 1100 180 510 573 822 1074 854 118 8 222 4 325 -10z"/>
<path d="M6150 35299 c-470 -61 -899 -293 -1195 -649 -197 -236 -337 -534 -397 -843 l-22 -112 -4 -2875 c-2 -2016 0 -2909 8 -2989 22 -233 74 -410 185 -636 85 -171 167 -290 291 -423 268 -288 600 -475 993 -560 l126 -27 3600 0 c2986 0 3612 2 3670 14 129 25 269 62 355 95 649 251 1095 816 1179 1496 15 118 15 5792 0 5910 -39 320 -154 605 -348 870 -65 89 -219 250 -310 324 -204 167 -463 297 -718 362 -226 57 0 54 -3831 53 -1934 -1 -3546 -5 -3582 -10z m7020 -1670 c42 -20 85 -64 99 -102 8 -20 11 -861 11 -2782 0 -1921 -3 -2762 -11 -2782 -13 -35 -54 -79 -94 -101 -28 -16 -282 -17 -3405 -20 -2440 -2 -3387 0 -3420 8 -60 15 -108 53 -131 104 -18 40 -19 127 -19 2791 l0 2751 23 44 c27 54 87 97 142 103 22 2 1554 3 3405 3 3086 -1 3368 -2 3400 -17z"/>
<path d="M19040 35298 c-109 -12 -255 -47 -376 -89 -648 -223 -1117 -785 -1219 -1459 -14 -94 -15 -403 -13 -3050 l3 -2945 23 -104 c110 -494 384 -898 792 -1168 228 -151 475 -244 765 -290 102 -16 353 -17 3665 -17 l3555 -1 114 23 c824 167 1417 822 1491 1647 8 83 10 1001 7 2975 l-3 2855 -21 110 c-106 540 -404 971 -865 1252 -276 168 -562 251 -893 259 -322 8 -6960 10 -7025 2z m6810 -1661 c213 -4 248 -14 297 -89 l28 -42 0 -2770 0 -2771 -21 -35 c-23 -41 -71 -76 -123 -90 -40 -11 -4099 -12 -5806 -1 l-990 6 -48 28 c-30 18 -54 42 -67 67 -20 39 -20 60 -20 2806 l0 2766 21 37 c26 46 74 79 130 89 40 7 6171 6 6599 -1z"/>
<path d="M31940 35289 c-201 -26 -406 -87 -584 -173 -573 -278 -962 -830
-1025 -1455 -8 -70 -11 -1015 -11 -2926 0 -1911 3 -2856 11 -2926 23 -227 75
-404 184 -624 85 -172 167 -290 291 -423 163 -175 331 -300 539 -402 108 -53
259 -112 318 -124 12 -3 47 -12 77 -20 179 -49 16 -47 3845 -43 l3570 3 90 21
c296 68 516 163 725 311 106 75 281 239 364 341 212 261 347 573 391 910 22
164 22 5787 0 5954 -54 412 -241 778 -546 1072 -236 226 -505 377 -822 459
-228 59 6 56 -3835 55 -1934 -1 -3546 -5 -3582 -10z m7020 -1670 c42 -20 85
-64 99 -102 15 -40 15 -5524 0 -5564 -5 -15 -24 -43 -42 -61 -65 -67 214 -62
-3487 -62 -3673 0 -3424 -4 -3482 57 -63 65 -58 -164 -58 2848 0 2448 2 2750
15 2782 27 64 72 99 145 114 19 4 1552 6 3405 5 3090 -1 3373 -2 3405 -17z"/>
<path d="M6085 24153 c-265 -25 -584 -135 -811 -279 -478 -304 -787 -803 -844
-1363 -7 -69 -10 -1028 -10 -2925 0 -2446 2 -2838 15 -2950 8 -70 17 -131 20
-136 2 -4 7 -29 10 -54 3 -26 22 -93 41 -149 20 -56 39 -116 43 -133 11 -42
94 -205 148 -289 78 -121 167 -227 280 -335 144 -138 265 -224 444 -313 234
-119 449 -178 715 -197 184 -13 6775 -13 6969 0 590 40 1093 332 1432 831 54
78 179 321 206 400 30 89 60 205 79 309 11 62 13 604 13 3020 0 2816 -1 2950
-18 3049 -29 163 -121 448 -149 459 -4 2 -6 7 -3 11 6 11 -89 174 -165 284
-83 119 -297 333 -420 419 -257 182 -540 293 -843 333 -104 13 -524 15 -3615
13 -1923 -1 -3515 -3 -3537 -5z m6984 -1683 c49 -24 89 -71 96 -113 3 -18 4
-1274 3 -2792 l-3 -2760 -23 -31 c-13 -17 -43 -42 -65 -55 l-42 -24 -3384 -3
c-2302 -1 -3396 1 -3422 8 -50 14 -98 55 -120 105 -18 38 -19 144 -19 2788 0
2450 2 2752 15 2784 21 50 42 72 90 94 39 18 162 19 3438 19 3353 0 3398 0
3436 -20z"/>
<path d="M19155 24113 c-563 -57 -1059 -351 -1367 -812 -134 -201 -234 -443
-280 -681 l-22 -115 -4 -2875 c-2 -1980 0 -2910 8 -2987 12 -129 38 -261 75
-383 14 -47 27 -92 29 -101 21 -82 142 -303 238 -434 75 -102 299 -320 408
-398 122 -87 355 -203 497 -250 139 -45 292 -75 448 -88 182 -15 6775 -25
6973 -10 472 34 872 214 1197 537 160 158 272 321 385 557 67 140 91 209 115
322 4 17 14 62 23 100 14 63 16 357 19 2980 3 2096 1 2938 -7 3010 -47 422
-239 809 -548 1107 -83 80 -238 203 -272 216 -8 3 -24 14 -34 24 -34 31 -276
145 -386 181 -134 45 -267 73 -400 86 -94 9 -7009 23 -7095 14z m6977 -1694
c20 -10 49 -35 65 -56 l28 -36 3 -2770 c2 -2704 2 -2770 -17 -2812 -14 -31
-32 -51 -67 -71 l-49 -29 -3380 1 c-2606 1 -3390 4 -3423 13 -56 16 -119 73
-132 119 -6 25 -10 956 -10 2780 0 2446 2 2747 15 2779 21 49 42 72 85 92 33
15 329 16 3440 12 3313 -3 3406 -4 3442 -22z"/>
<path d="M32173 24099 c-622 -73 -1164 -454 -1447 -1016 -87 -175 -153 -400
-175 -604 -16 -148 -28 -16856 -12 -17004 48 -440 226 -812 535 -1117 309
-306 707 -488 1151 -528 83 -8 1185 -10 3600 -7 l3480 3 112 22 c441 86 798
284 1075 597 250 283 407 637 447 1005 6 63 11 2941 13 8570 3 8024 2 8480
-14 8565 -10 50 -23 106 -29 125 -5 19 -13 49 -16 65 -8 51 -73 215 -125 320
-230 458 -655 809 -1148 945 -251 70 112 64 -3825 66 -1952 1 -3582 -2 -3622
-7z m7013 -1678 c23 -10 54 -36 70 -57 l29 -37 -3 -8346 -4 -8346 -22 -45
c-17 -36 -33 -51 -76 -72 l-54 -28 -3386 0 -3386 0 -50 25 c-28 14 -59 40 -74
62 l-25 37 3 8339 c3 7344 5 8345 18 8376 20 48 42 70 89 92 39 18 162 19
3435 19 3294 0 3396 -1 3436 -19z"/>
<path d="M5945 12999 c-644 -67 -1251 -511 -1491 -1089 -14 -36 -32 -78 -39
-95 -44 -102 -90 -307 -105 -466 -8 -80 -10 -971 -7 -2989 3 -2677 4 -2881 20
-2960 88 -429 269 -760 567 -1035 305 -282 683 -447 1105 -485 83 -8 1185 -10
3600 -7 l3480 3 112 22 c221 43 386 100 563 194 451 240 791 669 915 1155 59
230 56 52 52 3243 -3 3245 3 2957 -68 3200 -206 710 -831 1228 -1581 1309
-118 13 -6999 13 -7123 0z m7001 -1678 c23 -10 54 -36 70 -57 l29 -37 3 -2774
c2 -2748 2 -2774 -18 -2812 -21 -43 -57 -72 -109 -89 -25 -9 -888 -12 -3415
-12 -3249 0 -3383 1 -3421 19 -57 25 -102 81 -110 133 -3 24 -5 1276 -3 2784
l3 2740 27 41 c15 23 44 49 70 62 l43 21 3395 0 c3294 0 3396 -1 3436 -19z"/>
<path d="M19010 12958 c-861 -89 -1545 -769 -1639 -1630 -15 -135 -15 -5720 0
-5856 59 -547 353 -1026 819 -1336 237 -158 538 -263 850 -297 153 -16 6859
-26 7042 -10 340 31 637 135 908 322 350 240 616 611 725 1012 64 235 58 -38
62 3162 3 2049 1 2938 -7 3005 -15 129 -43 262 -80 373 -57 170 -188 416 -286
536 -59 72 -148 172 -191 212 -302 284 -696 463 -1103 498 -138 12 -6986 21
-7100 9z m6998 -1690 c23 -11 55 -36 70 -56 l27 -35 3 -2774 c2 -2748 2 -2774
-18 -2812 -22 -45 -58 -73 -115 -91 -33 -11 -662 -12 -3412 -7 -3286 5 -3373
6 -3415 25 -59 26 -105 81 -113 134 -3 24 -5 1276 -3 2784 l3 2740 27 41 c14
22 44 49 65 59 39 19 94 20 3439 16 3385 -4 3399 -4 3442 -24z"/>
</g>
</svg>
