<svg width="24" height="24" viewBox="0 0 24 24" fill="none" xmlns="http://www.w3.org/2000/svg">
<circle cx="12" cy="12" r="11" stroke="black" stroke-width="2"/>
<path d="M5 8.27273V7.50589C5 7.00727 5.36732 6.58484 5.8611 6.51559L15.5278 5.15974C16.1294 5.07536 16.6667 5.54252 16.6667 6.15005V8.27273M5 8.27273V16C5 16.5523 5.44772 17 6 17H18C18.5523 17 19 16.5523 19 16V9.27273C19 8.72044 18.5523 8.27273 18 8.27273H16.6667M5 8.27273H16.6667" stroke="black" stroke-width="2"/>
<path d="M18 11H14.2198C13.8446 11 13.4829 11.1407 13.2063 11.3943V11.3943C12.5577 11.9888 12.5577 13.0112 13.2063 13.6057V13.6057C13.4829 13.8593 13.8446 14 14.2198 14H18" stroke="black" stroke-width="2"/>
</svg>
