<svg width="20" height="22" viewBox="0 0 20 22" fill="none" xmlns="http://www.w3.org/2000/svg">
<path fill-rule="evenodd" clip-rule="evenodd" d="M0 1C0 0.447715 0.447715 0 1 0H9.75C10.0218 0 10.282 0.110672 10.4705 0.306531L15.7205 5.76108C15.8998 5.9474 16 6.19594 16 6.45455V8.5C16 9.05229 15.5523 9.5 15 9.5C14.4477 9.5 14 9.05229 14 8.5V7.45455H9.75C9.19771 7.45455 8.75 7.00683 8.75 6.45455V2H2V20H6C6.55228 20 7 20.4477 7 21C7 21.5523 6.55228 22 6 22H1C0.447715 22 0 21.5523 0 21V1ZM10.75 3.48099L12.6495 5.45455H10.75V3.48099Z" fill="black"/>
<path fill-rule="evenodd" clip-rule="evenodd" d="M15.94 10.2929C16.3305 9.90237 16.9637 9.90237 17.3542 10.2929L19.7071 12.6458C20.0976 13.0364 20.0976 13.6695 19.7071 14.06L12.6483 21.1189C12.5087 21.2585 12.3309 21.3536 12.1373 21.3923L9.19613 21.9806C8.86827 22.0462 8.52933 21.9435 8.29291 21.7071C8.05649 21.4707 7.95386 21.1317 8.01944 20.8039L8.60767 17.8627C8.64639 17.6691 8.74154 17.4913 8.88114 17.3517L15.94 10.2929ZM10.5095 18.5518L10.2748 19.7252L11.4482 19.4906L17.5858 13.3529L16.6471 12.4142L10.5095 18.5518Z" fill="black"/>
<path fill-rule="evenodd" clip-rule="evenodd" d="M3.90909 3.66667C3.90909 3.29848 4.18043 3 4.51515 3H6.0303C6.62601 3 7.12752 3.22246 7.48158 3.61193C7.82994 3.99513 8 4.50176 8 5C8 5.49824 7.82994 6.00487 7.48158 6.38807C7.12752 6.77754 6.62601 7 6.0303 7H5.12121V7.33333H6.0303C6.36502 7.33333 6.63636 7.63181 6.63636 8C6.63636 8.36819 6.36502 8.66667 6.0303 8.66667H5.12121V9.33333C5.12121 9.70152 4.84987 10 4.51515 10C4.18043 10 3.90909 9.70152 3.90909 9.33333V8.66667H3.60606C3.27134 8.66667 3 8.36819 3 8C3 7.63181 3.27134 7.33333 3.60606 7.33333H3.90909V7H3.60606C3.27134 7 3 6.70152 3 6.33333C3 5.96514 3.27134 5.66667 3.60606 5.66667H3.90909V3.66667ZM5.12121 5.66667H6.0303C6.34369 5.66667 6.524 5.55579 6.62448 5.44526C6.73067 5.32846 6.78788 5.16843 6.78788 5C6.78788 4.83157 6.73067 4.67154 6.62448 4.55474C6.524 4.44421 6.34369 4.33333 6.0303 4.33333H5.12121V5.66667Z" fill="black"/>
<path fill-rule="evenodd" clip-rule="evenodd" d="M3 13C3 12.4477 3.35818 12 3.8 12H10.2C10.6418 12 11 12.4477 11 13C11 13.5523 10.6418 14 10.2 14H3.8C3.35818 14 3 13.5523 3 13Z" fill="black"/>
<path fill-rule="evenodd" clip-rule="evenodd" d="M3 17C3 16.4477 3.17909 16 3.4 16H6.6C6.82092 16 7 16.4477 7 17C7 17.5523 6.82092 18 6.6 18H3.4C3.17909 18 3 17.5523 3 17Z" fill="black"/>
</svg>
