<svg version="1.0" xmlns="http://www.w3.org/2000/svg"
 width="20" height="20" viewBox="0 0 20 20">
<g transform="translate(0,20) scale(0.002174,-0.001887)"
fill="#000000" stroke="none">
<path d="M2692 9763 l3 -438 250 0 250 0 5 185 5 185 1970 3 c1084 1 1980 0
1993 -3 l22 -5 0 -400 0 -400 420 0 420 0 -2 -2882 -3 -2883 -107 -3 -108 -3
0 -249 0 -250 360 0 360 0 0 3264 0 3265 -542 525 -542 526 -2378 0 -2378 0 2
-437z"/>
<path d="M1660 8705 l0 -435 250 0 250 0 0 185 0 185 1995 0 1995 0 0 -400 0
-400 420 0 420 0 0 -2885 0 -2885 -110 0 -110 0 0 -255 0 -255 360 0 360 0 0
3268 0 3268 -537 522 -538 521 -2377 1 -2378 0 0 -435z"/>
<path d="M670 4190 l0 -3790 2920 0 2920 0 0 3264 0 3264 -542 526 -543 526
-2377 0 -2378 0 0 -3790z m4490 2890 l0 -400 420 0 420 0 -2 -2887 -3 -2888
-2390 -3 c-1314 -1 -2400 0 -2412 3 l-23 5 0 3279 c0 1803 3 3281 7 3284 3 4
901 7 1995 7 l1988 0 0 -400z"/>
<path d="M1932 5879 c-124 -62 -139 -259 -26 -345 l37 -29 1626 -3 c894 -1
1636 0 1648 3 31 7 90 61 110 99 10 18 17 56 17 91 1 74 -23 126 -77 169 l-39
31 -1626 3 -1627 2 -43 -21z"/>
<path d="M1932 4919 c-124 -62 -139 -259 -26 -345 l37 -29 1635 -3 1634 -2 37
21 c134 75 126 297 -13 360 -39 18 -100 19 -1651 19 l-1610 0 -43 -21z"/>
<path d="M1932 4029 c-124 -62 -139 -259 -26 -345 l37 -29 1635 -3 1634 -2 37
21 c134 75 126 297 -13 360 -39 18 -100 19 -1651 19 l-1610 0 -43 -21z"/>
<path d="M1955 3079 c-39 -11 -92 -63 -111 -107 -19 -47 -17 -129 5 -177 25
-56 71 -91 133 -104 37 -8 523 -11 1638 -9 l1585 3 43 25 c136 78 129 297 -12
361 -40 18 -99 19 -1646 18 -895 -1 -1618 -5 -1635 -10z"/>
<path d="M1873 2161 c-26 -12 -52 -35 -70 -62 -25 -37 -28 -52 -28 -119 0 -67
3 -82 28 -119 18 -27 44 -50 70 -62 41 -18 92 -19 1655 -19 1771 0 1650 -4
1708 62 66 75 66 201 0 276 -58 66 63 62 -1708 62 -1563 0 -1614 -1 -1655 -19z"/>
</g>
</svg>
