<svg width="24" height="24" viewBox="0 0 24 24" fill="none" xmlns="http://www.w3.org/2000/svg">
    <path fill-rule="evenodd" clip-rule="evenodd" d="M16 3.5C16 2.94772 15.5523 2.5 15 2.5C14.4477 2.5 14 2.94772 14 3.5V9C14 9.55229 14.4477 10 15 10H20.5C21.0523 10 21.5 9.55229 21.5 9C21.5 8.44772 21.0523 8 20.5 8H16V3.5ZM8 20.5C8 21.0523 8.44771 21.5 9 21.5C9.55228 21.5 10 21.0523 10 20.5V15C10 14.4477 9.55228 14 9 14H3.5C2.94772 14 2.5 14.4477 2.5 15C2.5 15.5523 2.94772 16 3.5 16H8V20.5ZM2.5 9C2.5 8.44772 2.94772 8 3.5 8H8V3.5C8 2.94772 8.44772 2.5 9 2.5C9.55228 2.5 10 2.94772 10 3.5V9C10 9.55228 9.55228 10 9 10H3.5C2.94772 10 2.5 9.55228 2.5 9ZM20.5 16C21.0523 16 21.5 15.5523 21.5 15C21.5 14.4477 21.0523 14 20.5 14H15C14.4477 14 14 14.4477 14 15L14 20.5C14 21.0523 14.4477 21.5 15 21.5C15.5523 21.5 16 21.0523 16 20.5L16 16H20.5Z" fill="black"/>
</svg>
