<svg width="25" height="24" viewBox="0 0 25 24" fill="none" xmlns="http://www.w3.org/2000/svg">
<g clip-path="url(#clip0_1210_50251)">
<path fill-rule="evenodd" clip-rule="evenodd" d="M18.1326 4V8.5C18.1326 8.77614 17.9087 9 17.6326 9H16.6326C16.3564 9 16.1326 8.77614 16.1326 8.5C16.1326 8.22386 15.9087 8 15.6326 8H2.63257C2.35643 8 2.13257 8.22386 2.13257 8.5V17.5C2.13257 17.7761 2.35643 18 2.63257 18H6.63257C6.90871 18 7.13257 18.2239 7.13257 18.5V19.5C7.13257 19.7761 6.90871 20 6.63257 20H2.13257C1.03257 20 0.132568 19.1 0.132568 18V4C0.132568 2.9 1.03257 2 2.13257 2H2.63257C2.90871 2 3.13257 1.77614 3.13257 1.5V0.5C3.13257 0.223858 3.35643 0 3.63257 0H4.63257C4.90871 0 5.13257 0.223858 5.13257 0.5V1.5C5.13257 1.77614 5.35643 2 5.63257 2H12.6326C12.9087 2 13.1326 1.77614 13.1326 1.5V0.5C13.1326 0.223858 13.3564 0 13.6326 0H14.6326C14.9087 0 15.1326 0.223858 15.1326 0.5V1.5C15.1326 1.77614 15.3564 2 15.6326 2H16.1326C17.2326 2 18.1326 2.9 18.1326 4ZM2.13257 5.5C2.13257 5.77614 2.35643 6 2.63257 6H15.6326C15.9087 6 16.1326 5.77614 16.1326 5.5V4.5C16.1326 4.22386 15.9087 4 15.6326 4H2.63257C2.35643 4 2.13257 4.22386 2.13257 4.5V5.5Z" fill="black"/>
<path fill-rule="evenodd" clip-rule="evenodd" d="M21.9609 21.75L15.6326 11.7422L9.30425 21.75H21.9609ZM17.323 10.6733C16.5379 9.4318 14.7272 9.4318 13.9422 10.6733L7.61385 20.6811C6.77177 22.0128 7.72866 23.75 9.30425 23.75H21.9609C23.5365 23.75 24.4934 22.0128 23.6513 20.6811L17.323 10.6733Z" fill="black"/>
<path fill-rule="evenodd" clip-rule="evenodd" d="M15.6326 14C16.1849 14 16.6326 14.4477 16.6326 15V17C16.6326 17.5523 16.1849 18 15.6326 18C15.0803 18 14.6326 17.5523 14.6326 17V15C14.6326 14.4477 15.0803 14 15.6326 14Z" fill="black"/>
<path d="M16.6326 20C16.6326 20.5523 16.1849 21 15.6326 21C15.0803 21 14.6326 20.5523 14.6326 20C14.6326 19.4477 15.0803 19 15.6326 19C16.1849 19 16.6326 19.4477 16.6326 20Z" fill="black"/>
</g>
<defs>
<clipPath id="clip0_1210_50251">
<rect width="24" height="24" fill="white" transform="translate(0.132568)"/>
</clipPath>
</defs>
</svg>
