<svg width="24" height="24" viewBox="0 0 24 24" fill="none" xmlns="http://www.w3.org/2000/svg">
<path fill-rule="evenodd" clip-rule="evenodd" d="M8.64286 2.5C7.45939 2.5 6.5 3.45939 6.5 4.64286V6.25C6.5 6.33608 6.51015 6.41979 6.52932 6.5H4.64286C3.45939 6.5 2.5 7.45939 2.5 8.64286V19.3571C2.5 20.5406 3.45939 21.5 4.64286 21.5H15.3571C16.5406 21.5 17.5 20.5406 17.5 19.3571V17.4707C17.5802 17.4898 17.6639 17.5 17.75 17.5H19.3571C20.5406 17.5 21.5 16.5406 21.5 15.3571V4.64286C21.5 3.45939 20.5406 2.5 19.3571 2.5H8.64286ZM17.5 15.3865C17.5802 15.3673 17.6639 15.3571 17.75 15.3571H19.3571V4.64286H8.64286V6.25C8.64286 6.33608 8.63271 6.41979 8.61353 6.5H15.3571C16.5406 6.5 17.5 7.45939 17.5 8.64286V15.3865ZM4.64286 8.64286H15.3571V19.3571H4.64286L4.64286 8.64286Z" fill="black"/>
</svg>
