<svg width="24" height="24" viewBox="0 0 24 24" fill="none" xmlns="http://www.w3.org/2000/svg">
<rect width="24" height="24" fill="none"/>
<path fill-rule="evenodd" clip-rule="evenodd" d="M11.3753 2.21913C11.7405 1.92696 12.2595 1.92696 12.6247 2.21913L17.3508 6H19C19.5523 6 20 6.44772 20 7V13.5H23C23.5523 13.5 24 13.9477 24 14.5V20.5C24 21.0523 23.5523 21.5 23 21.5H15C14.4477 21.5 14 21.0523 14 20.5V14.5C14 13.9477 14.4477 13.5 15 13.5H18V8H17.3508L12.6247 11.7809C12.2595 12.073 11.7405 12.073 11.3753 11.7809L6.64922 8H6V13.5H9C9.55229 13.5 10 13.9477 10 14.5V20.5C10 21.0523 9.55229 21.5 9 21.5H1C0.447715 21.5 0 21.0523 0 20.5V14.5C0 13.9477 0.447715 13.5 1 13.5H4V7C4 6.44772 4.44772 6 5 6H6.64922L11.3753 2.21913ZM8.60078 7L12 9.71938L15.3992 7L12 4.28062L8.60078 7ZM2 15.5V19.5H8V15.5H2ZM16 15.5V19.5H22V15.5H16Z" fill="black"/>
</svg>
