<svg width="24" height="24" viewBox="0 0 24 24" fill="none" xmlns="http://www.w3.org/2000/svg">
<path fill-rule="evenodd" clip-rule="evenodd" d="M3.00958 3C3.56186 3.00041 4.00925 3.44846 4.00884 4.00074L3.00884 4C4.00884 4.00074 4.00884 4.00074 4.00884 4.00074L4.00438 10.2507C4.00216 13.5009 3.99995 17.0004 4 18C4.00004 18.8436 4.21187 19.2943 4.46 19.5413C4.70891 19.7892 5.16296 20 6.00884 20H8.99943L9 21L8.99986 22H6.00884C4.85467 22 3.80435 21.7108 3.04888 20.9587C2.29262 20.2057 2.00006 19.1564 2 18C1.99995 16.9996 2.00216 13.4991 2.00438 10.2493L2.00884 3.9998C2.00884 3.9998 2.00884 3.99926 3.00779 4L2.00884 3.9998C2.00925 3.44752 2.4573 2.99959 3.00958 3ZM10 21C10 21.5523 9.55214 22 8.99986 22L9 21L8.99943 20C9.55171 20 10 20.4477 10 21Z" fill="black"/>
<path fill-rule="evenodd" clip-rule="evenodd" d="M2.82667 1.34073C3.41857 0.544871 4.33351 0 5.50881 0H18.9995C18.9995 0 19 0 19 1C19 2 18.9999 2 18.9999 2H5.50881C5.01491 2 4.67629 2.20513 4.4315 2.53427C4.16552 2.8919 4.00065 3.42109 4 4.00111C3.99936 4.58119 4.16305 5.10948 4.42802 5.46611C4.6715 5.79381 5.01031 6 5.50881 6H18.9995C18.9995 6 19 6 19 7C20 7 20 7.00014 20 7.00014V8C20 8.55228 19.5523 9 19 9C18.4477 9 18 8.55228 18 8H5.50881C4.33143 8 3.41501 7.45619 2.82263 6.65889C2.25175 5.89052 1.99898 4.91881 2 3.99889C2.00103 3.07891 2.25596 2.1081 2.82667 1.34073ZM19 7L20 7.00014C20 6.73492 19.8946 6.48043 19.7071 6.29289C19.5196 6.10536 19.2648 6 18.9995 6L19 7ZM20 1C20 1.55228 19.5522 2 18.9999 2L19 1L18.9995 0C19.5518 0 20 0.447715 20 1Z" fill="black"/>
<path fill-rule="evenodd" clip-rule="evenodd" d="M5 4C5 3.44772 5.44772 3 6 3H19C19.5523 3 20 3.44772 20 4C20 4.55228 19.5523 5 19 5H6C5.44772 5 5 4.55228 5 4Z" fill="black"/>
<path d="M10 12C10.5523 12 11 11.5523 11 11C11 10.4477 10.5523 10 10 10V12ZM6 11V10C5.44772 10 5 10.4477 5 11H6ZM6 15H5C5 15.5523 5.44772 16 6 16V15ZM8 16C8.55228 16 9 15.5523 9 15C9 14.4477 8.55228 14 8 14V16ZM10 10H6V12H10V10ZM5 11V15H7V11H5ZM6 16H8V14H6V16Z" fill="black"/>
<path fill-rule="evenodd" clip-rule="evenodd" d="M15.0909 13.7619C15.0909 13.3411 15.4165 13 15.8182 13H17.6364C18.3512 13 18.953 13.2542 19.3779 13.6993C19.7959 14.1373 20 14.7163 20 15.2857C20 15.8551 19.7959 16.4341 19.3779 16.8721C18.953 17.3172 18.3512 17.5714 17.6364 17.5714H16.5455V17.9524H17.6364C18.038 17.9524 18.3636 18.2935 18.3636 18.7143C18.3636 19.1351 18.038 19.4762 17.6364 19.4762H16.5455V20.2381C16.5455 20.6589 16.2198 21 15.8182 21C15.4165 21 15.0909 20.6589 15.0909 20.2381V19.4762H14.7273C14.3256 19.4762 14 19.1351 14 18.7143C14 18.2935 14.3256 17.9524 14.7273 17.9524H15.0909V17.5714H14.7273C14.3256 17.5714 14 17.2303 14 16.8095C14 16.3887 14.3256 16.0476 14.7273 16.0476H15.0909V13.7619ZM16.5455 16.0476H17.6364C18.0124 16.0476 18.2288 15.9209 18.3494 15.7946C18.4768 15.6611 18.5455 15.4782 18.5455 15.2857C18.5455 15.0932 18.4768 14.9103 18.3494 14.7768C18.2288 14.6505 18.0124 14.5238 17.6364 14.5238H16.5455V16.0476Z" fill="black"/>
<circle cx="17" cy="17" r="6" stroke="black" stroke-width="2"/>
</svg>
