<?xml version="1.0" encoding="UTF-8"?>
<svg xmlns="http://www.w3.org/2000/svg" xmlns:xlink="http://www.w3.org/1999/xlink" width="32px" height="32px"
     viewBox="0 0 32 32" version="1.1">
    <g id="surface1">
        <path style=" stroke:none;fill-rule:nonzero;fill:rgb(10.196078%,9.019608%,10.588235%);fill-opacity:1;"
              d="M 26.351562 14.710938 C 26.351562 14.097656 26.050781 13.558594 25.589844 13.222656 C 25.589844 13.21875 25.59375 13.21875 25.59375 13.214844 C 25.863281 12.484375 26 11.605469 26 10.605469 C 26 7.210938 21.210938 5.4375 16.480469 5.4375 C 16.472656 5.4375 16.46875 5.441406 16.460938 5.441406 C 16.273438 5.429688 16.085938 5.417969 15.894531 5.417969 C 11.265625 5.417969 7.5 8.640625 7.5 12.605469 C 7.5 13.492188 8.066406 14.246094 8.855469 14.539062 C 7.894531 15.148438 7.25 16.21875 7.25 17.4375 C 7.25 17.910156 7.347656 18.378906 7.539062 18.808594 C 7.347656 19.242188 7.25 19.714844 7.25 20.183594 C 7.25 21.414062 7.917969 22.546875 8.976562 23.15625 C 9.089844 24.941406 10.578125 26.355469 12.390625 26.355469 C 12.828125 26.355469 13.261719 26.273438 13.660156 26.113281 C 13.671875 26.121094 13.679688 26.132812 13.691406 26.140625 C 13.71875 26.167969 13.742188 26.191406 13.761719 26.203125 C 13.78125 26.222656 13.839844 26.269531 13.859375 26.285156 C 13.933594 26.34375 14.003906 26.398438 14.097656 26.460938 C 14.109375 26.472656 14.15625 26.503906 14.171875 26.511719 C 14.296875 26.589844 14.421875 26.660156 14.5625 26.726562 C 14.570312 26.730469 14.585938 26.734375 14.597656 26.742188 C 14.703125 26.789062 14.816406 26.832031 14.949219 26.875 C 14.960938 26.878906 15 26.890625 15.011719 26.894531 C 15.046875 26.90625 15.078125 26.914062 15.082031 26.914062 C 15.191406 26.945312 15.296875 26.964844 15.375 26.980469 C 15.425781 26.992188 15.476562 27 15.539062 27.007812 C 15.6875 27.03125 15.839844 27.042969 16 27.042969 C 16.15625 27.042969 16.308594 27.03125 16.480469 27.007812 C 16.523438 27 16.574219 26.992188 16.59375 26.984375 C 16.703125 26.964844 16.808594 26.945312 16.882812 26.921875 C 16.914062 26.914062 16.953125 26.90625 17.015625 26.886719 C 17.027344 26.882812 17.058594 26.871094 17.070312 26.871094 C 17.183594 26.832031 17.296875 26.789062 17.402344 26.742188 C 17.421875 26.734375 17.4375 26.726562 17.445312 26.722656 C 17.578125 26.664062 17.703125 26.589844 17.855469 26.492188 C 17.859375 26.492188 17.917969 26.449219 17.921875 26.445312 C 17.996094 26.398438 18.070312 26.339844 18.179688 26.253906 C 18.199219 26.238281 18.210938 26.230469 18.226562 26.210938 C 18.253906 26.191406 18.277344 26.171875 18.277344 26.171875 C 18.296875 26.152344 18.320312 26.132812 18.339844 26.113281 C 18.738281 26.273438 19.171875 26.355469 19.609375 26.355469 C 21.421875 26.355469 22.910156 24.941406 23.027344 23.15625 C 24.082031 22.546875 24.75 21.414062 24.75 20.183594 C 24.75 19.710938 24.648438 19.238281 24.460938 18.808594 C 24.648438 18.382812 24.75 17.914062 24.75 17.4375 C 24.75 17.128906 24.699219 16.832031 24.621094 16.546875 C 25.585938 16.488281 26.351562 15.691406 26.351562 14.710938 Z M 25 10.605469 C 25 11.488281 24.882812 12.25 24.65625 12.867188 C 24.65625 12.871094 24.65625 12.875 24.652344 12.878906 C 24.601562 12.875 24.554688 12.863281 24.503906 12.863281 C 24.421875 12.863281 24.339844 12.875 24.261719 12.886719 C 24.273438 12.792969 24.289062 12.699219 24.289062 12.605469 C 24.289062 10.449219 23.171875 8.515625 21.410156 7.199219 C 23.496094 7.902344 25 9.070312 25 10.605469 Z M 16 12.667969 C 14.980469 12.667969 14.152344 13.496094 14.152344 14.511719 C 14.152344 14.640625 14.164062 14.765625 14.191406 14.886719 C 14 14.921875 13.8125 14.960938 13.621094 15.011719 C 13.597656 15.019531 13.570312 15.027344 13.546875 15.039062 C 13.570312 15.027344 13.582031 15.023438 13.570312 15.027344 C 13.445312 15.0625 13.324219 15.097656 13.203125 15.136719 C 12.648438 14.523438 11.882812 14.132812 11.0625 14.035156 C 11.421875 13.664062 11.644531 13.160156 11.644531 12.605469 C 11.644531 10.664062 13.550781 9.082031 15.894531 9.082031 C 18.238281 9.082031 20.144531 10.664062 20.144531 12.605469 C 20.144531 13.175781 20.378906 13.691406 20.75 14.066406 C 20 14.195312 19.308594 14.570312 18.796875 15.136719 C 18.679688 15.101562 18.570312 15.066406 18.460938 15.039062 C 18.445312 15.03125 18.425781 15.027344 18.40625 15.023438 C 18.398438 15.019531 18.386719 15.015625 18.378906 15.011719 C 18.1875 14.960938 18 14.921875 17.808594 14.886719 C 17.835938 14.765625 17.847656 14.640625 17.847656 14.515625 C 17.847656 13.496094 17.019531 12.667969 16 12.667969 Z M 16.847656 14.511719 C 16.847656 14.980469 16.46875 15.359375 16 15.359375 C 15.53125 15.359375 15.152344 14.980469 15.152344 14.511719 C 15.152344 14.046875 15.53125 13.667969 16 13.667969 C 16.46875 13.667969 16.847656 14.046875 16.847656 14.511719 Z M 8.5 12.605469 C 8.5 9.191406 11.816406 6.417969 15.894531 6.417969 C 19.972656 6.417969 23.289062 9.191406 23.289062 12.605469 C 23.289062 13.195312 22.808594 13.675781 22.21875 13.675781 C 21.625 13.675781 21.144531 13.195312 21.144531 12.605469 C 21.144531 10.109375 18.789062 8.082031 15.894531 8.082031 C 13 8.082031 10.644531 10.109375 10.644531 12.605469 C 10.644531 13.195312 10.164062 13.675781 9.570312 13.675781 C 8.980469 13.675781 8.5 13.195312 8.5 12.605469 Z M 23.464844 19.046875 C 23.652344 19.394531 23.75 19.78125 23.75 20.183594 C 23.75 21.132812 23.1875 22 22.320312 22.394531 C 22.136719 22.476562 22.019531 22.664062 22.027344 22.867188 C 22.027344 22.890625 22.03125 22.914062 22.035156 22.933594 C 22.035156 24.269531 20.945312 25.355469 19.609375 25.355469 C 19.207031 25.355469 18.8125 25.257812 18.46875 25.070312 C 18.3125 24.984375 18.117188 24.992188 17.964844 25.085938 C 17.914062 25.117188 17.878906 25.152344 17.847656 25.183594 C 17.835938 25.199219 17.8125 25.222656 17.804688 25.230469 C 17.75 25.296875 17.691406 25.355469 17.597656 25.4375 C 17.566406 25.460938 17.539062 25.488281 17.527344 25.496094 C 17.476562 25.535156 17.425781 25.574219 17.359375 25.617188 L 17.304688 25.660156 C 17.214844 25.71875 17.125 25.769531 17.046875 25.808594 C 17.023438 25.816406 17 25.824219 16.980469 25.835938 C 16.90625 25.871094 16.828125 25.894531 16.761719 25.917969 L 16.695312 25.9375 L 16.636719 25.953125 C 16.5625 25.976562 16.492188 25.988281 16.390625 26.007812 C 16.367188 26.011719 16.347656 26.015625 16.324219 26.019531 C 16.113281 26.046875 15.886719 26.046875 15.671875 26.019531 C 15.652344 26.015625 15.632812 26.011719 15.578125 26 C 15.507812 25.988281 15.433594 25.976562 15.359375 25.953125 L 15.308594 25.941406 L 15.25 25.921875 C 15.171875 25.894531 15.09375 25.871094 15.019531 25.835938 C 15 25.824219 14.992188 25.820312 14.96875 25.8125 C 14.875 25.769531 14.785156 25.71875 14.699219 25.660156 L 14.625 25.609375 C 14.574219 25.574219 14.527344 25.535156 14.476562 25.496094 L 14.453125 25.480469 C 14.433594 25.460938 14.410156 25.441406 14.371094 25.410156 C 14.308594 25.355469 14.25 25.292969 14.1875 25.222656 L 14.140625 25.171875 C 14.105469 25.136719 14.066406 25.105469 14.035156 25.085938 C 13.882812 24.988281 13.6875 24.984375 13.53125 25.070312 C 13.1875 25.257812 12.792969 25.355469 12.390625 25.355469 C 11.054688 25.355469 9.96875 24.269531 9.96875 22.933594 L 9.46875 22.921875 L 9.972656 22.867188 C 9.980469 22.664062 9.863281 22.476562 9.679688 22.394531 C 8.808594 22 8.25 21.132812 8.25 20.183594 C 8.25 19.785156 8.34375 19.398438 8.535156 19.039062 C 8.613281 18.890625 8.613281 18.71875 8.53125 18.570312 C 8.347656 18.226562 8.25 17.832031 8.25 17.4375 C 8.25 16.097656 9.335938 15.011719 10.671875 15.011719 C 11.445312 15.011719 12.179688 15.386719 12.632812 16.015625 C 12.761719 16.195312 13 16.269531 13.210938 16.191406 C 13.410156 16.121094 13.617188 16.050781 13.839844 15.988281 C 13.851562 15.988281 13.871094 15.980469 13.886719 15.976562 C 14.078125 15.925781 14.265625 15.882812 14.460938 15.851562 C 14.480469 15.847656 14.519531 15.839844 14.539062 15.832031 C 14.570312 15.828125 14.605469 15.820312 14.582031 15.824219 C 14.617188 15.816406 14.652344 15.8125 14.683594 15.808594 C 15.019531 16.148438 15.484375 16.359375 16 16.359375 C 16.515625 16.359375 16.984375 16.148438 17.316406 15.804688 C 17.335938 15.808594 17.355469 15.808594 17.371094 15.8125 C 17.398438 15.820312 17.429688 15.828125 17.476562 15.835938 C 17.496094 15.84375 17.519531 15.847656 17.539062 15.851562 C 17.730469 15.882812 17.914062 15.921875 18.097656 15.972656 C 18.121094 15.980469 18.144531 15.984375 18.171875 15.992188 C 18.382812 16.050781 18.589844 16.121094 18.789062 16.191406 C 19 16.269531 19.238281 16.199219 19.367188 16.015625 C 19.820312 15.386719 20.554688 15.011719 21.324219 15.011719 C 21.929688 15.011719 22.472656 15.242188 22.898438 15.605469 C 23.019531 15.824219 23.183594 16.015625 23.382812 16.171875 C 23.613281 16.539062 23.75 16.972656 23.75 17.4375 C 23.75 17.835938 23.652344 18.226562 23.464844 18.566406 C 23.382812 18.714844 23.382812 18.894531 23.464844 19.046875 Z M 24.503906 15.558594 C 24.035156 15.558594 23.65625 15.179688 23.65625 14.710938 C 23.65625 14.246094 24.035156 13.863281 24.503906 13.863281 C 24.972656 13.863281 25.351562 14.246094 25.351562 14.710938 C 25.351562 15.179688 24.972656 15.558594 24.503906 15.558594 Z M 18.523438 17.097656 C 17.71875 17.179688 16.796875 17.050781 16.226562 16.761719 C 16.085938 16.6875 15.914062 16.6875 15.773438 16.761719 C 15.203125 17.050781 14.28125 17.179688 13.476562 17.097656 C 13.199219 17.078125 12.957031 17.269531 12.925781 17.542969 C 12.898438 17.816406 13.097656 18.0625 13.375 18.09375 C 13.574219 18.113281 13.785156 18.125 14 18.125 C 14.074219 18.125 14.148438 18.117188 14.222656 18.113281 C 14.378906 18.664062 15.078125 19.042969 16 19.042969 C 16.921875 19.042969 17.621094 18.664062 17.777344 18.113281 C 17.851562 18.117188 17.925781 18.125 18 18.125 C 18.214844 18.125 18.425781 18.113281 18.625 18.09375 C 18.902344 18.0625 19.101562 17.816406 19.074219 17.542969 C 19.042969 17.269531 18.800781 17.074219 18.523438 17.097656 Z M 16 18.042969 C 15.746094 18.042969 15.550781 18 15.414062 17.949219 C 15.621094 17.894531 15.820312 17.835938 16 17.757812 C 16.179688 17.835938 16.378906 17.894531 16.585938 17.949219 C 16.449219 18 16.253906 18.042969 16 18.042969 Z M 14.5 11.917969 C 14.5 12.332031 14.164062 12.667969 13.75 12.667969 C 13.335938 12.667969 13 12.332031 13 11.917969 C 13 11.503906 13.335938 11.167969 13.75 11.167969 C 14.164062 11.167969 14.5 11.503906 14.5 11.917969 Z M 19 11.917969 C 19 12.332031 18.664062 12.667969 18.25 12.667969 C 17.835938 12.667969 17.5 12.332031 17.5 11.917969 C 17.5 11.503906 17.835938 11.167969 18.25 11.167969 C 18.664062 11.167969 19 11.503906 19 11.917969 Z M 19 11.917969 "/>
    </g>
</svg>
