<?xml version="1.0" encoding="utf-8"?>
<!-- Generator: Adobe Illustrator 23.0.3, SVG Export Plug-In . SVG Version: 6.00 Build 0)  -->
<svg version="1.1" id="Слой_1" xmlns="http://www.w3.org/2000/svg" xmlns:xlink="http://www.w3.org/1999/xlink" x="0px" y="0px"
	 viewBox="0 0 23 23" style="enable-background:new 0 0 23 23; fill: #224b80" xml:space="preserve">
<path d="M18.2,20H5.1c-1.1,0-1.9-0.9-1.9-1.9V4.9C3.2,3.9,4.1,3,5.1,3h11c0.7,0,1.4,0.3,1.9,0.8l1.4,1.4c0.5,0.5,0.8,1.2,0.8,1.9v11
	C20.2,19.1,19.3,20,18.2,20z M5.1,4.1c-0.5,0-0.9,0.4-0.9,0.9v13.1c0,0.5,0.4,0.9,0.9,0.9h13.1c0.5,0,0.9-0.4,0.9-0.9v-11
	c0-0.4-0.2-0.8-0.5-1.1l-1.4-1.4c-0.3-0.3-0.7-0.5-1.1-0.5H5.1z"/>
<path d="M14,8H6.6C6.3,8,6,7.7,6,7.4V3.5C6,3.2,6.3,3,6.6,3s0.5,0.2,0.5,0.5v3.4h6.4V3.5C13.5,3.2,13.7,3,14,3s0.5,0.2,0.5,0.5v3.9
	C14.5,7.7,14.3,8,14,8z"/>
<path d="M11.7,16.8c-1.8,0-3.2-1.4-3.2-3.2s1.4-3.2,3.2-3.2s3.2,1.4,3.2,3.2S13.4,16.8,11.7,16.8z M11.7,11.5c-1.2,0-2.1,1-2.1,2.1
	s1,2.1,2.1,2.1s2.1-1,2.1-2.1S12.9,11.5,11.7,11.5z"/>
</svg>
