<svg width="24" height="24" viewBox="0 0 24 24" fill="none" xmlns="http://www.w3.org/2000/svg">
<path d="M21.56 7.1L18.08 2.75C17.8928 2.51613 17.6554 2.32731 17.3853 2.19749C17.1153 2.06768 16.8196 2.00019 16.52 2H4C3.46957 2 2.96086 2.21071 2.58579 2.58579C2.21071 2.96086 2 3.46957 2 4V20C2 20.5304 2.21071 21.0391 2.58579 21.4142C2.96086 21.7893 3.46957 22 4 22H20C20.5304 22 21.0391 21.7893 21.4142 21.4142C21.7893 21.0391 22 20.5304 22 20V8.35C21.9996 7.89544 21.8445 7.45456 21.56 7.1ZM9 4H15V7H9V4ZM15 20H9V14H15V20ZM17 20V14C17 13.4696 16.7893 12.9609 16.4142 12.5858C16.0391 12.2107 15.5304 12 15 12H9C8.46957 12 7.96086 12.2107 7.58579 12.5858C7.21071 12.9609 7 13.4696 7 14V20H4V4H7V7C7 7.53043 7.21071 8.03914 7.58579 8.41421C7.96086 8.78929 8.46957 9 9 9H15C15.5304 9 16.0391 8.78929 16.4142 8.41421C16.7893 8.03914 17 7.53043 17 7V4.6L20 8.35V20H17Z" fill="black"/>
</svg>
