<svg width="24" height="24" viewBox="0 0 24 24" fill="none" xmlns="http://www.w3.org/2000/svg">
<path fill-rule="evenodd" clip-rule="evenodd" d="M0.5 2.5C0.5 1.94771 0.947716 1.5 1.5 1.5H10C10.2761 1.5 10.5 1.72386 10.5 2C10.5 2.27614 10.2761 2.5 10 2.5H1.5V16H22.5V14C22.5 13.7239 22.7239 13.5 23 13.5C23.2761 13.5 23.5 13.7239 23.5 14V16C23.5 16.5523 23.0523 17 22.5 17H1.5C0.947715 17 0.5 16.5523 0.5 16V2.5Z" fill="black"/>
<path fill-rule="evenodd" clip-rule="evenodd" d="M11.5 1.5C11.5 0.947716 11.9477 0.5 12.5 0.5H20.3563C20.6122 0.5 20.8583 0.598077 21.0441 0.774047L23.1877 2.8049C23.3871 2.99375 23.5 3.25626 23.5 3.53086V11.5C23.5 12.0523 23.0523 12.5 22.5 12.5H12.5C11.9477 12.5 11.5 12.0523 11.5 11.5V1.5ZM20.3563 1.5L12.5 1.5V11.5H22.5V3.53086L20.3563 1.5Z" fill="black"/>
<path fill-rule="evenodd" clip-rule="evenodd" d="M12 16C12.2761 16 12.5 16.2239 12.5 16.5V22C12.5 22.2761 12.2761 22.5 12 22.5C11.7239 22.5 11.5 22.2761 11.5 22V16.5C11.5 16.2239 11.7239 16 12 16Z" fill="black"/>
<path fill-rule="evenodd" clip-rule="evenodd" d="M5 22C5 21.7239 5.22386 21.5 5.5 21.5H18.5C18.7761 21.5 19 21.7239 19 22C19 22.2761 18.7761 22.5 18.5 22.5H5.5C5.22386 22.5 5 22.2761 5 22Z" fill="black"/>
<path fill-rule="evenodd" clip-rule="evenodd" d="M14.5 0.5C14.7761 0.5 15 0.723858 15 1V3.5H20V1C20 0.723858 20.2239 0.5 20.5 0.5C20.7761 0.5 21 0.723858 21 1V3.5C21 4.05228 20.5523 4.5 20 4.5H15C14.4477 4.5 14 4.05228 14 3.5V1C14 0.723858 14.2239 0.5 14.5 0.5Z" fill="black"/>
<path fill-rule="evenodd" clip-rule="evenodd" d="M14 7.5C14 6.94772 14.4477 6.5 15 6.5H20C20.5523 6.5 21 6.94772 21 7.5V12C21 12.2761 20.7761 12.5 20.5 12.5C20.2239 12.5 20 12.2761 20 12V7.5H15V12C15 12.2761 14.7761 12.5 14.5 12.5C14.2239 12.5 14 12.2761 14 12V7.5Z" fill="black"/>
</svg>
