<svg width="16" height="16" viewBox="0 0 16 16" fill="none" xmlns="http://www.w3.org/2000/svg">
<path fill-rule="evenodd" clip-rule="evenodd" d="M3.47855 2.16605C3.20815 2.43645 3 2.86646 3 3.5V11.4998C3.41783 11.186 3.9372 11 4.5 11C5.0628 11 5.58217 11.186 6 11.4998V3.5C6 2.86646 5.79185 2.43645 5.52145 2.16605C5.24635 1.89095 4.87632 1.75 4.5 1.75C4.12368 1.75 3.75366 1.89095 3.47855 2.16605ZM2 3.5V13.4999V13.5C2 14.8807 3.11929 16 4.5 16C5.88071 16 7 14.8807 7 13.5L7 13.4999V3.5C7 2.63354 6.70816 1.93855 6.22855 1.45895C5.75366 0.984049 5.12368 0.75 4.5 0.75C3.87632 0.75 3.24635 0.984048 2.77145 1.45894C2.29185 1.93855 2 2.63354 2 3.5ZM4.5 12C3.6716 12 3.00005 12.6715 3 13.4999V13.5C3 14.3284 3.67157 15 4.5 15C5.32843 15 6 14.3284 6 13.5C6 12.6716 5.32843 12 4.5 12ZM13 13.5C13 14.3284 12.3284 15 11.5 15C10.6716 15 10 14.3284 10 13.5C10 13.5 10 13.4999 10 13.4999C10 12.6715 10.6716 12 11.5 12C12.3284 12 13 12.6715 13 13.4999C13 13.4999 13 13.5 13 13.5ZM13 11.4998C12.5822 11.186 12.0628 11 11.5 11C10.9372 11 10.4178 11.186 10 11.4998V3.5C10 2.86646 10.2082 2.43645 10.4786 2.16605C10.7537 1.89095 11.1237 1.75 11.5 1.75C11.8763 1.75 12.2463 1.89095 12.5214 2.16605C12.7918 2.43645 13 2.86646 13 3.5V11.4998ZM14 13.4999C14 13.4999 14 13.5 14 13.5C14 14.8807 12.8807 16 11.5 16C10.1193 16 9 14.8807 9 13.5C9 13.5 9 13.4999 9 13.4999V3.5C9 2.63354 9.29185 1.93855 9.77145 1.45894C10.2463 0.984048 10.8763 0.75 11.5 0.75C12.1237 0.75 12.7537 0.984049 13.2286 1.45895C13.7082 1.93855 14 2.63354 14 3.5V13.4999Z" fill="black"/>
</svg>
