<svg width="24" height="24" viewBox="0 0 24 24" fill="none" xmlns="http://www.w3.org/2000/svg">
<path fill-rule="evenodd" clip-rule="evenodd" d="M9 4.5C9 3.11929 7.88071 2 6.5 2C5.11929 2 4 3.11929 4 4.5V5V5.5V8.24223V15.7578C4.71505 15.2791 5.57493 15 6.5 15C7.42507 15 8.28495 15.2791 9 15.7578V8.24223V5.5V5V4.5ZM11 5V5.5V19.5V20H10.9725C10.7238 22.25 8.81628 24 6.5 24C4.18372 24 2.27619 22.25 2.02746 20H2V19.5V5.5V5V4.5C2 2.01472 4.01472 0 6.5 0C8.98528 0 11 2.01472 11 4.5V5ZM6.5 17C7.88071 17 9 18.1193 9 19.5C9 20.8807 7.88071 22 6.5 22C5.11929 22 4 20.8807 4 19.5C4 18.1193 5.11929 17 6.5 17Z" fill="black"/>
<path fill-rule="evenodd" clip-rule="evenodd" d="M20 4.5C20 3.11929 18.8807 2 17.5 2C16.1193 2 15 3.11929 15 4.5V5V5.5V8.24223V15.7578C15.715 15.2791 16.5749 15 17.5 15C18.4251 15 19.285 15.2791 20 15.7578V8.24223V5.5V5V4.5ZM22 5V5.5V19.5V20H21.9725C21.7238 22.25 19.8163 24 17.5 24C15.1837 24 13.2762 22.25 13.0275 20H13V19.5V5.5V5V4.5C13 2.01472 15.0147 0 17.5 0C19.9853 0 22 2.01472 22 4.5V5ZM17.5 17C18.8807 17 20 18.1193 20 19.5C20 20.8807 18.8807 22 17.5 22C16.1193 22 15 20.8807 15 19.5C15 18.1193 16.1193 17 17.5 17Z" fill="black"/>
</svg>
