<svg width="24" height="24" viewBox="0 0 24 24" fill="none" xmlns="http://www.w3.org/2000/svg">
<rect width="24" height="24" fill="none"/>
<path fill-rule="evenodd" clip-rule="evenodd" d="M2 11C2.33137 10.5582 2.95817 10.4686 3.4 10.8L10.5999 16.2C11.0418 16.5314 11.1313 17.1582 10.7999 17.6C10.4686 18.0418 9.84177 18.1314 9.39994 17.8L2.2 12.4C1.75817 12.0686 1.66863 11.4418 2 11Z" fill="black"/>
<path fill-rule="evenodd" clip-rule="evenodd" d="M22 11C21.6686 10.5582 21.0418 10.4686 20.6 10.8L13.4 16.2C12.9582 16.5314 12.8687 17.1582 13.2 17.6C13.5314 18.0419 14.1582 18.1314 14.6 17.8L21.8 12.4C22.2418 12.0686 22.3314 11.4418 22 11Z" fill="black"/>
<path fill-rule="evenodd" clip-rule="evenodd" d="M3 11C3 10.4477 2.55228 10 2 10C1.44772 10 1 10.4477 1 11V22C1 22.5523 1.44772 23 2 23H22C22.5523 23 23 22.5523 23 22V11C23 10.4477 22.5523 10 22 10C21.4477 10 21 10.4477 21 11V20.2338L12.5144 15.1425C12.1978 14.9525 11.8021 14.9525 11.4854 15.1425L3 20.2338V11ZM5.61026 21H18.3897L11.9999 17.1662L5.61026 21Z" fill="black"/>
<path fill-rule="evenodd" clip-rule="evenodd" d="M1.15201 11.53C1.44472 11.9983 2.06167 12.1407 2.53001 11.848L6.53001 9.34799C6.99835 9.05528 7.14072 8.43833 6.84801 7.96999C6.5553 7.50165 5.93835 7.35928 5.47001 7.65199L1.47001 10.152C1.00168 10.4447 0.859303 11.0617 1.15201 11.53ZM22.848 11.53C23.1407 11.0617 22.9983 10.4447 22.53 10.152L18.53 7.65199C18.0617 7.35928 17.4447 7.50165 17.152 7.96999C16.8593 8.43833 17.0017 9.05528 17.47 9.34799L21.47 11.848C21.9383 12.1407 22.5553 11.9983 22.848 11.53Z" fill="black"/>
<path fill-rule="evenodd" clip-rule="evenodd" d="M12 12C14.7614 12 17 9.76142 17 7C17 4.23858 14.7614 2 12 2C9.23858 2 7 4.23858 7 7C7 9.76142 9.23858 12 12 12ZM12 14C15.866 14 19 10.866 19 7C19 3.13401 15.866 0 12 0C8.13401 0 5 3.13401 5 7C5 10.866 8.13401 14 12 14Z" fill="black"/>
<path fill-rule="evenodd" clip-rule="evenodd" d="M12 3C12.5523 3 13 3.44772 13 4L13 7C13 7.55228 12.5523 8 12 8C11.4477 8 11 7.55228 11 7L11 4C11 3.44772 11.4477 3 12 3Z" fill="black"/>
<path d="M13 10C13 10.5523 12.5523 11 12 11C11.4477 11 11 10.5523 11 10C11 9.44772 11.4477 9 12 9C12.5523 9 13 9.44772 13 10Z" fill="black"/>
</svg>
