<svg width="24" height="24" viewBox="0 0 24 24" fill="none" xmlns="http://www.w3.org/2000/svg">
<rect width="24" height="24" fill="none"/>
<path fill-rule="evenodd" clip-rule="evenodd" d="M3.0088 4C3.56108 4 4.00879 4.44772 4.00879 5.00001L3.00879 5L2.00879 4.99999C2.00879 4.44771 2.45651 4 3.0088 4ZM3.00879 5C2.00879 4.99999 2.00879 4.9999 2.00879 4.99999V18.8125C2.00885 20.0146 2.2905 21.1021 3.0306 21.8885C3.78142 22.6863 4.8386 23 6.00879 23H8.99925C9.55156 23 9.99996 22.5523 9.99996 22C9.99996 21.4477 9.55224 21 8.99993 21H6.00879C5.17893 21 4.73616 20.7825 4.48702 20.5178C4.22715 20.2417 4.00883 19.7354 4.00879 18.8125V5.00001C4.00879 4.99992 4.00879 5.00001 3.00879 5Z" fill="black"/>
<path fill-rule="evenodd" clip-rule="evenodd" d="M2.883 2.1154C3.50034 1.42368 4.40348 1 5.50881 1H20.0083C20.0084 1 20.0088 1 20.0088 2C20.0088 3 20.0088 3 20.0087 3H5.50881C4.94494 3 4.59452 3.20132 4.37517 3.4471C4.13966 3.71099 4.00055 4.09034 4 4.50134C3.99945 4.9123 4.13747 5.29051 4.37174 5.55327C4.58979 5.79784 4.9404 6 5.50881 6H20.0083C20.0084 6 20.0088 6 20.0088 7L20.0083 6C20.2735 6 20.5284 6.10536 20.7159 6.29289C20.9034 6.48043 21.0088 6.73478 21.0088 7V8.99997C21.0088 9.55225 20.5611 9.99997 20.0088 9.99997C19.4565 9.99997 19.0088 9.55225 19.0088 8.99997V8H5.50881C4.40134 8 3.49671 7.57716 2.87891 6.88423C2.27732 6.20949 1.99888 5.3377 2 4.49866C2.00112 3.65966 2.28182 2.78901 2.883 2.1154ZM21.0088 2C21.0088 2.55228 20.561 3 20.0087 3L20.0088 2L20.0083 1C20.5606 1 21.0088 1.44772 21.0088 2Z" fill="black"/>
<path fill-rule="evenodd" clip-rule="evenodd" d="M17.7929 16.7929C18.1834 16.4024 18.8166 16.4024 19.2071 16.7929L22.7071 20.2929C23.0976 20.6834 23.0976 21.3166 22.7071 21.7071L20.7071 23.7071C20.3166 24.0976 19.6834 24.0976 19.2929 23.7071L15.7929 20.2071C15.4024 19.8166 15.4024 19.1834 15.7929 18.7929C16.1834 18.4024 16.8166 18.4024 17.2071 18.7929L20 21.5858L20.5858 21L17.7929 18.2071C17.4024 17.8166 17.4024 17.1834 17.7929 16.7929Z" fill="black"/>
<path fill-rule="evenodd" clip-rule="evenodd" d="M14 11C13.622 11 13.1486 11.2656 12.7071 11.7071C12.3166 12.0976 11.6834 12.0976 11.2929 11.7071C10.9024 11.3166 10.9024 10.6834 11.2929 10.2929C11.8514 9.73438 12.8134 9 14 9C17.3137 9 20 11.6863 20 15C20 15.8784 19.8065 17.0992 19.3995 17.937C19.1581 18.4337 18.5598 18.6408 18.063 18.3995C17.5663 18.1581 17.3592 17.5598 17.6005 17.063C17.8342 16.5821 18 15.6862 18 15C18 12.7909 16.2091 11 14 11ZM10.7071 12.2929C11.0976 12.6834 11.0976 13.3166 10.7071 13.7071C10.2384 14.1758 10 14.5145 10 15C10 17.2091 11.7909 19 14 19C14.8845 19 15.5074 18.9189 15.9993 18.6344C16.4773 18.3579 17.0891 18.5212 17.3656 18.9993C17.6421 19.4773 17.4788 20.0891 17.0007 20.3656C16.0217 20.9319 14.9369 21 14 21C10.6863 21 8 18.3137 8 15C8 13.6641 8.7616 12.8242 9.29289 12.2929C9.68342 11.9024 10.3166 11.9024 10.7071 12.2929Z" fill="black"/>
<path fill-rule="evenodd" clip-rule="evenodd" d="M11.2929 10.2929C11.6834 9.90237 12.3166 9.90237 12.7071 10.2929L15.7071 13.2929C15.8946 13.4804 16 13.7348 16 14V16C16 16.5523 15.5523 17 15 17H13C12.7348 17 12.4804 16.8946 12.2929 16.7071L9.29289 13.7071C8.90237 13.3166 8.90237 12.6834 9.29289 12.2929C9.68342 11.9024 10.3166 11.9024 10.7071 12.2929L13.4142 15H14V14.4142L11.2929 11.7071C10.9024 11.3166 10.9024 10.6834 11.2929 10.2929Z" fill="black"/>
</svg>
