<svg width="24" height="24" viewBox="0 0 24 24" fill="none" xmlns="http://www.w3.org/2000/svg">
<rect width="24" height="24" fill="none"/>
<path fill-rule="evenodd" clip-rule="evenodd" d="M10.2929 8.29289C10.6834 7.90237 11.3166 7.90237 11.7071 8.29289L15.7071 12.2929C16.0976 12.6834 16.0976 13.3166 15.7071 13.7071C15.3166 14.0976 14.6834 14.0976 14.2929 13.7071L10.2929 9.70711C9.90237 9.31658 9.90237 8.68342 10.2929 8.29289ZM8.29289 10.2929C8.68342 9.90237 9.31658 9.90237 9.70711 10.2929L13.7071 14.2929C14.0976 14.6834 14.0976 15.3166 13.7071 15.7071C13.3166 16.0976 12.6834 16.0976 12.2929 15.7071L8.29289 11.7071C7.90237 11.3166 7.90237 10.6834 8.29289 10.2929Z" fill="black"/>
<path fill-rule="evenodd" clip-rule="evenodd" d="M5.98967 3.40846C5.90798 3.49733 5.80678 3.60744 5.70711 3.70711C5.31658 4.09763 4.68342 4.09763 4.29289 3.70711C3.90237 3.31658 3.90237 2.68342 4.29289 2.29289C4.36029 2.2255 4.41987 2.1607 4.49322 2.08092C4.5235 2.04799 4.55614 2.01249 4.59264 1.97321C4.70474 1.85257 4.84671 1.70394 5.01166 1.56543C5.36319 1.27025 5.84539 1 6.5 1C9.53757 1 12 3.46243 12 6.5V9C12 9.55228 11.5523 10 11 10C10.4477 10 10 9.55228 10 9V6.5C10 4.567 8.433 3 6.5 3C6.45052 3 6.40772 3.00475 6.29777 3.09707C6.23199 3.15231 6.1591 3.22556 6.05777 3.3346C6.03724 3.3567 6.01434 3.38161 5.98967 3.40846ZM3.70711 4.29289C4.09763 4.68342 4.09763 5.31658 3.70711 5.70711C3.57532 5.83889 3.43731 5.95583 3.33672 6.04106C3.32451 6.05141 3.31285 6.06129 3.30181 6.07068C3.18603 6.16916 3.12267 6.22662 3.07611 6.2786C3.03662 6.32269 3.02471 6.34656 3.01912 6.36026C3.01407 6.37268 3 6.41112 3 6.5C3 8.433 4.567 10 6.5 10H9C9.55228 10 10 10.4477 10 11C10 11.5523 9.55228 12 9 12H6.5C3.46243 12 1 9.53757 1 6.5C1 5.81415 1.24937 5.32039 1.58639 4.94416C1.73358 4.77985 1.8921 4.64412 2.006 4.54724C2.01749 4.53746 2.02862 4.52801 2.0394 4.51885C2.14849 4.42615 2.22263 4.36316 2.29289 4.29289C2.68342 3.90237 3.31658 3.90237 3.70711 4.29289Z" fill="black"/>
<path fill-rule="evenodd" clip-rule="evenodd" d="M18.0103 20.5915C18.092 20.5027 18.1932 20.3926 18.2929 20.2929C18.6834 19.9024 19.3166 19.9024 19.7071 20.2929C20.0976 20.6834 20.0976 21.3166 19.7071 21.7071C19.6397 21.7745 19.5801 21.8393 19.5068 21.9191C19.4765 21.952 19.4439 21.9875 19.4074 22.0268C19.2953 22.1474 19.1533 22.2961 18.9883 22.4346C18.6368 22.7297 18.1546 23 17.5 23C14.4624 23 12 20.5376 12 17.5V15C12 14.4477 12.4477 14 13 14C13.5523 14 14 14.4477 14 15V17.5C14 19.433 15.567 21 17.5 21C17.5495 21 17.5923 20.9953 17.7022 20.9029C17.768 20.8477 17.8409 20.7744 17.9422 20.6654C17.9628 20.6433 17.9857 20.6184 18.0103 20.5915ZM20.2929 19.7071C19.9024 19.3166 19.9024 18.6834 20.2929 18.2929C20.4247 18.1611 20.5627 18.0442 20.6633 17.9589C20.6755 17.9486 20.6872 17.9387 20.6982 17.9293C20.814 17.8308 20.8773 17.7734 20.9239 17.7214C20.9634 17.6773 20.9753 17.6534 20.9809 17.6397C20.9859 17.6273 21 17.5889 21 17.5C21 15.567 19.433 14 17.5 14H15C14.4477 14 14 13.5523 14 13C14 12.4477 14.4477 12 15 12H17.5C20.5376 12 23 14.4624 23 17.5C23 18.1858 22.7506 18.6796 22.4136 19.0558C22.2664 19.2201 22.1079 19.3559 21.994 19.4528C21.9825 19.4625 21.9714 19.472 21.9606 19.4812C21.8515 19.5739 21.7774 19.6368 21.7071 19.7071C21.3166 20.0976 20.6834 20.0976 20.2929 19.7071Z" fill="black"/>
<path fill-rule="evenodd" clip-rule="evenodd" d="M4.29289 2.29289C4.68342 1.90237 5.31658 1.90237 5.70711 2.29289L8.70711 5.29289C8.89464 5.48043 9 5.73478 9 6V8C9 8.55228 8.55228 9 8 9H6C5.73478 9 5.48043 8.89464 5.29289 8.70711L2.29289 5.70711C1.90237 5.31658 1.90237 4.68342 2.29289 4.29289C2.68342 3.90237 3.31658 3.90237 3.70711 4.29289L6.41421 7H7V6.41421L4.29289 3.70711C3.90237 3.31658 3.90237 2.68342 4.29289 2.29289Z" fill="black"/>
<path fill-rule="evenodd" clip-rule="evenodd" d="M19.7071 21.7071C19.3166 22.0976 18.6834 22.0976 18.2929 21.7071L15.2929 18.7071C15.1054 18.5196 15 18.2652 15 18V16C15 15.4477 15.4477 15 16 15H18C18.2652 15 18.5196 15.1054 18.7071 15.2929L21.7071 18.2929C22.0976 18.6834 22.0976 19.3166 21.7071 19.7071C21.3166 20.0976 20.6834 20.0976 20.2929 19.7071L17.5858 17H17V17.5858L19.7071 20.2929C20.0976 20.6834 20.0976 21.3166 19.7071 21.7071Z" fill="black"/>
</svg>
