<svg width="24" height="24" viewBox="0 0 24 24" fill="none" xmlns="http://www.w3.org/2000/svg">
<rect width="24" height="24" fill="none"/>
<path fill-rule="evenodd" clip-rule="evenodd" d="M12.5145 0.142507C12.1978 -0.0475024 11.8022 -0.0475024 11.4855 0.142507L6.4855 3.14251C6.1843 3.32323 6 3.64874 6 4V9.43381L1.4855 12.1425C1.1843 12.3232 1 12.6487 1 13V19C1 19.3513 1.1843 19.6768 1.4855 19.8575L6.4855 22.8575C6.80219 23.0475 7.19781 23.0475 7.5145 22.8575L12 20.1662L16.4855 22.8575C16.8022 23.0475 17.1978 23.0475 17.5145 22.8575L22.5145 19.8575C22.8157 19.6768 23 19.3513 23 19V13C23 12.6487 22.8157 12.3232 22.5145 12.1425L18 9.43381V4C18 3.64874 17.8157 3.32323 17.5145 3.14251L12.5145 0.142507ZM17 11.1662L13.9437 13L17 14.8338L20.0563 13L17 11.1662ZM10.0563 13L7 11.1662L3.94365 13L7 14.8338L10.0563 13ZM16 9.43381V5.76619L13 7.56619V11.2338L16 9.43381ZM11 11.2338V7.56619L8 5.76619V9.43381L11 11.2338ZM12 5.83381L15.0563 4L12 2.16619L8.94365 4L12 5.83381ZM13 18.4338V14.7662L16 16.5662V20.2338L13 18.4338ZM8 16.5662L11 14.7662V18.4338L8 20.2338V16.5662ZM3 14.7662V18.4338L6 20.2338V16.5662L3 14.7662ZM18 16.5662V20.2338L21 18.4338V14.7662L18 16.5662Z" fill="black"/>
</svg>
