<svg width="24" height="24" viewBox="0 0 24 24" fill="none" xmlns="http://www.w3.org/2000/svg">
<rect width="24" height="24" fill="none"/>
<path d="M23.1891 9.96005L21.8651 9.70505C20.6218 9.46641 20.0517 8.01417 20.8004 6.99342L21.6314 5.86045C21.9233 5.46244 21.8812 4.91095 21.5321 4.56192L19.7371 2.76694C19.3981 2.42789 18.8662 2.37722 18.4692 2.64614L17.3532 3.40214C16.3054 4.11141 14.8754 3.48741 14.6823 2.2365L14.4695 0.848438C14.3946 0.360375 13.9748 0 13.481 0H10.942C10.4624 0 10.0504 0.3405 9.95995 0.8115L9.63197 2.52052C9.39783 3.73603 7.99716 4.31634 6.97177 3.62198L5.53083 2.64605C5.13389 2.37717 4.60195 2.42789 4.26295 2.76689L2.46787 4.56187C2.11884 4.91091 2.0767 5.46239 2.36864 5.86041L3.19964 6.99342C3.94828 8.01417 3.37819 9.46636 2.13548 9.70491L0.810891 9.96C0.340172 10.0507 0 10.4626 0 10.942V13.48C0 13.9735 0.36 14.3932 0.847734 14.4683L2.23673 14.6823C3.48825 14.8747 4.1122 16.305 3.40214 17.3531L2.64609 18.4692C2.37717 18.8661 2.42789 19.3981 2.76689 19.7371L4.56187 21.5321C4.91091 21.8812 5.46239 21.9233 5.86041 21.6314L6.99342 20.8004C8.01417 20.0517 9.46673 20.6218 9.70603 21.865L9.95991 23.1884C10.0503 23.6595 10.4624 24 10.942 24H13.481C13.9747 24 14.3945 23.6397 14.4694 23.1517L14.6194 22.1747C14.8162 20.8958 16.299 20.2813 17.3427 21.0465L18.1392 21.6311C18.5372 21.9233 19.0889 21.8812 19.438 21.5321L21.233 19.7371C21.5721 19.398 21.6227 18.8661 21.3538 18.4691L20.5978 17.3531C19.8877 16.305 20.5117 14.8747 21.7629 14.6824L23.1522 14.4683C23.64 14.3932 24 13.9735 24 13.48V10.942C24 10.4626 23.6598 10.0507 23.1891 9.96005ZM22 12.6223L21.4587 12.7057C18.7562 13.1212 17.4082 16.211 18.9421 18.4749L19.2348 18.9069L18.6307 19.511L18.5257 19.4338C16.2709 17.7807 13.0677 19.1081 12.6426 21.8708L12.6227 21.9999H11.7683L11.67 21.4875C11.1531 18.8019 8.01553 17.5704 5.81048 19.1876L5.3693 19.5112L4.76508 18.9069L5.05781 18.4748C6.59166 16.2109 5.24372 13.1212 2.54086 12.7056L1.99988 12.6222V11.7677L2.51302 11.6689C5.19778 11.1536 6.42956 8.01572 4.81228 5.81058L4.4887 5.36939L5.09297 4.76512L5.85009 5.27794C8.06461 6.77752 11.09 5.52417 11.5958 2.89809L11.7682 1.99997H12.6225L12.7054 2.54053C13.1226 5.24292 16.2108 6.59044 18.4744 5.05805L18.9068 4.76512L19.5111 5.36934L19.1875 5.81048C17.5702 8.01567 18.8019 11.1535 21.4873 11.669L21.9998 11.7677V12.6223H22Z" fill="black"/>
<path d="M12 6.9997C9.23874 6.9997 6.99998 9.2384 6.99998 11.9997C6.99998 14.761 9.23874 16.9997 12 16.9997C14.7613 16.9997 17 14.761 17 11.9997C17 9.23835 14.7613 6.9997 12 6.9997ZM12 14.9997C10.3433 14.9997 9 13.6564 9 11.9997C9 10.343 10.3433 8.99971 12 8.99971C13.6567 8.99971 15 10.343 15 11.9997C15 13.6564 13.6567 14.9997 12 14.9997Z" fill="black"/>
</svg>
