<svg width="16" height="16" viewBox="0 0 16 16" fill="none" xmlns="http://www.w3.org/2000/svg">
<path fill-rule="evenodd" clip-rule="evenodd" d="M2.21802 2.55736C1.4746 3.54859 1 4.94087 1 6.5C1 7.7809 1.3202 8.94814 1.84586 9.87316C2.0487 9.59149 2.28332 9.33421 2.54445 9.10658C2.19798 8.36604 2 7.46361 2 6.5C2 5.31671 2.29877 4.22172 2.80823 3.40657C3.31329 2.59848 4.07504 2 5 2C5.92496 2 6.68671 2.59848 7.19177 3.40657C7.70123 4.22172 8 5.31671 8 6.5C8 7.68329 7.70123 8.77828 7.19177 9.59343C6.68671 10.4015 5.92496 11 5 11V12C6.04998 12 7.03868 11.4337 7.78198 10.4426C8.5254 9.45141 9 8.05913 9 6.5C9 4.94087 8.5254 3.54859 7.78198 2.55736C7.03868 1.56629 6.04998 1 5 1C3.95002 1 2.96132 1.56629 2.21802 2.55736ZM0 6.5C0 8.1743 0.485299 9.71633 1.30032 10.8803C1.10635 11.3829 1 11.929 1 12.5V15H0.5C0.223858 15 0 15.2239 0 15.5C0 15.7761 0.223858 16 0.5 16H1.5H4.5H6.5C6.77614 16 7 15.7761 7 15.5C7 15.2239 6.77614 15 6.5 15H5V13C5.17557 13 5.34853 12.9884 5.51852 12.9658V13H8.5C9.82376 13 10.961 12.1952 11.7445 11.02L11.7577 11H13C13.9437 11 14.718 10.5173 15.2343 9.70594C15.7398 8.91163 16 7.80772 16 6.5C16 5.28406 15.737 4.18647 15.2385 3.37494C14.7352 2.55553 13.9669 2 13 2H11.7577L11.7445 1.98001C10.961 0.804831 9.82376 0 8.5 0H5C3.5647 0 2.30339 0.77686 1.41802 1.95736C0.532761 3.1377 0 4.74542 0 6.5ZM13 10H12.2995C12.7461 8.984 13 7.78045 13 6.5C13 5.21955 12.7461 4.016 12.2995 3H13C13.5331 3 14.0148 3.29333 14.3865 3.89835C14.763 4.51125 15 5.41366 15 6.5C15 7.69228 14.7602 8.58837 14.3907 9.16906C14.032 9.73266 13.5563 10 13 10ZM4 15V11C4 10.4477 4.44772 10 5 10C5.45575 10 5.94401 9.70305 6.34377 9.06343C6.3568 9.04258 6.36968 9.02143 6.38242 9H5.5C3.567 9 2 10.567 2 12.5V15H4ZM7 6.5C7 7.04102 6.92744 7.54844 6.80086 8H5.5C5.43704 8 5.37439 8.00129 5.31206 8.00385C5.11948 7.58984 5 7.07182 5 6.5C5 5.75652 5.20181 5.10604 5.50181 4.65603C5.77025 4.25337 6.08633 4.04856 6.38698 4.0077C6.75802 4.6361 7 5.512 7 6.5ZM5.65176 3.20164C5.25769 3.39705 4.92437 3.71941 4.66976 4.10133C4.24591 4.73711 4 5.58663 4 6.5C4 7.09616 4.1047 7.6642 4.29466 8.16325C3.97469 8.25199 3.66904 8.37519 3.38198 8.52861C3.14416 7.95986 3 7.26223 3 6.5C3 5.47415 3.26088 4.56914 3.65623 3.93657C4.05599 3.29695 4.54425 3 5 3C5.21426 3 5.4357 3.06563 5.65176 3.20164ZM7.67215 1C8.00661 1.27446 8.3118 1.59712 8.58198 1.95736C9.46724 3.1377 10 4.74542 10 6.5C10 8.25458 9.46724 9.8623 8.58198 11.0426C8.3118 11.4029 8.00661 11.7255 7.67215 12H8.5C9.38538 12 10.2481 11.4617 10.9124 10.4653C11.5743 9.47239 12 8.07191 12 6.5C12 4.92809 11.5743 3.52761 10.9124 2.53471C10.2481 1.53831 9.38538 1 8.5 1H7.67215Z" fill="black"/>
</svg>
