<svg width="24" height="24" viewBox="0 0 24 24" fill="none" xmlns="http://www.w3.org/2000/svg">
<path d="M16.6956 14.7131C15.6522 14.7131 14.6087 15.2348 13.9826 16.0696L8.7652 13.1479C8.86954 12.8348 8.97389 12.4174 8.97389 12C8.97389 11.5827 8.86954 11.2696 8.7652 10.8522L13.9826 7.93048C14.6087 8.76526 15.6522 9.287 16.6956 9.287C18.5739 9.287 20.1391 7.72179 20.1391 5.84352C20.1391 3.96526 18.5739 2.50439 16.6956 2.50439C14.8174 2.50439 13.2522 4.06961 13.2522 5.94787C13.2522 6.36526 13.3565 6.67831 13.4608 7.0957L8.34781 9.91309C7.72172 9.07831 6.67824 8.55657 5.63476 8.55657C3.7565 8.55657 2.19128 10.1218 2.19128 12C2.19128 13.8783 3.7565 15.4435 5.63476 15.4435C6.78259 15.4435 7.72172 14.9218 8.34781 14.087L13.5652 17.0087C13.4608 17.3218 13.3565 17.7392 13.3565 18.1566C13.3565 20.0348 14.9217 21.6 16.8 21.6C18.6782 21.6 20.2435 20.0348 20.2435 18.1566C20.2435 16.2783 18.5739 14.7131 16.6956 14.7131ZM16.6956 3.54787C17.9478 3.54787 18.9913 4.59135 18.9913 5.84352C18.9913 7.0957 17.9478 8.13918 16.6956 8.13918C15.4435 8.13918 14.4 7.0957 14.4 5.84352C14.4 4.59135 15.4435 3.54787 16.6956 3.54787ZM5.63476 14.2957C4.38259 14.2957 3.33911 13.2522 3.33911 12C3.33911 10.7479 4.38259 9.70439 5.63476 9.70439C6.88694 9.70439 7.93041 10.7479 7.93041 12C7.93041 13.2522 6.88694 14.2957 5.63476 14.2957ZM16.6956 20.4522C15.4435 20.4522 14.4 19.4087 14.4 18.1566C14.4 16.9044 15.4435 15.8609 16.6956 15.8609C17.9478 15.8609 18.9913 16.9044 18.9913 18.1566C19.0956 19.4087 18.0522 20.4522 16.6956 20.4522Z" fill="#224B80"/>
</svg>
