<?xml version="1.0" encoding="utf-8"?>
<!-- Generator: Adobe Illustrator 23.0.3, SVG Export Plug-In . SVG Version: 6.00 Build 0)  -->
<svg version="1.1" id="Capa_1" xmlns="http://www.w3.org/2000/svg" xmlns:xlink="http://www.w3.org/1999/xlink" x="0px" y="0px"
	 viewBox="0 0 23 23" style="enable-background:new 0 0 23 23; fill: #224b80" xml:space="preserve">
<g>
	<path d="M16,14.1c-1,0-2,0.5-2.6,1.3l-5-2.8c0.1-0.3,0.2-0.7,0.2-1.1c0-0.4-0.1-0.7-0.2-1.1l5-2.8C14,8.4,15,8.9,16,8.9
		c1.8,0,3.3-1.5,3.3-3.3S17.8,2.4,16,2.4s-3.3,1.5-3.3,3.3c0,0.4,0.1,0.7,0.2,1.1L8,9.5C7.4,8.7,6.4,8.2,5.4,8.2
		c-1.8,0-3.3,1.5-3.3,3.3s1.5,3.3,3.3,3.3c1.1,0,2-0.5,2.6-1.3l5,2.8c-0.1,0.3-0.2,0.7-0.2,1.1c0,1.8,1.5,3.3,3.3,3.3
		s3.3-1.5,3.3-3.3S17.8,14.1,16,14.1z M16,3.4c1.2,0,2.2,1,2.2,2.2s-1,2.2-2.2,2.2s-2.2-1-2.2-2.2S14.8,3.4,16,3.4z M5.4,13.7
		c-1.2,0-2.2-1-2.2-2.2s1-2.2,2.2-2.2s2.2,1,2.2,2.2S6.6,13.7,5.4,13.7z M16,19.6c-1.2,0-2.2-1-2.2-2.2c0-1.2,1-2.2,2.2-2.2
		s2.2,1,2.2,2.2C18.3,18.6,17.3,19.6,16,19.6z"/>
</g>
</svg>
