<svg width="24" height="24" viewBox="0 0 24 24" fill="none" xmlns="http://www.w3.org/2000/svg">
<rect width="24" height="24" fill="none"/>
<path fill-rule="evenodd" clip-rule="evenodd" d="M0 2C0 1.44772 0.447715 1 1 1H4C4.49357 1 4.91332 1.36011 4.98837 1.84794L5.4733 5H20.9997C21.3135 5 21.6091 5.14729 21.7981 5.3978C21.987 5.64832 22.0474 5.973 21.9612 6.27472L19.9612 13.2747C19.8537 13.6511 19.5365 13.9301 19.1495 13.9887L17.3999 14.2543C16.3376 14.4157 14.9003 14.6344 13.4007 14.8635C10.4066 15.321 7.17728 15.8178 6.17421 15.9847L6.15883 15.9873C5.85368 16.0417 5.49987 16.4086 5.49988 17.125C5.49988 17.4468 5.58635 17.6979 5.68779 17.8395C5.76704 17.9502 5.85047 18 5.99969 18H18.9992L18.9997 19L18.9996 20H16.5H8.5H5.99969C5.14906 20 4.48259 19.5915 4.0619 19.0042C3.6634 18.4479 3.49988 17.7616 3.49988 17.125C3.49987 16.1844 3.89687 14.9736 4.89007 14.3619L3.14208 3H1C0.447715 3 0 2.55228 0 2ZM8.5 20C9.32843 20 10 20.6716 10 21.5C10 22.3284 9.32843 23 8.5 23C7.67157 23 7 22.3284 7 21.5C7 20.6716 7.67157 20 8.5 20ZM16.5 20C17.3284 20 18 20.6716 18 21.5C18 22.3284 17.3284 23 16.5 23C15.6716 23 15 22.3284 15 21.5C15 20.6716 15.6716 20 16.5 20ZM18.9996 20C18.9996 20 18.9997 20 18.9997 19C18.9997 18 18.9993 18 18.9992 18C19.5515 18 19.9997 18.4477 19.9997 19C19.9997 19.5523 19.5518 20 18.9996 20ZM6.08869 9L5.781 7H19.674L19.1026 9H6.08869ZM6.39638 11L6.83528 13.8529C8.30386 13.6211 10.7801 13.2407 13.0986 12.8865C14.599 12.6572 16.0368 12.4385 17.0995 12.277L18.2147 12.1076L18.5311 11H6.39638Z" fill="black"/>
</svg>
