<svg width="16" height="16" viewBox="0 0 16 16" fill="none" xmlns="http://www.w3.org/2000/svg">
<path fill-rule="evenodd" clip-rule="evenodd" d="M9.00001 4C9.00001 5.10455 8.10462 6 7.00001 6C5.89539 6 5.00001 5.10455 5.00001 4C5.00001 2.89545 5.89539 2 7.00001 2C8.10462 2 9.00001 2.89545 9.00001 4ZM10 4C10 5.65686 8.65687 7 7.00001 7C5.34314 7 4.00001 5.65686 4.00001 4C4.00001 2.34314 5.34314 1 7.00001 1C8.65687 1 10 2.34314 10 4ZM6.17347 7.42236C6.25403 7.44122 6.35047 7.45886 6.46753 7.47247C6.61097 7.4892 6.78541 7.5 7.00001 7.5C7.15467 7.5 7.28846 7.49438 7.40479 7.48499C7.58179 7.4707 7.71839 7.44769 7.82654 7.42236C8.00147 7.38135 8.11646 7.33136 8.24024 7.27753L8.24366 7.27606L8.25586 7.27069C8.28931 7.25616 8.32654 7.23993 8.36756 7.22369C8.47693 7.18036 8.61316 7.1369 8.77515 7.12451C9.00538 7.10693 9.2428 7.15326 9.5199 7.24872C9.60523 7.27808 9.6886 7.30872 9.7699 7.34052C9.81861 7.35956 9.86658 7.37903 9.91395 7.39893C10.0298 7.44751 10.1415 7.49854 10.2492 7.55182L9.80579 8.44812C9.61951 8.35602 9.41627 8.27063 9.19434 8.19421C8.98304 8.12146 8.89185 8.11853 8.85132 8.12164C8.81067 8.12469 8.77625 8.13495 8.64234 8.19312L8.63184 8.19775L8.63074 8.1983C8.49976 8.25519 8.31727 8.33441 8.05469 8.39594C7.78699 8.45874 7.45118 8.5 7.00001 8.5C6.54883 8.5 6.21302 8.45874 5.94532 8.39594C5.68201 8.33423 5.49927 8.2547 5.36817 8.19769L5.35767 8.19312C5.27137 8.15564 5.22632 8.13806 5.19434 8.12946C5.17676 8.12476 5.16309 8.12274 5.14869 8.12164C5.10816 8.11853 5.01697 8.12146 4.80567 8.19421C3.38453 8.68347 2.69495 9.55365 2.35023 10.2877C2.20423 10.5988 2.11866 10.8892 2.06873 11.1208H7.00001V12.1208H1.50001C1.36695 12.1208 1.23951 12.0679 1.14564 11.9736C1.05176 11.8793 0.999395 11.7516 1.00001 11.6186L1.50001 11.6208C1.00001 11.6186 1.00001 11.6183 1.00001 11.6174V11.6158L1.00013 11.6121L1.00025 11.6016L1.00135 11.5684C1.00245 11.5411 1.00452 11.5035 1.00831 11.4568L1.01258 11.409L1.0149 11.385C1.02344 11.3008 1.03711 11.1962 1.05872 11.0754C1.11475 10.7604 1.22547 10.3304 1.44507 9.86273C1.88929 8.9165 2.77112 7.83704 4.48011 7.24866C4.75721 7.15326 4.99463 7.10693 5.22486 7.12451C5.44752 7.14154 5.62159 7.21735 5.74415 7.27069L5.75635 7.27606L5.75977 7.27753C5.88355 7.33136 5.99854 7.38135 6.17347 7.42236ZM11.7764 8.0528C11.9171 7.98242 12.0829 7.98242 12.2236 8.0528L15.7236 9.8028C15.8929 9.88751 16 10.0606 16 10.25V13.75C16 13.9394 15.8929 14.1125 15.7236 14.1972L12.2236 15.9472C12.1802 15.9689 12.1343 15.9839 12.0875 15.9922C11.9828 16.0109 11.8737 15.9958 11.7764 15.9472L8.27637 14.1972C8.10706 14.1125 8.00001 13.9394 8.00001 13.75V10.25C8.00001 10.0606 8.10706 9.88751 8.27637 9.8028L11.7764 8.0528ZM9.00001 11.059V13.441L11.5 14.691V12.309L9.00001 11.059ZM12.5 12.309V14.691L15 13.441V11.059L12.5 12.309ZM14.382 10.25L12 11.441L9.61805 10.25L12 9.05902L14.382 10.25Z" fill="black"/>
</svg>
