<svg width="20" height="20" viewBox="0 0 20 20" fill="none" xmlns="http://www.w3.org/2000/svg">
<path d="M0 0H20V20H0V0Z" fill="none"/>
<path fill-rule="evenodd" clip-rule="evenodd" d="M12.375 0.625C12.375 0.348858 12.1511 0.125 11.875 0.125C11.5989 0.125 11.375 0.348858 11.375 0.625V1.875C11.375 2.15114 11.5989 2.375 11.875 2.375C12.1511 2.375 12.375 2.15114 12.375 1.875V0.625ZM13.2695 4.52244C13.4973 4.97803 13.625 5.56614 13.625 6.24994C13.625 7.51363 13.4704 8.34235 13.2977 8.87499L16.875 8.87499C17.4602 8.87499 17.9442 9.07308 18.2832 9.41206C18.6175 9.74633 18.7812 10.1888 18.7812 10.625C18.7812 11.0612 18.6175 11.5036 18.2832 11.8379C18.2707 11.8505 18.2579 11.8628 18.245 11.875C18.2579 11.8872 18.2707 11.8995 18.2832 11.9121C18.6175 12.2463 18.7812 12.6888 18.7812 13.125C18.7812 13.5612 18.6175 14.0036 18.2832 14.3379C18.2707 14.3505 18.2579 14.3628 18.245 14.375C18.2579 14.3872 18.2707 14.3995 18.2832 14.4121C18.6175 14.7463 18.7812 15.1888 18.7812 15.625C18.7812 16.0612 18.6175 16.5036 18.2832 16.8379C18.1596 16.9615 18.0167 17.0664 17.8566 17.1498C18.0579 17.4428 18.1569 17.7858 18.1569 18.125C18.1569 18.5612 17.9931 19.0036 17.6589 19.3379C17.3199 19.6769 16.8358 19.875 16.2506 19.875L10.0008 19.875C9.96788 19.875 9.93402 19.8717 9.90174 19.8653C9.90185 19.8653 9.90196 19.8653 10 19.375L9.90174 19.8653L9.90065 19.865L9.8982 19.8645L9.88996 19.8628L9.8606 19.8567C9.8355 19.8513 9.79956 19.8435 9.75433 19.8331C9.66392 19.8125 9.53598 19.7818 9.38291 19.741C9.07826 19.6597 8.66714 19.5366 8.25184 19.3705C7.86725 19.2167 7.45368 19.0161 7.11604 18.7613C7.02469 18.9452 6.90704 19.1126 6.7598 19.2598C6.32046 19.6991 5.70207 19.875 5 19.875H1.25071C1.1181 19.875 0.990215 19.8223 0.896447 19.7286C0.802678 19.6348 0.75 19.5076 0.75 19.375V8.125C0.75 7.84886 0.973858 7.625 1.25 7.625H5C5.70207 7.625 6.32046 7.80086 6.7598 8.2402C7.00555 8.48594 7.16886 8.78772 7.26507 9.12882C7.52868 8.934 7.84824 8.68097 8.17928 8.38002C9.01651 7.61889 9.86386 6.60791 10.1399 5.50372C10.3094 4.82586 10.5776 4.29798 10.9324 3.95624C11.2996 3.60271 11.7711 3.44584 12.2467 3.58172C12.6981 3.71068 13.0446 4.07276 13.2695 4.52244ZM6.375 10.0001V17.5C6.375 18.0479 6.23836 18.367 6.0527 18.5527C5.86704 18.7384 5.54793 18.875 5 18.875H1.75V8.625H5C5.54793 8.625 5.86704 8.76164 6.0527 8.9473C6.23836 9.13296 6.375 9.45207 6.375 10V10.0001ZM7.375 10.2734C7.45484 10.2203 7.55193 10.1541 7.66242 10.0757C7.97729 9.85226 8.40397 9.52722 8.85196 9.11996C9.73348 8.31857 10.7611 7.14204 11.11 5.74625C11.2531 5.17412 11.4536 4.84263 11.6261 4.67656C11.7863 4.52227 11.9007 4.5229 11.972 4.54325C12.0675 4.57054 12.2288 4.67719 12.375 4.96968C12.5183 5.25626 12.625 5.68375 12.625 6.24994C12.625 7.45973 12.4736 8.18549 12.3382 8.59184C12.2976 8.71355 12.2585 8.80641 12.2255 8.875H11.875C11.5989 8.875 11.375 9.09886 11.375 9.375C11.375 9.65114 11.5989 9.875 11.875 9.875H13.75L13.753 9.87499L16.875 9.87499C17.2273 9.87499 17.4463 9.98939 17.5761 10.1192C17.7106 10.2536 17.7812 10.4362 17.7812 10.625C17.7812 10.8138 17.7106 10.9963 17.5761 11.1308C17.4463 11.2606 17.2273 11.375 16.875 11.375L14.375 11.375C14.0989 11.375 13.875 11.5989 13.875 11.875C13.875 12.1511 14.0993 12.375 14.3755 12.375L16.875 12.375C17.2273 12.375 17.4463 12.4894 17.5761 12.6192C17.7106 12.7536 17.7812 12.9362 17.7812 13.125C17.7812 13.3138 17.7106 13.4963 17.5761 13.6308C17.4463 13.7606 17.2273 13.875 16.875 13.875L14.375 13.875C14.0989 13.875 13.875 14.0989 13.875 14.375C13.875 14.6511 14.0993 14.875 14.3755 14.875L16.875 14.875C17.2273 14.875 17.4463 14.9894 17.5761 15.1192C17.7106 15.2536 17.7812 15.4362 17.7812 15.625C17.7812 15.8138 17.7106 15.9963 17.5761 16.1308C17.4463 16.2606 17.2273 16.375 16.875 16.375L15.4682 16.375H15C14.7238 16.375 14.5 16.5988 14.5 16.875C14.5 17.1511 14.7239 17.375 15.0001 17.375L15.4687 17.375L16.2506 17.375C16.6029 17.375 16.822 17.4894 16.9518 17.6192C17.0862 17.7536 17.1569 17.9362 17.1569 18.125C17.1569 18.3138 17.0862 18.4963 16.9518 18.6308C16.822 18.7606 16.6029 18.875 16.2506 18.875L10.0521 18.875C10.0327 18.8708 10.0075 18.8652 9.97713 18.8583C9.89664 18.8399 9.78044 18.812 9.64055 18.7747C9.35927 18.6997 8.98915 18.5884 8.62322 18.4421C8.25165 18.2934 7.91297 18.1198 7.67566 17.9299C7.43023 17.7336 7.375 17.5884 7.375 17.5L7.375 10.2734ZM5 16.875C5 17.2202 4.72018 17.5 4.375 17.5C4.02982 17.5 3.75 17.2202 3.75 16.875C3.75 16.5298 4.02982 16.25 4.375 16.25C4.72018 16.25 5 16.5298 5 16.875ZM7.77145 1.52145C7.96671 1.32618 8.28329 1.32618 8.47855 1.52145L9.10355 2.14645C9.29882 2.34171 9.29882 2.65829 9.10355 2.85355C8.90829 3.04882 8.59171 3.04882 8.39645 2.85355L7.77145 2.22855C7.57618 2.03329 7.57618 1.71671 7.77145 1.52145ZM15.3536 2.85355L15.9786 2.22855C16.1738 2.03329 16.1738 1.71671 15.9786 1.52145C15.7833 1.32618 15.4667 1.32618 15.2714 1.52145L14.6464 2.14645C14.4512 2.34171 14.4512 2.65829 14.6464 2.85355C14.8417 3.04882 15.1583 3.04882 15.3536 2.85355Z" fill="black"/>
</svg>
