<svg width="24" height="24" viewBox="0 0 24 24" fill="none" xmlns="http://www.w3.org/2000/svg">
<path d="M20.3478 14.4C20.6608 14.0869 20.7652 13.6695 20.7652 13.2522C20.7652 12.313 19.9304 11.4782 18.9913 11.4782H15.6521C15.9652 10.4348 16.1739 9.07824 16.1739 8.5565V7.93042C16.1739 6.67824 15.1304 5.63477 13.8782 5.63477H13.2521C12.9391 5.63477 12.7304 5.84346 12.7304 6.05216L12.313 7.30433C11.8956 9.07824 10.4347 11.0609 8.97387 11.3739C8.66083 10.7478 8.03474 10.3304 7.30431 10.3304H3.86083C3.54778 10.3304 3.23474 10.6435 3.23474 10.9565V21.4956C3.23474 21.8087 3.54778 22.1217 3.86083 22.1217H7.30431C8.03474 22.1217 8.55648 21.7043 8.86952 21.0782L10.8521 21.7043C11.4782 21.913 12.2087 22.0174 12.8347 22.0174H17.7391C18.6782 22.0174 19.513 21.1826 19.513 20.2435C19.513 20.0348 19.513 19.8261 19.4087 19.6174C20.1391 19.4087 20.6608 18.7826 20.6608 17.9478C20.6608 17.5304 20.4521 17.113 20.2434 16.8C20.5565 16.4869 20.6608 16.0695 20.6608 15.6522C20.6608 15.2348 20.5565 14.713 20.3478 14.4ZM7.93039 20.2435C7.93039 20.5565 7.61735 20.8695 7.30431 20.8695H4.38257V11.4782H7.30431C7.61735 11.4782 7.93039 11.7913 7.93039 12.1043V20.2435ZM17.8434 14.9217H18.9913C19.3043 14.9217 19.6173 15.2348 19.6173 15.5478C19.6173 15.8609 19.3043 16.1739 18.9913 16.1739H17.8434C17.5304 16.1739 17.2173 16.4869 17.2173 16.8C17.2173 17.113 17.5304 17.4261 17.8434 17.4261H18.9913C19.3043 17.4261 19.6173 17.7391 19.6173 18.0522C19.6173 18.3652 19.3043 18.6782 18.9913 18.6782H17.8434C17.5304 18.6782 17.2173 18.9913 17.2173 19.3043C17.2173 19.6174 17.5304 19.9304 17.8434 19.9304C18.1565 19.9304 18.4695 20.2435 18.4695 20.5565C18.4695 20.8695 18.1565 21.1826 17.8434 21.1826H12.9391C12.4173 21.1826 11.7913 21.0782 11.2695 20.8695L9.07822 19.8261V12.5217C10.0173 12.313 10.8521 11.7913 11.6869 10.8522C12.5217 9.91303 13.1478 8.66085 13.3565 7.61737L13.5652 6.78259H13.6695C14.2956 6.78259 14.8174 7.30433 14.8174 7.93042V8.5565C14.8174 9.39129 14.6087 10.8522 14.2956 11.4782H13.1478C12.8347 11.4782 12.5217 11.7913 12.5217 12.1043C12.5217 12.4174 12.8347 12.7304 13.1478 12.7304H18.9913C19.3043 12.7304 19.6173 13.0435 19.6173 13.3565C19.6173 13.6695 19.3043 13.9826 18.9913 13.9826H17.8434C17.5304 13.9826 17.2173 14.2956 17.2173 14.6087C17.2173 14.713 17.5304 14.9217 17.8434 14.9217Z" fill="black"/>
<path d="M6.15648 19.6174C6.50226 19.6174 6.78257 19.3371 6.78257 18.9913C6.78257 18.6455 6.50226 18.3652 6.15648 18.3652C5.8107 18.3652 5.5304 18.6455 5.5304 18.9913C5.5304 19.3371 5.8107 19.6174 6.15648 19.6174Z" fill="black"/>
<path d="M14.2956 2.08691C13.9826 2.08691 13.6696 2.39996 13.6696 2.713V3.96517C13.6696 4.27822 13.9826 4.59126 14.2956 4.59126C14.6087 4.59126 14.9217 4.27822 14.9217 3.96517V2.60865C14.9217 2.29561 14.6087 2.08691 14.2956 2.08691Z" fill="black"/>
<path d="M11.8957 4.5914L11.0609 3.75662C10.8522 3.54792 10.4348 3.54792 10.2261 3.75662C10.0174 3.96532 10.0174 4.38271 10.2261 4.5914L11.0609 5.42618C11.2696 5.63488 11.687 5.63488 11.8957 5.42618C12.1044 5.21749 12.1044 4.8001 11.8957 4.5914Z" fill="black"/>
<path d="M18.4695 3.75662C18.2608 3.54792 17.8434 3.54792 17.6347 3.75662L16.8 4.5914C16.5913 4.8001 16.5913 5.21749 16.8 5.42618C17.0087 5.63488 17.426 5.63488 17.6347 5.42618L18.4695 4.5914C18.6782 4.38271 18.6782 4.06966 18.4695 3.75662Z" fill="black"/>
</svg>
