<?xml version="1.0" encoding="utf-8"?>
<!-- Generator: Adobe Illustrator 23.0.3, SVG Export Plug-In . SVG Version: 6.00 Build 0)  -->
<svg version="1.1" id="Capa_1" xmlns="http://www.w3.org/2000/svg" xmlns:xlink="http://www.w3.org/1999/xlink" x="0px" y="0px"
	 viewBox="0 0 23 23" style="enable-background:new 0 0 23 23;" xml:space="preserve">
<g>
	<g>
		<path d="M19.5,13.8c0.3-0.3,0.4-0.7,0.4-1.1c0-0.9-0.8-1.7-1.7-1.7H15c0.3-1,0.5-2.3,0.5-2.8V7.6c0-1.2-1-2.2-2.2-2.2h-0.6
			c-0.3,0-0.5,0.2-0.5,0.4L11.8,7c-0.4,1.7-1.8,3.6-3.2,3.9C8.3,10.3,7.7,9.9,7,9.9H3.7c-0.3,0-0.6,0.3-0.6,0.6v10.1
			c0,0.3,0.3,0.6,0.6,0.6H7c0.7,0,1.2-0.4,1.5-1l1.9,0.6c0.6,0.2,1.3,0.3,1.9,0.3h4.7c0.9,0,1.7-0.8,1.7-1.7c0-0.2,0-0.4-0.1-0.6
			c0.7-0.2,1.2-0.8,1.2-1.6c0-0.4-0.2-0.8-0.4-1.1c0.3-0.3,0.4-0.7,0.4-1.1S19.7,14.1,19.5,13.8z M7.6,19.4c0,0.3-0.3,0.6-0.6,0.6
			H4.2V11H7c0.3,0,0.6,0.3,0.6,0.6V19.4z M17.1,14.3h1.1c0.3,0,0.6,0.3,0.6,0.6s-0.3,0.6-0.6,0.6h-1.1c-0.3,0-0.6,0.3-0.6,0.6
			c0,0.3,0.3,0.6,0.6,0.6h1.1c0.3,0,0.6,0.3,0.6,0.6s-0.3,0.6-0.6,0.6h-1.1c-0.3,0-0.6,0.3-0.6,0.6c0,0.3,0.3,0.6,0.6,0.6
			c0.3,0,0.6,0.3,0.6,0.6s-0.3,0.6-0.6,0.6h-4.7c-0.5,0-1.1-0.1-1.6-0.3L8.7,19V12c0.9-0.2,1.7-0.7,2.5-1.6c0.8-0.9,1.4-2.1,1.6-3.1
			l0.2-0.8h0.1c0.6,0,1.1,0.5,1.1,1.1v0.6c0,0.8-0.2,2.2-0.5,2.8h-1.1c-0.3,0-0.6,0.3-0.6,0.6s0.3,0.6,0.6,0.6h5.6
			c0.3,0,0.6,0.3,0.6,0.6s-0.3,0.6-0.6,0.6h-1.1c-0.3,0-0.6,0.3-0.6,0.6C16.5,14.1,16.8,14.3,17.1,14.3z"/>
	</g>
</g>
<g>
	<g>
		<circle cx="5.9" cy="18.2" r="0.6"/>
	</g>
</g>
<g>
	<g>
		<path d="M13.7,2c-0.3,0-0.6,0.3-0.6,0.6v1.2c0,0.3,0.3,0.6,0.6,0.6c0.3,0,0.6-0.3,0.6-0.6V2.5C14.3,2.2,14,2,13.7,2z"/>
	</g>
</g>
<g>
	<g>
		<path d="M11.4,4.4l-0.8-0.8c-0.2-0.2-0.6-0.2-0.8,0c-0.2,0.2-0.2,0.6,0,0.8l0.8,0.8c0.2,0.2,0.6,0.2,0.8,0
			C11.6,5,11.6,4.6,11.4,4.4z"/>
	</g>
</g>
<g>
	<g>
		<path d="M17.7,3.6c-0.2-0.2-0.6-0.2-0.8,0l-0.8,0.8c-0.2,0.2-0.2,0.6,0,0.8c0.2,0.2,0.6,0.2,0.8,0l0.8-0.8
			C17.9,4.2,17.9,3.9,17.7,3.6z"/>
	</g>
</g>
</svg>
