<svg width="25" height="24" viewBox="0 0 25 24" fill="none" xmlns="http://www.w3.org/2000/svg">
<path fill-rule="evenodd" clip-rule="evenodd" d="M2 13C2 11.8954 2.89543 11 4 11H13C14.1046 11 15 11.8954 15 13V22C15 23.1046 14.1046 24 13 24H4C2.89543 24 2 23.1046 2 22V13ZM13 13H4V22H13L13 13Z" fill="black"/>
<path d="M5 14.5C5 14.2239 5.22386 14 5.5 14H7.5C7.77614 14 8 14.2239 8 14.5V16.5C8 16.7761 7.77614 17 7.5 17H5.5C5.22386 17 5 16.7761 5 16.5V14.5Z" fill="black"/>
<path d="M5 18.5C5 18.2239 5.22386 18 5.5 18H7.5C7.77614 18 8 18.2239 8 18.5V20.5C8 20.7761 7.77614 21 7.5 21H5.5C5.22386 21 5 20.7761 5 20.5V18.5Z" fill="black"/>
<path d="M9 14.5C9 14.2239 9.22386 14 9.5 14H11.5C11.7761 14 12 14.2239 12 14.5V16.5C12 16.7761 11.7761 17 11.5 17H9.5C9.22386 17 9 16.7761 9 16.5V14.5Z" fill="black"/>
<path d="M9 18.5C9 18.2239 9.22386 18 9.5 18H11.5C11.7761 18 12 18.2239 12 18.5V20.5C12 20.7761 11.7761 21 11.5 21H9.5C9.22386 21 9 20.7761 9 20.5V18.5Z" fill="black"/>
<path fill-rule="evenodd" clip-rule="evenodd" d="M4 4C4 2.89543 4.89543 2 6 2H7C8.10457 2 9 2.89543 9 4V11C9 11.5523 8.55228 12 8 12C7.44772 12 7 11.5523 7 11V4H6V11C6 11.5523 5.55228 12 5 12C4.44772 12 4 11.5523 4 11V4Z" fill="black"/>
<path fill-rule="evenodd" clip-rule="evenodd" d="M12.8222 7.18772C13.1433 6.46547 13.8595 6 14.6499 6H18.271C19.1398 6 19.9092 6.56087 20.1751 7.38798L24.0322 19.388C24.4472 20.679 23.4843 22 22.1282 22H14C13.4477 22 13 21.5523 13 21C13 20.4477 13.4477 20 14 20H22.1282L18.271 8H14.6499L12.9138 11.9061C12.6895 12.4108 12.0985 12.6381 11.5939 12.4138C11.0892 12.1895 10.8619 11.5985 11.0862 11.0939L12.8222 7.18772Z" fill="black"/>
<path fill-rule="evenodd" clip-rule="evenodd" d="M19.8292 2.10557C20.168 1.428 20.8605 1 21.618 1H22C22.5523 1 23 1.44772 23 2C23 2.55228 22.5523 3 22 3H21.618L21.1708 3.89443C20.832 4.572 20.1395 5 19.382 5H19C18.4477 5 18 4.55228 18 4C18 3.44772 18.4477 3 19 3L19.382 3L19.8292 2.10557Z" fill="black"/>
<path fill-rule="evenodd" clip-rule="evenodd" d="M14.8292 2.10557C15.168 1.428 15.8605 1 16.618 1H17C17.5523 1 18 1.44772 18 2C18 2.55228 17.5523 3 17 3H16.618L16.1708 3.89443C15.832 4.572 15.1395 5 14.382 5H14C13.4477 5 13 4.55228 13 4C13 3.44772 13.4477 3 14 3L14.382 3L14.8292 2.10557Z" fill="black"/>
</svg>
