<svg width="16" height="16" viewBox="0 0 16 16" fill="none" xmlns="http://www.w3.org/2000/svg">
<path fill-rule="evenodd" clip-rule="evenodd" d="M2 1.5C2 1.22386 2.22386 1 2.5 1H4.5C4.77614 1 5 1.22386 5 1.5V7H8.09991C8.14673 6.82299 8.19735 6.66451 8.24503 6.51521L8.24503 6.5152L8.27917 6.40788C8.36845 6.12487 8.45038 5.84056 8.50417 5.43436C8.53709 5.18576 8.74907 5 8.99984 5H12.4998C12.7231 5 12.9193 5.14799 12.9806 5.36264L13.0176 5.49196C13.9917 8.90159 14.4921 10.6532 15.9638 14.3135C16.0257 14.4676 16.0071 14.6423 15.9141 14.7799C15.8211 14.9175 15.6659 15 15.4998 15H10V15.5C10 15.7761 9.77614 16 9.5 16H1.5C1.22386 16 1 15.7761 1 15.5V7.5C1 7.22386 1.22386 7 1.5 7H2V1.5ZM9 14.4874L8.99984 14.5L9 14.5126V15H2V8H2.5H4.5H8.4911L8.49782 8.00008L8.50973 8H9V14.4874ZM10 14H14.7624C13.5092 10.8228 12.9962 9.0568 12.1227 6H9.42246C9.36584 6.27467 9.29861 6.50025 9.23285 6.70871L9.19679 6.8223L9.19674 6.82246C9.17741 6.88314 9.15871 6.94186 9.14072 7H9.5C9.77614 7 10 7.22386 10 7.5V14ZM4 2V7H3V2H4ZM11.1035 2.10351C11.0637 2.14332 11 2.24368 11 2.5C11 2.91041 10.8971 3.31005 10.6036 3.60355C10.31 3.89706 9.91041 4 9.5 4C9.22386 4 9 3.77614 9 3.5C9 3.22386 9.22386 3 9.5 3C9.75626 3 9.85662 2.93627 9.89645 2.89645C9.93627 2.85662 10 2.75626 10 2.5C10 2.08966 10.1029 1.69002 10.3963 1.39649C10.6898 1.10294 11.0894 1 11.4998 1C11.776 1 11.9998 1.22386 11.9998 1.5C11.9998 1.77614 11.776 2 11.4998 2C11.2436 2 11.1433 2.06373 11.1035 2.10351ZM14 2.5C14 2.24368 14.0637 2.14332 14.1035 2.10351C14.1433 2.06373 14.2436 2 14.4998 2C14.776 2 14.9998 1.77614 14.9998 1.5C14.9998 1.22386 14.776 1 14.4998 1C14.0894 1 13.6898 1.10294 13.3963 1.39649C13.1029 1.69002 13 2.08966 13 2.5C13 2.75626 12.9363 2.85662 12.8964 2.89645C12.8566 2.93627 12.7563 3 12.5 3C12.2239 3 12 3.22386 12 3.5C12 3.77614 12.2239 4 12.5 4C12.9104 4 13.31 3.89706 13.6036 3.60355C13.8971 3.31005 14 2.91041 14 2.5ZM3.5 9C3.22386 9 3 9.22386 3 9.5V10.5C3 10.7761 3.22386 11 3.5 11H4.5C4.77614 11 5 10.7761 5 10.5V9.5C5 9.22386 4.77614 9 4.5 9H3.5ZM6.5 9C6.22386 9 6 9.22386 6 9.5V10.5C6 10.7761 6.22386 11 6.5 11H7.5C7.77614 11 8 10.7761 8 10.5V9.5C8 9.22386 7.77614 9 7.5 9H6.5ZM3.5 12C3.22386 12 3 12.2239 3 12.5V13.5C3 13.7761 3.22386 14 3.5 14H4.5C4.77614 14 5 13.7761 5 13.5V12.5C5 12.2239 4.77614 12 4.5 12H3.5ZM6.5 12C6.22386 12 6 12.2239 6 12.5V13.5C6 13.7761 6.22386 14 6.5 14H7.5C7.77614 14 8 13.7761 8 13.5V12.5C8 12.2239 7.77614 12 7.5 12H6.5Z" fill="black"/>
</svg>
