<svg width="24" height="24" viewBox="0 0 24 24" fill="none" xmlns="http://www.w3.org/2000/svg">
<rect width="24" height="24" fill="none"/>
<path fill-rule="evenodd" clip-rule="evenodd" d="M19.2413 1.3486C19.601 0.929554 20.2324 0.881492 20.6514 1.24125C22.7261 3.02239 24 6.35137 24 9.99999C24 13.6486 22.7261 16.9776 20.6514 18.7587C20.2324 19.1185 19.601 19.0704 19.2413 18.6514C18.8815 18.2323 18.9296 17.601 19.3486 17.2412C20.8462 15.9556 22 13.2697 22 9.99999C22 6.7303 20.8462 4.0444 19.3486 2.75873C18.9296 2.39897 18.8815 1.76764 19.2413 1.3486ZM10 10C10 11.1046 9.10457 12 8 12C6.89543 12 6 11.1046 6 10C6 8.89543 6.89543 8 8 8C9.10457 8 10 8.89543 10 10ZM12 10C12 12.2091 10.2091 14 8 14C5.79086 14 4 12.2091 4 10C4 7.79086 5.79086 6 8 6C10.2091 6 12 7.79086 12 10ZM8 15.5C7.55262 15.5 7.28356 15.4426 7.11677 15.3875C6.95179 15.333 6.84581 15.269 6.68619 15.1711L6.6608 15.1554C6.51157 15.063 6.20427 14.8728 5.79946 14.8291C5.35801 14.7816 4.94819 14.9135 4.56319 15.1004C2.23996 16.2286 1.10702 18.2581 0.557309 19.9096C0.280859 20.74 0.142472 21.5002 0.0726724 22.053C0.0376405 22.3305 0.0195301 22.5586 0.0101495 22.7208C0.00545473 22.802 0.00293316 22.867 0.00157811 22.9136C0.000900403 22.9369 0.000513867 22.9556 0.00029339 22.9696L7.15411e-05 22.9869L2.48111e-05 22.9928L1.23537e-05 22.995L8.18136e-06 22.9959C6.5796e-06 22.9964 5.22275e-06 22.9968 0.98596 22.9999L5.20113e-06 22.9968C-0.000851377 23.2625 0.104126 23.5177 0.291754 23.706C0.479382 23.8942 0.734224 24 1 24L15 24C15.2658 24 15.5206 23.8942 15.7082 23.706C15.8959 23.5177 16.0009 23.2626 16 22.9968L15 23C16 22.9968 16 22.9964 16 22.996L16 22.995L16 22.9928L15.9999 22.9869L15.9997 22.9696L15.9993 22.946L15.9984 22.9136C15.9971 22.867 15.9945 22.802 15.9899 22.7208C15.9805 22.5586 15.9624 22.3305 15.9273 22.053C15.8575 21.5002 15.7191 20.7401 15.4427 19.9096C14.893 18.2581 13.76 16.2286 11.4368 15.1004C11.0518 14.9135 10.642 14.7816 10.2005 14.8291C9.79573 14.8728 9.48844 15.063 9.3392 15.1554L9.31381 15.1711C9.15419 15.269 9.04821 15.333 8.88323 15.3875C8.71645 15.4426 8.44737 15.5 8 15.5ZM2.45494 20.5412C2.27586 21.0792 2.16667 21.5853 2.10037 22L13.8996 22C13.8333 21.5853 13.7241 21.0792 13.5451 20.5412C13.0907 19.1762 12.2236 17.7058 10.5632 16.8996C10.5015 16.8696 10.4552 16.8504 10.4224 16.8382C10.4052 16.8482 10.3844 16.8607 10.3593 16.876L10.3416 16.8869C10.1727 16.9906 9.90105 17.1575 9.51105 17.2864C9.10892 17.4194 8.62316 17.5 8 17.5C7.37684 17.5 6.89108 17.4194 6.48895 17.2864C6.09895 17.1575 5.82725 16.9906 5.65838 16.8869L5.64066 16.876C5.61564 16.8607 5.59479 16.8482 5.57763 16.8382C5.54476 16.8504 5.49855 16.8696 5.43681 16.8996C3.77637 17.7058 2.90931 19.1762 2.45494 20.5412ZM16.7261 3.81238C16.3463 3.41138 15.7134 3.39417 15.3124 3.77393C14.9114 4.1537 14.8942 4.78663 15.2739 5.18762C16.4628 6.44297 17.1905 8.13543 17.1905 10C17.1905 11.8646 16.4628 13.557 15.2739 14.8124C14.8942 15.2134 14.9114 15.8463 15.3124 16.2261C15.7134 16.6058 16.3463 16.5886 16.7261 16.1876C18.2527 14.5756 19.1905 12.3963 19.1905 10C19.1905 7.60374 18.2527 5.42436 16.7261 3.81238Z" fill="black"/>
</svg>
