<svg width="20" height="20" viewBox="0 0 20 20" fill="none" xmlns="http://www.w3.org/2000/svg">
<path fill-rule="evenodd" clip-rule="evenodd" d="M10 18C14.4183 18 18 14.4183 18 10C18 5.58172 14.4183 2 10 2C5.58172 2 2 5.58172 2 10C2 14.4183 5.58172 18 10 18ZM10 19C14.9706 19 19 14.9706 19 10C19 5.02944 14.9706 1 10 1C5.02944 1 1 5.02944 1 10C1 14.9706 5.02944 19 10 19Z" fill="#2462A7"/>
<path fill-rule="evenodd" clip-rule="evenodd" d="M4 6.5C4 6.22386 4.22386 6 4.5 6H15.5C15.7761 6 16 6.22386 16 6.5V13.5C16 13.7761 15.7761 14 15.5 14H4.5C4.22386 14 4 13.7761 4 13.5V6.5ZM5 7V13H15V7H5Z" fill="#2462A7"/>
<path fill-rule="evenodd" clip-rule="evenodd" d="M4.14645 6.14645C4.34171 5.95118 4.65829 5.95118 4.85355 6.14645L10 11.2929L15.1464 6.14645C15.3417 5.95118 15.6583 5.95118 15.8536 6.14645C16.0488 6.34171 16.0488 6.65829 15.8536 6.85355L12.7071 10L15.8536 13.1464C16.0488 13.3417 16.0488 13.6583 15.8536 13.8536C15.6583 14.0488 15.3417 14.0488 15.1464 13.8536L12 10.7071L10.3536 12.3536C10.1583 12.5488 9.84171 12.5488 9.64645 12.3536L8 10.7071L4.85355 13.8536C4.65829 14.0488 4.34171 14.0488 4.14645 13.8536C3.95118 13.6583 3.95118 13.3417 4.14645 13.1464L7.29289 10L4.14645 6.85355C3.95118 6.65829 3.95118 6.34171 4.14645 6.14645Z" fill="#2462A7"/>
</svg>
