<svg width="24" height="24" viewBox="0 0 24 24" fill="none" xmlns="http://www.w3.org/2000/svg">
<g clip-path="url(#clip0)">
<path fill-rule="evenodd" clip-rule="evenodd" d="M6.00944 1.00944C6.00061 1.11443 6 1.2632 6 1.5L6.00001 1.52531C6.00003 1.75343 6.00005 1.96474 5.98132 2.13334C5.96231 2.30448 5.91497 2.54214 5.72856 2.72856C5.54214 2.91497 5.30448 2.96231 5.13334 2.98132C4.96474 3.00005 4.75343 3.00003 4.52531 3.00001L4.5 3C4.2632 3 4.11443 3.00061 4.00944 3.00944C4.00061 3.11443 4 3.2632 4 3.5C4 3.77615 3.77615 4 3.5 4C3.22386 4 3 3.77615 3 3.5L3 3.47469C2.99998 3.24657 2.99995 3.03527 3.01869 2.86666C3.0377 2.69552 3.08504 2.45786 3.27145 2.27145C3.45786 2.08504 3.69552 2.0377 3.86666 2.01869C4.03526 1.99995 4.24657 1.99998 4.47468 2H4.47469L4.5 2C4.73681 2 4.88558 1.9994 4.99057 1.99057C4.9994 1.88558 5 1.73681 5 1.5L5 1.47469C4.99998 1.24657 4.99995 1.03527 5.01869 0.866663C5.0377 0.695524 5.08504 0.457864 5.27145 0.27145C5.45786 0.0850371 5.69552 0.0377023 5.86666 0.0186869C6.03527 -4.7015e-05 6.24657 -2.35308e-05 6.47469 1.86081e-06L6.5 3.76815e-06C6.77615 3.76815e-06 7 0.223861 7 0.500004C7 0.776146 6.77615 1 6.5 1C6.2632 1 6.11443 1.00061 6.00944 1.00944ZM3 5.5C3 5.22386 3.22386 5 3.5 5H6.5C6.77614 5 7 5.22386 7 5.5V12H11.5206C11.6294 11.3431 11.731 10.5445 11.8319 9.75171C11.8893 9.30068 11.9465 8.85155 12.0046 8.4315C12.0388 8.18418 12.2502 8 12.4998 8H18.4998C18.7379 8 18.9429 8.16782 18.99 8.40117C19.9624 13.224 20.8245 16.4329 22.9579 21.2992C23.0256 21.4539 23.0108 21.6322 22.9185 21.7735C22.8261 21.9148 22.6687 22 22.4999 22H16V22.5C16 22.7761 15.7761 23 15.5 23H1.5C1.22386 23 1 22.7761 1 22.5V12.5C1 12.2239 1.22386 12 1.5 12H3V5.5ZM15 21.4916L14.9999 21.5L15 21.5084V22H2V13H3.5H6.5H11.9308C11.9372 13.0001 11.9435 13.0001 11.9499 13H15V21.4916ZM16 21H21.7387C19.8447 16.5666 18.995 13.4245 18.0911 9H12.937C12.9017 9.2686 12.8659 9.5493 12.8297 9.83404L12.8297 9.8341C12.7352 10.5763 12.6372 11.3459 12.5334 12H15.5C15.7761 12 16 12.2239 16 12.5V21ZM6 6V12H4V6H6ZM3 15C3 14.4477 3.44772 14 4 14H5C5.55228 14 6 14.4477 6 15V16C6 16.5523 5.55228 17 5 17H4C3.44772 17 3 16.5523 3 16V15ZM5 15H4V16H5V15ZM4 18C3.44772 18 3 18.4477 3 19V20C3 20.5523 3.44772 21 4 21H5C5.55228 21 6 20.5523 6 20V19C6 18.4477 5.55228 18 5 18H4ZM4 19H5V20H4V19ZM7 15C7 14.4477 7.44772 14 8 14H9C9.55228 14 10 14.4477 10 15V16C10 16.5523 9.55228 17 9 17H8C7.44772 17 7 16.5523 7 16V15ZM8 15V16H9V15H8ZM8 18C7.44772 18 7 18.4477 7 19V20C7 20.5523 7.44772 21 8 21H9C9.55228 21 10 20.5523 10 20V19C10 18.4477 9.55228 18 9 18H8ZM9 19V20H8V19H9ZM11 15C11 14.4477 11.4477 14 12 14H13C13.5523 14 14 14.4477 14 15V16C14 16.5523 13.5523 17 13 17H12C11.4477 17 11 16.5523 11 16V15ZM13 15H12V16H13V15ZM12 18C11.4477 18 11 18.4477 11 19V20C11 20.5523 11.4477 21 12 21H13C13.5523 21 14 20.5523 14 20V19C14 18.4477 13.5523 18 13 18H12ZM12 19H13V20H12V19ZM16 4.5C16 4.2632 16.0006 4.11443 16.0094 4.00944C16.1144 4.00061 16.2632 4 16.5 4C16.7761 4 17 3.77615 17 3.5C17 3.22386 16.7761 3 16.5 3L16.4747 3C16.2466 2.99998 16.0353 2.99995 15.8667 3.01869C15.6955 3.0377 15.4579 3.08504 15.2715 3.27145C15.085 3.45786 15.0377 3.69552 15.0187 3.86666C15 4.03527 15 4.24657 15 4.47469L15 4.5C15 4.73681 14.9994 4.88558 14.9906 4.99057C14.8856 4.9994 14.7368 5 14.5 5L14.4747 5C14.2466 4.99998 14.0353 4.99995 13.8667 5.01869C13.6955 5.0377 13.4579 5.08504 13.2715 5.27145C13.085 5.45786 13.0377 5.69552 13.0187 5.86666C13 6.03527 13 6.24657 13 6.47469L13 6.5C13 6.77615 13.2239 7 13.5 7C13.7761 7 14 6.77615 14 6.5C14 6.2632 14.0006 6.11443 14.0094 6.00944C14.1144 6.00061 14.2632 6 14.5 6L14.5253 6.00001C14.7534 6.00003 14.9647 6.00005 15.1333 5.98132C15.3045 5.96231 15.5421 5.91497 15.7286 5.72856C15.915 5.54214 15.9623 5.30448 15.9813 5.13334C16.0001 4.96474 16 4.75343 16 4.52531L16 4.5ZM8.00943 2.00944C8.0006 2.11443 8 2.2632 8 2.5L8 2.52532C8.00003 2.75343 8.00005 2.96474 7.98132 3.13334C7.9623 3.30448 7.91497 3.54214 7.72855 3.72856C7.54214 3.91497 7.30448 3.96231 7.13334 3.98132C6.96474 4.00005 6.75343 4.00003 6.52531 4.00001L6.5 4C6.22386 4 6 3.77615 6 3.5C6 3.22386 6.22386 3 6.5 3C6.73681 3 6.88557 2.9994 6.99057 2.99057C6.99939 2.88558 7 2.73681 7 2.5L7 2.47469C6.99997 2.24657 6.99995 2.03527 7.01868 1.86666C7.0377 1.69552 7.08503 1.45786 7.27145 1.27145C7.45786 1.08504 7.69552 1.0377 7.86666 1.01869C8.03526 0.999953 8.24657 0.999976 8.47469 1L8.5 1C8.77614 1 9 1.22386 9 1.5C9 1.77615 8.77614 2 8.5 2C8.26319 2 8.11443 2.00061 8.00943 2.00944ZM18 5.5C18 5.2632 18.0006 5.11443 18.0094 5.00944C18.1144 5.00061 18.2632 5 18.5 5C18.7761 5 19 4.77615 19 4.5C19 4.22386 18.7761 4 18.5 4L18.4747 4C18.2466 3.99998 18.0353 3.99995 17.8667 4.01869C17.6955 4.0377 17.4579 4.08504 17.2714 4.27145C17.085 4.45786 17.0377 4.69552 17.0187 4.86666C16.9999 5.03527 17 5.24657 17 5.47469L17 5.5C17 5.73681 16.9994 5.88558 16.9906 5.99057C16.8856 5.9994 16.7368 6 16.5 6C16.2239 6 16 6.22386 16 6.5C16 6.77615 16.2239 7 16.5 7L16.5253 7.00001C16.7534 7.00003 16.9647 7.00005 17.1333 6.98132C17.3045 6.96231 17.5421 6.91497 17.7286 6.72856C17.915 6.54214 17.9623 6.30448 17.9813 6.13334C18 5.96476 18 5.75348 18 5.52538V5.52532L18 5.5Z" fill="black"/>
</g>
<defs>
<clipPath id="clip0">
<rect width="24" height="24" fill="white"/>
</clipPath>
</defs>
</svg>
