<svg width="20" height="20" viewBox="0 0 20 20" fill="none" xmlns="http://www.w3.org/2000/svg">
<path fill-rule="evenodd" clip-rule="evenodd" d="M18 10C18 14.4183 14.4183 18 10 18C5.58167 18 2 14.4183 2 10C2 5.58173 5.58167 2 10 2C14.4183 2 18 5.58173 18 10ZM19 10C19 14.9706 14.9706 19 10 19C5.02942 19 1 14.9706 1 10C1 5.02942 5.02942 1 10 1C14.9706 1 19 5.02942 19 10ZM6 11C6.55225 11 7 10.5523 7 10C7 9.44769 6.55225 9 6 9C5.44775 9 5 9.44769 5 10C5 10.5523 5.44775 11 6 11ZM10 11C10.5522 11 11 10.5523 11 10C11 9.44769 10.5522 9 10 9C9.44775 9 9 9.44769 9 10C9 10.5523 9.44775 11 10 11ZM15 10C15 10.5523 14.5522 11 14 11C13.4478 11 13 10.5523 13 10C13 9.44769 13.4478 9 14 9C14.5522 9 15 9.44769 15 10Z" fill="#93AE07"/>
</svg>
