<svg width="20" height="20" viewBox="0 0 20 20" fill="none" xmlns="http://www.w3.org/2000/svg">
<path fill-rule="evenodd" clip-rule="evenodd" d="M18 10C18 14.4183 14.4183 18 10 18C5.58167 18 2 14.4183 2 10C2 5.58173 5.58167 2 10 2C14.4183 2 18 5.58173 18 10ZM19 10C19 14.9706 14.9706 19 10 19C5.02942 19 1 14.9706 1 10C1 5.02942 5.02942 1 10 1C14.9706 1 19 5.02942 19 10ZM15.3535 7.35358C15.5488 7.15826 15.5488 6.84174 15.3535 6.64642C15.1583 6.45117 14.8417 6.45117 14.6465 6.64642L9 12.2929L6.35352 9.64642C6.15833 9.45117 5.84167 9.45117 5.64648 9.64642C5.45117 9.84174 5.45117 10.1583 5.64648 10.3536L8.64648 13.3536C8.84167 13.5488 9.15833 13.5488 9.35352 13.3536L15.3535 7.35358Z" fill="#5FA2DD"/>
</svg>
