<svg width="16" height="16" viewBox="0 0 16 16" fill="none" xmlns="http://www.w3.org/2000/svg">
<path fill-rule="evenodd" clip-rule="evenodd"
      d="M1.5 1C1.22386 1 1 1.22386 1 1.5V14.5C1 14.6326 1.05268 14.7598 1.14645 14.8536C1.24021 14.9473 1.36739 15 1.5 15H14.5C14.7761 15 15 14.7761 15 14.5V7C15 6.72386 14.7761 6.5 14.5 6.5C14.2239 6.5 14 6.72386 14 7V14H2V2H12.5C12.7761 2 13 1.77614 13 1.5C13 1.22386 12.7761 1 12.5 1H1.5ZM14.3536 4.35355C14.5488 4.15829 14.5488 3.84171 14.3536 3.64645C14.1583 3.45118 13.8417 3.45118 13.6464 3.64645L7 10.2929L4.35355 7.64645C4.15829 7.45118 3.84171 7.45118 3.64645 7.64645C3.45118 7.84171 3.45118 8.15829 3.64645 8.35355L6.64645 11.3536C6.84171 11.5488 7.15829 11.5488 7.35355 11.3536L14.3536 4.35355Z" fill="gray"/>
</svg>
