<svg width="20" height="20" viewBox="0 0 20 20" fill="none" xmlns="http://www.w3.org/2000/svg">
<path fill-rule="evenodd" clip-rule="evenodd" d="M10 18C14.4183 18 18 14.4183 18 10C18 5.58172 14.4183 2 10 2C5.58172 2 2 5.58172 2 10C2 14.4183 5.58172 18 10 18ZM10 19C14.9706 19 19 14.9706 19 10C19 5.02944 14.9706 1 10 1C5.02944 1 1 5.02944 1 10C1 14.9706 5.02944 19 10 19ZM10.3662 11C10.1933 11.2989 9.87014 11.5 9.5 11.5C8.94772 11.5 8.5 11.0523 8.5 10.5C8.5 10.1299 8.7011 9.80669 9 9.63378V4.5C9 4.22386 9.22386 4 9.5 4C9.77614 4 10 4.22386 10 4.5V9.63378C10.1518 9.7216 10.2784 9.84819 10.3662 10H14C14.2761 10 14.5 10.2239 14.5 10.5C14.5 10.7761 14.2761 11 14 11H10.3662Z" fill="#F8E85B"/>
</svg>
