<svg width="16" height="16" viewBox="0 0 16 16" fill="none" xmlns="http://www.w3.org/2000/svg">
<path fill-rule="evenodd" clip-rule="evenodd" d="M9 2.5C9.19323 2.5 9.45222 2.40565 9.66505 2.21315C9.87075 2.02709 10 1.78026 10 1.5C10 1.22386 10.2239 1 10.5 1C10.7761 1 11 1.22386 11 1.5C11 2.11032 10.7132 2.61348 10.3359 2.95478C9.96565 3.28964 9.47464 3.5 9 3.5C8.80677 3.5 8.54778 3.59435 8.33495 3.78685C8.12925 3.97291 8 4.21974 8 4.5C8 4.77614 7.77614 5 7.5 5C7.22386 5 7 4.77614 7 4.5C7 3.88968 7.28681 3.38652 7.66414 3.04522C8.03435 2.71036 8.52536 2.5 9 2.5ZM11.665 3.21315C11.4522 3.40565 11.1932 3.5 11 3.5C10.5254 3.5 10.0343 3.71036 9.66414 4.04522C9.28681 4.38652 9 4.88968 9 5.5C9 5.77614 9.22386 6 9.5 6C9.77614 6 10 5.77614 10 5.5C10 5.21974 10.1293 4.97291 10.335 4.78685C10.5478 4.59435 10.8068 4.5 11 4.5C11.4746 4.5 11.9657 4.28964 12.3359 3.95478C12.7132 3.61348 13 3.11032 13 2.5C13 2.22386 12.7761 2 12.5 2C12.2239 2 12 2.22386 12 2.5C12 2.78026 11.8707 3.02709 11.665 3.21315ZM8.5 8C8.99149 8 9.41174 8.10067 9.69061 8.24011C9.8299 8.30975 9.91549 8.37977 9.96109 8.43368C9.98292 8.45947 9.99258 8.47798 9.99662 8.48785C9.99861 8.49272 9.99938 8.4958 9.99968 8.49728C9.99997 8.49869 10 8.49947 10 8.5C10 8.50053 9.99997 8.5013 9.99968 8.50272C9.99938 8.5042 9.99861 8.50728 9.99662 8.51215C9.99258 8.52202 9.98292 8.54053 9.96109 8.56632C9.91549 8.62023 9.8299 8.69025 9.69061 8.75989C9.41174 8.89933 8.99149 9 8.5 9C8.00851 9 7.58826 8.89933 7.30939 8.75989C7.1701 8.69025 7.08451 8.62023 7.03891 8.56632C7.01708 8.54053 7.00742 8.52202 7.00338 8.51215L7.00314 8.51155C7.01641 8.43528 7.03533 8.41569 7.05102 8.39964C7.09338 8.35631 7.18981 8.28957 7.4414 8.18129C7.71584 8.07226 8.08395 8 8.5 8ZM10.9989 8.45214C10.9746 7.91106 10.5411 7.54733 10.1378 7.34568C9.69283 7.12319 9.11308 7 8.5 7C7.97283 7 7.47377 7.09097 7.06398 7.25522L7.06393 7.25509L7.05291 7.25981C6.78092 7.37647 6.52535 7.50683 6.33592 7.70063C6.12597 7.91541 6.0371 8.16381 6.00487 8.4293L5 14.4585V14.4999C5 14.8902 5.16679 15.2062 5.43679 15.4323C5.68645 15.6414 6.00714 15.7607 6.32194 15.8355C6.95042 15.9848 7.75854 15.9999 8.5 15.9999C9.18477 15.9999 9.98984 15.9845 10.6308 15.8362C10.9505 15.7622 11.2788 15.6447 11.5361 15.4408C11.8135 15.2209 12 14.9042 12 14.4999V14.4585L10.9989 8.45214ZM10.1817 9.63177C10.1671 9.6395 10.1524 9.64702 10.1378 9.65432C9.69283 9.87681 9.11308 10 8.5 10C7.88692 10 7.30717 9.87681 6.86218 9.65432C6.84757 9.64702 6.83292 9.6395 6.81825 9.63177L6.00151 14.5322C6.00721 14.5881 6.02959 14.6244 6.07883 14.6656C6.15729 14.7313 6.30536 14.8038 6.55306 14.8626C7.04958 14.9805 7.74146 14.9999 8.5 14.9999C9.19659 14.9999 9.89153 14.9808 10.4053 14.8619C10.6628 14.8023 10.8255 14.728 10.9149 14.6571C10.9718 14.612 10.9927 14.5762 10.9983 14.531L10.1817 9.63177Z" fill="black"/>
</svg>
