<svg width="15" height="15" viewBox="0 0 15 15" fill="none" xmlns="http://www.w3.org/2000/svg">
<path d="M7.91853 1.98877C6.45688 1.98877 5.05509 2.56941 4.02155 3.60295C2.988 4.63649 2.40737 6.03828 2.40737 7.49993H0.570312L2.95236 9.88198L2.99522 9.96771L5.46912 7.49993H3.63207C3.63207 5.13013 5.54873 3.21347 7.91853 3.21347C10.2883 3.21347 12.205 5.13013 12.205 7.49993C12.205 9.86973 10.2883 11.7864 7.91853 11.7864C6.73669 11.7864 5.66507 11.3026 4.89351 10.5249L4.02397 11.3945C4.53432 11.9076 5.1412 12.3147 5.80963 12.5921C6.47806 12.8696 7.1948 13.012 7.91853 13.0111C9.38018 13.0111 10.782 12.4305 11.8155 11.3969C12.849 10.3634 13.4297 8.96158 13.4297 7.49993C13.4297 6.03828 12.849 4.63649 11.8155 3.60295C10.782 2.56941 9.38018 1.98877 7.91853 1.98877ZM7.30618 5.05053V8.11228L9.92704 9.66765L10.3679 8.92671L8.2247 7.65302V5.05053H7.30618Z" fill="black"/>
</svg>
