<svg width="24" height="24" viewBox="0 0 24 24" fill="none" xmlns="http://www.w3.org/2000/svg">
<path fill-rule="evenodd" clip-rule="evenodd" d="M12.5 3H17.5C17.7761 3 18 3.22386 18 3.5C18 3.77614 17.7761 4 17.5 4H12.5C12.2239 4 12 3.77614 12 3.5C12 3.22386 12.2239 3 12.5 3ZM11 3.5C11 2.67157 11.6716 2 12.5 2H17.5C18.3284 2 19 2.67157 19 3.5C19 4.32843 18.3284 5 17.5 5H12.5C11.6716 5 11 4.32843 11 3.5ZM14 7.5C14 7.22386 13.7761 7 13.5 7H8.5C8.22386 7 8 7.22386 8 7.5C8 7.77614 8.22386 8 8.5 8H13.5C13.7761 8 14 7.77614 14 7.5ZM8.5 6C7.67157 6 7 6.67157 7 7.5C7 8.32843 7.67157 9 8.5 9H13.5C14.3284 9 15 8.32843 15 7.5C15 6.67157 14.3284 6 13.5 6H8.5ZM13.5 11H18.5C18.7761 11 19 11.2239 19 11.5C19 11.7761 18.7761 12 18.5 12H13.5C13.2239 12 13 11.7761 13 11.5C13 11.2239 13.2239 11 13.5 11ZM12 11.5C12 10.6716 12.6716 10 13.5 10H18.5C19.3284 10 20 10.6716 20 11.5C20 12.3284 19.3284 13 18.5 13H13.5C12.6716 13 12 12.3284 12 11.5ZM1 14.5C1 14.2239 1.22386 14 1.5 14H5.5C5.77614 14 6 14.2239 6 14.5V15H9.0001C9.04519 15 9.09007 15.0061 9.13353 15.0181L12.6797 16H15.0195C15.5191 16 15.9408 16.1633 16.2406 16.4528C16.5369 16.7389 16.6846 17.1207 16.6846 17.5C16.6846 17.6538 16.6603 17.8081 16.6116 17.9562L20.5391 15.7287C21.0963 15.3878 21.6574 15.2737 22.1606 15.377C22.6663 15.4809 23.0651 15.7958 23.2914 16.2139C23.7567 17.0736 23.4558 18.2273 22.3222 18.9256C21.3675 19.5136 20.0987 20.2659 19.0707 20.8698C18.5563 21.1721 18.1013 21.4377 17.775 21.6278C17.6118 21.7228 17.4807 21.799 17.3904 21.8514L17.251 21.9322C17.1749 21.9763 17.0879 21.9999 16.9999 21.9999H10.4999C10.4363 21.9999 10.3733 21.9877 10.3142 21.9641L6 20.2384V20.5C6 20.7761 5.77614 21 5.5 21H1.5C1.22386 21 1 20.7761 1 20.5V14.5ZM6 19.1614V16H8.93216L12.4783 16.9819C12.5218 16.9939 12.5673 17 12.6124 17H15.0195C15.2966 17 15.4574 17.0867 15.546 17.1722C15.6381 17.2611 15.6846 17.3793 15.6846 17.5C15.6846 17.6207 15.6381 17.7389 15.546 17.8278C15.4594 17.9114 15.3039 17.996 15.0383 17.9999L11.5999 17.9999C11.3237 17.9999 11.0999 18.2237 11.0999 18.4999C11.0999 18.776 11.3237 18.9999 11.5999 18.9999L15.0078 18.9999L15.0195 19L15.0443 18.9999H16.6665C16.753 18.9999 16.8379 18.9774 16.9132 18.9348L21.04 16.5943C21.0453 16.5913 21.0504 16.5883 21.0556 16.5851C21.4458 16.3448 21.7526 16.3141 21.9595 16.3566C22.1662 16.3991 22.3216 16.5229 22.4119 16.6899C22.58 17.0005 22.5642 17.6021 21.7978 18.0741C20.8525 18.6564 19.5913 19.4042 18.5642 20.0076C18.0511 20.3091 17.5973 20.574 17.2717 20.7636C17.109 20.8584 16.9783 20.9343 16.8884 20.9865L16.8654 20.9999H10.5962L6 19.1614ZM5 15V19.4841C4.99967 19.4945 4.99968 19.5049 5 19.5153V20H2V15H5Z" fill="black"/>
</svg>
