<svg width="24" height="24" viewBox="0 0 24 24" fill="none" xmlns="http://www.w3.org/2000/svg">
<path fill-rule="evenodd" clip-rule="evenodd" d="M9 1.5C9 1.22386 9.22386 1 9.5 1H13.5C13.7761 1 14 1.22386 14 1.5V2H16.5C16.7761 2 17 2.22386 17 2.5V4.5C17 4.77614 16.7761 5 16.5 5H14V5.5C14 5.77614 13.7761 6 13.5 6H13V7H16C18.7761 7 21 9.22386 21 12V13.5C21 13.7761 20.7761 14 20.5 14H17.5C17.2239 14 17 13.7761 17 13.5C17 12.7898 16.8788 12.157 16.584 11.7148C16.313 11.3085 15.8543 11 15 11H4.84833C4.63106 11.6753 4.20057 12.1919 3.68987 12.5387C2.97376 13.0249 2.06837 13.1966 1.35381 12.9782C1.14358 12.9139 1 12.7198 1 12.5V5.5C1 5.22386 1.22386 5 1.5 5C2.06369 5 2.90928 5.13751 3.6322 5.57125C4.14889 5.88126 4.60359 6.34608 4.83597 7H10V6H9.5C9.22386 6 9 5.77614 9 5.5V5H6.5C6.22386 5 6 4.77614 6 4.5V2.5C6 2.22386 6.22386 2 6.5 2H9V1.5ZM13 2V2.5V4.5V5H12.5H10.5H10V4.5V2.5V2H13ZM14 3V4H16V3H14ZM9 3H7V4H9V3ZM12 7.5V6H11V7.5C11 7.77614 10.7761 8 10.5 8H5V8.99976V10H15C16.1457 10 16.937 10.4415 17.416 11.1601C17.7767 11.7011 17.9324 12.3578 17.9815 13H20V12C20 9.77614 18.2239 8 16 8H12.5C12.2239 8 12 7.77614 12 7.5ZM3.11772 6.42875C3.61871 6.72934 4 7.20457 4 8V9.00024V10C4 10.8207 3.6164 11.3798 3.12812 11.7114C2.75756 11.963 2.3432 12.0734 2 12.0713V6.04148C2.36122 6.09849 2.76756 6.21866 3.11772 6.42875ZM21 20C21 20.6364 20.7901 21.1278 20.4589 21.4589C20.1278 21.7901 19.6364 22 19 22C18.3636 22 17.8722 21.7901 17.5411 21.4589C17.2099 21.1278 17 20.6364 17 20C17 19.7355 17.1069 19.3641 17.3165 18.9139C17.521 18.4748 17.8004 18.0082 18.0934 17.5677C18.3853 17.1288 18.6845 16.7252 18.9242 16.4126L19 16.3141L19.0758 16.4126C19.3155 16.7252 19.6147 17.1288 19.9066 17.5677C20.1996 18.0082 20.479 18.4748 20.6835 18.9139C20.8931 19.3641 21 19.7355 21 20ZM19 23C19.8636 23 20.6222 22.7099 21.1661 22.1661C21.7099 21.6222 22 20.8636 22 20C22 19.5145 21.8187 18.9828 21.59 18.4917C21.3561 17.9894 21.0469 17.4764 20.7392 17.0138C20.4304 16.5496 20.1167 16.1267 19.8694 15.8041C19.724 15.6144 19.6115 15.4718 19.5328 15.372L19.5327 15.372L19.5327 15.3719C19.469 15.2913 19.4275 15.2386 19.4085 15.2116C19.3148 15.0789 19.1624 15 19 15C18.8376 15 18.6852 15.0789 18.5915 15.2116C18.5725 15.2386 18.5309 15.2913 18.4673 15.372C18.3886 15.4717 18.2761 15.6143 18.1306 15.8041C17.8833 16.1267 17.5696 16.5496 17.2608 17.0138C16.9531 17.4764 16.6439 17.9894 16.41 18.4917C16.1813 18.9828 16 19.5145 16 20C16 20.8636 16.2901 21.6222 16.8339 22.1661C17.3778 22.7099 18.1364 23 19 23Z" fill="black"/>
</svg>
