<svg width="24" height="24" viewBox="0 0 24 24" fill="none" xmlns="http://www.w3.org/2000/svg">
<path fill-rule="evenodd" clip-rule="evenodd" d="M10.5 5C10.2239 5 10 5.22386 10 5.5V6H7.5C7.22386 6 7 6.22386 7 6.5V8.5C7 8.77614 7.22386 9 7.5 9H10V9.5C10 9.77614 10.2239 10 10.5 10H11V11H5.83597C5.60359 10.3461 5.14889 9.88126 4.6322 9.57125C3.90928 9.13751 3.06369 9 2.5 9C2.22386 9 2 9.22386 2 9.5V16.5C2 16.7198 2.14358 16.9139 2.35381 16.9782C3.06837 17.1966 3.97376 17.0249 4.68987 16.5387C5.20057 16.1919 5.63106 15.6753 5.84833 15H16C16.8543 15 17.313 15.3085 17.584 15.7148C17.8788 16.157 18 16.7898 18 17.5C18 17.7761 18.2239 18 18.5 18H21.5C21.7761 18 22 17.7761 22 17.5V16C22 13.2239 19.7761 11 17 11H14V10H14.5C14.7761 10 15 9.77614 15 9.5V9H17.5C17.7761 9 18 8.77614 18 8.5V6.5C18 6.22386 17.7761 6 17.5 6H15V5.5C15 5.22386 14.7761 5 14.5 5H10.5ZM14 6.5V6H11V6.5V8.5V9H11.5H13.5H14V8.5V6.5ZM15 8V7H17V8H15ZM8 7H10V8H8V7ZM13 10V11.5C13 11.7761 13.2239 12 13.5 12H17C19.2239 12 21 13.7761 21 16V17H18.9815C18.9324 16.3578 18.7767 15.7011 18.416 15.1601C17.937 14.4415 17.1457 14 16 14H6V12.9998V12H11.5C11.7761 12 12 11.7761 12 11.5V10H13ZM5 12C5 11.2046 4.61871 10.7293 4.11772 10.4287C3.76756 10.2187 3.36122 10.0985 3 10.0415V16.0713C3.3432 16.0734 3.75756 15.963 4.12812 15.7114C4.6164 15.3798 5 14.8207 5 14V13.0002V12Z" fill="black"/>
</svg>
