<svg width="24" height="24" viewBox="0 0 24 24" fill="none" xmlns="http://www.w3.org/2000/svg">
<rect width="24" height="24" fill="none"/>
<path fill-rule="evenodd" clip-rule="evenodd" d="M19.9487 0.683762C19.8391 0.354969 19.5671 0.106368 19.2298 0.0267404C18.8925 -0.0528868 18.538 0.0478152 18.2929 0.292883L15.2929 3.29288C15.0703 3.51545 14.9655 3.82982 15.0101 4.14141L15.4394 7.14644L11.2929 11.2929C10.9024 11.6834 10.9024 12.3166 11.2929 12.7071C11.6834 13.0976 12.3166 13.0976 12.7071 12.7071L16.8536 8.56065L19.8586 8.98994C20.1702 9.03445 20.4846 8.92966 20.7071 8.7071L23.7071 5.7071C23.9522 5.46203 24.0529 5.10754 23.9733 4.77024C23.8936 4.43293 23.645 4.1609 23.3162 4.05131L20.7906 3.20942L19.9487 0.683762ZM18.6213 6.79288L19.6465 6.93933L21.1488 5.43701L20.2661 5.14279C20.2476 5.16486 20.2279 5.18633 20.2071 5.20711L18.6213 6.79288ZM18.8572 3.73388L18.563 2.85122L17.0607 4.35354L17.2071 5.37867L18.7929 3.79289C18.8137 3.77212 18.8351 3.75244 18.8572 3.73388ZM3 12C3 7.02944 7.02944 3 12 3C12.5523 3 13 2.55228 13 2C13 1.44772 12.5523 1 12 1C5.92487 1 1 5.92487 1 12C1 18.0751 5.92487 23 12 23C18.0751 23 23 18.0751 23 12C23 11.4477 22.5523 11 22 11C21.4477 11 21 11.4477 21 12C21 16.9706 16.9706 21 12 21C7.02944 21 3 16.9706 3 12ZM8 12C8 9.79086 9.79086 8 12 8C12.5523 8 13 7.55228 13 7C13 6.44771 12.5523 6 12 6C8.68629 6 6 8.68629 6 12C6 15.3137 8.68629 18 12 18C15.3137 18 18 15.3137 18 12C18 11.4477 17.5523 11 17 11C16.4477 11 16 11.4477 16 12C16 14.2091 14.2091 16 12 16C9.79086 16 8 14.2091 8 12Z" fill="black"/>
</svg>
