<svg width="24" height="24" viewBox="0 0 24 24" fill="none" xmlns="http://www.w3.org/2000/svg">
<rect width="24" height="24" fill="none"/>
<path fill-rule="evenodd" clip-rule="evenodd" d="M3 3C3 1.89543 3.89543 1 5 1H19C20.1046 1 21 1.89543 21 3V21C21 22.1046 20.1046 23 19 23H5C3.89543 23 3 22.1046 3 21V3ZM7 21H5V19V5V3H7H17H19V5V19V21H17H7ZM15.7071 5.29289C16.0976 5.68342 16.0976 6.31658 15.7071 6.70711L11.7071 10.7071C11.3166 11.0976 10.6834 11.0976 10.2929 10.7071L8.29289 8.70711C7.90237 8.31658 7.90237 7.68342 8.29289 7.29289C8.68342 6.90237 9.31658 6.90237 9.70711 7.29289L11 8.58579L14.2929 5.29289C14.6834 4.90237 15.3166 4.90237 15.7071 5.29289ZM15.7071 14.7071C16.0976 14.3166 16.0976 13.6834 15.7071 13.2929C15.3166 12.9024 14.6834 12.9024 14.2929 13.2929L11 16.5858L9.70711 15.2929C9.31658 14.9024 8.68342 14.9024 8.29289 15.2929C7.90237 15.6834 7.90237 16.3166 8.29289 16.7071L10.2929 18.7071C10.6834 19.0976 11.3166 19.0976 11.7071 18.7071L15.7071 14.7071Z" fill="black"/>
</svg>
