<svg width="24" height="24" viewBox="0 0 24 24" fill="none" xmlns="http://www.w3.org/2000/svg">
<path fill-rule="evenodd" clip-rule="evenodd" d="M2 0C1.44772 0 1 0.447715 1 1V22C1 22.5523 1.44772 23 2 23H8C8.55228 23 9 22.5523 9 22C9 21.4477 8.55228 21 8 21H3V2H18V7C18 7.55228 18.4477 8 19 8C19.5523 8 20 7.55228 20 7V1C20 0.447715 19.5523 0 19 0H2ZM21.7071 9.29289C21.3166 8.90237 20.6834 8.90237 20.2929 9.29289L11.2929 18.2929C11.1533 18.4325 11.0582 18.6103 11.0194 18.8039L10.5194 21.3039C10.4539 21.6317 10.5565 21.9707 10.7929 22.2071C11.0293 22.4435 11.3683 22.5462 11.6961 22.4806L14.1961 21.9806C14.3897 21.9419 14.5675 21.8467 14.7071 21.7071L23.7071 12.7071C24.0976 12.3166 24.0976 11.6834 23.7071 11.2929L21.7071 9.29289ZM12.7748 20.2252L12.9212 19.493L21 11.4142L21.5858 12L13.507 20.0788L12.7748 20.2252ZM14.2071 4.29289C14.5976 4.68342 14.5976 5.31658 14.2071 5.70711L10.2071 9.70711C9.81658 10.0976 9.18342 10.0976 8.79289 9.70711L6.79289 7.70711C6.40237 7.31658 6.40237 6.68342 6.79289 6.29289C7.18342 5.90237 7.81658 5.90237 8.20711 6.29289L9.5 7.58579L12.7929 4.29289C13.1834 3.90237 13.8166 3.90237 14.2071 4.29289ZM10.2071 16.7071L14.2071 12.7071C14.5976 12.3166 14.5976 11.6834 14.2071 11.2929C13.8166 10.9024 13.1834 10.9024 12.7929 11.2929L9.5 14.5858L8.20711 13.2929C7.81658 12.9024 7.18342 12.9024 6.79289 13.2929C6.40237 13.6834 6.40237 14.3166 6.79289 14.7071L8.79289 16.7071C9.18342 17.0976 9.81658 17.0976 10.2071 16.7071Z" fill="black"/>
</svg>
