<svg width="24" height="24" viewBox="0 0 24 24" fill="none" xmlns="http://www.w3.org/2000/svg">
<g clip-path="url(#clip0_871_44613)">
<path d="M8.15198 8.36231H6.37641C6.35274 8.18001 6.3042 8.01548 6.23081 7.8687C6.15742 7.72192 6.06036 7.59644 5.93962 7.49228C5.81888 7.38811 5.67565 7.3088 5.50993 7.25435C5.34658 7.19753 5.16547 7.16912 4.96661 7.16912C4.61386 7.16912 4.30965 7.25553 4.05397 7.42836C3.80065 7.60118 3.60534 7.85094 3.46803 8.17765C3.33309 8.50435 3.26561 8.89971 3.26561 9.36373C3.26561 9.84668 3.33427 10.2515 3.47158 10.5782C3.61126 10.9026 3.80657 11.1476 4.05752 11.3133C4.31083 11.4767 4.61031 11.5583 4.95595 11.5583C5.15008 11.5583 5.32646 11.5335 5.48507 11.4838C5.64606 11.434 5.78692 11.3618 5.90766 11.2671C6.03077 11.1701 6.13138 11.0529 6.20951 10.9156C6.29 10.7759 6.34563 10.6185 6.37641 10.4433L8.15198 10.4539C8.1212 10.7759 8.02769 11.0931 7.87144 11.4056C7.71756 11.7181 7.50567 12.0034 7.23578 12.2615C6.9659 12.5171 6.63683 12.7207 6.24857 12.8723C5.86268 13.0238 5.41997 13.0995 4.92044 13.0995C4.2623 13.0995 3.67281 12.9551 3.15198 12.6663C2.63351 12.3751 2.22395 11.9513 1.92328 11.395C1.62262 10.8386 1.47229 10.1616 1.47229 9.36373C1.47229 8.56354 1.62499 7.88527 1.93039 7.32893C2.23578 6.77258 2.6489 6.35 3.16973 6.06117C3.69057 5.77234 4.27414 5.62793 4.92044 5.62793C5.36078 5.62793 5.76798 5.68948 6.14203 5.81259C6.51609 5.93333 6.84516 6.11089 7.12925 6.34526C7.41334 6.57727 7.64417 6.86254 7.82172 7.20108C7.99928 7.53963 8.10936 7.9267 8.15198 8.36231Z" fill="black"/>
<path fill-rule="evenodd" clip-rule="evenodd" d="M13.3086 0.0450681C11.6482 0.304861 10.2879 1.46486 9.8177 3.02179L9.70513 3.39447L9.65353 14.2759L9.23239 14.9091C8.54227 15.9466 8.30831 16.4364 8.13477 17.2073C7.82193 18.5968 8.0575 20.0041 8.80231 21.1952C10.4063 23.76 13.8339 24.7281 16.6681 23.4168C17.9038 22.8451 18.966 21.8026 19.5114 20.6265C19.8934 19.8024 20.0378 19.0507 19.9917 18.1249C19.9331 16.9492 19.6551 16.2212 18.7376 14.8422L18.3031 14.189L18.3028 8.83869C18.3024 3.65586 18.2993 3.47604 18.2024 3.09814C17.8759 1.82403 16.8301 0.71146 15.5281 0.253081C14.8755 0.0233053 13.9825 -0.0603689 13.3086 0.0450681ZM14.8411 1.89228C15.592 2.14213 16.2468 2.86119 16.3966 3.60042C16.4296 3.76299 16.4478 5.78683 16.4478 9.28684V14.7208L17.0585 15.6475C17.9497 16.9998 18.1159 17.424 18.1203 18.3564C18.1254 19.4274 17.7522 20.2962 16.9556 21.0681C16.1468 21.8517 15.1675 22.2334 13.9726 22.2306C13.2808 22.2291 12.7872 22.1201 12.1606 21.8307C11.3433 21.4532 10.6784 20.8228 10.2809 20.0485C9.96647 19.4362 9.9058 19.1619 9.9066 18.3564C9.90725 17.6841 9.91462 17.6331 10.0717 17.2073C10.2555 16.709 10.2781 16.6694 11.0399 15.5148L11.584 14.6901V9.1762C11.584 3.80848 11.5867 3.65431 11.6835 3.36084C12.0329 2.30296 13.119 1.65284 14.3168 1.78478C14.4822 1.80298 14.7182 1.85138 14.8411 1.89228ZM13.8404 3.18402C13.7439 3.19992 13.6172 3.23716 13.559 3.26676C13.4096 3.3426 13.145 3.63429 13.1127 3.75881C13.0977 3.81641 13.0917 6.42954 13.0994 9.56582L13.1134 15.2681L13.2584 15.4459C13.6546 15.9319 14.4195 15.902 14.7976 15.3858L14.9185 15.2208L14.9316 9.5502C14.9443 4.07376 14.9415 3.87269 14.8498 3.67884C14.6835 3.32707 14.2529 3.11601 13.8404 3.18402ZM12.0042 16.7236C11.4389 17.5403 11.2753 18.1717 11.4388 18.9052C11.6213 19.7235 12.3626 20.4756 13.2351 20.7278C13.7141 20.8662 14.3782 20.8591 14.8343 20.7108C16.1916 20.2692 16.9167 18.961 16.519 17.6709C16.4762 17.532 16.3043 17.204 16.1371 16.9421L15.8329 16.4658L15.552 16.6798C14.6181 17.3914 13.2628 17.3736 12.4104 16.6386L12.1928 16.451L12.0042 16.7236Z" fill="black"/>
<path d="M20 4H24M20 7H23M20 10H24M20 13H23" stroke="black" stroke-width="2"/>
<path d="M2 5C2 5.55228 1.55228 6 1 6C0.447715 6 0 5.55228 0 5C0 4.44772 0.447715 4 1 4C1.55228 4 2 4.44772 2 5Z" fill="#D9D9D9"/>
</g>
<defs>
<clipPath id="clip0_871_44613">
<rect width="24" height="24" fill="white"/>
</clipPath>
</defs>
</svg>
