<svg width="16" height="16" viewBox="0 0 16 16" fill="none" xmlns="http://www.w3.org/2000/svg">
<path fill-rule="evenodd" clip-rule="evenodd" d="M10.5 1H4.5H3.5C3.22386 1 3 1.22386 3 1.5C3 1.77614 3.22386 2 3.5 2H4V3H1.5C1.22386 3 1 3.22386 1 3.5V13.5C1 13.7761 1.22386 14 1.5 14H4V15H3.5C3.22386 15 3 15.2239 3 15.5C3 15.7761 3.22386 16 3.5 16H4.5H10.5H11.5C11.7761 16 12 15.7761 12 15.5C12 15.2239 11.7761 15 11.5 15H11V14H13.5C13.7761 14 14 13.7761 14 13.5V12H15V12.5C15 12.7761 15.2239 13 15.5 13C15.7761 13 16 12.7761 16 12.5V11.5V5.5V4.5C16 4.22386 15.7761 4 15.5 4C15.2239 4 15 4.22386 15 4.5V5H14V3.5C14 3.22386 13.7761 3 13.5 3H11V2H11.5C11.7761 2 12 1.77614 12 1.5C12 1.22386 11.7761 1 11.5 1H10.5ZM10 3.5V2H9V7H15V6H13.5C13.2239 6 13 5.77614 13 5.5V4H10.5C10.2239 4 10 3.77614 10 3.5ZM15 8H9V9H15V8ZM15 10H9V15H10V13.5C10 13.2239 10.2239 13 10.5 13H13V11.5C13 11.2239 13.2239 11 13.5 11H15V10ZM8 7V2H7V7H8ZM7 8H8V15H7V8ZM6 15H5V13.5C5 13.2239 4.77614 13 4.5 13C4.45684 13 4.41495 13.0055 4.375 13.0158C4.33505 13.0055 4.29316 13 4.25 13H2V4H4.5C4.77614 4 5 3.77614 5 3.5V2H6V15Z" fill="black"/>
</svg>
