<svg width="24" height="24" viewBox="0 0 24 24" fill="none" xmlns="http://www.w3.org/2000/svg">
<path fill-rule="evenodd" clip-rule="evenodd" d="M3 1C3 0.447715 3.44772 0 4 0H17C17.5523 0 18 0.447715 18 1C18 1.55228 17.5523 2 17 2H4C3.44772 2 3 1.55228 3 1Z" fill="black"/>
<path fill-rule="evenodd" clip-rule="evenodd" d="M23 20C22.4477 20 22 19.5523 22 19V5C22 4.44772 22.4477 4 23 4C23.5523 4 24 4.44772 24 5V19C24 19.5523 23.5523 20 23 20Z" fill="black"/>
<path fill-rule="evenodd" clip-rule="evenodd" d="M3 23C3 22.4477 3.44772 22 4 22H17C17.5523 22 18 22.4477 18 23C18 23.5523 17.5523 24 17 24H4C3.44772 24 3 23.5523 3 23Z" fill="black"/>
<path fill-rule="evenodd" clip-rule="evenodd" d="M5 0C5.55228 0 6 0.447715 6 1V3C6 4.10457 5.10457 5 4 5H2V19H4C5.10457 19 6 19.8954 6 21V23C6 23.5523 5.55228 24 5 24C4.44772 24 4 23.5523 4 23V21H2C0.895431 21 0 20.1046 0 19V5C0 3.89543 0.895431 3 2 3H4V1C4 0.447715 4.44772 0 5 0Z" fill="black"/>
<path fill-rule="evenodd" clip-rule="evenodd" d="M16 0C16.5523 0 17 0.447715 17 1V3H19C20.1046 3 21 3.89543 21 5H23C23.5523 5 24 5.44772 24 6C24 6.55228 23.5523 7 23 7H21C19.8954 7 19 6.10457 19 5H17C15.8954 5 15 4.10457 15 3V1C15 0.447715 15.4477 0 16 0Z" fill="black"/>
<path fill-rule="evenodd" clip-rule="evenodd" d="M16 24C16.5523 24 17 23.5523 17 23V21H19C20.1046 21 21 20.1046 21 19H23C23.5523 19 24 18.5523 24 18C24 17.4477 23.5523 17 23 17H21C19.8954 17 19 17.8954 19 19H17C15.8954 19 15 19.8954 15 21V23C15 23.5523 15.4477 24 16 24Z" fill="black"/>
<path fill-rule="evenodd" clip-rule="evenodd" d="M8 0C8.55228 0 9 0.447715 9 1V23C9 23.5523 8.55228 24 8 24C7.44772 24 7 23.5523 7 23V1C7 0.447715 7.44772 0 8 0Z" fill="black"/>
<path fill-rule="evenodd" clip-rule="evenodd" d="M12 0C12.5523 0 13 0.447715 13 1V23C13 23.5523 12.5523 24 12 24C11.4477 24 11 23.5523 11 23V1C11 0.447715 11.4477 0 12 0Z" fill="black"/>
<path fill-rule="evenodd" clip-rule="evenodd" d="M7 10C7 9.44772 7.44772 9 8 9H23C23.5523 9 24 9.44772 24 10C24 10.5523 23.5523 11 23 11H8C7.44772 11 7 10.5523 7 10Z" fill="black"/>
<path fill-rule="evenodd" clip-rule="evenodd" d="M11 14C11 13.4477 11.4477 13 12 13H23C23.5523 13 24 13.4477 24 14C24 14.5523 23.5523 15 23 15H12C11.4477 15 11 14.5523 11 14Z" fill="black"/>
</svg>
