<svg width="16" height="16" viewBox="0 0 16 16" fill="none" xmlns="http://www.w3.org/2000/svg">
<path d="M3.5 1.5H11.5" stroke="black" stroke-linecap="round" stroke-linejoin="round"/>
<path fill-rule="evenodd" clip-rule="evenodd" d="M4.5 1C4.77614 1 5 1.22386 5 1.5V3.5C5 3.77614 4.77614 4 4.5 4H2V13H4.5C4.77614 13 5 13.2239 5 13.5V15H6V1.5H7V7H8V1.5H9V7H15V6H13.5C13.2239 6 13 5.77614 13 5.5V4H10.5C10.2239 4 10 3.77614 10 3.5V1.5C10 1.22386 10.2239 1 10.5 1C10.7761 1 11 1.22386 11 1.5V3H13.5C13.7761 3 14 3.22386 14 3.5V5H15V4.5C15 4.22386 15.2239 4 15.5 4C15.7761 4 16 4.22386 16 4.5V5.5V11.5V12.5C16 12.7761 15.7761 13 15.5 13C15.2239 13 15 12.7761 15 12.5V12H14V13.5C14 13.7761 13.7761 14 13.5 14H11V15H11.5C11.7761 15 12 15.2239 12 15.5C12 15.7761 11.7761 16 11.5 16H10.5H4.5H3.5C3.22386 16 3 15.7761 3 15.5C3 15.2239 3.22386 15 3.5 15H4V14H1.5C1.22386 14 1 13.7761 1 13.5V3.5C1 3.22386 1.22386 3 1.5 3H4V1.5C4 1.22386 4.22386 1 4.5 1ZM15 8H9V9H15V8ZM15 10H9V15H10V13.5C10 13.2239 10.2239 13 10.5 13H13V11.5C13 11.2239 13.2239 11 13.5 11H15V10ZM8 8H7V15H8V8Z" fill="black"/>
</svg>
