<svg width="16" height="16" viewBox="0 0 16 16" fill="none" xmlns="http://www.w3.org/2000/svg">
<path fill-rule="evenodd" clip-rule="evenodd" d="M1.5 2C1.22386 2 1 2.22386 1 2.5V12.5C1 12.7761 1.22386 13 1.5 13H4V14H3.5C3.22386 14 3 14.2239 3 14.5C3 14.7761 3.22386 15 3.5 15H4.5H6.5H8.5H10.5H11.5C11.7761 15 12 14.7761 12 14.5C12 14.2239 11.7761 14 11.5 14H11V13H13.5C13.7761 13 14 12.7761 14 12.5V11H15V11.5C15 11.7761 15.2239 12 15.5 12C15.7761 12 16 11.7761 16 11.5V10.5V8.5V6.5V4.5V3.5C16 3.22386 15.7761 3 15.5 3C15.2239 3 15 3.22386 15 3.5V4H14V2.5C14 2.22386 13.7761 2 13.5 2H1.5ZM15 8V7H7.5C7.22386 7 7 7.22386 7 7.5V14H8V9.5C8 8.67157 8.67157 8 9.5 8H15ZM9 14V9.5C9 9.22386 9.22386 9 9.5 9H15V10H13.5C13.2239 10 13 10.2239 13 10.5V12H10.5C10.2239 12 10 12.2239 10 12.5V14H9ZM7.5 6H15V5H13.5C13.2239 5 13 4.77614 13 4.5V3H2V12H4.5C4.77614 12 5 12.2239 5 12.5V14H6V7.5C6 6.67157 6.67157 6 7.5 6Z" fill="black"/>
</svg>
