<svg width="16" height="16" viewBox="0 0 16 16" fill="none" xmlns="http://www.w3.org/2000/svg">
<path fill-rule="evenodd" clip-rule="evenodd" d="M1 8C1 4.03183 4.03194 1 8 1C11.9682 1 15 4.02774 15 8C15 10.4433 13.4457 12.3494 11.5 13.4957V11.5C11.5 11.2239 11.2761 11 11 11C10.7239 11 10.5 11.2239 10.5 11.5V14.3159C10.4998 14.3231 10.4998 14.3303 10.5 14.3375V14.5C10.5 14.7761 10.7239 15 11 15H14C14.2761 15 14.5 14.7761 14.5 14.5C14.5 14.2239 14.2761 14 14 14H12.5676C14.4659 12.6988 16 10.6536 16 8C16 3.47507 12.5201 0 8 0C3.47967 0 0 3.47953 0 8C0 12.531 3.7345 16 8 16C8.27614 16 8.5 15.7761 8.5 15.5C8.5 15.2239 8.27614 15 8 15C4.2655 15 1 11.9576 1 8ZM8 3.5C8.27614 3.5 8.5 3.72386 8.5 4V7.5H13.5C13.7761 7.5 14 7.72386 14 8C14 8.27614 13.7761 8.5 13.5 8.5H8C7.72386 8.5 7.5 8.27614 7.5 8V4C7.5 3.72386 7.72386 3.5 8 3.5Z" fill="gray"/>
</svg>
