<svg width="16" height="16" viewBox="0 0 16 16" fill="none" xmlns="http://www.w3.org/2000/svg">
<path fill-rule="evenodd" clip-rule="evenodd"
      d="M7.00245 14.9295C7.03864 14.4101 7.47143 14 8 14C8.52857 14 8.96136 14.4101 8.99755 14.9295C12.0652 14.4918 14.4918 12.0652 14.9295 8.99755C14.4101 8.96136 14 8.52857 14 8C14 7.47143 14.4101 7.03864 14.9295 7.00245C14.4918 3.93478 12.0652 1.50823 8.99755 1.07054C8.96136 1.58991 8.52857 2 8 2C7.47143 2 7.03864 1.58991 7.00245 1.07054C3.93478 1.50823 1.50823 3.93478 1.07054 7.00245C1.58991 7.03864 2 7.47143 2 8C2 8.52857 1.58991 8.96136 1.07054 8.99755C1.50823 12.0652 3.93478 14.4918 7.00245 14.9295ZM8 16C3.58172 16 0 12.4183 0 8C0 3.58172 3.58172 0 8 0C12.4183 0 16 3.58172 16 8C16 12.4183 12.4183 16 8 16ZM8.5 4C8.5 3.72386 8.27614 3.5 8 3.5C7.72386 3.5 7.5 3.72386 7.5 4V8C7.5 8.15738 7.5741 8.30557 7.7 8.4L11.7 11.4C11.9209 11.5657 12.2343 11.5209 12.4 11.3C12.5657 11.0791 12.5209 10.7657 12.3 10.6L8.5 7.75V4Z" fill="gray"/>
</svg>
