<svg width="24" height="24" viewBox="0 0 24 24" fill="none" xmlns="http://www.w3.org/2000/svg">
<g clip-path="url(#clip0_563_35983)">
<path d="M23.98 21.5661L16.756 1.96711C16.48 1.21511 15.928 0.615106 15.2 0.279106C14.473 -0.0588936 13.658 -0.0918936 12.906 0.185106L11.967 0.530106C11.684 0.634106 11.423 0.776106 11.189 0.953106C10.641 0.368106 9.863 0.00110644 9 0.00110644H3C1.346 0.000106436 0 1.34611 0 3.00011V24.0001H12V9.30511L17.408 23.9771L23.98 21.5671V21.5661ZM18.593 21.4121L17.628 18.7931L20.444 17.7601L21.409 20.3791L18.593 21.4121ZM16.936 16.9171L13.447 7.45111L16.263 6.41711L19.752 15.8831L16.936 16.9161V16.9171ZM12.093 2.92511C12.205 2.68311 12.405 2.49811 12.656 2.40611L13.595 2.06111C13.707 2.02011 13.824 1.99911 13.94 1.99911C14.083 1.99911 14.225 2.03011 14.359 2.09211C14.602 2.20411 14.786 2.40411 14.879 2.65611L15.573 4.54011L12.757 5.57411L12.062 3.68911C11.97 3.43811 11.981 3.16711 12.093 2.92411V2.92511ZM10 3.00011V5.00011H7V2.00011H9C9.551 2.00011 10 2.44811 10 3.00011ZM7 7.00011H10V17.0001H7V7.00011ZM5 17.0001H2V7.00011H5V17.0001ZM3 2.00011H5V5.00011H2V3.00011C2 2.44811 2.449 2.00011 3 2.00011ZM2 19.0001H5V22.0001H2V19.0001ZM7 22.0001V19.0001H10V22.0001H7Z" fill="black"/>
</g>
<defs>
<clipPath id="clip0_563_35983">
<rect width="24" height="24" fill="white"/>
</clipPath>
</defs>
</svg>
