<svg width="24" height="24" viewBox="0 0 24 24" fill="none" xmlns="http://www.w3.org/2000/svg">
<path fill-rule="evenodd" clip-rule="evenodd" d="M18 3H6C5.44772 3 5 3.44772 5 4V5.5V6C5 6.55228 5.44772 7 6 7H7.50046H18C18.5523 7 19 6.55228 19 6V4C19 3.44772 18.5523 3 18 3ZM4 6C4 7.10457 4.89543 8 6 8H6.68108C6.49626 8.38447 6.2645 8.90125 6.03276 9.50959C5.5226 10.8487 5 12.6637 5 14.5001C5 16.3332 5.52122 18.4352 6.64904 20.0937C7.78726 21.7676 9.55578 23.0001 12 23.0001C14.4442 23.0001 16.2127 21.7676 17.351 20.0937C18.4788 18.4352 19 16.3332 19 14.5001C19 12.6637 18.4774 10.8487 17.9672 9.50959C17.7355 8.90125 17.5037 8.38447 17.3189 8H18C19.1046 8 20 7.10457 20 6V4C20 2.89543 19.1046 2 18 2H6C5.25972 2 4.61337 2.4022 4.26756 3H2.5C2.22386 3 2 3.22386 2 3.5V5.5C2 5.77614 2.22386 6 2.5 6H4ZM4 5V4L3 4V5H4ZM16.3635 8.32158C16.3014 8.19479 16.2465 8.08687 16.2013 8H7.7987C7.75351 8.08687 7.69864 8.19479 7.63653 8.32158C7.45438 8.69348 7.21082 9.22621 6.96724 9.86558C6.4774 11.1514 6 12.8365 6 14.5001C6 16.167 6.47878 18.065 7.47596 19.5314C8.46274 20.9826 9.94422 22.0001 12 22.0001C14.0558 22.0001 15.5373 20.9826 16.524 19.5314C17.5212 18.065 18 16.167 18 14.5001C18 12.8365 17.5226 11.1514 17.0328 9.86558C16.7892 9.22621 16.5456 8.69348 16.3635 8.32158ZM15 14.5C15 15.8304 14.6064 16.9942 14.0197 17.8009C13.4323 18.6086 12.7058 19 12 19C11.2942 19 10.5677 18.6086 9.98031 17.8009C9.39361 16.9942 9 15.8304 9 14.5C9 13.1696 9.39361 12.0058 9.98031 11.1991C10.5677 10.3914 11.2942 10 12 10C12.7058 10 13.4323 10.3914 14.0197 11.1991C14.6064 12.0058 15 13.1696 15 14.5ZM16 14.5C16 17.5376 14.2091 20 12 20C9.79086 20 8 17.5376 8 14.5C8 11.4624 9.79086 9 12 9C14.2091 9 16 11.4624 16 14.5ZM13 5C13 5.55228 12.5523 6 12 6C11.4477 6 11 5.55228 11 5C11 4.44772 11.4477 4 12 4C12.5523 4 13 4.44772 13 5Z" fill="black"/>
</svg>
