<svg width="20" height="20" viewBox="0 0 20 20" fill="none" xmlns="http://www.w3.org/2000/svg">
<path d="M0 0H20V20H0V0Z" fill="none"/>
<path fill-rule="evenodd" clip-rule="evenodd" d="M10 2C6.45642 2 3.5 4.92676 3.5 8.5C3.5 9.80811 3.97107 11.264 4.85352 12.1464C5.04883 12.3417 5.04883 12.6583 4.85352 12.8536C4.65833 13.0488 4.34167 13.0488 4.14648 12.8536C3.02893 11.736 2.5 9.99762 2.5 8.5C2.5 4.37146 5.90723 1 10 1C14.0928 1 17.5 4.37146 17.5 8.5C17.5 9.9292 16.9727 11.7344 15.8535 12.8536C15.6583 13.0488 15.3417 13.0488 15.1465 12.8536C14.9512 12.6583 14.9512 12.3417 15.1465 12.1464C16.0273 11.2656 16.5 9.74561 16.5 8.5C16.5 4.92676 13.5436 2 10 2ZM11.5227 10.5854L14.9568 18.2966C15.0256 18.4512 15.0116 18.6302 14.9193 18.7723C14.8271 18.9143 14.6693 19 14.5 19H5.5C5.33069 19 5.17285 18.9143 5.08069 18.7723C4.9884 18.6302 4.97437 18.4512 5.04321 18.2966L8.47717 10.5853C7.59302 10.0635 7 9.10101 7 8C7 6.34314 8.34314 5 10 5C11.6569 5 13 6.34314 13 8C13 9.10101 12.4069 10.0635 11.5227 10.5854ZM10.5872 10.9426L13.73 18H6.27002L9.41284 10.9426C9.60278 10.9802 9.79907 11 10 11C10.2009 11 10.3972 10.9802 10.5872 10.9426ZM12 8C12 9.10455 11.1046 10 10 10C8.89539 10 8 9.10455 8 8C8 6.89545 8.89539 6 10 6C11.1046 6 12 6.89545 12 8Z" fill="black"/>
</svg>
