<svg width="24" height="24" viewBox="0 0 24 24" fill="none" xmlns="http://www.w3.org/2000/svg">
<path fill-rule="evenodd" clip-rule="evenodd" d="M0 1.09091C0 0.488417 0.475697 0 1.0625 0H10.3594C10.6482 0 10.9246 0.120733 11.1249 0.334398L16.703 6.28481C16.8936 6.48807 17 6.75921 17 7.04132V9.27273C17 9.87522 16.5243 10.3636 15.9375 10.3636C15.3507 10.3636 14.875 9.87522 14.875 9.27273V8.13223H10.3594C9.77257 8.13223 9.29688 7.64382 9.29688 7.04132V2.18182H2.125V21.8182H6.375C6.9618 21.8182 7.4375 22.3066 7.4375 22.9091C7.4375 23.5116 6.9618 24 6.375 24H1.0625C0.475697 24 0 23.5116 0 22.9091V1.09091ZM11.4219 3.79744L13.4401 5.95041H11.4219V3.79744Z" fill="black"/>
<path fill-rule="evenodd" clip-rule="evenodd" d="M17.94 12.2929C18.3305 11.9024 18.9637 11.9024 19.3542 12.2929L21.7071 14.6458C22.0976 15.0364 22.0976 15.6695 21.7071 16.06L14.6483 23.1189C14.5087 23.2585 14.3309 23.3536 14.1373 23.3923L11.1961 23.9806C10.8683 24.0462 10.5293 23.9435 10.2929 23.7071C10.0565 23.4707 9.95386 23.1317 10.0194 22.8039L10.6077 19.8627C10.6464 19.6691 10.7415 19.4913 10.8811 19.3517L17.94 12.2929ZM12.5095 20.5518L12.2748 21.7252L13.4482 21.4906L19.5858 15.3529L18.6471 14.4142L12.5095 20.5518Z" fill="black"/>
<path fill-rule="evenodd" clip-rule="evenodd" d="M3.6 14.1818C3.6 13.5793 4.02981 13.0909 4.56 13.0909H12.24C12.7702 13.0909 13.2 13.5793 13.2 14.1818C13.2 14.7843 12.7702 15.2727 12.24 15.2727H4.56C4.02981 15.2727 3.6 14.7843 3.6 14.1818Z" fill="black"/>
<path fill-rule="evenodd" clip-rule="evenodd" d="M3.6 18.5454C3.6 17.9429 3.8149 17.4545 4.08 17.4545H7.91999C8.1851 17.4545 8.39999 17.9429 8.39999 18.5454C8.39999 19.1479 8.1851 19.6363 7.91999 19.6363H4.08C3.8149 19.6363 3.6 19.1479 3.6 18.5454Z" fill="black"/>
<path fill-rule="evenodd" clip-rule="evenodd" d="M3.6001 9.5455C3.6001 8.94299 3.815 8.45459 4.0801 8.45459H7.92009C8.1852 8.45459 8.40009 8.94299 8.40009 9.5455C8.40009 10.148 8.1852 10.6364 7.92009 10.6364H4.0801C3.815 10.6364 3.6001 10.148 3.6001 9.5455Z" fill="black"/>
</svg>
