<svg width="24" height="24" viewBox="0 0 24 24" fill="none" xmlns="http://www.w3.org/2000/svg">
<rect width="24" height="24" fill="none"/>
<path fill-rule="evenodd" clip-rule="evenodd" d="M3 2C3.55228 2 4 2.44772 4 3V6.06611C5.40382 4.10311 7.91099 2 12.1764 2C17.6204 2 22 6.49591 22 12C22 17.5041 17.6204 22 12.1764 22C9.49296 22 7.06223 20.9036 5.2929 19.1344C4.90236 18.7439 4.90233 18.1107 5.29284 17.7202C5.68335 17.3297 6.31652 17.3296 6.70706 17.7202C8.12081 19.1338 10.0503 20 12.1764 20C16.4787 20 20 16.437 20 12C20 7.56296 16.4787 4 12.1764 4C8.17111 4 6.13721 6.23325 5.13298 8H9C9.55228 8 10 8.44772 10 9C10 9.55228 9.55228 10 9 10H3C2.44772 10 2 9.55228 2 9V3C2 2.44772 2.44772 2 3 2Z" fill="black"/>
</svg>
