<svg width="16" height="16" viewBox="0 0 16 16" fill="none" xmlns="http://www.w3.org/2000/svg">
<path fill-rule="evenodd" clip-rule="evenodd" d="M14.0002 1.33333C13.632 1.33333 13.3335 1.63181 13.3335 2V6C13.3335 6.36819 13.632 6.66667 14.0002 6.66667C14.3684 6.66667 14.6668 6.36819 14.6668 6V2C14.6668 1.63181 14.3684 1.33333 14.0002 1.33333Z" fill="black"/>
<path fill-rule="evenodd" clip-rule="evenodd" d="M14.6668 6C14.6668 5.63181 14.3684 5.33333 14.0002 5.33333H10.0002C9.63196 5.33333 9.3335 5.63181 9.3335 6C9.3335 6.36819 9.63196 6.66667 10.0002 6.66667H14.0002C14.3684 6.66667 14.6668 6.36819 14.6668 6Z" fill="black"/>
<path fill-rule="evenodd" clip-rule="evenodd" d="M7.88248 2.66667C10.7841 2.66667 12.1338 4.42483 12.7371 5.63147C12.9017 5.96079 13.3022 6.09428 13.6315 5.92962C13.9608 5.76496 14.0943 5.36451 13.9297 5.03519C13.1996 3.57517 11.4782 1.33333 7.88248 1.33333C4.25317 1.33333 1.3335 4.33061 1.3335 8C1.3335 8.3682 1.63197 8.66667 2.00015 8.66667C2.36834 8.66667 2.66681 8.3682 2.66681 8C2.66681 5.04197 5.01431 2.66667 7.88248 2.66667Z" fill="black"/>
<path fill-rule="evenodd" clip-rule="evenodd" d="M2.00016 14.6667C2.36835 14.6667 2.66683 14.3682 2.66683 14V10C2.66683 9.6318 2.36835 9.33333 2.00016 9.33333C1.63198 9.33333 1.3335 9.6318 1.3335 10V14C1.3335 14.3682 1.63198 14.6667 2.00016 14.6667Z" fill="black"/>
<path fill-rule="evenodd" clip-rule="evenodd" d="M1.3335 10C1.3335 10.3682 1.63198 10.6667 2.00016 10.6667H6.00016C6.36835 10.6667 6.66683 10.3682 6.66683 10C6.66683 9.6318 6.36835 9.33333 6.00016 9.33333H2.00016C1.63198 9.33333 1.3335 9.6318 1.3335 10Z" fill="black"/>
<path fill-rule="evenodd" clip-rule="evenodd" d="M8.11774 13.3333C5.21608 13.3333 3.86642 11.5752 3.2631 10.3685C3.09844 10.0392 2.69799 9.90573 2.36867 10.0704C2.03935 10.2351 1.90587 10.6355 2.07053 10.9648C2.80054 12.4248 4.52204 14.6667 8.11774 14.6667C11.7471 14.6667 14.6668 11.6694 14.6668 8C14.6668 7.6318 14.3683 7.33333 14.0001 7.33333C13.6319 7.33333 13.3335 7.6318 13.3335 8C13.3335 10.958 10.9859 13.3333 8.11774 13.3333Z" fill="black"/>
</svg>
