<svg width="24" height="24" viewBox="0 0 24 24" fill="none" xmlns="http://www.w3.org/2000/svg">
<path fill-rule="evenodd" clip-rule="evenodd" d="M21 2C20.4477 2 20 2.44772 20 3V9C20 9.55228 20.4477 10 21 10C21.5523 10 22 9.55228 22 9V3C22 2.44772 21.5523 2 21 2Z" fill="black"/>
<path fill-rule="evenodd" clip-rule="evenodd" d="M22 9C22 8.44772 21.5523 8 21 8H15C14.4477 8 14 8.44772 14 9C14 9.55228 14.4477 10 15 10H21C21.5523 10 22 9.55228 22 9Z" fill="black"/>
<path fill-rule="evenodd" clip-rule="evenodd" d="M11.8236 4C16.1761 4 18.2006 6.63725 19.1056 8.44721C19.3526 8.94119 19.9533 9.14142 20.4472 8.89443C20.9412 8.64744 21.1414 8.04676 20.8945 7.55279C19.7994 5.36275 17.2172 2 11.8236 2C6.37957 2 2 6.49591 2 12C2 12.5523 2.44772 13 3 13C3.55229 13 4 12.5523 4 12C4 7.56296 7.52129 4 11.8236 4Z" fill="black"/>
<path fill-rule="evenodd" clip-rule="evenodd" d="M3 22C3.55228 22 4 21.5523 4 21V15C4 14.4477 3.55228 14 3 14C2.44772 14 2 14.4477 2 15V21C2 21.5523 2.44772 22 3 22Z" fill="black"/>
<path fill-rule="evenodd" clip-rule="evenodd" d="M2 15C2 15.5523 2.44772 16 3 16H9C9.55228 16 10 15.5523 10 15C10 14.4477 9.55228 14 9 14H3C2.44772 14 2 14.4477 2 15Z" fill="black"/>
<path fill-rule="evenodd" clip-rule="evenodd" d="M12.1766 20C7.82411 20 5.79962 17.3628 4.89464 15.5528C4.64765 15.0588 4.04698 14.8586 3.553 15.1056C3.05902 15.3526 2.8588 15.9532 3.10579 16.4472C4.20081 18.6372 6.78306 22 12.1766 22C17.6206 22 22.0002 17.5041 22.0002 12C22.0002 11.4477 21.5525 11 21.0002 11C20.4479 11 20.0002 11.4477 20.0002 12C20.0002 16.437 16.4789 20 12.1766 20Z" fill="black"/>
</svg>
