<svg width="24" height="24" viewBox="0 0 24 24" fill="none" xmlns="http://www.w3.org/2000/svg">
<path fill-rule="evenodd" clip-rule="evenodd" d="M5.98149 5.00017C6.40504 4.99233 6.78758 5.25222 6.93633 5.64888L11.4363 17.6489C11.6302 18.166 11.3682 18.7424 10.8511 18.9363C10.334 19.1302 9.75759 18.8682 9.56367 18.3511L8.4945 15.5H3.88742L2.94868 18.3162C2.77403 18.8402 2.20771 19.1233 1.68377 18.9487C1.15983 18.774 0.876666 18.2077 1.05131 17.6838L5.05131 5.68377C5.18528 5.28189 5.55793 5.00801 5.98149 5.00017ZM4.55409 13.5H7.7445L6.05546 8.9959L4.55409 13.5Z" fill="black"/>
<path fill-rule="evenodd" clip-rule="evenodd" d="M17.4815 5.00017C17.905 4.99233 18.2876 5.25222 18.4363 5.64888L22.9363 17.6489C23.1302 18.166 22.8682 18.7424 22.3511 18.9363C21.834 19.1302 21.2576 18.8682 21.0637 18.3511L19.9945 15.5H15.3874L14.4487 18.3162C14.274 18.8402 13.7077 19.1233 13.1838 18.9487C12.6598 18.774 12.3767 18.2077 12.5513 17.6838L16.5513 5.68377C16.6853 5.28189 17.0579 5.00801 17.4815 5.00017ZM16.0541 13.5H19.2445L17.5555 8.9959L16.0541 13.5Z" fill="black"/>
</svg>
