<svg width="24" height="24" viewBox="0 0 24 24" fill="none" xmlns="http://www.w3.org/2000/svg">
<path d="M0 0H24V24H0V0Z" fill="none"/>
<path fill-rule="evenodd" clip-rule="evenodd" d="M7.11677 12.3875C7.28356 12.4426 7.55262 12.5 8 12.5C8.44738 12.5 8.71645 12.4426 8.88323 12.3875C9.04821 12.333 9.15419 12.269 9.31381 12.1711C9.32169 12.1663 9.33015 12.161 9.3392 12.1554C9.48844 12.063 9.79573 11.8728 10.2005 11.8291C10.642 11.7816 11.0518 11.9135 11.4368 12.1004C13.76 13.2286 14.893 15.2581 15.4427 16.9096C15.7191 17.7401 15.8575 18.5002 15.9273 19.053C15.9624 19.3305 15.9805 19.5586 15.9899 19.7208C15.9945 19.802 15.9971 19.867 15.9984 19.9136C15.9991 19.9369 15.9995 19.9557 15.9997 19.9696L15.9999 19.9869L16 19.9928L16 19.995L16 19.996C16 19.9964 16 19.9968 15 20L16 19.9968C16.0009 20.2626 15.8959 20.5177 15.7082 20.706C15.5206 20.8942 15.2658 21 15 21L1 21C0.734224 21 0.479382 20.8942 0.291754 20.706C0.104126 20.5177 -0.000851377 20.2625 5.20113e-06 19.9968L1 20C5.1856e-06 19.9968 6.57204e-06 19.9964 8.18136e-06 19.9959L1.23537e-05 19.995L2.48111e-05 19.9928L7.15411e-05 19.9869L0.00029339 19.9696C0.000513867 19.9556 0.000900403 19.9369 0.00157811 19.9136C0.00293316 19.867 0.00545473 19.802 0.0101495 19.7208C0.0195301 19.5586 0.0376405 19.3305 0.0726724 19.053C0.142472 18.5002 0.280859 17.74 0.557309 16.9096C1.10702 15.2581 2.23996 13.2286 4.56319 12.1004C4.94819 11.9135 5.35801 11.7816 5.79946 11.8291C6.20427 11.8728 6.51157 12.063 6.6608 12.1554C6.66985 12.161 6.67832 12.1663 6.68619 12.1711C6.84581 12.269 6.95179 12.333 7.11677 12.3875ZM1.99999 20.0039L1.99998 20.0054L1.99999 20.0045L1.99999 20.0039ZM2.10037 19C2.16667 18.5853 2.27586 18.0792 2.45494 17.5412C2.90931 16.1762 3.77637 14.7058 5.43681 13.8996C5.49855 13.8696 5.54476 13.8504 5.57763 13.8382C5.59479 13.8482 5.61564 13.8607 5.64066 13.876C5.64644 13.8796 5.65234 13.8832 5.65838 13.8869C5.82725 13.9906 6.09895 14.1575 6.48895 14.2864C6.89108 14.4194 7.37684 14.5 8 14.5C8.62316 14.5 9.10892 14.4194 9.51105 14.2864C9.90105 14.1575 10.1727 13.9906 10.3416 13.8869C10.3476 13.8832 10.3536 13.8796 10.3593 13.876C10.3844 13.8607 10.4052 13.8482 10.4224 13.8382C10.4552 13.8504 10.5015 13.8696 10.5632 13.8996C12.2236 14.7058 13.0907 16.1762 13.5451 17.5412C13.7241 18.0792 13.8333 18.5853 13.8996 19L2.10037 19Z" fill="black"/>
<path fill-rule="evenodd" clip-rule="evenodd" d="M8 9C9.10457 9 10 8.10457 10 7C10 5.89543 9.10457 5 8 5C6.89543 5 6 5.89543 6 7C6 8.10457 6.89543 9 8 9ZM8 11C10.2091 11 12 9.20914 12 7C12 4.79086 10.2091 3 8 3C5.79086 3 4 4.79086 4 7C4 9.20914 5.79086 11 8 11Z" fill="black"/>
<path fill-rule="evenodd" clip-rule="evenodd" d="M18.2929 4.29289C17.9024 4.68342 17.9024 5.31658 18.2929 5.70711L20.5858 8H14C13.4477 8 13 8.44772 13 9C13 9.55228 13.4477 10 14 10H20.5858L18.2929 12.2929C17.9024 12.6834 17.9024 13.3166 18.2929 13.7071C18.6834 14.0976 19.3166 14.0976 19.7071 13.7071L23.7071 9.70711C24.0976 9.31658 24.0976 8.68342 23.7071 8.29289L19.7071 4.29289C19.3166 3.90237 18.6834 3.90237 18.2929 4.29289Z" fill="black"/>
</svg>
