<?xml version="1.0" encoding="utf-8"?>
<!-- Generator: Adobe Illustrator 23.0.3, SVG Export Plug-In . SVG Version: 6.00 Build 0)  -->
<svg version="1.1" id="Capa_1" xmlns="http://www.w3.org/2000/svg" xmlns:xlink="http://www.w3.org/1999/xlink" x="0px" y="0px"
	 viewBox="0 0 32 32" style="enable-background:new 0 0 32 32;" xml:space="preserve">
<path d="M29.8,16c0-7.6-6.2-13.8-13.8-13.8S2.3,8.4,2.3,16c0,4,1.7,7.6,4.5,10.1l0,0l0.4,0.4c0,0,0.1,0,0.1,0.1
	C7.5,26.8,7.7,27,8,27.1c0.1,0.1,0.2,0.1,0.2,0.2c0.3,0.2,0.5,0.4,0.8,0.5c0.1,0,0.1,0.1,0.2,0.1c0.3,0.2,0.6,0.3,0.9,0.5
	c0,0,0,0,0.1,0c1,0.5,2.2,0.8,3.3,1.1c0,0,0.1,0,0.1,0c0.4,0.1,0.7,0.1,1.1,0.1c0,0,0.1,0,0.1,0c0.4,0,0.7,0.1,1.1,0.1
	c0.4,0,0.7,0,1.1,0c0,0,0.1,0,0.1,0c0.4,0,0.7-0.1,1.1-0.1c0,0,0.1,0,0.1,0c1.1-0.2,2.2-0.6,3.3-1c0,0,0.1,0,0.1-0.1
	c0.3-0.1,0.6-0.3,0.9-0.5c0.1,0,0.1-0.1,0.2-0.1c0.3-0.2,0.5-0.3,0.8-0.5c0.1-0.1,0.2-0.1,0.3-0.2c0.2-0.2,0.4-0.3,0.6-0.5
	c0,0,0.1-0.1,0.1-0.1l0.5-0.4l0,0C28,23.7,29.8,20,29.8,16z M3.3,16C3.3,9,9,3.3,16,3.3S28.8,9,28.8,16c0,3.8-1.7,7.2-4.3,9.5
	c-0.1-0.1-0.3-0.2-0.4-0.3l-4.2-2.1c-0.4-0.2-0.6-0.6-0.6-1v-1.5c0.1-0.1,0.2-0.3,0.3-0.4c0.5-0.8,1-1.6,1.3-2.6
	c0.6-0.3,1-0.9,1-1.6v-1.8c0-0.4-0.2-0.9-0.4-1.2v-2.3c0-0.3,0.1-1.7-0.9-2.9C19.5,6.8,18,6.3,16,6.3s-3.5,0.5-4.4,1.6
	c-1.1,1.2-1,2.7-0.9,2.9v2.3c-0.3,0.3-0.4,0.8-0.4,1.2v1.8c0,0.6,0.2,1.1,0.7,1.4c0.4,1.6,1.2,2.8,1.5,3.2v1.4c0,0.4-0.2,0.8-0.6,1
	l-4,2.2c-0.1,0.1-0.3,0.1-0.4,0.2C4.9,23.1,3.3,19.8,3.3,16z M23.5,26.3c-0.2,0.1-0.4,0.3-0.5,0.4c-0.1,0.1-0.2,0.1-0.3,0.2
	c-0.2,0.1-0.5,0.3-0.7,0.4c-0.1,0-0.1,0.1-0.2,0.1c-0.6,0.3-1.1,0.5-1.7,0.7c0,0,0,0-0.1,0c-0.3,0.1-0.6,0.2-1,0.3c0,0,0,0,0,0
	c-0.3,0.1-0.7,0.1-1,0.2c0,0,0,0,0,0c-0.3,0.1-0.6,0.1-0.9,0.1c-0.1,0-0.1,0-0.2,0c-0.3,0-0.6,0-0.9,0c-0.3,0-0.6,0-0.9,0
	c-0.1,0-0.1,0-0.2,0c-0.3,0-0.6-0.1-0.9-0.1c0,0,0,0,0,0c-0.7-0.1-1.3-0.3-1.9-0.5c0,0,0,0-0.1,0c-0.3-0.1-0.6-0.2-0.9-0.4
	c0,0,0,0,0,0c-0.3-0.1-0.6-0.3-0.9-0.4c0,0-0.1,0-0.1-0.1c-0.3-0.1-0.5-0.3-0.8-0.4c-0.1,0-0.1-0.1-0.2-0.1
	c-0.2-0.1-0.5-0.3-0.7-0.5c0,0,0,0-0.1-0.1c0,0,0,0,0,0l4-2.2c0.7-0.4,1.1-1.1,1.1-1.9l0-1.8l-0.1-0.1c0,0-1.1-1.3-1.5-3.1l0-0.2
	l-0.2-0.1c-0.2-0.2-0.4-0.4-0.4-0.7v-1.8c0-0.2,0.1-0.4,0.3-0.6l0.2-0.1v-2.8l0-0.1c0,0-0.1-1.2,0.7-2.2c0.7-0.8,2-1.2,3.7-1.2
	c1.7,0,2.9,0.4,3.7,1.2c0.8,1,0.7,2.2,0.7,2.2l0,2.9l0.2,0.1c0.2,0.2,0.3,0.4,0.3,0.6v1.8c0,0.4-0.2,0.7-0.6,0.8L20,16.9l-0.1,0.2
	c-0.3,0.9-0.7,1.8-1.2,2.5c-0.1,0.2-0.3,0.3-0.4,0.5l-0.1,0.1v1.8c0,0.8,0.4,1.5,1.2,1.9l4.2,2.1c0,0,0.1,0,0.1,0
	C23.6,26.2,23.5,26.3,23.5,26.3z"/>
</svg>
