<svg width="16" height="16" viewBox="0 0 16 16" fill="none" xmlns="http://www.w3.org/2000/svg">
<path fill-rule="evenodd" clip-rule="evenodd" d="M11 4C11 5.65685 9.65685 7 8 7C6.34315 7 5 5.65685 5 4C5 2.34315 6.34315 1 8 1C9.65685 1 11 2.34315 11 4ZM12 4C12 6.20914 10.2091 8 8 8C5.79086 8 4 6.20914 4 4C4 1.79086 5.79086 0 8 0C10.2091 0 12 1.79086 12 4ZM6.16976 8.7133L6.16975 8.7133L6.1695 8.71324C6.07945 8.69314 5.9896 8.67308 5.89969 8.65357C5.27464 8.5179 4.56305 8.38406 3.91163 8.66724C2.16077 9.42839 1.44051 10.9476 1.15585 12.2079C1.01314 12.8396 0.97512 13.4226 0.972229 13.8463C0.970779 14.0589 0.978166 14.2335 0.986108 14.3565C0.990082 14.4181 0.994204 14.467 0.997454 14.5014C0.999079 14.5187 1.00049 14.5323 1.00155 14.5421L1.00287 14.554L1.00331 14.5578L1.00358 14.5601C1.00361 14.5603 1.00358 14.5601 1.49996 14.5L1.00358 14.5601C1.03397 14.8112 1.24705 15 1.49996 15H14.5C14.7529 15 14.9661 14.8102 14.9965 14.5591L14.9966 14.5578L14.9971 14.554L14.9984 14.5421C14.9994 14.5323 15.0008 14.5186 15.0025 14.5014C15.0057 14.467 15.0098 14.4181 15.0138 14.3565C15.0217 14.2335 15.0291 14.0589 15.0277 13.8463C15.0248 13.4226 14.9867 12.8396 14.844 12.2078C14.5593 10.9476 13.8389 9.42838 12.0881 8.66724C11.4367 8.38406 10.7251 8.51791 10.1 8.65357C10.0101 8.67309 9.92024 8.69315 9.83017 8.71325L9.82997 8.7133C9.25025 8.84271 8.66233 8.97394 7.99986 8.97394C7.3374 8.97394 6.74948 8.84271 6.16976 8.7133ZM14.5 14.5L14.9965 14.5591C14.9964 14.5593 14.9963 14.5601 14.5 14.5ZM14.0271 14H1.97279C1.9721 13.954 1.97185 13.9049 1.97221 13.8531C1.97475 13.4797 2.00853 12.9716 2.13128 12.4282C2.37751 11.338 2.96277 10.1701 4.31031 9.58433C4.6261 9.44705 5.02631 9.48729 5.68758 9.63082C5.76876 9.64843 5.85299 9.66735 5.94013 9.68691L5.94025 9.68694C6.51603 9.81623 7.21838 9.97394 7.99986 9.97394C8.78135 9.97394 9.4837 9.81623 10.0595 9.68694L10.0596 9.68692C10.1467 9.66735 10.231 9.64843 10.3121 9.63082C10.9734 9.48729 11.3736 9.44706 11.6894 9.58433C13.037 10.1701 13.6223 11.3381 13.8686 12.4282C13.9913 12.9716 14.0251 13.4797 14.0277 13.8532C14.028 13.9049 14.0278 13.954 14.0271 14Z" fill="black"/>
</svg>
