<svg width="24" height="24" viewBox="0 0 24 24" fill="none" xmlns="http://www.w3.org/2000/svg">
<path d="M0 0H24V24H0V0Z" fill="none"/>
<path fill-rule="evenodd" clip-rule="evenodd" d="M12 11C14.2091 11 16 9.20914 16 7C16 4.79086 14.2091 3 12 3C9.79086 3 8 4.79086 8 7C8 9.20914 9.79086 11 12 11ZM12 13C15.3137 13 18 10.3137 18 7C18 3.68629 15.3137 1 12 1C8.68629 1 6 3.68629 6 7C6 10.3137 8.68629 13 12 13Z" fill="black"/>
<path fill-rule="evenodd" clip-rule="evenodd" d="M9.75395 14.1393C10.5011 14.3252 11.2039 14.5 12 14.5C12.7961 14.5 13.4989 14.3252 14.246 14.1393C14.3631 14.1101 14.4812 14.0808 14.601 14.0517C15.3879 13.8609 16.4493 13.6209 17.4368 14.1005C19.76 15.2286 20.893 17.2582 21.4427 18.9096C21.7191 19.7401 21.8575 20.5002 21.9273 21.053C21.9624 21.3305 21.9805 21.5586 21.9899 21.7209C21.9945 21.802 21.9971 21.867 21.9984 21.9136C21.9991 21.9369 21.9995 21.9557 21.9997 21.9696L21.9999 21.9869L22 21.9928L22 21.995L22 21.996C22 21.9964 22 21.9968 21 22L22 21.9968C22.0009 22.2626 21.8959 22.5177 21.7082 22.706C21.5206 22.8942 21.2658 23 21 23L3 23C2.73422 23 2.47938 22.8942 2.29175 22.706C2.10413 22.5177 1.99915 22.2626 2.00001 21.9968L3 22C2.00001 21.9968 2.00001 21.9964 2.00001 21.996L2.00001 21.995L2.00002 21.9928L2.00007 21.9869L2.00029 21.9696C2.00051 21.9557 2.0009 21.9369 2.00158 21.9136C2.00293 21.867 2.00545 21.802 2.01015 21.7208C2.01953 21.5586 2.03764 21.3305 2.07267 21.053C2.14247 20.5002 2.28086 19.7401 2.55731 18.9096C3.10702 17.2582 4.23996 15.2286 6.56319 14.1005C7.55072 13.6209 8.61207 13.8609 9.39904 14.0517C9.51878 14.0808 9.63691 14.1101 9.75395 14.1393ZM3.99999 22.0039L3.99998 22.0054L3.99999 22.0045L3.99999 22.0039ZM4.10037 21C4.16667 20.5854 4.27586 20.0792 4.45494 19.5412C4.90931 18.1763 5.77637 16.7058 7.43681 15.8996C7.69282 15.7753 8.06093 15.7853 8.92781 15.9954C9.02806 16.0197 9.13362 16.0463 9.24409 16.074C9.98175 16.2595 10.9387 16.5 12 16.5C13.0613 16.5 14.0182 16.2595 14.7559 16.074C14.8664 16.0463 14.9719 16.0197 15.0722 15.9954C15.9391 15.7853 16.3072 15.7753 16.5632 15.8996C18.2236 16.7058 19.0907 18.1763 19.5451 19.5412C19.7241 20.0792 19.8333 20.5854 19.8996 21L4.10037 21Z" fill="black"/>
</svg>
