<svg width="24" height="24" viewBox="0 0 24 24" fill="none" xmlns="http://www.w3.org/2000/svg">
<path fill-rule="evenodd" clip-rule="evenodd" d="M12.8782 2.08565L12.6842 3.06664L12.4901 4.04763C12.3332 4.01659 12.1695 4 12 4C11.8305 4 11.6668 4.01659 11.5099 4.04763L11.3158 3.06664L11.1218 2.08565C10.5314 2.20245 9.98254 2.43472 9.49973 2.75796L10.056 3.58892L10.6124 4.41989C10.3389 4.60299 10.103 4.83888 9.91989 5.11237L9.08892 4.55605L8.25796 3.99973C7.93472 4.48254 7.70245 5.03139 7.58565 5.62177L8.56664 5.81584L9.54763 6.00991C9.51659 6.16681 9.5 6.33048 9.5 6.5C9.5 6.66952 9.51659 6.83319 9.54763 6.99009L8.56664 7.18416L7.58565 7.37823C7.70245 7.96861 7.93472 8.51746 8.25796 9.00027L9.08892 8.44395L9.91989 7.88763C10.103 8.16112 10.3389 8.39701 10.6124 8.58011L10.056 9.41108L9.49973 10.242C9.49448 10.2385 9.48924 10.235 9.48401 10.2315C9.97061 10.5602 10.525 10.7963 11.1218 10.9143L11.3158 9.93336L11.5099 8.95237C11.6668 8.98341 11.8305 9 12 9C12.1695 9 12.3332 8.98341 12.4901 8.95237L12.6842 9.93336L12.8782 10.9143C13.4686 10.7976 14.0175 10.5653 14.5003 10.242L13.944 9.41108L13.3876 8.58011C13.6611 8.39701 13.897 8.16112 14.0801 7.88763L14.9111 8.44395L15.742 9.00027C16.0653 8.51746 16.2976 7.96861 16.4143 7.37823L15.4334 7.18416L14.4524 6.99009C14.4834 6.83319 14.5 6.66952 14.5 6.5C14.5 6.33048 14.4834 6.16681 14.4524 6.00991L15.4334 5.81584L16.4143 5.62177C16.2976 5.03139 16.0653 4.48254 15.742 3.99973L14.9111 4.55605L14.0801 5.11237C13.897 4.83888 13.6611 4.60299 13.3876 4.41989L13.944 3.58892L14.5003 2.75796C14.0175 2.43472 13.4686 2.20245 12.8782 2.08565ZM12 0C8.41015 0 5.5 2.91015 5.5 6.5C5.5 9.00772 6.92011 11.1838 9 12.2678V16H6C6 14.8954 5.10457 14 4 14H2C0.895431 14 0 14.8954 0 16V22C0 23.1046 0.895431 24 2 24H4C5.10457 24 6 23.1046 6 22H18C18 23.1046 18.8954 24 20 24H22C23.1046 24 24 23.1046 24 22V16C24 14.8954 23.1046 14 22 14H20C18.8954 14 18 14.8954 18 16H15V12.2678C17.0799 11.1838 18.5 9.00772 18.5 6.5C18.5 2.91015 15.5899 0 12 0ZM13 12.9236C12.674 12.9739 12.3401 13 12 13C11.6599 13 11.326 12.9739 11 12.9236V16C11 17.1046 10.1046 18 9 18H6V20L18 20V18H15C13.8954 18 13 17.1046 13 16V12.9236ZM20 22V17V16H22V22H20ZM2 16H4V22H2V16ZM13 6.5C13 7.05228 12.5523 7.5 12 7.5C11.4477 7.5 11 7.05228 11 6.5C11 5.94772 11.4477 5.5 12 5.5C12.5523 5.5 13 5.94772 13 6.5Z" fill="black"/>
</svg>
