<svg width="16" height="16" viewBox="0 0 16 16" fill="none" xmlns="http://www.w3.org/2000/svg">
<path fill-rule="evenodd" clip-rule="evenodd" d="M9.97143 4.20616L10.9524 4.01209C10.8875 3.68411 10.7585 3.37919 10.5789 3.11096L9.74794 3.66728C9.63814 3.50327 9.49673 3.36186 9.33272 3.25205L9.88904 2.42109C9.62081 2.24151 9.31589 2.11247 8.98791 2.04759L8.79384 3.02857C8.69961 3.00993 8.60146 3 8.5 3C8.39854 3 8.30039 3.00993 8.20616 3.02857L8.01209 2.04759C7.68411 2.11247 7.37919 2.24151 7.11096 2.42109L7.66728 3.25205C7.50327 3.36186 7.36186 3.50327 7.25205 3.66728L6.42109 3.11096C6.24151 3.37919 6.11247 3.68411 6.04759 4.01209L7.02857 4.20616C7.00993 4.30039 7 4.39854 7 4.5C7 4.60146 7.00993 4.69961 7.02857 4.79384L6.04759 4.98791C6.11247 5.31589 6.24151 5.62081 6.42109 5.88904L7.25206 5.33272C7.36186 5.49673 7.50327 5.63814 7.66728 5.74794L7.11096 6.57891C7.37919 6.75849 7.68411 6.88753 8.01209 6.95241L8.20616 5.97143C8.30039 5.99007 8.39854 6 8.5 6C8.60146 6 8.69961 5.99007 8.79384 5.97143L8.98791 6.95241C9.31946 6.88682 9.62744 6.75568 9.89777 6.57304L9.88904 6.57891L9.33272 5.74794C9.49673 5.63814 9.63814 5.49673 9.74794 5.33272L10.5789 5.88904C10.7585 5.62081 10.8875 5.31589 10.9524 4.98791L9.97143 4.79384C9.99007 4.69961 10 4.60146 10 4.5C10 4.39854 9.99007 4.30039 9.97143 4.20616ZM9 7.96456C8.8367 7.98791 8.66976 8 8.5 8C8.33024 8 8.1633 7.98791 8 7.96456V11.5C8 11.7761 7.77614 12 7.5 12H4V13H13V12H9.5C9.22386 12 9 11.7761 9 11.5V7.96456ZM10 7.66318C11.1825 7.10145 12 5.8962 12 4.5C12 2.567 10.433 1 8.5 1C6.567 1 5 2.567 5 4.5C5 5.8962 5.81753 7.10145 7 7.66318V11H4V10.5C4 10.2239 3.77614 10 3.5 10H1.5C1.22386 10 1 10.2239 1 10.5V14.5C1 14.7761 1.22386 15 1.5 15H3.5C3.77614 15 4 14.7761 4 14.5V14H13V14.5C13 14.7761 13.2239 15 13.5 15H15.5C15.7761 15 16 14.7761 16 14.5V10.5C16 10.2239 15.7761 10 15.5 10H13.5C13.2239 10 13 10.2239 13 10.5V11H10V7.66318ZM14 13.5V11.5V11H15V14H14V13.5ZM3 11.5V13.5V14H2V11H3V11.5ZM8.5 5C8.77614 5 9 4.77614 9 4.5C9 4.22386 8.77614 4 8.5 4C8.22386 4 8 4.22386 8 4.5C8 4.77614 8.22386 5 8.5 5Z" fill="#010101"/>
</svg>
