<svg width="24" height="24" viewBox="0 0 24 24" fill="none" xmlns="http://www.w3.org/2000/svg">
<path fill-rule="evenodd" clip-rule="evenodd" d="M16 17.2857C16.7101 17.2857 17.2857 16.7101 17.2857 16C17.2857 15.2899 16.7101 14.7143 16 14.7143C15.2899 14.7143 14.7143 15.2899 14.7143 16C14.7143 16.7101 15.2899 17.2857 16 17.2857ZM16 19C17.6569 19 19 17.6569 19 16C19 14.3431 17.6569 13 16 13C14.3431 13 13 14.3431 13 16C13 17.6569 14.3431 19 16 19Z" fill="black"/>
<circle cx="17" cy="17" r="6" stroke="black" stroke-width="2"/>
<circle cx="17" cy="17" r="6" stroke="black" stroke-width="2"/>
<path d="M18 18L19.5 19.5" stroke="black" stroke-width="2" stroke-linecap="round"/>
<path fill-rule="evenodd" clip-rule="evenodd" d="M12.6842 3.06664L12.8782 2.08565C13.4686 2.20245 14.0175 2.43472 14.5003 2.75796L13.944 3.58892L13.3876 4.41989C13.6611 4.60299 13.897 4.83888 14.0801 5.11237L14.9111 4.55605L15.742 3.99973C16.0653 4.48254 16.2976 5.03139 16.4143 5.62177L15.4334 5.81584L14.4524 6.00991C14.4834 6.16681 14.5 6.33048 14.5 6.5C14.5 6.66952 14.4834 6.83319 14.4524 6.99009L15.4334 7.18416L16.4143 7.37823C16.2976 7.96861 16.0653 8.51746 15.742 9.00027L14.9111 8.44395L14.0801 7.88763C13.897 8.16112 13.6611 8.39701 13.3876 8.58011L13.944 9.41108L14.0458 9.56316C14.9597 9.19977 15.9565 9 17 9C17.3307 9 17.6567 9.02007 17.9769 9.05905C18.3136 8.27368 18.5 7.40861 18.5 6.5C18.5 2.91015 15.5899 0 12 0C8.41015 0 5.5 2.91015 5.5 6.5C5.5 9.00772 6.92011 11.1838 9 12.2678V16H6C6 14.8954 5.10457 14 4 14H2C0.895431 14 0 14.8954 0 16V22C0 23.1046 0.895431 24 2 24H4C5.10457 24 6 23.1046 6 22H10.7546C10.2724 21.3984 9.87526 20.7257 9.58152 20L6 20V18H9C9.02067 18 9.04126 17.9997 9.06178 17.9991C9.02101 17.6718 9 17.3383 9 17C9 14.1466 10.4938 11.6422 12.7421 10.226L12.6842 9.93336L12.4901 8.95237C12.3332 8.98341 12.1695 9 12 9C11.8305 9 11.6668 8.98341 11.5099 8.95237L11.3158 9.93336L11.1218 10.9143C10.5314 10.7976 9.98254 10.5653 9.49973 10.242L10.056 9.41108L10.6124 8.58011C10.3389 8.39701 10.103 8.16112 9.91989 7.88763L9.08892 8.44395L8.25796 9.00027C7.93472 8.51746 7.70245 7.96861 7.58565 7.37823L8.56664 7.18416L9.54763 6.99009C9.51659 6.83319 9.5 6.66952 9.5 6.5C9.5 6.33048 9.51659 6.16681 9.54763 6.00991L8.56664 5.81584L7.58565 5.62177C7.70245 5.03139 7.93472 4.48254 8.25796 3.99973L9.08892 4.55605L9.91989 5.11237C10.103 4.83888 10.3389 4.60299 10.6124 4.41989L10.056 3.58892L9.49973 2.75796C9.98254 2.43472 10.5314 2.20245 11.1218 2.08565L11.3158 3.06664L11.5099 4.04763C11.6668 4.01659 11.8305 4 12 4C12.1695 4 12.3332 4.01659 12.4901 4.04763L12.6842 3.06664ZM20.876 24H22C23.1046 24 24 23.1046 24 22V20.876C23.2724 22.1872 22.1872 23.2724 20.876 24ZM4 16H2V22H4V16ZM12 7.5C12.5523 7.5 13 7.05228 13 6.5C13 5.94772 12.5523 5.5 12 5.5C11.4477 5.5 11 5.94772 11 6.5C11 7.05228 11.4477 7.5 12 7.5Z" fill="black"/>
</svg>
