<svg width="20" height="20" viewBox="0 0 20 20" fill="none" xmlns="http://www.w3.org/2000/svg">
<path d="M0 0H20V20H0V0Z" fill="none"/>
<g clip-path="url(#clip0)">
<path d="M10 15C12.235 15 12.0066 14.8129 11.9913 13C11.9883 12.646 11.9793 12.433 11.9913 12.226C12.1563 12.2725 12.5455 12.4697 13.3495 13.2512C14.5908 14.5037 15.0423 15 16.045 15H18C18.5 15 19.0497 14.55 19 14C18.9901 13.8902 18.9318 13.726 18.9318 13.726C18.52 12.433 16.1185 10.2002 15.9693 9.96475C15.9918 9.92125 16.0278 9.8635 16.0465 9.8335H16.045C16.519 9.20725 18.328 6.49675 18.5943 5.41225C18.5943 5.41225 18.5958 5.4085 18.5958 5.40625C18.7398 4.91125 18.6078 4.59025 18.4713 4.40875C18.2658 4.13725 17.9388 4 17.497 4H15.6513C15.0333 4 14.5645 4.31125 14.3275 4.879C13.9308 5.88775 12.8163 7.96225 11.9808 8.6965C11.9553 7.65625 11.9725 6.862 11.986 6.27175C12.013 5.1205 12.1 4 10.9053 4H8.00425C7.25575 4 6.5395 4.8175 7.315 5.788C7.993 6.6385 7.55875 7.1125 7.705 9.472C7.135 8.86075 6.121 7.21 5.404 5.10025C5.203 4.5295 4.8985 4.00075 4.04125 4.00075H2.1955C1.447 4.00075 1 4.40875 1 5.092C1 6.6265 4.288 15 10 15ZM4 5C4.16275 5 4.2205 5.12575 4.34125 5.4685C5.0755 7.63075 6.7225 10.8302 7.9255 10.8302C8.82925 10.8302 8.82925 9.904 8.82925 9.55525L8.8285 6.77875C8.779 5.86 8.224 5.2775 8.00425 5H11C11 5.06341 10.9775 8.259 11 9C11 10.0522 11.6988 10.5955 13.003 9.2755C14.3793 7.72225 15.331 5.40025 15.3693 5.30575C15.4255 5.17075 15.4743 5 15.6513 5H17.5045V5.125C17.5038 5.12725 17.5038 5.1295 17.503 5.13175C17.3343 5.91925 15.6685 8.42875 15.1113 9.208C15.1023 9.22 15.094 9.23275 15.0858 9.2455C14.8405 9.646 14.641 10.0885 15.1195 10.711C15.163 10.7635 15.277 10.8865 15.442 11.0575C15.955 11.587 17.6005 13.2818 17.7565 14.0018C17.653 14.0183 17.713 14.0425 15.9693 14.0462C15.598 14.0462 15.2493 13.5707 14.1415 12.4532C13.1455 11.4842 12.499 11.0882 11.9103 11.0882C10.7673 11.0882 10.9895 11.878 11 13C11.0038 14.2165 10.9917 13.9235 11 14C10.9332 14.0262 10.4988 14 10 14C5.24125 14 2.11925 6.44375 2 5C2.04125 4.99625 2.6995 5.00075 4 5Z" fill="black"/>
</g>
<defs>
<clipPath id="clip0">
<rect x="1" y="1" width="18" height="18" fill="white"/>
</clipPath>
</defs>
</svg>
