<svg width="24" height="24" viewBox="0 0 24 24" fill="none" xmlns="http://www.w3.org/2000/svg">
<path fill-rule="evenodd" clip-rule="evenodd" d="M4 2C4 1.44772 4.44772 1 5 1H23C23.5523 1 24 1.44772 24 2V18C24 18.5523 23.5523 19 23 19H20V22C20 22.5523 19.5523 23 19 23H1C0.447715 23 0 22.5523 0 22V7C0 6.44772 0.447715 6 1 6H4V2ZM5 19H18V21H2V13H4V18C4 18.2652 4.10536 18.5196 4.29289 18.7071C4.48043 18.8946 4.73478 19 5 19ZM2 11H4V8H2V11ZM22 7H6V3H22V7ZM6 17V9H22V17H6ZM20 6C20.5523 6 21 5.55228 21 5C21 4.44772 20.5523 4 20 4C19.4477 4 19 4.44772 19 5C19 5.55228 19.4477 6 20 6ZM18 5C18 5.55228 17.5523 6 17 6C16.4477 6 16 5.55228 16 5C16 4.44772 16.4477 4 17 4C17.5523 4 18 4.44772 18 5ZM14 6C14.5523 6 15 5.55228 15 5C15 4.44772 14.5523 4 14 4C13.4477 4 13 4.44772 13 5C13 5.55228 13.4477 6 14 6ZM7 11C7 10.4477 7.44772 10 8 10H18C18.5523 10 19 10.4477 19 11C19 11.5523 18.5523 12 18 12H8C7.44772 12 7 11.5523 7 11ZM8 13C7.44772 13 7 13.4477 7 14C7 14.5523 7.44772 15 8 15H18C18.5523 15 19 14.5523 19 14C19 13.4477 18.5523 13 18 13H8Z" fill="black"/>
</svg>
