<svg width="24" height="24" viewBox="0 0 24 24" fill="none" xmlns="http://www.w3.org/2000/svg">
<path fill-rule="evenodd" clip-rule="evenodd" d="M0 1C0 0.447715 0.447715 0 1 0H14C14.5523 0 15 0.447715 15 1V6H19C19.5523 6 20 6.44772 20 7V12H23C23.5523 12 24 12.4477 24 13V23C24 23.5523 23.5523 24 23 24H10C9.44771 24 9 23.5523 9 23V18H6C5.44772 18 5 17.5523 5 17V12H1C0.447715 12 0 11.5523 0 11V1ZM7 11V16H9V13C9 12.4477 9.44771 12 10 12H18V11H7ZM19 14H11V15H22V14H19ZM5 10H2V5H13V6H6C5.44772 6 5 6.44772 5 7V10ZM11 17V22H22V17H11ZM14 8H7V9H18V8H14ZM2 3H13V2H2V3Z" fill="black"/>
</svg>
