<svg width="20" height="20" viewBox="0 0 20 20" fill="none" xmlns="http://www.w3.org/2000/svg">
<path d="M0 0H20V20H0V0Z" fill="none"/>
<path fill-rule="evenodd" clip-rule="evenodd" d="M1.5 2C1.22386 2 1 2.22386 1 2.5V14C0.447715 14 0 14.4477 0 15V16C0 16.5523 0.447715 17 1 17H19C19.5523 17 20 16.5523 20 16V15C20 14.4477 19.5523 14 19 14V2.5C19 2.22386 18.7761 2 18.5 2H1.5ZM18 14V3H2V14H18ZM1.5 15H1V16H19V15H18.5H1.5ZM3 5C3 4.44772 3.44772 4 4 4H7C7.55228 4 8 4.44772 8 5V8C8 8.55228 7.55228 9 7 9H4C3.44772 9 3 8.55228 3 8V5ZM4 5V8H7V5H4ZM13 8C12.4477 8 12 8.44772 12 9V12C12 12.5523 12.4477 13 13 13H16C16.5523 13 17 12.5523 17 12V9C17 8.44772 16.5523 8 16 8H13ZM8.5 5.5C8.5 5.22386 8.72386 5 9 5H14.5C14.7761 5 15 5.22386 15 5.5V6.5C15 6.77614 14.7761 7 14.5 7C14.2239 7 14 6.77614 14 6.5V6H9C8.72386 6 8.5 5.77614 8.5 5.5ZM11 12C11.2761 12 11.5 11.7761 11.5 11.5C11.5 11.2239 11.2761 11 11 11H6V10.5C6 10.2239 5.77614 10 5.5 10C5.22386 10 5 10.2239 5 10.5V11.5C5 11.7761 5.22386 12 5.5 12H11ZM13 12V9H16V12H13Z" fill="black"/>
</svg>
