<svg width="25" height="24" viewBox="0 0 25 24" fill="none" xmlns="http://www.w3.org/2000/svg">
<path fill-rule="evenodd" clip-rule="evenodd" d="M20.1568 17.416C21.4761 16.7466 22.8839 16.8739 23.6138 17.879C24.377 18.9302 23.9536 20.2961 22.8306 21.1507L19.3211 23.8217C19.1693 23.9373 18.9842 24 18.7943 24H10.8973C10.8085 24 10.7203 23.9863 10.6356 23.9595L3.61595 21.7334C3.15341 21.5867 3.85533 21.4694 3.99989 21C4.14444 20.5306 3.67688 19.887 4.13942 20.0336L11.0312 22.2192H18.5018L21.7777 19.7261C22.0927 19.4863 22.1983 19.2722 22.228 19.1527C22.2559 19.0406 22.2302 18.9757 22.201 18.9354C22.1631 18.8832 21.816 18.5651 20.9416 19.0088L18.3096 20.3442C18.1878 20.4061 18.0531 20.4384 17.9169 20.4384H10.8973C10.4127 20.4384 10.0198 20.0398 10.0198 19.548C10.0198 19.0563 10.4127 18.6576 10.8973 18.6576H17.7097L20.1568 17.416Z" fill="black"/>
<path fill-rule="evenodd" clip-rule="evenodd" d="M4 14.8571C4 14.3838 4.38376 14 4.85714 14H9.14286C9.27592 14 9.40716 14.031 9.52618 14.0905L12.7738 15.7143H16.8571C17.5183 15.7143 18.0772 15.9707 18.4621 16.4038C18.8329 16.821 19 17.3531 19 17.8571C19 18.3612 18.8329 18.8933 18.4621 19.3105C18.0772 19.7435 17.5183 20 16.8571 20C16.3838 20 16 19.6162 16 19.1429C16 19 16 19 16 19C16.196 19 16.7862 18.6155 17.1808 18.1716C17.2385 18.1067 17.2857 17.9959 17.2857 17.8571C17.2857 17.7183 17.2385 17.6076 17.1808 17.5427C17.1371 17.4935 17.0531 17.4286 16.8571 17.4286H12.5719C12.4388 17.4286 12.3071 17.3976 12.1881 17.3381L8.94051 15.7143H4.85714C4.38376 15.7143 4 15.3305 4 14.8571Z" fill="black"/>
<path fill-rule="evenodd" clip-rule="evenodd" d="M13.0909 3.7619C13.0909 3.34112 13.4165 3 13.8182 3H15.6364C16.3512 3 16.953 3.25424 17.3779 3.69935C17.7959 4.13729 18 4.7163 18 5.28571C18 5.85513 17.7959 6.43414 17.3779 6.87208C16.953 7.31719 16.3512 7.57143 15.6364 7.57143H14.5455V7.95238H15.6364C16.038 7.95238 16.3636 8.2935 16.3636 8.71429C16.3636 9.13507 16.038 9.47619 15.6364 9.47619H14.5455V10.2381C14.5455 10.6589 14.2198 11 13.8182 11C13.4165 11 13.0909 10.6589 13.0909 10.2381V9.47619H12.7273C12.3256 9.47619 12 9.13507 12 8.71429C12 8.2935 12.3256 7.95238 12.7273 7.95238H13.0909V7.57143H12.7273C12.3256 7.57143 12 7.23031 12 6.80952C12 6.38874 12.3256 6.04762 12.7273 6.04762H13.0909V3.7619ZM14.5455 6.04762H15.6364C16.0124 6.04762 16.2288 5.92091 16.3494 5.79459C16.4768 5.6611 16.5455 5.4782 16.5455 5.28571C16.5455 5.09323 16.4768 4.91033 16.3494 4.77684C16.2288 4.65052 16.0124 4.52381 15.6364 4.52381H14.5455V6.04762Z" fill="black"/>
<path fill-rule="evenodd" clip-rule="evenodd" d="M15 12.4444C18.0069 12.4444 20.4444 10.0069 20.4444 7C20.4444 3.99312 18.0069 1.55556 15 1.55556C11.9931 1.55556 9.55556 3.99312 9.55556 7C9.55556 10.0069 11.9931 12.4444 15 12.4444ZM15 14C18.866 14 22 10.866 22 7C22 3.13401 18.866 0 15 0C11.134 0 8 3.13401 8 7C8 10.866 11.134 14 15 14Z" fill="black"/>
<path fill-rule="evenodd" clip-rule="evenodd" d="M0.25 14C0.25 13.5858 0.585786 13.25 1 13.25H4C4.41421 13.25 4.75 13.5858 4.75 14V22C4.75 22.4142 4.41421 22.75 4 22.75H1C0.585786 22.75 0.25 22.4142 0.25 22V14ZM1.75 14.75V21.25H3.25V14.75H1.75Z" fill="black"/>
</svg>
