<svg width="24" height="24" viewBox="0 0 24 24" fill="none" xmlns="http://www.w3.org/2000/svg">
<path fill-rule="evenodd" clip-rule="evenodd" d="M6 9C6 8.44772 6.26863 8 6.6 8H11.4C11.7314 8 12 8.44772 12 9C12 9.55228 11.7314 10 11.4 10H6.6C6.26863 10 6 9.55228 6 9Z" fill="black"/>
<path fill-rule="evenodd" clip-rule="evenodd" d="M6 5C6 4.44772 6.44772 4 7 4H9C9.55228 4 10 4.44772 10 5C10 5.55228 9.55228 6 9 6H7C6.44772 6 6 5.55228 6 5Z" fill="black"/>
<path fill-rule="evenodd" clip-rule="evenodd" d="M6 13C6 12.4477 6.44772 12 7 12H9C9.55228 12 10 12.4477 10 13C10 13.5523 9.55228 14 9 14H7C6.44772 14 6 13.5523 6 13Z" fill="black"/>
<path fill-rule="evenodd" clip-rule="evenodd" d="M3 1C3 0.44772 3.44772 0 4 0H12.75C13.0218 0 13.282 0.11067 13.4705 0.30653L18.7205 5.76108C18.8998 5.9474 19 6.19594 19 6.45455V8.5C19 9.0523 18.5523 9.5 18 9.5C17.4477 9.5 17 9.0523 17 8.5V7.45455H12.75C12.1977 7.45455 11.75 7.00683 11.75 6.45455V2H5V20H9C9.5523 20 10 20.4477 10 21C10 21.5523 9.5523 22 9 22H4C3.44772 22 3 21.5523 3 21V1ZM13.75 3.48099L15.6495 5.45455H13.75V3.48099Z" fill="black"/>
<path fill-rule="evenodd" clip-rule="evenodd" d="M20.5735 14.1808C21.0259 14.4975 21.1359 15.121 20.8192 15.5735L17.9032 19.7393C17.2616 20.6558 15.9931 20.8678 15.0883 20.2098L16.2647 18.5924L19.1808 14.4265C19.4975 13.9741 20.121 13.8641 20.5735 14.1808ZM13.1913 17.5936C13.5161 17.147 14.1415 17.0482 14.5882 17.3731L16.2647 18.5924L15.0883 20.2098L13.4118 18.9906C12.9652 18.6657 12.8664 18.0403 13.1913 17.5936Z" fill="black"/>
<path fill-rule="evenodd" clip-rule="evenodd" d="M17 12C14.2386 12 12 14.2386 12 17C12 19.7614 14.2386 22 17 22C19.7614 22 22 19.7614 22 17C22 14.2386 19.7614 12 17 12ZM10 17C10 13.134 13.134 10 17 10C20.866 10 24 13.134 24 17C24 20.866 20.866 24 17 24C13.134 24 10 20.866 10 17Z" fill="black"/>
</svg>
