<svg width="24" height="24" viewBox="0 0 24 24" fill="none" xmlns="http://www.w3.org/2000/svg">
<path fill-rule="evenodd" clip-rule="evenodd" d="M20.1569 17.416C21.4762 16.7466 22.884 16.8739 23.6139 17.879C24.3771 18.9302 23.9537 20.2961 22.8307 21.1507L19.3213 23.8217C19.1694 23.9373 18.9843 24 18.7944 24H10.8974C10.8086 24 10.7204 23.9863 10.6357 23.9595L3.61607 21.7334C3.15353 21.5867 3.85545 21.4694 4 21C4.14455 20.5306 3.67699 19.887 4.13953 20.0336L11.0313 22.2192H18.5019L21.7778 19.7261C22.0928 19.4863 22.1984 19.2722 22.2281 19.1527C22.256 19.0406 22.2303 18.9757 22.2011 18.9354C22.1632 18.8832 21.8161 18.5651 20.9418 19.0088L18.3097 20.3442C18.1879 20.4061 18.0532 20.4384 17.917 20.4384L10.8974 20.4384C10.4128 20.4384 10.0199 20.0398 10.0199 19.548C10.0199 19.0563 10.4128 18.6576 10.8974 18.6576H17.7099L20.1569 17.416Z" fill="black"/>
<path fill-rule="evenodd" clip-rule="evenodd" d="M4 14.8571C4 14.3838 4.38376 14 4.85714 14H9.14286C9.27592 14 9.40716 14.031 9.52618 14.0905L12.7738 15.7143H16.8571C17.5183 15.7143 18.0772 15.9707 18.4621 16.4038C18.8329 16.821 19 17.3531 19 17.8571C19 18.3612 18.8329 18.8933 18.4621 19.3105C18.0772 19.7435 17.5183 20 16.8571 20C16.3838 20 16 19.6162 16 19.1429C16 19 16 19 16 19C16.196 19 16.7862 18.6155 17.1808 18.1716C17.2385 18.1067 17.2857 17.9959 17.2857 17.8571C17.2857 17.7183 17.2385 17.6076 17.1808 17.5427C17.1371 17.4935 17.0531 17.4286 16.8571 17.4286H12.5719C12.4388 17.4286 12.3071 17.3976 12.1881 17.3381L8.94051 15.7143H4.85714C4.38376 15.7143 4 15.3305 4 14.8571Z" fill="black"/>
<path d="M4 14V22H1V14H4Z" stroke="black" stroke-width="1.5" stroke-linecap="round" stroke-linejoin="round"/>
<circle cx="16" cy="7" r="6" stroke="black" stroke-width="2"/>
<path fill-rule="evenodd" clip-rule="evenodd" d="M14.0909 3.7619C14.0909 3.34112 14.4165 3 14.8182 3H16.6364C17.3512 3 17.953 3.25424 18.3779 3.69935C18.7959 4.13729 19 4.7163 19 5.28571C19 5.85513 18.7959 6.43414 18.3779 6.87208C17.953 7.31719 17.3512 7.57143 16.6364 7.57143H15.5455V7.95238H16.6364C17.038 7.95238 17.3636 8.2935 17.3636 8.71429C17.3636 9.13507 17.038 9.47619 16.6364 9.47619H15.5455V10.2381C15.5455 10.6589 15.2198 11 14.8182 11C14.4165 11 14.0909 10.6589 14.0909 10.2381V9.47619H13.7273C13.3256 9.47619 13 9.13507 13 8.71429C13 8.2935 13.3256 7.95238 13.7273 7.95238H14.0909V7.57143H13.7273C13.3256 7.57143 13 7.23031 13 6.80952C13 6.38874 13.3256 6.04762 13.7273 6.04762H14.0909V3.7619ZM15.5455 6.04762H16.6364C17.0124 6.04762 17.2288 5.92091 17.3494 5.79459C17.4768 5.6611 17.5455 5.4782 17.5455 5.28571C17.5455 5.09323 17.4768 4.91033 17.3494 4.77684C17.2288 4.65052 17.0124 4.52381 16.6364 4.52381H15.5455V6.04762Z" fill="black"/>
</svg>
