<svg width="24" height="24" viewBox="0 0 24 24" fill="none" xmlns="http://www.w3.org/2000/svg">
<path fill-rule="evenodd" clip-rule="evenodd" d="M18 8H22.5C23.0523 8 23.5 8.44772 23.5 9C23.5 9.55228 23.0523 10 22.5 10H20V12.5C20 13.0523 19.5523 13.5 19 13.5C18.4477 13.5 18 13.0523 18 12.5V8Z" fill="black"/>
<path fill-rule="evenodd" clip-rule="evenodd" d="M18.2386 8.35172C18.5966 7.93121 19.2278 7.88056 19.6483 8.2386C22.5253 10.6882 23.4727 13.4806 22.7552 15.9193C22.0528 18.3064 19.8491 20.0027 17.1773 20.4841C16.6338 20.5821 16.1138 20.2209 16.0159 19.6774C15.9179 19.1338 16.2791 18.6138 16.8226 18.5159C18.9197 18.138 20.3927 16.8633 20.8365 15.3548C21.2652 13.8979 20.8283 11.87 18.3517 9.7614C17.9312 9.40336 17.8806 8.77223 18.2386 8.35172Z" fill="black"/>
<path fill-rule="evenodd" clip-rule="evenodd" d="M6.5 14.5H2C1.44772 14.5 1 14.0523 1 13.5C1 12.9477 1.44772 12.5 2 12.5H4.5V10C4.5 9.44772 4.94772 9 5.5 9C6.05228 9 6.5 9.44772 6.5 10V14.5Z" fill="black"/>
<path fill-rule="evenodd" clip-rule="evenodd" d="M6.27595 14.1308C5.92757 14.5593 5.29775 14.6243 4.8692 14.2759C2.06481 11.9961 0.881757 9.32884 1.27766 6.91331C1.67495 4.48932 3.60698 2.67285 6.26424 2.02819C6.80095 1.89798 7.3416 2.22752 7.47181 2.76424C7.60202 3.30095 7.27248 3.8416 6.73576 3.97181C4.6895 4.46824 3.49261 5.76463 3.25133 7.23679C3.00865 8.71741 3.67736 10.7296 6.1308 12.7241C6.55934 13.0724 6.62433 13.7023 6.27595 14.1308Z" fill="black"/>
<path fill-rule="evenodd" clip-rule="evenodd" d="M14 4.5C14 3.67157 13.3284 3 12.5 3C11.6716 3 11 3.67157 11 4.5V15.3368C10.4473 15.5994 9.97437 16.0025 9.62735 16.5C9.23191 15.9331 9 15.2436 9 14.5V4.5C9 2.567 10.567 1 12.5 1C14.433 1 16 2.567 16 4.5V14.5C16 15.2436 15.7681 15.9331 15.3727 16.5C15.0256 16.0025 14.5527 15.5994 14 15.3368V4.5Z" fill="black"/>
<path fill-rule="evenodd" clip-rule="evenodd" d="M11 13.207C8.6915 13.86 7 15.9824 7 18.5C7 21.5376 9.46243 24 12.5 24C15.5376 24 18 21.5376 18 18.5C18 15.9824 16.3085 13.86 14 13.207V15.3368C15.1825 15.8986 16 17.1038 16 18.5C16 20.433 14.433 22 12.5 22C10.567 22 9 20.433 9 18.5C9 17.1038 9.81753 15.8986 11 15.3368V13.207Z" fill="black"/>
</svg>
