<svg width="24" height="24" viewBox="0 0 24 24" fill="none" xmlns="http://www.w3.org/2000/svg">
<g clip-path="url(#clip0_1172_50117)">
<path fill-rule="evenodd" clip-rule="evenodd" d="M9 0.5C9.26522 0.5 9.51957 0.605357 9.70711 0.792893L12 3.08578L14.2926 0.793151C14.6832 0.402627 15.3166 0.402369 15.7071 0.792893L23.7071 8.79289C24.0976 9.18342 24.0976 9.81658 23.7071 10.2071L20.8244 13.0898C21.0801 13.5342 21.2185 14.0065 21.2339 14.4834C21.2587 15.252 20.9593 15.9549 20.4571 16.4571C20.0093 16.9049 19.4019 17.1914 18.7307 17.2307C18.6914 17.9019 18.4049 18.5093 17.9571 18.9571C17.5093 19.4049 16.9019 19.6914 16.2307 19.7307C16.1914 20.4019 15.9049 21.0093 15.4571 21.4571C14.9549 21.9593 14.252 22.2586 13.4834 22.2339C13.146 22.223 12.8108 22.1505 12.4862 22.0185C12.0293 22.6152 11.3096 23 10.5 23C9.11929 23 8 21.8807 8 20.5C8 20.3061 8.02207 20.1174 8.06385 19.9362C7.88264 19.9779 7.6939 20 7.5 20C6.11929 20 5 18.8807 5 17.5C5 17.3061 5.02207 17.1174 5.06385 16.9362C4.88264 16.9779 4.6939 17 4.5 17C3.11929 17 2 15.8807 2 14.5C2 13.7878 2.29779 13.1452 2.77564 12.6899L0.292893 10.2071C-0.0976311 9.81658 -0.0976311 9.18342 0.292893 8.79289L8.29289 0.792893C8.48043 0.605357 8.73478 0.5 9 0.5ZM12.9505 20.0025C13.1941 20.1789 13.4014 20.2302 13.5479 20.2349C13.748 20.2414 13.9201 20.1657 14.0429 20.0429C14.1657 19.9201 14.2414 19.748 14.2349 19.5479C14.2287 19.355 14.1418 19.0566 13.7944 18.7086C13.7939 18.7081 13.7934 18.7076 13.7929 18.7071L15.2071 17.2929C15.5557 17.6415 15.8548 17.7287 16.0479 17.7349C16.248 17.7414 16.4201 17.6657 16.5429 17.5429C16.6657 17.4201 16.7414 17.248 16.7349 17.0479C16.7287 16.8547 16.6415 16.5557 16.2929 16.2071L17.7071 14.7929C18.0557 15.1415 18.3548 15.2287 18.5479 15.2349C18.748 15.2414 18.9201 15.1657 19.0429 15.0429C19.1657 14.9201 19.2414 14.748 19.2349 14.5479C19.2287 14.3553 19.142 14.0575 18.796 13.7102L18.7929 13.7071L14 8.91421L11.2071 11.7071C10.6127 12.3015 9.87242 12.5267 9.15519 12.447C8.47032 12.3709 7.86222 12.0264 7.41789 11.5821C6.97356 11.1378 6.62909 10.5297 6.55299 9.84481C6.4733 9.12757 6.69845 8.38733 7.29289 7.79289L10.5858 4.5L9 2.91421L2.41421 9.5L4.95564 12.0414C6.11879 12.2556 7 13.2749 7 14.5C7 14.6939 6.97793 14.8826 6.93615 15.0638C7.11736 15.0221 7.3061 15 7.5 15C8.88071 15 10 16.1193 10 17.5C10 17.6939 9.97793 17.8826 9.93616 18.0638C10.1174 18.0221 10.3061 18 10.5 18C11.7103 18 12.7198 18.8601 12.9505 20.0025ZM13.2929 6.79289C13.6834 6.40237 14.3166 6.40237 14.7071 6.79289L19.5 11.5858L21.5858 9.5L15 2.91421L8.7071 9.20711C8.55154 9.36267 8.5267 9.49743 8.54076 9.62394C8.55841 9.78282 8.65144 9.98723 8.8321 10.1679C9.01277 10.3486 9.21718 10.4416 9.37605 10.4592C9.50257 10.4733 9.63733 10.4485 9.79289 10.2929L13.2929 6.79289ZM4.5 15C4.77614 15 5 14.7761 5 14.5C5 14.2239 4.77614 14 4.5 14C4.22386 14 4 14.2239 4 14.5C4 14.7761 4.22386 15 4.5 15ZM7.5 18C7.77614 18 8 17.7761 8 17.5C8 17.2239 7.77614 17 7.5 17C7.22386 17 7 17.2239 7 17.5C7 17.7761 7.22386 18 7.5 18ZM11 20.5C11 20.7761 10.7761 21 10.5 21C10.2239 21 10 20.7761 10 20.5C10 20.2239 10.2239 20 10.5 20C10.7761 20 11 20.2239 11 20.5Z" fill="black"/>
</g>
<defs>
<clipPath id="clip0_1172_50117">
<rect width="24" height="24" fill="white"/>
</clipPath>
</defs>
</svg>
