<svg width="24" height="24" viewBox="0 0 24 24" fill="none" xmlns="http://www.w3.org/2000/svg">
<path fill-rule="evenodd" clip-rule="evenodd" d="M3 2C1.89543 2 1 2.89543 1 4V17C1 17.0875 1.00561 17.1736 1.0165 17.2581C0.409612 17.6015 0 18.2529 0 19V20C0 21.1046 0.89543 22 2 22H22C23.1046 22 24 21.1046 24 20V19C24 18.2529 23.5904 17.6015 22.9835 17.2581C22.9944 17.1736 23 17.0875 23 17V4C23 2.89543 22.1046 2 21 2H3ZM21 17V4H3V17H21ZM3 19H2V20H22V19H21H3ZM4 7C4 5.89543 4.89543 5 6 5H8C9.10457 5 10 5.89543 10 7V9C10 10.1046 9.10457 11 8 11H6C4.89543 11 4 10.1046 4 9V7ZM8 7H6V9H8V7ZM16 10C14.8954 10 14 10.8954 14 12V14C14 15.1046 14.8954 16 16 16H18C19.1046 16 20 15.1046 20 14V12C20 10.8954 19.1046 10 18 10H16ZM11 6C11 5.44772 11.4477 5 12 5H18C18.5523 5 19 5.44772 19 6V8C19 8.55228 18.5523 9 18 9C17.4477 9 17 8.55228 17 8V7H12C11.4477 7 11 6.55228 11 6ZM12 16C12.5523 16 13 15.5523 13 15C13 14.4477 12.5523 14 12 14H6.99999V13C6.99999 12.4477 6.55227 12 5.99999 12C5.4477 12 4.99998 12.4477 4.99998 13V15C4.99998 15.5523 5.4477 16 5.99999 16H12ZM18 12V14H16V12H18Z" fill="black"/>
</svg>
