<svg width="24" height="24" viewBox="0 0 24 24" fill="none" xmlns="http://www.w3.org/2000/svg">
<path fill-rule="evenodd" clip-rule="evenodd" d="M0 2C0 0.895431 0.89543 0 2 0H22C23.1046 0 24 0.89543 24 2V22C24 23.1046 23.1046 24 22 24H2C0.895431 24 0 23.1046 0 22V2ZM22 2L2 2V22H22V2Z" fill="black"/>
<path fill-rule="evenodd" clip-rule="evenodd" d="M1 19C1 18.4477 1.44772 18 2 18H22C22.5523 18 23 18.4477 23 19C23 19.5523 22.5523 20 22 20H2C1.44772 20 1 19.5523 1 19Z" fill="black"/>
<path fill-rule="evenodd" clip-rule="evenodd" d="M16 9C17.1046 9 18 8.10457 18 7C18 5.89543 17.1046 5 16 5C14.8954 5 14 5.89543 14 7C14 8.10457 14.8954 9 16 9ZM16 11C18.2091 11 20 9.20914 20 7C20 4.79086 18.2091 3 16 3C13.7909 3 12 4.79086 12 7C12 9.20914 13.7909 11 16 11Z" fill="black"/>
<path fill-rule="evenodd" clip-rule="evenodd" d="M14 9C14.5523 9 15 9.44772 15 10V14C15 15.1046 14.1046 16 13 16H2C1.44772 16 1 15.5523 1 15C1 14.4477 1.44772 14 2 14H13V10C13 9.44772 13.4477 9 14 9Z" fill="black"/>
<path fill-rule="evenodd" clip-rule="evenodd" d="M18 9.5C18.5523 9.5 19 9.94772 19 10.5V14H23C23.5523 14 24 14.4477 24 15C24 15.5523 23.5523 16 23 16H19C17.8954 16 17 15.1046 17 14V10.5C17 9.94772 17.4477 9.5 18 9.5Z" fill="black"/>
<path fill-rule="evenodd" clip-rule="evenodd" d="M5 0C5.55228 0 6 0.447715 6 1V16H4V1C4 0.447715 4.44772 0 5 0ZM4 18V23C4 23.5523 4.44772 24 5 24C5.55228 24 6 23.5523 6 23V18H4Z" fill="black"/>
<path fill-rule="evenodd" clip-rule="evenodd" d="M9 0C9.55228 0 10 0.447715 10 1V16H8V1C8 0.447715 8.44772 0 9 0ZM8 18V23C8 23.5523 8.44772 24 9 24C9.55228 24 10 23.5523 10 23V18H8Z" fill="black"/>
<path d="M13 9H14V10H13V9Z" fill="black"/>
<path d="M18 9H19V11H18V9Z" fill="black"/>
</svg>
