<svg width="24" height="24" viewBox="0 0 24 24" fill="none" xmlns="http://www.w3.org/2000/svg">
<path d="M2 4V22C2 22.5523 2.44772 23 3 23H21C21.5523 23 22 22.5523 22 22V4C22 3.44772 21.5523 3 21 3H3C2.44772 3 2 3.44772 2 4Z" stroke="black" stroke-width="2" stroke-linecap="round"/>
<path d="M5 6.5C5 6.22386 5.22386 6 5.5 6H6.5C6.77614 6 7 6.22386 7 6.5V7.5C7 7.77614 6.77614 8 6.5 8H5.5C5.22386 8 5 7.77614 5 7.5V6.5Z" fill="black"/>
<path d="M5 10.5C5 10.2239 5.22386 10 5.5 10H6.5C6.77614 10 7 10.2239 7 10.5V11.5C7 11.7761 6.77614 12 6.5 12H5.5C5.22386 12 5 11.7761 5 11.5V10.5Z" fill="black"/>
<path d="M5 14.5C5 14.2239 5.22386 14 5.5 14H6.5C6.77614 14 7 14.2239 7 14.5V15.5C7 15.7761 6.77614 16 6.5 16H5.5C5.22386 16 5 15.7761 5 15.5V14.5Z" fill="black"/>
<path d="M5 18.5C5 18.2239 5.22386 18 5.5 18H6.5C6.77614 18 7 18.2239 7 18.5V19.5C7 19.7761 6.77614 20 6.5 20H5.5C5.22386 20 5 19.7761 5 19.5V18.5Z" fill="black"/>
<path d="M9 6.5C9 6.22386 9.22386 6 9.5 6H10.5C10.7761 6 11 6.22386 11 6.5V7.5C11 7.77614 10.7761 8 10.5 8H9.5C9.22386 8 9 7.77614 9 7.5V6.5Z" fill="black"/>
<path d="M9 10.5C9 10.2239 9.22386 10 9.5 10H10.5C10.7761 10 11 10.2239 11 10.5V11.5C11 11.7761 10.7761 12 10.5 12H9.5C9.22386 12 9 11.7761 9 11.5V10.5Z" fill="black"/>
<path d="M9 14.5C9 14.2239 9.22386 14 9.5 14H10.5C10.7761 14 11 14.2239 11 14.5V15.5C11 15.7761 10.7761 16 10.5 16H9.5C9.22386 16 9 15.7761 9 15.5V14.5Z" fill="black"/>
<path d="M13 6.5C13 6.22386 13.2239 6 13.5 6H14.5C14.7761 6 15 6.22386 15 6.5V7.5C15 7.77614 14.7761 8 14.5 8H13.5C13.2239 8 13 7.77614 13 7.5V6.5Z" fill="black"/>
<path d="M13 10.5C13 10.2239 13.2239 10 13.5 10H14.5C14.7761 10 15 10.2239 15 10.5V11.5C15 11.7761 14.7761 12 14.5 12H13.5C13.2239 12 13 11.7761 13 11.5V10.5Z" fill="black"/>
<path d="M13 14.5C13 14.2239 13.2239 14 13.5 14H14.5C14.7761 14 15 14.2239 15 14.5V15.5C15 15.7761 14.7761 16 14.5 16H13.5C13.2239 16 13 15.7761 13 15.5V14.5Z" fill="black"/>
<path d="M17 6.5C17 6.22386 17.2239 6 17.5 6H18.5C18.7761 6 19 6.22386 19 6.5V7.5C19 7.77614 18.7761 8 18.5 8H17.5C17.2239 8 17 7.77614 17 7.5V6.5Z" fill="black"/>
<path d="M17 10.5C17 10.2239 17.2239 10 17.5 10H18.5C18.7761 10 19 10.2239 19 10.5V11.5C19 11.7761 18.7761 12 18.5 12H17.5C17.2239 12 17 11.7761 17 11.5V10.5Z" fill="black"/>
<path d="M17 14.5C17 14.2239 17.2239 14 17.5 14H18.5C18.7761 14 19 14.2239 19 14.5V15.5C19 15.7761 18.7761 16 18.5 16H17.5C17.2239 16 17 15.7761 17 15.5V14.5Z" fill="black"/>
<path d="M17 18.5C17 18.2239 17.2239 18 17.5 18H18.5C18.7761 18 19 18.2239 19 18.5V19.5C19 19.7761 18.7761 20 18.5 20H17.5C17.2239 20 17 19.7761 17 19.5V18.5Z" fill="black"/>
<path fill-rule="evenodd" clip-rule="evenodd" d="M11 20V22H13V20H11ZM10 18C9.44772 18 9 18.4477 9 19V23C9 23.5523 9.44772 24 10 24H14C14.5523 24 15 23.5523 15 23V19C15 18.4477 14.5523 18 14 18H10Z" fill="black"/>
</svg>
